<?xml version="1.0" encoding="UTF-8"?><svg id="_レイヤー_2" xmlns="http://www.w3.org/2000/svg" viewBox="0 0 140 60"><defs><style>.cls-1{fill:#f7b62d;}.cls-1,.cls-2,.cls-3{stroke-width:0px;}.cls-2{fill:none;}.cls-3{fill:#888;}</style></defs><g id="_背景2"><rect class="cls-2" width="140" height="60"/></g><g id="_レイヤー_1-2"><path class="cls-3" d="M66.92,23.08l-1.84,1.82c-1.16-1.23-2.52-1.85-4.07-1.85-1.35,0-2.48.45-3.39,1.34-.91.89-1.37,1.98-1.37,3.26s.47,2.44,1.42,3.36c.95.92,2.11,1.38,3.5,1.38.9,0,1.66-.19,2.28-.57s1.12-.97,1.5-1.78h-3.97v-2.45h6.9l.02.58c0,1.2-.31,2.34-.93,3.41-.62,1.07-1.43,1.89-2.41,2.46-.99.57-2.15.85-3.48.85-1.42,0-2.69-.31-3.81-.93-1.12-.62-2-1.5-2.65-2.64-.65-1.14-.97-2.38-.97-3.7,0-1.81.6-3.39,1.8-4.73,1.42-1.6,3.27-2.4,5.55-2.4,1.19,0,2.31.22,3.35.66.88.37,1.73,1.01,2.57,1.92Z"/><path class="cls-3" d="M76.2,20.85h2.65l5.27,13.71h-2.71l-1.07-2.82h-5.59l-1.12,2.82h-2.71l5.29-13.71ZM77.54,24.48l-1.84,4.71h3.67l-1.83-4.71Z"/><path class="cls-3" d="M88.27,20.85h6.8v2.54h-4.21v2.49h4.21v2.51h-4.21v6.17h-2.59v-13.71Z"/><path class="cls-3" d="M101.21,20.85h2.59v13.71h-2.59v-13.71Z"/><path class="cls-3" d="M109.4,20.85h7.58v2.57h-2.5v11.14h-2.65v-11.14h-2.43v-2.57Z"/><path class="cls-3" d="M55.06,37.88h2.04v.4h-1.63v1.27h1.63v.4h-1.63v2h-.41v-4.06Z"/><path class="cls-3" d="M58.48,38.01c0,.18-.15.32-.32.32s-.32-.15-.32-.32.15-.32.32-.32.32.14.32.32ZM57.97,38.94h.38v3h-.38v-3Z"/><path class="cls-3" d="M59.78,37.82h.38v1.12h.62v.34h-.62v2.67h-.38v-2.67h-.53v-.34h.53v-1.12Z"/><path class="cls-3" d="M62.02,39.47c.31-.41.68-.62,1.13-.62.66,0,1.11.45,1.11,1.4v1.69h-.38v-1.64c0-.71-.22-1.1-.8-1.1-.32,0-.59.14-.79.41-.23.29-.26.59-.26,1.06v1.26h-.38v-3h.38v.54Z"/><path class="cls-3" d="M65.63,40.47c.02.69.49,1.19,1.13,1.19s.93-.36,1.15-.72l.32.17c-.31.6-.78.9-1.43.9-1,0-1.57-.76-1.57-1.57s.61-1.59,1.54-1.59c.85,0,1.54.62,1.56,1.61h-2.7ZM67.91,40.13c-.16-.62-.61-.9-1.13-.9s-.94.29-1.11.9h2.24Z"/><path class="cls-3" d="M69.29,41.31c.19.22.4.33.63.33.29,0,.55-.22.55-.5,0-.18-.1-.34-.25-.42-.69-.38-1.04-.55-1.04-1.08,0-.48.37-.8.83-.8.33,0,.58.16.83.41l-.25.25c-.18-.18-.36-.29-.61-.29s-.45.18-.45.4c0,.15.1.32.23.4.69.4,1.08.55,1.08,1.1,0,.47-.36.89-.91.89-.33,0-.67-.15-.89-.43l.24-.28Z"/><path class="cls-3" d="M71.77,41.31c.19.22.4.33.63.33.29,0,.55-.22.55-.5,0-.18-.1-.34-.25-.42-.69-.38-1.04-.55-1.04-1.08,0-.48.37-.8.83-.8.33,0,.58.16.83.41l-.25.25c-.18-.18-.36-.29-.61-.29s-.45.18-.45.4c0,.15.1.32.23.4.69.4,1.08.55,1.08,1.1,0,.47-.36.89-.91.89-.33,0-.67-.15-.89-.43l.24-.28Z"/><path class="cls-3" d="M80.37,39.99c0,1.29-.83,2.05-2.04,2.05-1.41,0-2.29-1.01-2.29-2.13s.89-2.13,2.23-2.13c.75,0,1.32.27,1.86.79l-.31.29c-.46-.45-1.01-.68-1.54-.68-.97,0-1.82.75-1.82,1.73s.79,1.77,1.88,1.77c.77,0,1.46-.46,1.57-1.28h-1.3v-.4h1.75Z"/><path class="cls-3" d="M81.04,38.94h.41l1.04,2.31,1-2.31h.41l-1.79,4.1h-.41l.58-1.32-1.23-2.78Z"/><path class="cls-3" d="M87.1,41.94h-.38v-1.54c0-.23-.02-.42-.03-.56-.02-.33-.28-.61-.68-.61-.27,0-.53.13-.7.35-.21.28-.25.63-.25,1.09v1.27h-.38v-3h.38v.51c.27-.38.6-.59,1.03-.59.46,0,.79.24.95.72.27-.48.66-.72,1.1-.72.62,0,1.02.45,1.02,1.3v1.78h-.38v-1.64c0-.22-.03-.4-.03-.51-.02-.27-.27-.56-.68-.56-.37,0-.7.23-.85.61-.1.24-.11.51-.11.79v1.31Z"/><path class="cls-3" d="M93.22,42.04c-.67,0-1.04-.44-1.04-.94,0-.54.39-.92.97-1.38-.32-.38-.52-.65-.52-.96,0-.43.4-.73.9-.73.53,0,.89.32.89.74,0,.35-.26.65-.7,1.02.68.72,1.03,1.06,1.04,1.07.18-.15.36-.3.49-.42l.27.29c-.14.12-.3.27-.48.41.27.28.54.53.77.8h-.57c-.28-.3-.46-.47-.53-.54-.48.36-.88.64-1.51.64ZM92.59,41.08c0,.29.27.59.68.59.37,0,.75-.23,1.2-.55-.29-.29-.65-.64-1.04-1.09-.51.39-.84.69-.84,1.05ZM94.03,38.76c0-.2-.22-.36-.5-.36-.24,0-.49.14-.49.36,0,.16.15.4.44.72.36-.28.55-.54.55-.72Z"/><path class="cls-3" d="M98.6,37.88h.94c.42,0,.74.03.94.1.41.16.67.52.67.98,0,.38-.18.71-.47.89-.29.18-.71.2-1.27.2h-.4v1.89h-.41v-4.06ZM99,38.27v1.38c.23,0,.46,0,.67,0,.35,0,.62-.02.8-.17.14-.11.24-.32.24-.53s-.1-.41-.25-.53c-.18-.14-.42-.15-.74-.15h-.72Z"/><path class="cls-3" d="M102.62,38.01c0,.18-.15.32-.32.32s-.32-.15-.32-.32.15-.32.32-.32.32.14.32.32ZM102.11,38.94h.38v3h-.38v-3Z"/><path class="cls-3" d="M103.52,37.78h.38v4.16h-.38v-4.16Z"/><path class="cls-3" d="M107.61,38.94h.38v3h-.38v-.51c-.33.4-.74.59-1.21.59-.88,0-1.54-.73-1.54-1.58s.68-1.57,1.55-1.57c.49,0,.9.21,1.2.63v-.55ZM105.26,40.44c0,.65.51,1.22,1.18,1.22.62,0,1.2-.46,1.2-1.21,0-.7-.52-1.22-1.19-1.22s-1.19.57-1.19,1.21Z"/><path class="cls-3" d="M109.49,37.82h.38v1.12h.62v.34h-.62v2.67h-.38v-2.67h-.53v-.34h.53v-1.12Z"/><path class="cls-3" d="M111.6,40.47c.02.69.49,1.19,1.13,1.19s.93-.36,1.15-.72l.32.17c-.31.6-.78.9-1.43.9-1,0-1.57-.76-1.57-1.57s.61-1.59,1.54-1.59c.85,0,1.54.62,1.56,1.61h-2.7ZM113.88,40.13c-.16-.62-.61-.9-1.13-.9s-.94.29-1.11.9h2.24Z"/><path class="cls-3" d="M115.27,41.31c.19.22.4.33.63.33.29,0,.55-.22.55-.5,0-.18-.1-.34-.25-.42-.69-.38-1.04-.55-1.04-1.08,0-.48.37-.8.83-.8.33,0,.58.16.83.41l-.25.25c-.18-.18-.36-.29-.61-.29s-.45.18-.45.4c0,.15.1.32.23.4.69.4,1.08.55,1.08,1.1,0,.47-.36.89-.91.89-.33,0-.67-.15-.89-.43l.24-.28Z"/><path class="cls-3" d="M32.17,20.9h6.67c-1.18-1.26-2.97-2.06-5.64-2.06h-7.71c-1.71,0-2.9.71-2.9,2.99v13.94c0,2.28,1.19,2.99,2.9,2.99h.56c-1.78-1.79-2.33-4.6-2.33-7.9,0-5.69,1.62-9.96,8.45-9.96Z"/><path class="cls-1" d="M42.13,31.07v6.76c0,2.28-1.2,2.99-2.9,2.99h-7.06c-1.33,0-2.46-.16-3.43-.47,1.24,1.88,3.38,3.01,6.9,3.01h7.06c1.71,0,2.9-.71,2.9-2.99v-9.3h-3.47Z"/><path class="cls-1" d="M33.94,37.83h3.02c.31,0,.56-.02.76-.08.16-.1.32-.21.47-.33.14-.22.19-.54.19-1.02v-2.93h-2.8v-2.46h5.38c.07-.73.09-1.48.09-2.22,0-1.68-.13-3.39-.58-4.91h-6.54c-4.84,0-6.35,1.56-6.35,6.97s1.51,6.97,6.35,6.97Z"/></g></svg>