<?xml version="1.0" encoding="UTF-8"?><svg id="_レイヤー_2" xmlns="http://www.w3.org/2000/svg" xmlns:xlink="http://www.w3.org/1999/xlink" viewBox="0 0 354 397.66"><defs><style>.cls-1{fill:none;stroke:#ff9c00;stroke-miterlimit:10;stroke-width:3px;}.cls-2{filter:url(#outer-glow-1-3);}.cls-2,.cls-3,.cls-4,.cls-5,.cls-6,.cls-7,._繧_繝_繝輔ぅ繝け繧_繧_繧_繝_3{stroke-width:0px;}.cls-2,.cls-3,.cls-5,.cls-6,.cls-7,._繧_繝_繝輔ぅ繝け繧_繧_繧_繝_3{fill:#fff;}.cls-3{filter:url(#outer-glow-1-2);}.cls-4{fill:#ff9c00;}.cls-5{filter:url(#outer-glow-1-4);}.cls-6{filter:url(#outer-glow-1-5);}._繧_繝_繝輔ぅ繝け繧_繧_繧_繝_3{filter:url(#outer-glow-1);}</style><filter id="outer-glow-1" filterUnits="userSpaceOnUse"><feOffset dx="0" dy="0"/><feGaussianBlur result="blur" stdDeviation="3"/><feFlood flood-color="#000" flood-opacity=".2"/><feComposite in2="blur" operator="in"/><feComposite in="SourceGraphic"/></filter><filter id="outer-glow-1-2" filterUnits="userSpaceOnUse"><feOffset dx="0" dy="0"/><feGaussianBlur result="blur-2" stdDeviation="3"/><feFlood flood-color="#000" flood-opacity=".2"/><feComposite in2="blur-2" operator="in"/><feComposite in="SourceGraphic"/></filter><filter id="outer-glow-1-3" filterUnits="userSpaceOnUse"><feOffset dx="0" dy="0"/><feGaussianBlur result="blur-3" stdDeviation="3"/><feFlood flood-color="#000" flood-opacity=".2"/><feComposite in2="blur-3" operator="in"/><feComposite in="SourceGraphic"/></filter><filter id="outer-glow-1-4" filterUnits="userSpaceOnUse"><feOffset dx="0" dy="0"/><feGaussianBlur result="blur-4" stdDeviation="3"/><feFlood flood-color="#000" flood-opacity=".2"/><feComposite in2="blur-4" operator="in"/><feComposite in="SourceGraphic"/></filter><filter id="outer-glow-1-5" filterUnits="userSpaceOnUse"><feOffset dx="0" dy="0"/><feGaussianBlur result="blur-5" stdDeviation="3"/><feFlood flood-color="#000" flood-opacity=".2"/><feComposite in2="blur-5" operator="in"/><feComposite in="SourceGraphic"/></filter></defs><g id="_レイヤー_1-2"><path class="cls-7" d="M152.52,29.39s.2-.22.31-.22c.15,0,.2.17.2.22,0,.11-.51.66-.51.66-3.63,4.07-12.72,11.56-20.22,11.56-4.85,0-10.42-4.51-10.42-10.02,0-14.15,21.45-31.59,32.28-31.59,3.68,0,5.26,3.52,5.26,5.72,0,3.96-7.3,10.62-8.89,10.62-1.23,0-2.45-.88-2.45-1.21,0-.22.15-.28.31-.33,3.47-.66,10.21-5.56,10.21-9.91,0-1.16-1.12-2.37-3.01-2.37-10.11,0-30.75,17.17-30.75,31.15,0,4.4,2.86,6.6,7.25,6.6,8.43,0,15.32-5.45,20.43-10.9Z"/><path class="cls-7" d="M164.78,35.33c-.97,0-2.71-1.6-2.71-2.97,0-4.02,3.58-7.76,3.58-8.09,0-.17-.1-.33-.36-.33-1.12,0-8.07,4.73-10.62,10.18-1.02,2.26-1.28,3.52-1.58,3.52-.66,0-1.48-1.16-1.48-2.09,0-10.46,11.7-27.85,16.55-27.85,1.23,0,2.55,1.21,2.55,2.26,0,5.34-13.18,17.01-15.37,19.32-.56,1.49-.92,2.86-1.02,3.96,2.4-5.06,10.06-10.29,11.18-10.29.66,0,2.81,1.49,2.81,3.08s-4.03,5.12-4.03,7.43c0,.66.31.99.77.99,2.6,0,7.35-5.06,7.35-5.06,0,0,.2-.22.36-.22.1,0,.2.17.2.22,0,.11-.41.5-.56.66,0,0-4.85,5.28-7.61,5.28ZM169.32,9.85c-3.73,0-10.52,10.46-13.53,18.16,1.38-1.54,13.94-13.15,13.94-17.67,0-.33-.15-.5-.41-.5Z"/><path class="cls-7" d="M184.7,29.17c.15,0,.2.17.2.22,0,.11-.36.5-.51.66,0,0-5.06,5.94-8.99,5.94-2.61,0-3.98-1.76-3.98-4.62,0-4.95,4.6-10.13,6.84-10.13,1.38,0,2.25,1.87,2.25,2.53,0,1.54-3.12,4.46-5.92,6.33-.1.33-.15,1.32-.15,1.71,0,1.71.77,3.14,2.25,3.14,2.71,0,7.71-5.56,7.71-5.56,0,0,.2-.22.31-.22ZM179.43,23.83c0-.44-.15-.61-.41-.61-.87,0-2.86,2.15-4.39,6.16,2.3-1.65,4.8-4.29,4.8-5.56Z"/><path class="cls-7" d="M186.66,37.43c-1.84,0-3.78-1.32-3.78-3.91,0-5.5,5.67-11.61,8.83-11.61,1.28,0,2.55.99,2.55,2.48,0,.66-.41,1.71-1.33,2.75-.05.05-.51.17-.72.17-.05,0-.1-.06-.1-.11s.05-.17.15-.28c.77-.83,1.33-1.87,1.33-2.48,0-.28-.15-.55-.51-.55-2.71,0-7.66,5.39-7.66,10.07,0,1.38.61,2.42,1.94,2.42,3.78,0,10.57-6.99,10.57-6.99,0,0,.2-.22.31-.22s.21.17.21.22c0,.11-.36.5-.51.66,0,0-7.1,7.38-11.29,7.38Z"/><path class="cls-7" d="M202.96,31.81c0-1.16,7.81-5.56,7.81-7.71,0-.11,0-.22-.1-.22-1.79,0-7.71,5.06-10.78,9.25-1.79,2.48-1.38,3.19-1.79,3.19-.46,0-1.33-.66-1.33-1.1,0-9.58,13.23-27.79,17.06-27.79,1.02,0,2.2,1.1,2.2,2.48,0,4.07-11.08,14.86-15.12,18.82,0,0-.72,1.32-1.23,3.58,1.99-2.75,8.89-9.47,10.83-9.47,1.48,0,2.25,1.82,2.25,3.19,0,3.03-7.86,6.38-7.86,7.1,0,.38,2.14,1.76,3.88,1.76,3.12,0,8.12-5.5,8.12-5.5,0,0,.21-.22.31-.22.15,0,.2.17.2.22,0,.11-.36.5-.51.66,0,0-5.72,6.71-8.22,6.71-2.25,0-5.72-3.74-5.72-4.95ZM215.32,10.13c0-.17-.15-.39-.41-.39-2.91,0-10.83,10.79-13.58,17.72,3.32-3.19,13.99-13.92,13.99-17.34Z"/><path class="cls-7" d="M219.32,33.41c0,.27-1.58,1.71-1.58,2.75,0,.17-.1.27-.25.27-.26,0-1.43-.88-1.43-1.54,0-.94.97-3.08,1.63-3.08.71,0,1.63,1.21,1.63,1.6ZM232.35,6.44c0,.39-.66,1.27-.87,1.65-3.93,7.38-10.83,19.37-11.49,21.8-.05.22-.1.27-.25.27s-.66-.71-.66-1.49c0-2.26,10.52-22.46,10.52-24.77,0-.22.1-.28.2-.28.56,0,2.55,2.04,2.55,2.81Z"/><path class="cls-7" d="M101.51,69.74c.07-.88.11-1.46.13-2.43,0-.47-.02-.85-.13-1.42.95.09,1.76.22,2.34.38.23.07.31.22.31.38,0,.11-.04.23-.09.34-.16.27-.2.45-.23.85-.05.58-.07,1.01-.16,1.89h2.74c.83,0,1.67-.04,2.5-.04.29,0,.38.05.38.25,0,.23-.04.95-.07,1.91-.07,2.21-.32,4.72-.67,5.92-.36,1.39-.97,2.14-2.12,2.43-.41.11-1.06.2-1.82.2-.22,0-.36-.13-.43-.36-.23-.67-.52-1.15-1.04-1.64,1.33.05,2-.02,2.45-.16.49-.16.72-.45.94-1.26.32-1.37.49-2.9.54-5.4h-3.64c-.36,2.18-.85,3.8-1.6,4.99-.83,1.35-2.16,2.7-3.82,3.71-.14.09-.29.14-.41.14-.11,0-.23-.05-.34-.18-.36-.4-.9-.77-1.51-1.04,2.07-1.04,3.26-2.18,4.23-3.67.56-.9,1.01-2.12,1.3-3.89h-1.62c-.88,0-1.75.04-2.59.09-.18.02-.25-.09-.27-.31-.07-.43-.11-1.08-.14-1.75,1.13.07,1.94.07,2.99.07h1.89ZM108.26,66.44c.09-.07.16-.05.27.04.56.43,1.21,1.15,1.71,1.93.07.11.07.2-.05.29l-.76.56c-.13.09-.22.07-.31-.05-.54-.83-1.12-1.51-1.82-2.09l.95-.67ZM109.87,65.27c.11-.07.16-.05.27.04.67.5,1.31,1.22,1.71,1.85.07.11.09.22-.05.32l-.72.56c-.14.11-.23.05-.31-.05-.49-.77-1.06-1.46-1.8-2.07l.9-.65Z"/><path class="cls-7" d="M118.59,69.61c-1.17,0-2.2.05-2.97.09-.23.02-.31-.11-.34-.36-.05-.36-.13-1.3-.16-1.82.81.09,1.76.13,3.46.13h6.43c.54,0,.74-.04.99-.18.09-.05.18-.07.27-.07.11,0,.22.04.34.09.49.31.97.76,1.31,1.19.09.11.13.2.13.31,0,.16-.09.31-.25.45-.16.16-.25.34-.41.7-.88,2.12-1.98,4.1-3.49,5.85-1.55,1.76-3.29,3.26-5.11,4.28-.16.11-.32.16-.49.16-.14,0-.31-.05-.45-.2-.41-.4-1.01-.72-1.67-.99,2.63-1.33,4.23-2.57,5.89-4.5,1.4-1.6,2.32-3.13,3.04-5.13h-6.5Z"/><path class="cls-7" d="M137.88,77.73c0,.86.04,2.02.05,2.93.02.22-.09.31-.31.32-.47.04-.99.04-1.46,0-.2-.02-.31-.11-.29-.32.02-1.03.05-1.93.05-2.88v-3.08c-1.22,1.03-2.81,2.12-3.73,2.59-.07.05-.16.07-.23.07-.13,0-.27-.07-.36-.18-.32-.38-.81-.74-1.3-.9,2.83-1.48,5.27-3.37,7.47-5.85.41-.49.72-.94.95-1.55.61.36,1.37.83,1.66,1.08.13.11.2.23.2.32,0,.13-.09.25-.27.34-.23.13-.65.56-.81.74-.47.54-1.01,1.13-1.64,1.75v4.61Z"/><path class="cls-7" d="M147.21,70.89c.2-.09.32-.07.47.13.63.79,1.21,1.71,1.55,2.66.04.13.07.2.07.27,0,.11-.07.16-.22.25-.43.25-.74.4-1.15.56-.25.09-.36,0-.45-.25-.41-1.04-.97-2.03-1.69-2.9.61-.34,1.04-.54,1.42-.72ZM157.09,71.12c.14.11.23.2.23.31s-.05.2-.2.32c-.27.23-.4.59-.54.92-.77,1.84-1.71,3.47-2.72,4.79-1.19,1.51-2.18,2.47-3.71,3.47-.14.11-.29.2-.43.2-.09,0-.2-.04-.29-.13-.45-.36-.86-.56-1.53-.76,2.16-1.42,3.24-2.34,4.32-3.74.9-1.17,1.91-2.93,2.43-4.34.23-.67.34-1.06.41-1.91.76.23,1.57.56,2.02.86ZM150.84,70.03c.2-.09.32-.07.47.14.49.63,1.1,1.76,1.39,2.63.09.27.05.36-.18.49-.34.2-.74.38-1.24.56-.2.07-.27-.02-.36-.27-.41-1.06-.83-1.93-1.51-2.88.72-.34,1.13-.54,1.44-.67Z"/><path class="cls-7" d="M165.8,70.84c2.2.68,3.94,1.39,5.72,2.45.2.11.29.23.2.47-.23.59-.52,1.15-.77,1.57-.07.13-.14.2-.23.2-.05,0-.13-.02-.2-.09-1.66-1.06-3.28-1.85-4.73-2.3v3.98c0,1.17.04,2.23.07,3.53.02.22-.07.27-.32.27-.52.04-1.08.04-1.6,0-.25,0-.34-.05-.34-.27.05-1.33.07-2.39.07-3.55v-8.86c0-1.35-.05-1.94-.18-2.66.83.05,1.73.14,2.25.29.25.05.34.16.34.31,0,.11-.05.25-.14.41-.13.23-.13.68-.13,1.69v2.57Z"/><path class="cls-7" d="M184.55,69.05c-.41,3.06-1.17,5.87-2.25,7.76-.77,1.35-1.71,2.07-3.06,2.07-1.58,0-3.19-1.69-3.19-4.63,0-1.73.74-3.38,2.03-4.68,1.51-1.51,3.42-2.3,5.85-2.3,4.32,0,6.86,2.66,6.86,6.25,0,3.35-1.89,5.45-5.54,6.55-.38.11-.54.04-.77-.32-.2-.31-.58-.72-1.26-1.13,3.04-.72,5.44-1.98,5.44-5.38,0-2.14-1.62-4.18-4.03-4.18h-.07ZM179.38,70.8c-.86.97-1.4,2.18-1.4,3.33,0,1.66.67,2.57,1.22,2.57.47,0,.86-.23,1.35-1.1.79-1.46,1.6-4.05,1.91-6.44-1.26.25-2.27.76-3.08,1.64Z"/><path class="cls-7" d="M199.08,68.19c-.18-.9-.38-1.55-.72-2.25.77-.05,1.57-.11,2.34-.05.23.02.36.09.36.27,0,.2-.11.52.04,1.3l.27,1.51,1.48-.25c1.03-.18,2.29-.4,3.22-.65.09,0,.16.07.2.2.14.47.25.94.36,1.55,0,.13-.09.18-.27.2-.83.14-2.11.34-3.01.5l-1.58.29.45,2.3,2.61-.45c1.28-.22,2.16-.41,2.83-.59.23-.05.29.02.31.2.13.45.23.9.31,1.44,0,.16-.09.29-.27.31-.54.07-1.62.25-2.9.47l-2.48.43.41,2c.25,1.21.56,2.36.79,3.26.02.09-.07.14-.23.2-.38.13-1.15.31-1.64.38-.23.02-.34-.07-.36-.22-.13-.67-.32-1.93-.58-3.08l-.45-2.12-2.45.43c-1.22.22-2.23.43-2.92.61-.2.07-.34.02-.41-.2-.18-.52-.36-1.21-.5-1.78,1.1-.13,2.05-.27,3.35-.49l2.52-.41-.45-2.32-1.69.27c-.99.16-2.2.41-2.68.54-.18.05-.27,0-.34-.18-.16-.41-.4-1.3-.5-1.8.97-.07,1.96-.2,3.2-.4l1.64-.25-.23-1.15Z"/><path class="cls-7" d="M214.99,76.94c1.39-.54,2.74-1.17,4.59-2.27,2.07-1.22,3.31-2.23,4.77-3.67.02.83.13,1.55.29,2.09.11.34.05.52-.18.72-1.48,1.24-2.97,2.23-4.5,3.1-1.37.81-2.77,1.51-4.41,2.23-.45.2-.77.38-1.01.58-.11.09-.22.14-.32.14s-.2-.05-.31-.14c-.41-.34-.77-.74-1.1-1.22-.07-.09-.11-.18-.11-.29,0-.09.04-.2.09-.31.07-.18.07-.52.07-1.03l.04-6.77c0-1.48-.05-2.36-.2-3.13,1.01.13,1.93.27,2.34.4.18.05.29.16.29.34,0,.09-.04.22-.09.38-.13.36-.2.95-.2,2.23l-.05,6.62Z"/><path class="cls-7" d="M237.21,76.72c0,1.24.02,2.3.05,3.74.02.23-.07.31-.27.31-.58.04-1.22.04-1.8,0-.2,0-.27-.07-.25-.29.02-1.3.07-2.47.07-3.69v-4.19c-1.58,1.33-3.51,2.7-4.95,3.46-.09.05-.18.07-.27.07-.14,0-.25-.05-.38-.18-.41-.41-1.01-.77-1.55-1.06,2.48-1.28,4.01-2.32,5.67-3.69,1.42-1.17,2.72-2.43,3.83-3.76.61-.72.85-1.08,1.13-1.85.81.45,1.6.94,2,1.26.11.07.14.18.14.27,0,.14-.11.31-.25.4-.31.2-.59.47-1.08.99-.7.85-1.37,1.55-2.11,2.27v5.96Z"/><path class="cls-7" d="M252.39,68.15c.16-.05.23-.05.27.14.09.45.14.99.16,1.46,0,.16-.07.2-.22.22-.97.2-1.85.32-2.97.49-1.15,3.04-2.21,5.53-3.51,7.72-.07.13-.13.18-.2.18-.05,0-.13-.04-.22-.09-.41-.25-.94-.63-1.24-.92-.09-.07-.13-.13-.13-.2,0-.05.02-.13.09-.22,1.35-2.23,2.3-4.12,3.11-6.28-.68.04-1.24.04-1.8.04-.4,0-.54,0-.99-.02-.18,0-.22-.05-.25-.29-.09-.34-.14-.94-.18-1.53.74.05,1.15.07,1.67.07.7,0,1.24-.02,2.07-.09.22-.76.34-1.37.47-2.02.11-.63.11-.9.11-1.46.77.11,1.55.22,2.11.38.18.04.29.14.29.27,0,.14-.05.23-.16.34-.11.14-.18.31-.29.67-.13.43-.27.99-.43,1.53.7-.07,1.53-.23,2.23-.4ZM252.89,72.98c-.02-.49-.04-.77-.14-1.28.88.09,1.35.16,1.96.34.16.04.25.13.25.29,0,.04-.04.16-.11.38-.07.22-.09.43-.07.74,0,1.06.05,1.84.2,3.06,1.3.52,2.18.92,3.24,1.67.18.13.2.2.11.38-.27.56-.52,1.01-.83,1.46-.05.09-.11.13-.16.13s-.11-.04-.18-.11c-.79-.68-1.46-1.08-2.2-1.51,0,1.8-1.3,2.63-3.35,2.63s-3.31-1.01-3.31-2.56,1.3-2.63,3.33-2.63c.34,0,.85.02,1.42.11-.11-1.15-.14-2.25-.16-3.1ZM251.62,77.51c-.9,0-1.6.36-1.6,1.04,0,.58.5.86,1.53.86.97,0,1.57-.52,1.57-1.28,0-.16,0-.25-.02-.36-.43-.14-.92-.27-1.48-.27ZM254.96,68.86c.11-.18.2-.2.38-.13,1.06.29,2.48,1.01,3.53,1.69.11.07.16.13.16.2,0,.05-.02.13-.07.22-.18.4-.5.95-.76,1.33-.05.09-.11.13-.16.13s-.09-.02-.16-.07c-1.06-.72-2.36-1.51-3.73-1.96.31-.54.58-1.08.81-1.4Z"/><path class="cls-7" d="M86.3,94.5h6.88c1.27,0,2.29.29,3.05.87.77.58,1.15,1.46,1.15,2.63,0,.71-.17,1.32-.52,1.83-.35.51-.85.9-1.5,1.17v.04c.87.18,1.53.6,1.98,1.24.45.64.67,1.44.67,2.41,0,.55-.1,1.07-.3,1.56-.2.48-.51.9-.93,1.25s-.96.63-1.63.83c-.66.2-1.45.31-2.36.31h-6.5v-14.13ZM88.78,100.4h4.04c.59,0,1.09-.17,1.49-.5.4-.34.59-.82.59-1.45,0-.71-.18-1.21-.53-1.5-.36-.29-.87-.43-1.54-.43h-4.04v3.89ZM88.78,106.61h4.38c.75,0,1.34-.2,1.75-.59s.62-.94.62-1.66-.21-1.24-.62-1.62c-.42-.38-1-.57-1.75-.57h-4.38v4.43Z"/><path class="cls-7" d="M105.49,108.9c-.82,0-1.54-.14-2.18-.41-.64-.27-1.18-.64-1.62-1.12s-.78-1.04-1.01-1.7c-.23-.66-.35-1.38-.35-2.18s.12-1.5.35-2.16.57-1.23,1.01-1.7.98-.85,1.62-1.12,1.37-.41,2.18-.41,1.54.13,2.18.41c.64.27,1.18.64,1.62,1.12s.78,1.04,1.01,1.7c.23.66.35,1.38.35,2.16s-.12,1.52-.35,2.18c-.23.66-.57,1.23-1.01,1.7s-.98.85-1.62,1.12c-.64.27-1.37.41-2.18.41ZM105.49,107.12c.5,0,.94-.11,1.3-.32.37-.21.67-.49.91-.83.24-.34.41-.73.52-1.16.11-.43.17-.87.17-1.32s-.06-.87-.17-1.3c-.11-.44-.29-.82-.52-1.16-.24-.34-.54-.61-.91-.82-.37-.21-.8-.32-1.3-.32s-.94.11-1.31.32c-.37.21-.67.48-.91.82-.24.34-.41.72-.52,1.16-.11.43-.17.87-.17,1.3s.06.89.17,1.32c.11.43.29.81.52,1.16.24.34.54.62.91.83.37.21.8.32,1.31.32Z"/><path class="cls-7" d="M123.11,108.63h-2.14v-1.39h-.04c-.3.59-.75,1.02-1.33,1.27-.58.25-1.19.38-1.84.38-.8,0-1.51-.14-2.11-.43s-1.1-.67-1.49-1.16c-.4-.49-.69-1.07-.89-1.73-.2-.67-.3-1.38-.3-2.15,0-.92.12-1.72.38-2.39.25-.67.58-1.23,1-1.66.42-.43.89-.75,1.42-.96.53-.2,1.08-.31,1.63-.31.32,0,.64.03.97.09.33.06.65.16.95.29.3.13.58.3.84.5.26.21.47.45.64.72h.05v-5.22h2.25v14.13ZM115.22,103.62c0,.43.06.86.17,1.29s.28.8.52,1.13c.23.33.52.59.88.79.36.2.78.3,1.27.3s.93-.11,1.3-.32.66-.49.89-.83c.23-.34.4-.73.51-1.16s.17-.87.17-1.32c0-1.13-.25-2.02-.76-2.65-.51-.63-1.2-.95-2.07-.95-.53,0-.97.11-1.34.33s-.66.5-.89.85c-.23.35-.4.75-.5,1.19s-.15.89-.15,1.35Z"/><path class="cls-7" d="M125.34,98.39h2.48l2.67,7.64h.04l2.6-7.64h2.36l-3.98,10.8c-.19.46-.37.9-.55,1.33-.18.42-.4.8-.66,1.12-.26.32-.58.58-.96.77-.38.19-.87.29-1.47.29-.53,0-1.05-.04-1.56-.13v-1.9c.18.03.36.06.53.09.17.03.35.05.54.05.26,0,.48-.03.65-.1.17-.07.31-.16.43-.29.11-.12.21-.27.29-.45.08-.17.15-.37.22-.59l.26-.79-3.89-10.2Z"/><path class="cls-7" d="M146.04,96.42c.4-.94.54-1.37.68-2.21.9.32,1.84.77,2.27,1.13.13.09.18.2.18.31,0,.14-.07.29-.2.4-.25.22-.4.45-.81,1.21-.68,1.31-1.35,2.54-2.05,3.56,1.01.79,1.49,1.24,2.65,2.45.07.09.11.16.11.25,0,.07-.04.14-.09.23-.36.47-.72.86-1.1,1.28-.07.09-.14.13-.22.13-.09,0-.16-.05-.25-.16-.85-1.01-1.57-1.71-2.36-2.38-2.05,2.57-4.07,4.34-6.16,5.62-.14.09-.29.14-.41.14s-.23-.04-.34-.13c-.52-.43-1.1-.83-1.62-.99,2.81-1.64,4.77-3.31,6.79-5.9-1.13-.85-2.03-1.42-3.51-2.14.52-.67.95-1.22,1.19-1.48.05-.05.11-.09.18-.09s.14.04.22.07c.94.47,2.07,1.15,3.13,1.89.77-1.19,1.19-2,1.73-3.19Z"/><path class="cls-7" d="M162.57,104.72c0,1.24.02,2.3.05,3.74.02.23-.07.31-.27.31-.58.04-1.22.04-1.8,0-.2,0-.27-.07-.25-.29.02-1.3.07-2.47.07-3.69v-4.19c-1.58,1.33-3.51,2.7-4.95,3.46-.09.05-.18.07-.27.07-.14,0-.25-.05-.38-.18-.41-.41-1.01-.77-1.55-1.06,2.48-1.28,4.01-2.32,5.67-3.69,1.42-1.17,2.72-2.43,3.83-3.76.61-.72.85-1.08,1.13-1.85.81.45,1.6.94,2,1.26.11.07.14.18.14.27,0,.14-.11.31-.25.4-.31.2-.59.47-1.08.99-.7.85-1.37,1.55-2.11,2.27v5.96Z"/><path class="cls-7" d="M178.9,96.51c.47-.02.7-.09.9-.22.07-.05.14-.07.23-.07s.18.04.29.11c.45.29.86.63,1.22.97.16.14.23.29.23.41,0,.14-.09.27-.22.38-.25.2-.43.45-.59.77-1.21,2.45-2.36,4.19-3.56,5.56-1.55,1.75-3.69,3.49-5.47,4.48-.11.07-.2.09-.29.09-.14,0-.27-.07-.41-.2-.45-.36-1.01-.63-1.71-.83,2.81-1.55,4.23-2.68,5.99-4.59,1.42-1.58,2.25-2.81,3.33-5.11l-4.36.13c-1.48,1.82-2.38,2.84-3.4,3.69-.13.13-.25.2-.38.2-.09,0-.18-.04-.27-.11-.45-.32-1.12-.65-1.73-.77,2.34-1.91,3.73-3.58,4.84-5.35.59-1.01.86-1.57,1.06-2.43,1.03.36,1.71.67,2.11.95.13.09.18.2.18.31s-.05.22-.2.31c-.18.11-.31.31-.45.49-.2.31-.38.58-.59.9l3.24-.07Z"/><path class="cls-7" d="M190.59,96.19c-.18-.9-.38-1.55-.72-2.25.77-.05,1.57-.11,2.34-.05.23.02.36.09.36.27,0,.2-.11.52.04,1.3l.27,1.51,1.48-.25c1.03-.18,2.29-.4,3.22-.65.09,0,.16.07.2.2.14.47.25.94.36,1.55,0,.13-.09.18-.27.2-.83.14-2.11.34-3.01.5l-1.58.29.45,2.3,2.61-.45c1.28-.22,2.16-.41,2.83-.59.23-.05.29.02.31.2.13.45.23.9.31,1.44,0,.16-.09.29-.27.31-.54.07-1.62.25-2.9.47l-2.48.43.41,2c.25,1.21.56,2.36.79,3.26.02.09-.07.14-.23.2-.38.13-1.15.31-1.64.38-.23.02-.34-.07-.36-.22-.13-.67-.32-1.93-.58-3.08l-.45-2.12-2.45.43c-1.22.22-2.23.43-2.92.61-.2.07-.34.02-.41-.2-.18-.52-.36-1.21-.5-1.78,1.1-.13,2.05-.27,3.35-.49l2.52-.41-.45-2.32-1.69.27c-.99.16-2.2.41-2.68.54-.18.05-.27,0-.34-.18-.16-.41-.4-1.3-.5-1.8.97-.07,1.96-.2,3.2-.4l1.64-.25-.23-1.15Z"/><path class="cls-7" d="M206.89,102.53c-1.78,0-2.47.22-2.65.22-.22,0-.36-.11-.41-.38-.09-.41-.2-1.26-.27-2.18,1.17.18,2.07.22,3.89.22h5.8c1.37,0,2.75-.04,4.14-.05.27-.02.32.04.32.25.04.54.04,1.15,0,1.69,0,.22-.07.29-.32.27-1.35-.02-2.68-.04-4.01-.04h-6.48Z"/><path class="cls-7" d="M224.35,99.23c0,.63,0,1.51.02,2.16,0,.29-.04.31-.32.32-.5.02-1.08.02-1.58,0-.23,0-.34-.02-.34-.2.05-.72.09-1.53.09-2.29v-1.69c0-1.04-.02-1.67-.07-2.34,0-.11.09-.18.23-.18.79.04,1.93.07,3.01.07h6.07c.65,0,.92-.07,1.1-.2.09-.07.16-.11.23-.11.11,0,.2.05.34.16.47.32,1.1.9,1.33,1.19.09.11.13.22.13.32s-.05.23-.16.34c-.23.27-.36.74-.45,1.06-.54,1.98-1.24,3.85-2.2,5.56-1.03,1.84-2.34,3.49-4.03,4.93-.14.14-.29.2-.43.2-.13,0-.23-.04-.36-.13-.54-.32-1.01-.52-1.73-.68,2.16-1.66,3.44-3.15,4.55-5.2.95-1.73,1.57-3.29,2.07-5.56h-7.49v2.25Z"/><path class="cls-7" d="M241.21,102.53c-1.78,0-2.47.22-2.65.22-.22,0-.36-.11-.41-.38-.09-.41-.2-1.26-.27-2.18,1.17.18,2.07.22,3.89.22h5.8c1.37,0,2.75-.04,4.14-.05.27-.02.32.04.32.25.04.54.04,1.15,0,1.69,0,.22-.07.29-.32.27-1.35-.02-2.68-.04-4.01-.04h-6.48Z"/><path class="cls-7" d="M260.1,98.84c2.2.68,3.94,1.39,5.72,2.45.2.11.29.23.2.47-.23.59-.52,1.15-.77,1.57-.07.13-.14.2-.23.2-.05,0-.13-.02-.2-.09-1.66-1.06-3.28-1.85-4.73-2.3v3.98c0,1.17.04,2.23.07,3.53.02.22-.07.27-.32.27-.52.04-1.08.04-1.6,0-.25,0-.34-.05-.34-.27.05-1.33.07-2.39.07-3.55v-8.86c0-1.35-.05-1.94-.18-2.66.83.05,1.73.14,2.25.29.25.05.34.16.34.31,0,.11-.05.25-.14.41-.13.23-.13.68-.13,1.69v2.57ZM264.29,94.41c.09-.07.16-.05.27.04.56.43,1.21,1.15,1.71,1.93.07.11.07.2-.05.29l-.76.56c-.13.09-.22.07-.31-.05-.54-.83-1.12-1.51-1.82-2.09l.95-.67ZM265.9,93.24c.11-.07.16-.05.27.04.67.5,1.31,1.22,1.71,1.85.07.11.09.22-.05.32l-.72.56c-.14.11-.23.05-.31-.05-.49-.77-1.06-1.46-1.8-2.07l.9-.65Z"/><rect class="cls-3" x="9.61" y="137.37" width="157.5" height="115.63" rx="10" ry="10"/><rect class="cls-2" x="187.11" y="137.37" width="157.5" height="115.62" rx="10" ry="10"/><rect class="cls-5" x="9.61" y="272.99" width="157.5" height="115.62" rx="10" ry="10"/><rect class="cls-6" x="187.11" y="272.99" width="157.5" height="115.62" rx="10" ry="10"/><path class="cls-4" d="M54.47,197.58c-1.6,0-2.14.04-2.25.04-.16,0-.18-.02-.18-.22v-1.12c0-.18.02-.2.18-.2.11,0,.65.04,2.25.04h1.26v-5.22h-.43c-1.67,0-2.27.04-2.38.04-.18,0-.2-.02-.2-.2v-1.15c0-.18.02-.2.2-.2.11,0,.7.04,2.38.04h.43c0-.85-.04-1.31-.11-1.82.65.02,1.21.05,1.82.11.14.02.23.09.23.18,0,.13-.05.22-.09.34-.05.14-.09.47-.09,1.19h5c0-.85-.02-1.3-.11-1.82.63.02,1.21.05,1.82.13.16.02.25.07.25.16,0,.13-.05.23-.11.36-.05.13-.09.45-.09,1.17h.56c1.69,0,2.27-.04,2.39-.04.18,0,.2.02.2.2v1.15c0,.18-.02.2-.2.2-.13,0-.7-.04-2.39-.04h-.56v5.22h1.37c1.6,0,2.14-.04,2.25-.04.18,0,.2.02.2.2v1.12c0,.2-.02.22-.2.22-.11,0-.65-.04-2.25-.04h-1.26c1.03.83,2.32,1.37,4.25,1.75-.25.29-.49.7-.68,1.13-.14.32-.2.43-.36.43-.09,0-.22-.04-.41-.11-.99-.32-1.91-.74-2.7-1.24.02.04.02.07.02.13v1.08c0,.18-.02.2-.2.2-.11,0-.67-.04-2.27-.04h-1.13v1.19h3.74c1.73,0,2.3-.04,2.43-.04.18,0,.2.02.2.2v1.15c0,.18-.02.2-.2.2-.13,0-.7-.04-2.43-.04h-9.13c-1.71,0-2.3.04-2.41.04-.18,0-.2-.02-.2-.2v-1.15c0-.18.02-.2.2-.2.11,0,.7.04,2.41.04h3.64v-1.19h-1.01c-1.62,0-2.16.04-2.27.04-.2,0-.2-.02-.2-.2v-1.22c-.76.5-1.6.94-2.56,1.31-.2.09-.34.13-.43.13-.14,0-.22-.11-.36-.38-.23-.45-.45-.79-.72-1.04,1.84-.52,3.19-1.19,4.18-1.96h-1.3ZM55.86,199.47c.11,0,.65.04,2.27.04h1.01c0-.59-.05-.97-.11-1.4.67.02,1.21.05,1.8.11.14.02.22.07.22.16s-.04.16-.07.27c-.05.13-.09.36-.09.86h1.13c1.6,0,2.16-.04,2.27-.04h.11c-.85-.54-1.57-1.19-2.18-1.89h-4.27c-.63.7-1.35,1.33-2.2,1.89h.11ZM62.5,191.81v-.92h-5v.92h5ZM62.5,193.96v-.92h-5v.92h5ZM62.5,196.12v-.94h-5v.94h5Z"/><path class="cls-4" d="M72.87,190.23c-1.17,0-1.55.04-1.67.04-.16,0-.18-.02-.18-.2v-1.26c0-.2.02-.22.18-.22.13,0,.5.04,1.67.04h1.46c1.22,0,1.6-.04,1.71-.04.18,0,.2.02.2.22v1.26c0,.18-.02.2-.2.2-.11,0-.43-.02-1.39-.04-.18,1.31-.54,2.65-1.04,3.91h1.26c.72,0,1.03-.04,1.13-.04.2,0,.22.02.22.2,0,.13-.04.65-.04,2.43v1.66c0,2.36.04,2.86.04,2.99,0,.18-.02.2-.22.2h-1.15c-.2,0-.2-.02-.2-.2v-.36h-1.08v1.42c0,.18-.02.2-.2.2h-1.21c-.18,0-.2-.02-.2-.2,0-.11.04-.65.04-3.17v-2c-.2.31-.4.59-.59.86-.13.16-.22.25-.31.25-.07,0-.13-.11-.18-.32-.13-.65-.27-1.12-.49-1.53,1.3-1.55,2.2-3.91,2.5-6.3h-.07ZM73.57,195.65v3.85h1.08v-3.85h-1.08ZM85.34,195.16c.18,0,.31-.04.41-.09.07-.04.13-.05.2-.05.11,0,.23.05.65.43.38.34.52.52.52.67,0,.11-.04.18-.11.23-.14.14-.25.36-.4.61-.18.34-.34.61-.63,1.04-.14.22-.23.31-.36.31-.11,0-.23-.05-.47-.16-.32-.14-.65-.27-1.01-.34.43-.43.68-.81.85-1.12h-2.59v1.87h1.44c1.01,0,1.3-.04,1.4-.04.16,0,.18.02.18.22v1.17c0,.2-.02.22-.18.22-.11,0-.4-.04-1.4-.04h-1.44v1.62c.94.16,2.11.22,3.64.2.52,0,1.01-.02,1.51-.05-.18.38-.27.79-.32,1.19-.07.58-.11.58-.65.59-.56.02-1.1,0-1.62-.02-4-.11-5.44-.9-6.3-2.16-.43.88-1.01,1.6-1.67,2.23-.2.16-.31.27-.4.27-.11,0-.22-.09-.4-.29-.29-.29-.74-.59-1.08-.77,1.53-.94,2.43-2.41,2.63-4.1.05-.45.07-.79.05-1.22.52.05,1.08.14,1.53.23.27.07.4.13.4.25,0,.11-.07.22-.14.32-.07.11-.14.29-.18.56-.05.36-.11.7-.18,1.03.36.54.83.95,1.48,1.26v-4.54h-1.44c-1.73,0-2.32.02-2.45.02-.18,0-.2,0-.2-.18v-1.21c0-.18.02-.2.2-.2.13,0,.72.04,2.45.04h6.08ZM78.65,194.79c-.2,0-.22-.02-.22-.22,0-.22.04-1.08.07-2.36-.36.67-.79,1.24-1.28,1.73-.18.18-.29.25-.4.25-.09,0-.18-.07-.31-.23-.23-.32-.54-.59-.77-.76.94-.59,1.75-1.44,2.34-2.45-.92,0-1.24.04-1.35.04-.18,0-.2-.02-.2-.22v-1.04c0-.18.02-.2.2-.2.11,0,.43.04,1.35.04h.32v-.34c0-.59-.02-.95-.11-1.42.56.02,1.06.04,1.57.09.13.02.22.07.22.16,0,.11-.05.2-.09.31-.05.13-.07.29-.07.88v.32c.83,0,1.12-.04,1.22-.04.18,0,.2.02.2.2v1.04c0,.2-.02.22-.2.22-.09,0-.32-.02-.99-.04.36.43.79.76,1.4,1.13-.31.27-.49.5-.63.76-.09.14-.14.23-.22.23s-.16-.09-.32-.23c-.22-.22-.4-.47-.58-.76.04,1.51.07,2.45.07,2.68,0,.2-.02.22-.22.22h-1.03ZM85.22,190.75c.61.77,1.44,1.44,2.54,2.09-.22.25-.56.85-.68,1.17-.07.16-.13.25-.23.25-.09,0-.18-.05-.34-.22-.56-.56-1.21-1.33-1.69-2.14.04,1.48.07,2.43.07,2.66,0,.2-.02.22-.2.22h-1.04c-.16,0-.18-.02-.18-.22,0-.22.02-1.13.05-2.45-.45.81-1.01,1.51-1.58,2.07-.14.14-.25.22-.34.22s-.18-.09-.31-.31c-.2-.31-.49-.56-.72-.74,1.03-.68,1.96-1.6,2.57-2.61-.81.02-1.1.04-1.19.04-.18,0-.2-.02-.2-.22v-1.04c0-.18.02-.2.2-.2.09,0,.45.04,1.49.04v-.34c0-.52-.02-.97-.11-1.44.54.02,1.04.04,1.55.09.16.02.23.09.23.16,0,.13-.05.2-.11.31-.05.13-.07.32-.07.92v.31h.43c1.21,0,1.58-.04,1.69-.04.16,0,.18.02.18.2v1.04c0,.2-.02.22-.18.22-.11,0-.49-.04-1.69-.04h-.14Z"/><path class="cls-4" d="M97.1,193.09c-1.76,0-2.36.04-2.47.04-.18,0-.2-.02-.2-.2v-1.39c0-.2.02-.2.2-.2.11,0,.7.02,2.47.02h1.82v-1.17c0-1.15-.04-1.78-.13-2.56.65.02,1.28.05,1.89.14.18,0,.29.09.29.18,0,.14-.07.25-.13.38-.09.22-.11.59-.11,1.82v1.21h2.56c1.75,0,2.36-.02,2.48-.02.16,0,.18,0,.18.2v1.39c0,.18-.02.2-.18.2-.13,0-.74-.04-2.48-.04h-1.87c1.24,2.43,2.57,4.1,5,6.16-.38.38-.67.77-.88,1.21-.13.25-.2.38-.29.38s-.2-.11-.38-.29c-2.07-2.03-3.22-3.8-4.19-6.05,0,1.62.02,3.22.04,4.63h.41c1.4,0,1.85-.04,1.96-.04.18,0,.2.02.2.2v1.31c0,.2-.02.22-.2.22-.11,0-.56-.04-1.96-.04h-.4c.02,1.71.05,2.9.05,3.08s-.02.2-.2.2h-1.55c-.2,0-.22-.02-.22-.2s.04-1.39.07-3.08h-.32c-1.4,0-1.85.04-1.96.04-.18,0-.2-.02-.2-.22v-1.31c0-.18.02-.2.2-.2.11,0,.56.04,1.96.04h.34c.04-1.4.05-3.01.05-4.61-1.03,2.43-2.32,4.36-4.1,6.01-.18.16-.29.27-.38.27s-.16-.11-.29-.34c-.25-.43-.54-.77-.81-1.06v1.73c0,1.76.04,2.65.04,2.74,0,.18-.02.2-.2.2h-1.53c-.16,0-.18-.02-.18-.2,0-.11.04-.97.04-2.74v-4.09c0-.59,0-1.31.02-2.03-.34.45-.68.9-1.04,1.31-.13.14-.23.23-.32.23s-.14-.11-.2-.32c-.13-.58-.38-1.19-.61-1.55,1.55-1.69,2.74-3.71,3.42-5.85.13-.43.23-.83.27-1.28.65.16,1.22.34,1.75.56.2.09.29.14.29.27s-.05.2-.2.32c-.11.11-.2.25-.36.72-.34.88-.72,1.76-1.17,2.63v7.29c2-1.67,3.53-3.58,4.72-6.25h-1.01Z"/><path class="cls-4" d="M109.22,192.37c.14-.18.2-.18.36-.09.88.49,1.78,1.15,2.59,1.89.07.05.11.09.11.14s-.04.11-.11.22l-.81,1.19c-.05.09-.09.13-.14.13-.04,0-.09-.04-.16-.11-.76-.77-1.67-1.48-2.56-2.02-.09-.05-.13-.09-.13-.14,0-.04.04-.11.11-.2l.74-1.01ZM109.26,201.32c.5-1.06,1.04-2.47,1.58-4.28.25.29.67.61,1.06.88.29.2.38.27.38.43,0,.09-.04.22-.09.41-.47,1.46-1.01,2.84-1.53,4.07-.14.32-.25.54-.25.7,0,.14-.09.25-.22.25-.09,0-.2-.04-.34-.11-.43-.23-.95-.5-1.48-.9.36-.5.59-.86.88-1.46ZM110.03,187.8c.14-.16.2-.16.36-.09.86.54,1.78,1.26,2.56,1.98.07.05.11.11.11.14,0,.05-.04.11-.11.22l-.81,1.17c-.13.18-.18.16-.32.05-.79-.77-1.75-1.58-2.61-2.12-.09-.05-.13-.09-.13-.13,0-.05.04-.11.13-.22l.83-1.01ZM114.48,203.34c-1.76,0-2.36.04-2.47.04-.18,0-.2-.02-.2-.2v-1.3c0-.18.02-.2.2-.2.07,0,.43.04,1.28.04v-3.37c0-1.13-.04-1.67-.04-1.78,0-.18.02-.2.2-.2.11,0,.7.04,2.43.04h5.24c1.73,0,2.32-.04,2.43-.04.2,0,.22.02.22.2,0,.09-.04.65-.04,1.76v3.38c.63-.02.92-.04.97-.04.2,0,.22.02.22.2v1.3c0,.18-.02.2-.22.2-.09,0-.7-.04-2.45-.04h-7.78ZM120.4,188.34c1.62,0,2.18-.04,2.29-.04.18,0,.18.02.18.22,0,.11-.02.59-.02,1.73v2.95c0,1.13.02,1.62.02,1.73,0,.18,0,.2-.18.2-.11,0-.67-.04-2.29-.04h-3.96c-1.6,0-2.18.04-2.29.04-.18,0-.2-.02-.2-.2,0-.11.04-.59.04-1.73v-2.95c0-1.13-.04-1.62-.04-1.73,0-.2.02-.22.2-.22.11,0,.68.04,2.29.04h3.96ZM116.24,201.72v-3.76h-1.3v3.76h1.3ZM115.74,189.84v1.17h5.31v-1.17h-5.31ZM121.05,192.43h-5.31v1.21h5.31v-1.21ZM119.09,201.72v-3.76h-1.28v3.76h1.28ZM120.65,197.95v3.76h1.35v-3.76h-1.35Z"/><path class="cls-4" d="M58.33,320.86c0,.85.04,1.76.04,2.48,0,.67-.11,1.19-.52,1.51-.27.23-.65.36-1.53.4-.56.02-.58.02-.68-.54-.09-.47-.25-.9-.43-1.22.45.04.81.05,1.08.04.4,0,.49-.16.49-.56v-3.33h-1.94c-.14,2.52-.5,3.98-1.13,5.42-.09.2-.18.31-.29.31-.07,0-.18-.07-.31-.22-.31-.36-.83-.77-1.12-.94.88-1.76,1.37-3.35,1.37-8.5v-2.95c0-1.87-.04-2.84-.04-2.95,0-.2.02-.22.22-.22.11,0,.43.04,1.55.04h1.53c1.1,0,1.44-.04,1.55-.04.2,0,.22.02.22.22,0,.11-.04,1.08-.04,2.95v8.1ZM56.76,317.99v-2.59h-1.84v.32c0,.83-.02,1.58-.04,2.27h1.87ZM54.93,311.32v2.45h1.84v-2.45h-1.84ZM61.34,313.85c0,.36.04.59.27.68.23.07.67.11,1.98.11,1.51,0,2.39-.05,2.61-.27.31-.29.4-.77.43-1.58.34.2.79.38,1.28.47.47.09.45.13.4.61-.11,1.06-.41,1.58-.94,1.91-.52.32-1.55.47-3.76.47-2,0-2.79-.07-3.31-.31-.47-.23-.72-.56-.72-1.58v-3.4c0-.79-.04-1.4-.11-1.85.63.02,1.15.07,1.71.14.25.02.36.07.36.18,0,.14-.05.23-.11.34-.07.16-.09.38-.09,1.1v.77c1.76-.38,3.38-.92,4.34-1.39.34-.16.58-.29.83-.5.47.45.81.83,1.12,1.21.09.13.13.18.13.27,0,.11-.11.18-.25.2-.2.02-.41.07-.83.25-1.12.49-3.08,1.08-5.33,1.53v.65ZM60.02,325.43c-.18,0-.2-.02-.2-.18,0-.11.04-.65.04-3.49v-1.8c0-1.78-.04-2.34-.04-2.45,0-.2.02-.22.2-.22.13,0,.63.04,2.11.04h2.95c1.48,0,1.98-.04,2.11-.04.18,0,.2.02.2.22,0,.11-.04.67-.04,2.2v2.03c0,2.84.04,3.38.04,3.49,0,.16-.02.18-.2.18h-1.4c-.18,0-.2-.02-.2-.18v-.74h-4.01v.76c0,.16-.02.18-.2.18h-1.35ZM61.57,320.14h4.01v-1.28h-4.01v1.28ZM65.58,322.98v-1.4h-4.01v1.4h4.01Z"/><path class="cls-4" d="M81.22,317.71c-.31,3.1-1.06,5.26-2.83,7.36-.18.2-.27.29-.36.29-.11,0-.2-.11-.4-.32-.27-.29-.59-.58-.92-.77-.07.29-.22.52-.43.68-.25.23-.65.36-1.53.38-.54.02-.58.04-.68-.52-.09-.47-.25-.88-.43-1.22.43.04.81.05,1.08.04.4-.02.49-.16.49-.56v-3.42h-2.02c-.16,2.56-.54,4.03-1.15,5.36-.09.2-.18.31-.27.31s-.2-.09-.32-.23c-.31-.38-.76-.7-1.04-.86.77-1.64,1.31-3.35,1.31-8.5v-2.95c0-1.87-.04-2.84-.04-2.95,0-.2.02-.22.22-.22.11,0,.45.04,1.55.04h1.6c1.1,0,1.44-.04,1.55-.04.2,0,.22.02.22.22,0,.11-.04,1.08-.04,2.95v8.19c0,.83.04,1.76.04,2.48,0,.18-.02.34-.04.49,2.25-2.21,2.74-5.22,2.81-10.13-1.48,0-2.02.04-2.11.04-.2,0-.22-.02-.22-.2v-1.35c0-.18.02-.2.22-.2.11,0,.67.04,2.32.04h1.04v-1.1c0-.77-.02-1.26-.13-1.91.67.02,1.24.07,1.85.13.18.02.29.11.29.2,0,.14-.05.25-.11.38-.11.22-.09.49-.09,1.21v1.1h1.8c1.67,0,2.25-.04,2.34-.04.18,0,.2.02.2.2v1.35c0,.18-.02.2-.2.2-.09,0-.67-.04-2.34-.04h-3.06c-.02.81-.04,1.55-.07,2.25h2.74c1.17,0,1.51-.04,1.62-.04.18,0,.25.05.23.23-.02.43-.04.92-.04,1.37-.05,2.66-.22,4.37-.41,5.36-.32,1.69-.9,2.29-2.7,2.29-.27,0-.58-.02-.88-.04-.36-.04-.41-.04-.47-.61-.05-.54-.18-.94-.36-1.24.77.09,1.08.13,1.55.13.59,0,.88-.32,1.03-.95.22-.9.4-2.54.41-4.82h-2.83ZM75.21,317.99v-2.57h-1.91v.31c0,.83-.02,1.58-.04,2.27h1.94ZM73.3,311.33v2.45h1.91v-2.45h-1.91Z"/><path class="cls-4" d="M93.11,313.44c.2-.34.38-.68.54-1.04.13-.29.2-.47.25-.7.38.25.7.49.97.74.14.14.16.2.16.31s-.05.18-.16.25c-.09.07-.16.2-.31.41-.36.61-.88,1.35-1.49,2.12-.02.88-.09,1.78-.16,2.59.52,1.12,1.22,2.09,2.03,2.86-.31.32-.56.67-.74.97-.14.25-.22.38-.31.38s-.18-.11-.34-.32c-.38-.49-.7-1.1-.95-1.66-.32,1.53-.95,3.06-1.96,4.54-.14.22-.23.32-.34.32-.09,0-.2-.11-.34-.32-.29-.4-.65-.74-.97-.95.99-1.21,1.62-2.38,2.03-4.1.36-1.53.47-3.74.47-6.03v-1.57c0-1.49-.02-2.27-.13-3.2.67.02,1.06.05,1.67.11.16.02.27.09.27.16,0,.13-.09.32-.11.49-.05.27-.09.65-.09,2.39v1.26ZM90.72,312.74c.22.07.23.09.23.27-.07,1.8-.16,3.1-.47,4.34-.04.2-.09.18-.25.09l-.85-.5c-.2-.13-.22-.16-.18-.34.27-1.03.4-2.3.43-3.94,0-.22.04-.23.25-.16l.83.25ZM93.76,324.76c-.23-.14-.22-.22-.11-.36.7-.9,1.26-1.91,1.64-3.28.05-.18.11-.18.34-.09l.99.4c.2.07.23.13.18.32-.34,1.37-.9,2.56-1.66,3.64-.07.09-.09.11-.14.11s-.13-.04-.2-.09l-1.04-.65ZM103.1,314.74c.54,1.84,1.44,3.26,2.84,4.37-.32.32-.65.76-.86,1.15-.13.25-.2.36-.29.36s-.18-.09-.36-.29c-1.03-1.1-1.76-2.41-2.2-3.83-.52,1.69-1.35,2.84-2.61,3.89-.18.16-.31.23-.4.23-.11,0-.22-.11-.4-.36-.25-.32-.54-.59-.86-.79,1.73-1.28,2.68-2.65,3.11-4.73h-1.53c-.72,2-1.91,3.83-3.83,5.29-.22.16-.32.23-.41.23-.11,0-.18-.11-.32-.31-.25-.38-.5-.63-.79-.85.76-.45,1.42-1.01,2-1.64-.32-.36-.7-.68-.99-.9-.14-.11-.13-.16.02-.32l.5-.59c.13-.16.18-.14.32-.04.38.25.65.49.97.79.22-.34.43-.68.61-1.06-.32-.32-.67-.59-1.03-.83-.13-.09-.13-.13,0-.32l.45-.63c.14-.22.2-.23.36-.13.31.2.54.36.79.58.18-.56.32-1.12.43-1.69h-1.49c-.45,1.15-1.08,2.29-1.85,3.24-.18.23-.27.32-.38.32-.07,0-.16-.07-.29-.2-.32-.31-.54-.49-.83-.63,1.26-1.4,2.03-2.9,2.47-4.84.09-.41.14-.76.14-1.1.5.07,1.01.16,1.39.25.25.05.32.14.32.23s-.04.14-.13.25c-.09.11-.16.25-.23.58-.04.16-.09.34-.14.5h1.26c.13,0,.22-.02.29-.05.09-.04.14-.07.25-.07s.25.05.61.41c.34.38.38.47.38.61,0,.11-.05.18-.13.31-.07.13-.13.38-.2.7l-.05.25h1.28c.04-.49.05-1.01.05-1.57,0-.92-.02-1.46-.09-2.23.63.02,1.08.04,1.64.11.2.04.29.11.29.2,0,.11-.04.18-.11.32-.09.16-.09.52-.09,1.37,0,.56-.04,1.19-.07,1.8h.68c1.35,0,1.78-.04,1.89-.04.16,0,.18.02.18.22v1.31c0,.16-.02.18-.18.18-.11,0-.54-.04-1.89-.04h-.5ZM98.78,321.25c.23-.02.27-.02.29.18.18,1.17.31,2.34.36,3.56,0,.2,0,.25-.23.27l-1.19.07c-.27.02-.31,0-.31-.18,0-1.24-.09-2.39-.23-3.55-.04-.22,0-.25.25-.27l1.06-.09ZM101.44,321.14c.2-.04.25-.02.31.16.29,1.03.56,2.21.74,3.49.02.18-.02.25-.25.29l-1.12.2c-.27.04-.29.02-.31-.16-.13-1.3-.32-2.43-.63-3.49-.04-.2-.02-.23.23-.29l1.03-.2ZM104.13,320.84c.2-.05.22-.05.32.11.56.99,1.01,2.27,1.37,3.65.05.2.04.25-.2.32l-1.06.36c-.23.05-.31.07-.34-.11-.32-1.46-.76-2.7-1.24-3.73-.09-.18-.05-.23.2-.31l.95-.31ZM104.16,310.02c.2-.11.23-.11.34.04.34.47.77,1.08,1.04,1.66.11.22.07.25-.09.34l-.77.4c-.22.11-.27.09-.34-.09-.27-.59-.63-1.22-.95-1.67-.11-.16-.11-.2.13-.32l.65-.34Z"/><path class="cls-4" d="M112.49,313.94c.22-.38.41-.74.52-.97.14-.34.23-.58.32-.9.32.23.63.58.92.88.11.14.18.25.18.32.02.11-.05.18-.14.23-.13.07-.27.29-.49.61-.23.38-.72,1.01-1.37,1.8-.04.77-.09,1.55-.16,2.27.58,1.21,1.39,2.27,2.38,3.2-.29.25-.7.81-.9,1.17-.09.14-.16.23-.25.23-.07,0-.14-.07-.25-.22-.45-.59-.97-1.48-1.31-2.14-.41,1.57-1.15,3.2-2.21,4.52-.16.2-.27.29-.36.29s-.18-.11-.32-.32c-.27-.4-.59-.72-.95-.97,1.1-1.17,1.75-2.45,2.18-4.03.43-1.55.56-3.74.56-6.05v-1.57c0-1.49-.02-2.27-.13-3.2.67.02,1.1.05,1.71.11.18.02.29.09.29.16,0,.13-.09.32-.11.49-.05.27-.09.65-.09,2.39v1.69ZM109.88,312.88c.2.07.23.09.23.29,0,1.78-.13,3.11-.41,4.32-.04.18-.05.2-.27.07l-.97-.54c-.16-.11-.22-.18-.16-.36.31-1.01.45-2.47.41-3.91,0-.2.04-.23.25-.16l.92.29ZM121.24,322.89c0,.31.05.47.18.54.13.07.41.13.76.13.45,0,.58-.02.72-.14.22-.2.27-.56.29-1.87.32.23.77.41,1.21.52.45.11.45.16.43.63-.07,1.26-.31,1.82-.68,2.14-.45.38-1.03.47-2.25.47s-1.64-.11-2-.34c-.32-.2-.45-.61-.45-1.21v-4.19h-1.13c-.36,3.26-1.71,4.86-4.09,5.85-.22.09-.34.14-.43.14-.14,0-.23-.11-.43-.4-.27-.4-.65-.79-.99-1.03,2.7-.7,3.89-2.14,4.1-4.57-1.66,0-2.23.04-2.36.04-.18,0-.2-.02-.2-.2v-1.19c0-.2.02-.22.2-.22.09,0,.52.04,1.6.04v-1.78c-1.24.02-1.71.04-1.8.04-.16,0-.18-.02-.18-.2v-1.24c0-.18.02-.18.18-.18.09,0,.61.02,1.8.02v-.07c0-.59,0-.95-.11-1.42.65.02,1.17.05,1.73.11.14.02.25.09.25.2,0,.09-.02.14-.09.25-.09.16-.11.38-.11.81v.13h3.28v-.07c0-.59-.02-.95-.11-1.42.61.02,1.13.05,1.69.11.18.02.27.09.27.2,0,.09-.02.14-.07.25-.09.16-.11.38-.11.81v.13c1.53,0,2.12-.02,2.21-.02.18,0,.2,0,.2.18v1.24c0,.18-.02.2-.2.2-.09,0-.67-.04-2.21-.04v1.78c1.35,0,1.85-.04,1.96-.04.18,0,.18.02.18.22v1.19c0,.18,0,.2-.18.2-.11,0-.7-.04-2.43-.04h-.63v3.33ZM118.15,310.69c0-.65-.02-1.13-.13-1.64.7.02,1.15.05,1.71.13.18.02.29.09.29.18,0,.13-.02.18-.09.31-.07.14-.11.47-.11,1.01v.29h1.49c1.64,0,2.2-.04,2.3-.04.18,0,.2.02.2.18v1.19c0,.18-.02.2-.2.2-.11,0-.67-.04-2.3-.04h-1.49c0,.9.04,1.31.04,1.4,0,.18-.02.2-.2.2h-1.33c-.2,0-.22-.02-.22-.2,0-.11.04-.5.04-1.4h-1.01c-1.64,0-2.2.04-2.32.04-.18,0-.2-.02-.2-.2v-1.19c0-.16.02-.18.2-.18.13,0,.68.04,2.32.04h1.01v-.27ZM120.67,318.03v-1.78h-3.28v1.78h3.28Z"/><path class="cls-4" d="M57.81,338.33c0-1.24-.05-1.93-.2-2.63.76.09,1.71.2,2.23.38.22.05.31.16.31.29,0,.09-.04.18-.07.27-.16.34-.2.79-.2,1.71v3.64c0,.94.04,1.64.05,2.27,0,.27-.11.36-.4.36h-1.44c-.25,0-.36-.09-.34-.31,0-.63.05-1.67.05-2.45v-3.53ZM66.29,341.69c0,2.66-.4,4.45-1.46,5.87-.88,1.17-2.45,2.27-3.96,2.83-.14.05-.27.09-.38.09-.14,0-.27-.05-.43-.22-.43-.43-.9-.77-1.53-1.1,1.93-.59,3.44-1.44,4.39-2.63.83-1.03,1.21-2.52,1.21-4.81v-3.4c0-1.55-.04-2.12-.2-2.93.86.07,1.73.2,2.34.4.18.05.25.16.25.31,0,.09-.02.2-.07.29-.16.38-.16.85-.16,1.96v3.35Z"/><path class="cls-4" d="M74.24,341.35c.49-1.1.76-2.02.81-2.66.92.32,1.73.65,2.23.92.16.07.22.18.22.29,0,.13-.07.25-.18.36-.2.2-.34.45-.63,1.1-1.06,2.39-2.12,4.23-3.85,6.05-.16.18-.32.27-.5.27-.14,0-.27-.05-.41-.18-.36-.29-.94-.58-1.58-.77,1.89-1.67,3.19-3.73,3.91-5.36ZM80.98,338.9c.09-.07.18-.11.25-.11.09,0,.16.04.27.14,1.96,1.96,3.47,4.3,4.52,6.61.05.09.07.16.07.25,0,.11-.05.2-.18.29-.34.27-.92.65-1.49.95-.23.11-.36.07-.43-.16-1.33-3.01-2.66-5.11-4.45-7,.65-.43,1.13-.77,1.44-.97ZM87.04,337.68c0,1.08-.86,1.93-1.94,1.93s-1.94-.85-1.94-1.93.86-1.93,1.94-1.93,1.94.85,1.94,1.93ZM84.04,337.68c0,.61.45,1.06,1.06,1.06s1.06-.45,1.06-1.06-.45-1.06-1.06-1.06-1.06.45-1.06,1.06Z"/><path class="cls-4" d="M92.47,344.04c-1.78,0-2.47.22-2.65.22-.22,0-.36-.11-.41-.38-.09-.41-.2-1.26-.27-2.18,1.17.18,2.07.22,3.89.22h5.8c1.37,0,2.75-.04,4.14-.05.27-.02.32.04.32.25.04.54.04,1.15,0,1.69,0,.22-.07.29-.32.27-1.35-.02-2.68-.04-4.01-.04h-6.48Z"/><path class="cls-4" d="M111.41,339.05c0-1.42-.04-2.16-.23-3.17.9.07,1.76.2,2.32.36.23.05.34.16.34.32,0,.07-.04.18-.11.29-.2.38-.23.76-.23,1.6v1.85l4.7-1.1c.79-.18.95-.27,1.28-.52.09-.07.18-.11.25-.11.09,0,.16.04.25.11.38.23.95.74,1.33,1.17.11.11.16.22.16.32,0,.13-.09.25-.23.36-.25.18-.4.45-.56.7-.92,1.55-1.82,2.86-2.86,3.89-.16.16-.31.27-.47.27-.11,0-.22-.04-.34-.13-.52-.31-.97-.54-1.49-.68,1.24-1.08,2.12-2.29,2.93-3.6l-4.95,1.26v4.09c0,.95.32,1.26,2.27,1.26,1.46,0,3.13-.18,4.36-.4.25-.04.27.09.31.36.09.49.16,1.03.16,1.51,0,.18-.11.25-.38.27-1.08.13-2.32.22-4.3.22-3.44,0-4.5-.74-4.5-3.17v-3.64l-1.15.31c-.97.25-1.98.52-2.54.77-.09.04-.16.07-.22.07-.13,0-.2-.09-.29-.29-.25-.47-.52-1.24-.72-1.84,1.13-.14,2.16-.32,3.38-.63l1.53-.38v-1.73ZM119.84,335.65c.09-.07.16-.05.27.04.56.43,1.21,1.15,1.71,1.93.07.11.07.2-.05.29l-.76.56c-.13.09-.22.07-.31-.05-.54-.83-1.12-1.51-1.82-2.09l.95-.67ZM121.44,334.48c.11-.07.16-.05.27.04.67.5,1.31,1.22,1.71,1.85.07.11.09.22-.05.32l-.72.56c-.14.11-.23.05-.31-.05-.49-.77-1.06-1.46-1.8-2.07l.9-.65Z"/><path class="cls-4" d="M233.37,329.68c1.66,0,2.21-.04,2.34-.04.18,0,.2.02.2.2,0,.11-.04.4-.04.81v.74c0,1.44.04,1.69.04,1.8,0,.18-.02.2-.2.2h-1.46c-.18,0-.2-.02-.2-.2v-2.03h-11.68v2.03c0,.18-.02.2-.2.2h-1.46c-.18,0-.2-.02-.2-.2,0-.13.04-.36.04-1.8v-.61c0-.54-.04-.81-.04-.94,0-.18.02-.2.2-.2.13,0,.68.04,2.34.04h.04v-2.83c0-.99-.04-1.49-.04-1.62,0-.18.02-.2.2-.2.13,0,.7.04,2.41.04h5.08c1.71,0,2.3-.04,2.41-.04.2,0,.22.02.22.2,0,.11-.04.63-.04,1.62v2.83h.04ZM232.88,336.77c0,.85.05,1.67.05,2.12,0,.59-.13,1.08-.47,1.39-.38.32-.94.47-2.54.47-.56,0-.63-.02-.74-.54-.09-.43-.23-.83-.41-1.13.68.05,1.21.07,1.71.07s.59-.14.59-.61v-.61h-5.74v.74c0,1.3.04,1.91.04,2.02,0,.18-.02.2-.2.2h-1.48c-.18,0-.2-.02-.2-.2,0-.13.04-.67.04-1.98v-4.41c0-1.31-.04-1.89-.04-2.02,0-.18.02-.2.2-.2.11,0,.68.04,2.34.04h4.34c1.66,0,2.25-.04,2.34-.04.18,0,.2.02.2.2,0,.11-.04.81-.04,2.18v2.32ZM227.14,328.62c0-.59-.04-.86-.04-.97,0-.2.02-.22.2-.22.11,0,.63.04,1.69.04h2.52v-.92h-6.57v3.13h2.2v-1.06ZM225.34,333.53v.9h5.74v-.9h-5.74ZM231.08,336.65v-.94h-5.74v.94h5.74ZM231.51,329.68v-1.03h-2.61v1.03h2.61Z"/><path class="cls-4" d="M246.01,330.6c0,.85.04,1.84.04,2.45s-.07,1.01-.4,1.28c-.31.23-.68.34-1.53.38-.56.02-.61.02-.68-.45-.05-.34-.2-.72-.34-.99.49.05.79.05,1.1.05.27,0,.32-.11.32-.5v-2.32l-.88.11v1.08c0,.74.04,1.04.04,1.15,0,.18-.02.2-.22.2h-.94c-.16,0-.18-.02-.18-.2,0-.13.04-.41.04-1.15v-.9c-.25.04-.52.07-.77.09-.11,1.44-.38,2.54-1.08,3.62-.14.23-.22.32-.32.32-.09,0-.2-.07-.4-.22-.31-.22-.7-.4-1.04-.5.76-.9,1.12-1.76,1.3-3.04h-.09c-.29.04-.52.09-.65.14-.11.04-.18.07-.29.07s-.16-.09-.2-.25c-.07-.41-.14-.85-.2-1.35.52,0,.9,0,1.53-.04.02-.4.02-.81.02-1.26v-1.03c0-.99-.04-1.44-.04-1.57,0-.18.02-.2.2-.2.13,0,.5.04,1.69.04.09-.23.18-.47.25-.7.07-.22.11-.43.13-.72.59.07,1.15.14,1.6.22.16.04.2.09.2.22,0,.09-.05.18-.13.27-.09.11-.16.23-.22.36-.05.14-.11.25-.16.36h.41c1.22,0,1.62-.04,1.75-.04.16,0,.18.02.18.2,0,.11-.04.58-.04,1.57v1.62c.25-.04.5-.07.76-.13-.07.27-.13.54-.16.95q-.04.36-.59.45v.36ZM241.15,340.5c-1.58,0-2.12.04-2.23.04-.16,0-.18-.02-.18-.18v-1.28c0-.18.02-.2.18-.2.09,0,.56.04,1.75.04v-2.07c0-.95-.04-1.39-.04-1.51,0-.18.02-.2.22-.2.11,0,.74.04,2.5.04h6.91c1.75,0,2.38-.04,2.5-.04.18,0,.2.02.2.2,0,.11-.04.56-.04,1.51v2.07c1.26,0,1.75-.04,1.85-.04.16,0,.18.02.18.2v1.28c0,.16-.02.18-.18.18-.11,0-.65-.04-2.23-.04h-11.39ZM244.52,326.87h-2.84v1.73c0,.31,0,.61-.02.88.95-.09,1.93-.2,2.86-.31v-2.3ZM242.81,327.16c.18-.11.22-.11.34.02.36.32.63.68.88,1.06.11.16.09.22-.09.32l-.63.4c-.2.13-.23.13-.34-.05-.23-.41-.5-.77-.79-1.1-.13-.14-.11-.18.09-.31l.54-.34ZM244.17,338.92v-2.25h-1.69v2.25h1.69ZM247.61,338.92v-2.25h-1.71v2.25h1.71ZM252.49,329.25c.16,0,.25-.04.32-.05.07-.04.14-.04.23-.04s.23.05.63.4c.36.31.45.49.45.58s-.07.2-.2.29-.31.29-.52.59c-.47.67-1.01,1.26-1.64,1.78.94.45,2.05.72,3.29.85-.18.23-.34.63-.45.99q-.16.54-.72.43c-1.35-.25-2.52-.7-3.51-1.35-.86.47-1.87.85-3.01,1.1-.56.13-.58.11-.83-.45-.14-.32-.31-.58-.49-.77,1.22-.2,2.25-.5,3.1-.9-.59-.59-1.08-1.3-1.44-2.09-.36,0-.54.02-.59.02-.18,0-.2-.02-.2-.2v-1.01c0-.18.02-.2.2-.2.11,0,.59.04,2,.04h3.37ZM249.56,326.17c-.02,1.26-.5,2.12-1.46,2.72-.22.14-.32.22-.43.22s-.2-.11-.4-.36c-.25-.27-.56-.5-.85-.63,1.17-.49,1.64-1.19,1.64-2.65,0-.22-.04-.34-.04-.43,0-.2.02-.22.2-.22.13,0,.38.04,1.37.04h1.44c.99,0,1.28-.04,1.39-.04.2,0,.22.02.22.22,0,.11-.04.36-.04.99v.99c0,.2.02.27.11.34.07.05.16.09.4.09.29,0,.41-.05.5-.18.11-.14.13-.4.14-1.1.23.16.56.29.99.41.34.11.34.13.31.58-.07.81-.22,1.1-.56,1.33-.31.2-.76.23-1.51.23-.63,0-1.15-.04-1.46-.16-.31-.13-.45-.38-.45-.85v-1.55h-1.51ZM249.23,330.58c.32.54.74.99,1.21,1.39.59-.43,1.06-.9,1.42-1.39h-2.63ZM249.34,336.67v2.25h1.76v-2.25h-1.76Z"/><path class="cls-4" d="M266.45,328.44c-.41,3.06-1.17,5.87-2.25,7.76-.77,1.35-1.71,2.07-3.06,2.07-1.58,0-3.19-1.69-3.19-4.63,0-1.73.74-3.38,2.03-4.68,1.51-1.51,3.42-2.3,5.85-2.3,4.32,0,6.86,2.66,6.86,6.25,0,3.35-1.89,5.45-5.54,6.55-.38.11-.54.04-.77-.32-.2-.31-.58-.72-1.26-1.13,3.04-.72,5.44-1.98,5.44-5.38,0-2.14-1.62-4.18-4.03-4.18h-.07ZM261.29,330.19c-.86.97-1.4,2.18-1.4,3.33,0,1.66.67,2.57,1.22,2.57.47,0,.86-.23,1.35-1.1.79-1.46,1.6-4.05,1.91-6.44-1.26.25-2.27.76-3.08,1.64Z"/><path class="cls-4" d="M278.23,326.86c-1.66,0-2.21.04-2.32.04-.18,0-.2-.02-.2-.2v-1.31c0-.2.02-.22.2-.22.11,0,.67.04,2.32.04h10.57c1.66,0,2.21-.04,2.32-.04.18,0,.2.02.2.22v1.31c0,.18-.02.2-.2.2-.11,0-.72-.04-2.32-.04h-3.87l-.56.52v2.7c0,1.19.02,1.6.02,1.71,0,.16-.02.18-.18.18h-1.49c-.16,0-.18-.02-.18-.18,0-.13.04-.52.04-1.71v-1.35c-1.71,1.13-3.58,2-5.63,2.65-.49.14-.54.13-.79-.38-.22-.36-.54-.77-.83-1.03,2.59-.63,5.15-1.62,7.07-3.11h-4.16ZM277.97,340.25c-1.62,0-2.16.04-2.27.04-.2,0-.22-.02-.22-.2v-1.33c0-.18.02-.2.22-.2.11,0,.65.04,2.27.04h.29v-1.31c0-.94-.02-1.66-.11-2.36.67.02,1.3.05,1.89.11.2.02.31.11.31.2,0,.16-.04.25-.11.4-.07.16-.09.5-.09,1.37v1.6h2.43v-4.54h-3.85c-1.69,0-2.29.04-2.39.04-.18,0-.2-.02-.2-.2v-1.31c0-.18.02-.2.2-.2.11,0,.7.04,2.39.04h9.58c1.69,0,2.27-.04,2.38-.04.2,0,.22.02.22.2v1.31c0,.18-.02.2-.22.2-.11,0-.68-.04-2.38-.04h-3.85v1.39h2.79c1.53,0,2.03-.04,2.14-.04.18,0,.2.02.2.2v1.28c0,.18-.02.2-.2.2-.11,0-.61-.04-2.14-.04h-2.79v1.55h4.55c1.62,0,2.16-.04,2.27-.04.2,0,.22.02.22.2v1.33c0,.18-.02.2-.22.2-.11,0-.65-.04-2.27-.04h-11.03ZM285.86,327.61c.09-.09.16-.13.22-.13s.11.04.18.09c1.42,1.01,3.15,1.78,5.38,2.3-.29.31-.54.65-.72,1.01-.16.36-.22.49-.4.49-.09,0-.2-.04-.4-.09-2.05-.67-3.8-1.51-5.15-2.61-.07-.05-.11-.11-.11-.16,0-.07.04-.13.14-.22l.85-.68Z"/><path class="cls-4" d="M305.11,330.44c.04-.4.04-.74-.02-1.22.94.23,1.66.5,2.09.77.16.09.25.32.13.49-.11.23-.23.43-.29.7-.14.76-.32,1.55-.5,2.32,1.03.52,2.14,1.22,2.81,1.73.18.11.16.2.11.38-.18.43-.56,1.19-.77,1.55-.05.09-.11.13-.16.13-.07,0-.14-.05-.22-.13-.79-.68-1.51-1.21-2.36-1.69-.92,2.07-1.89,3.38-3.64,4.73-.16.13-.25.2-.36.2-.07,0-.14-.04-.27-.13-.49-.4-.94-.58-1.57-.74,2.25-1.57,3.35-3.06,4.03-4.88-.99-.5-2.27-.9-3.56-1.1-.95,1.98-1.48,2.88-2.2,3.6-.67.7-1.39.99-2.3.99-1.04,0-2.14-.72-2.14-2.47,0-2.23,2.3-3.98,5.31-3.98.59-1.49,1.04-2.75,1.49-4.27-.99.11-1.89.22-2.48.29-.25.04-.52.09-.81.2-.09.04-.22.07-.32.07-.14,0-.23-.07-.29-.2-.16-.36-.34-1.06-.52-1.96.54.11,1.04.13,1.58.11.86,0,1.76-.09,2.79-.23.45-.07.65-.16.88-.31.07-.05.16-.07.23-.07.09,0,.18.02.25.07.45.27.88.63,1.22.99.11.11.16.2.16.31s-.07.2-.18.31c-.27.25-.34.59-.49.94-.47,1.22-.97,2.63-1.51,3.92,1.13.14,2.2.41,3.49.9.18-.83.31-1.51.38-2.32ZM295.6,335.46c0,.58.2.83.63.83.34,0,.68-.23,1.04-.68.41-.52.85-1.24,1.31-2.2-1.84.07-2.99,1.03-2.99,2.05Z"/><path class="cls-4" d="M230,195.13c-1.26,0-1.66.04-1.76.04-.16,0-.18-.02-.18-.22v-1.24c0-.18.02-.2.18-.2.11,0,.5.04,1.76.04h.49v-3.4c0-1.17-.02-1.73-.14-2.56.68.02,1.1.05,1.71.13.18.02.29.09.29.18,0,.16-.07.27-.13.4-.09.22-.11.59-.11,1.82v2.18c.34-.86.63-1.75.83-2.63.04-.16.07-.4.11-.79.43.13.92.31,1.22.49.13.07.2.14.2.22s-.05.14-.13.2c-.09.07-.14.18-.2.38-.2.72-.5,1.6-.83,2.38-.09.22-.13.31-.22.31-.07,0-.18-.05-.36-.16-.16-.09-.41-.18-.63-.23v1.12c1.17,0,1.55-.04,1.66-.04.18,0,.2.02.2.2v1.24c0,.2-.02.22-.2.22-.11,0-.47-.04-1.55-.04.56,1.01,1.26,1.91,1.96,2.59-.27.32-.49.68-.68,1.1-.11.22-.16.31-.23.31s-.14-.09-.23-.25c-.4-.59-.72-1.26-.97-1.96.02,3.65.13,6.59.13,6.95,0,.18-.02.2-.2.2h-1.37c-.18,0-.2-.02-.2-.2,0-.34.09-3.04.13-6.17-.41,1.33-.92,2.57-1.67,3.73-.11.18-.2.27-.29.27-.07,0-.14-.09-.22-.31-.2-.56-.41-.97-.67-1.26,1.13-1.42,1.93-2.84,2.63-4.99h-.32ZM229.01,189.01c.23-.09.23-.11.31.07.34.97.59,2.02.77,3.08.02.2-.02.25-.22.32l-.76.25c-.25.07-.29.09-.31-.11-.13-1.01-.36-2.09-.68-3.06-.05-.16-.05-.22.2-.31l.68-.25ZM236.66,192.1c0-.2.02-.22.2-.22.13,0,.54.04,1.87.04,0-.38-.04-.67-.09-.99.58.02,1.04.05,1.55.14.18.04.25.11.25.2s-.05.2-.09.31c-.04.09-.05.18-.07.34h.76c1.39,0,2.05-.04,2.16-.04.18,0,.2.02.2.22,0,.11-.04.63-.04,1.73v.41c.56,0,.85-.04.94-.04.2,0,.22.02.22.2v1.04c0,.18-.02.2-.22.2-.09,0-.38-.02-.94-.04v.54c0,1.1.04,1.64.04,1.75,0,.18-.02.2-.2.2-.11,0-.77-.04-2.16-.04h-2.68c-1.17,0-1.51.04-1.62.04-.18,0-.2-.02-.2-.2v-1.01c0-.2.02-.2.2-.2.11,0,.45.02,1.62.02h.4v-1.1h-2.68c-.05,1.06-.16,2.03-.29,3.01-.22,1.55-.67,3.4-1.42,4.84-.11.23-.2.34-.29.34s-.18-.09-.34-.29c-.29-.36-.63-.67-.92-.85.81-1.22,1.3-3.22,1.53-4.84.18-1.3.23-3.28.23-5.33s-.04-2.99-.04-3.1c0-.2.02-.22.2-.22.13,0,.7.04,2.39.04h1.21v-.23c0-.63-.02-1.06-.13-1.42.59,0,1.22.04,1.8.09.16.02.27.09.27.18,0,.13-.05.2-.11.32-.05.14-.07.38-.07.83v.23h1.62c1.67,0,2.25-.04,2.36-.04.16,0,.18.02.18.22v1.13c0,.18-.02.2-.18.2-.11,0-.68-.04-2.36-.04h-5.58v1.8c0,.61,0,1.19-.02,1.75h2.63v-.99c-1.35,0-1.76.04-1.89.04-.18,0-.2-.02-.2-.2v-.99ZM237.95,203.84c0,.18-.02.2-.2.2h-1.33c-.2,0-.22-.02-.22-.2,0-.09.04-.45.04-2.38v-.9c0-.9-.04-1.3-.04-1.42,0-.18.02-.2.22-.2.11,0,.58.04,2.03.04h2.74c1.44,0,1.93-.04,2.03-.04.18,0,.2.02.2.2,0,.11-.04.52-.04,1.22v1.08c0,1.93.04,2.29.04,2.39,0,.16-.02.18-.2.18h-1.37c-.18,0-.2-.02-.2-.18v-.49h-3.71v.49ZM237.95,200.37v1.6h3.71v-1.6h-3.71ZM240.26,193.26v.99h1.66v-.99h-1.66ZM241.91,195.61h-1.66v1.1h1.66v-1.1Z"/><path class="cls-4" d="M255.53,193.62c-.09-.04-.16-.09-.27-.2-.32-.29-.72-.5-1.12-.68,1.08-.94,1.37-1.69,1.37-3.1,0-.65,0-1.21-.07-1.58.63.07,1.08.16,1.62.29,1.13-.09,2.38-.29,3.22-.49.31-.09.58-.18.85-.31.38.32.61.61.95,1.04.09.11.16.22.16.34,0,.09-.05.18-.22.18-.2,0-.41-.02-.72.04-1.19.25-2.47.4-4.12.5v.61c0,.07-.02.14-.02.22h3.19c1.75,0,2.36-.04,2.47-.04.16,0,.18.02.18.22v1.03c0,.18-.02.2-.18.2-.11,0-.72-.04-2.47-.04h-.07v.86c0,.4,0,.68.02.88.23,0,.38-.02.43-.02.18,0,.2.02.2.2,0,.13-.04.65-.04,1.84v3.58c0,1.19.04,1.71.04,1.82,0,.2-.02.22-.2.22-.13,0-.76-.04-2.5-.04h-.31c1.44.79,3.17,1.22,5.2,1.42-.25.32-.49.7-.67,1.08-.16.34-.23.47-.41.47-.09,0-.22-.02-.41-.05-1.82-.32-3.71-.97-5.04-1.8-.18-.11-.16-.13.05-.27l1.04-.85h-5.6c.38.22.74.41,1.08.68.18.13.23.2.23.27,0,.13-.07.22-.27.25-.2.05-.4.16-.7.31-.99.5-2.43,1.06-4.09,1.37-.18.04-.31.05-.4.05-.2,0-.25-.09-.43-.45-.16-.34-.4-.68-.7-1.03,1.62-.18,3.33-.59,4.37-1.08.22-.11.41-.22.63-.38-1.75,0-2.36.04-2.47.04-.2,0-.22-.02-.22-.22,0-.11.04-.63.04-1.82v-3.58c0-1.19-.04-1.71-.04-1.84,0-.18.02-.2.22-.2.09,0,.59.04,1.85.04,0-.2.02-.49.02-.88v-.88h-1.6c-.18.81-.52,1.6-1.13,2.41-.16.23-.23.36-.34.36-.09,0-.2-.11-.4-.31-.36-.36-.72-.63-1.12-.85,1.24-1.08,1.48-2.38,1.48-3.92,0-.56-.02-1.06-.09-1.46.59.07,1.1.14,1.62.25,1.15-.09,2.18-.27,3.02-.49.31-.05.61-.16.85-.31.38.31.63.61.97,1.04.09.11.18.22.18.34,0,.09-.09.2-.27.2-.16,0-.38-.02-.68.05-1.22.25-2.3.38-3.92.49v.81h2.57c1.57,0,2.07-.04,2.18-.04.18,0,.2.02.2.22v1.03c0,.18-.02.2-.2.2-.09,0-.52-.02-1.6-.04v.88c0,.4,0,.68.02.88h2.57ZM250.97,194.95v.85h8.1v-.85h-8.1ZM259.07,197.81v-.86h-8.1v.86h8.1ZM259.07,198.96h-8.1v.92h8.1v-.92ZM256.91,191.85c-.18.5-.45,1.01-.85,1.46-.13.16-.23.27-.32.31h2.81c0-.2.02-.49.02-.9v-.86h-1.66Z"/><path class="cls-4" d="M271.8,195.06s-.05.05-.09.07c-.13.05-.31.23-.43.43-.25.38-.45.7-.76,1.08.38.34.79.67,1.26.99-.22.18-.56.58-.74.9-.14.25-.22.4-.32.4-.07,0-.18-.11-.36-.29-.41-.36-.77-.77-1.08-1.21v4.39c0,1.35.04,2,.04,2.09,0,.18-.02.2-.22.2h-1.42c-.18,0-.2-.02-.2-.2,0-.11.04-.74.04-2.09v-4.39c-.41.47-.85.92-1.31,1.35-.14.14-.25.22-.34.22s-.14-.09-.2-.31c-.13-.56-.34-1.1-.52-1.39,1.66-1.35,2.93-3.17,3.83-5.26h-1.44c-1.19,0-1.57.04-1.67.04-.2,0-.22-.02-.22-.2v-1.33c0-.18.02-.2.22-.2.11,0,.49.04,1.66.04v-.7c0-.76-.02-1.4-.14-2.07.68.02,1.24.05,1.87.13.18.04.29.09.29.2,0,.14-.05.25-.11.38-.11.22-.14.59-.14,1.28v.79h.45c.16,0,.25-.04.32-.09.07-.04.13-.05.2-.05.13,0,.29.11.61.47.34.32.45.49.45.67,0,.2-.07.27-.22.36-.14.07-.27.25-.41.63-.41.92-.88,1.8-1.4,2.66v.25c.11.14.22.29.34.43.27-.38.45-.7.63-1.03.11-.22.2-.43.29-.7.41.22.81.43,1.15.7l.11.11c-.02-1.33-.04-1.98-.04-2.09,0-.18.02-.2.2-.2.11,0,.68.04,2.34.04h1.13v-1.4h-1.57c-1.73,0-2.32.04-2.43.04-.18,0-.2-.02-.2-.2v-1.28c0-.16.02-.18.2-.18.11,0,.7.04,2.43.04h1.57c-.02-.83-.05-1.39-.14-1.98.68.02,1.21.05,1.84.13.18.02.29.09.29.2,0,.13-.05.22-.11.36-.07.18-.11.5-.11,1.3h2.09c-.34-.52-.7-.92-1.03-1.22-.13-.13-.11-.18.09-.29l.81-.43c.11-.05.16-.09.22-.09.07,0,.11.04.2.11.38.36.74.74,1.1,1.19.13.16.11.22-.07.32l-.74.41c1.15,0,1.6-.04,1.67-.04.2,0,.22.02.22.18v1.28c0,.18-.02.2-.22.2-.09,0-.68-.04-2.41-.04h-1.93v1.4h1.35c1.64,0,2.21-.04,2.34-.04.18,0,.2.02.2.2,0,.11-.04.94-.04,2.59v4.05c0,1.06.05,2.25.05,2.81,0,.67-.09,1.04-.43,1.35-.29.27-.85.34-1.85.34q-.56.02-.63-.41c-.07-.54-.22-1.01-.47-1.35.43.04.83.05,1.12.05.34,0,.49-.11.49-.5v-1.75h-2.16v1.31c0,1.58.04,2.36.04,2.47,0,.16-.02.18-.2.18h-1.37c-.18,0-.2-.02-.2-.18,0-.13.04-.88.04-2.47v-1.31h-1.96v1.55c0,1.53.04,2.27.04,2.38,0,.16-.02.18-.2.18h-1.39c-.18,0-.2-.02-.2-.18,0-.13.04-.85.04-2.45v-6.32ZM275.47,195.51v-1.44h-1.96v1.44h1.96ZM275.47,198.44v-1.48h-1.96v1.48h1.96ZM277.16,194.06v1.44h2.16v-1.44h-2.16ZM279.32,198.44v-1.48h-2.16v1.48h2.16Z"/><path class="cls-4" d="M285.02,198.75c.04-.34.05-.61.02-1.01.45.05,1.12.18,1.39.25.22.05.31.13.31.22s-.04.16-.09.25-.07.31-.11.59c-.11,1.06-.36,2.38-.67,3.38-.09.27-.13.4-.23.4-.09,0-.22-.07-.43-.2-.25-.16-.7-.38-.94-.47.43-1.15.65-2.23.76-3.42ZM290.15,193.36c.23-.09.25-.07.34.11.52,1.08.86,2.16,1.17,3.24.05.2,0,.25-.23.34l-.85.34c-.22.09-.27.05-.31-.14l-.2-.81-1.19.11v4.93c0,1.66.04,2.27.04,2.36,0,.18-.02.2-.2.2h-1.37c-.18,0-.2-.02-.2-.2,0-.11.04-.7.04-2.36v-4.77l-1.49.09c-.31.02-.52.07-.67.14-.09.04-.16.09-.27.09-.13,0-.16-.13-.2-.31-.09-.43-.18-.94-.25-1.51.47.04.92.05,1.33.05.36-.47.72-.95,1.06-1.44-.7-.88-1.49-1.73-2.32-2.54-.16-.13-.11-.18.02-.38l.59-.94c.07-.11.13-.16.18-.16.04,0,.09.04.16.11l.47.47c.38-.59.68-1.17.97-1.84.23-.49.32-.77.41-1.12.49.18,1.12.43,1.57.67.18.11.23.18.23.29,0,.09-.07.16-.16.23-.14.11-.22.2-.34.43-.56.99-1.03,1.71-1.58,2.5l.76.85c.41-.65.81-1.31,1.19-1.98.22-.4.4-.83.54-1.22.56.25,1.1.52,1.51.77.16.09.22.16.22.27,0,.13-.05.2-.2.27-.18.11-.32.31-.59.74-.94,1.46-1.91,2.86-2.77,3.94.68-.04,1.39-.07,2.09-.13-.13-.38-.27-.72-.43-1.08-.07-.18-.05-.22.2-.32l.74-.31ZM290.4,197.68c.22-.07.23-.04.31.16.31.94.63,2.25.77,3.29.02.2,0,.25-.23.34l-.9.36c-.27.11-.31.07-.32-.11-.11-1.15-.38-2.52-.67-3.47-.05-.2,0-.22.22-.29l.83-.29ZM294.9,194.8c-1.17,0-1.51.04-1.62.04-.18,0-.2-.02-.2-.22v-1.33c-.31.31-.63.59-.95.88-.18.16-.29.25-.38.25s-.18-.13-.32-.4c-.23-.43-.45-.7-.72-.95,1.71-1.24,2.92-2.97,3.69-4.45.18-.38.31-.7.36-1.1.59.05,1.24.11,1.82.18.16.04.23.13.23.22s-.04.18-.16.27l-.14.13c1.12,1.87,2.72,3.29,4.59,4.34-.25.29-.5.68-.72,1.22-.11.29-.18.41-.29.41-.09,0-.22-.07-.4-.22-.4-.29-.77-.58-1.12-.88v1.42c0,.2-.02.22-.2.22-.13,0-.49-.04-1.62-.04h-1.85ZM292.32,203.95c-.18,0-.2-.02-.2-.2,0-.11.04-.61.04-3.28v-1.6c0-1.6-.04-2.14-.04-2.25,0-.16.02-.18.2-.18.13,0,.63.04,2.11.04h2.92c1.48,0,1.98-.04,2.09-.04.18,0,.2.02.2.18,0,.11-.04.65-.04,1.94v1.82c0,2.63.04,3.13.04,3.24,0,.16-.02.18-.2.18h-1.39c-.18,0-.2-.02-.2-.18v-.77h-3.96v.9c0,.18-.02.2-.2.2h-1.37ZM298.44,193.09c-1.17-1.01-2.09-2.03-2.79-3.2-.65,1.15-1.44,2.23-2.38,3.2.11,0,.45.04,1.62.04h1.85c1.13,0,1.49-.04,1.62-.04h.07ZM293.89,201.27h3.96v-3.2h-3.96v3.2Z"/><polyline class="cls-1" points="97.87 222.02 88.36 231.52 78.86 222.02"/><polyline class="cls-1" points="275.37 222.02 265.86 231.52 256.36 222.02"/><polyline class="cls-1" points="97.87 358.41 88.36 367.91 78.86 358.41"/><polyline class="cls-1" points="275.37 358.41 265.86 367.91 256.36 358.41"/></g></svg>