<?xml version="1.0" encoding="UTF-8"?><svg id="_レイヤー_2" xmlns="http://www.w3.org/2000/svg" viewBox="0 0 52.96 14.12"><defs><style>.cls-1{fill:#41220e;stroke-width:0px;}</style></defs><g id="_レイヤー_1-2"><path class="cls-1" d="M52.95,7.45c-.07-.97-.35-1.98-.92-2.91-.49-.81-1.21-1.54-2.09-2.06-.02-.02-.03-.03-.05-.05-.09-.07-.18-.16-.28-.24-.11-.07-.23-.15-.35-.23-.49-.34-1.14-.66-1.9-.97-.78-.28-1.68-.55-2.68-.71-.25-.05-.51-.08-.77-.11-.26-.03-.53-.08-.8-.09-.27-.02-.55-.04-.84-.05-.28-.02-.57,0-.86-.02-.58-.02-1.18.02-1.79.05-.31.01-.61.05-.92.08-.31.03-.63.05-.94.11-.31.05-.63.09-.95.14-.32.04-.64.12-.96.18-.32.07-.65.12-.97.2-.32.08-.64.16-.96.24-1.3.32-2.59.76-3.85,1.26-1.26.51-2.48,1.09-3.66,1.7-1.18.61-2.32,1.26-3.4,1.91-1.09.64-2.12,1.3-3.09,1.92-.97.63-1.89,1.22-2.74,1.76-.85.54-1.63,1.04-2.32,1.46-.7.42-1.32.77-1.84,1.03-.36.18-.67.31-.92.42-.74.08-1.48.14-2.21.16-1.2.03-2.39-.02-3.51-.2-1.12-.18-2.2-.5-3.11-1.01-.91-.5-1.64-1.21-1.98-2.09-.17-.43-.27-.9-.28-1.36-.01-.47.04-.96.12-1.42.16-.93.47-1.78.95-2.48.47-.7,1.1-1.24,1.77-1.62.67-.38,1.37-.62,2.03-.77.67-.15,1.3-.22,1.87-.25.44-.02.84-.02,1.21,0-.62.16-1.09.5-1.26,1-.32.99.69,2.22,2.27,2.73,1.58.52,3.12.13,3.44-.87.32-.99-.69-2.22-2.27-2.73-.47-.15-.93-.22-1.36-.23-.55-.09-1.23-.18-2.04-.2-.59-.01-1.24.01-1.95.12-.71.11-1.47.31-2.23.68-.76.37-1.51.94-2.09,1.71-.59.77-1.01,1.72-1.23,2.74C.1,6.87.02,7.39,0,7.96c-.02.57.07,1.16.26,1.73.1.29.23.56.38.83.16.26.34.52.54.75.41.47.9.86,1.43,1.18,1.06.64,2.26,1.03,3.48,1.28,1.23.24,2.49.35,3.77.35,2.56-.01,5.18-.4,7.77-1.12,1.29-.36,2.56-.82,3.81-1.38.31-.14.62-.28.92-.42l.9-.43c.6-.28,1.2-.57,1.8-.85,2.4-1.13,4.77-2.29,7.14-3.32,1.18-.52,2.37-1.01,3.55-1.47,1.17-.46,2.35-.88,3.51-1.24,1.16-.36,2.32-.65,3.46-.85,1.14-.21,2.26-.32,3.34-.29,1.07.04,2.12.21,2.99.61.88.4,1.62,1.01,2.13,1.76.51.74.82,1.6.92,2.43.11.84.04,1.66-.18,2.39-.42,1.48-1.39,2.54-2.33,3.13-.27.17-.53.3-.79.42.63-.41,1-.98.94-1.57-.11-1.04-1.53-1.74-3.18-1.57-1.65.17-2.9,1.15-2.79,2.19.11,1.04,1.53,1.74,3.18,1.57.12-.01.24-.03.36-.05.61-.05,1.49-.18,2.46-.68.53-.27,1.08-.67,1.58-1.2.5-.54.93-1.22,1.23-2.02.29-.8.45-1.72.39-2.69ZM46.12,1.4c-1.2-.08-2.42-.01-3.64.17-1.22.18-2.44.46-3.66.81-1.22.34-2.44.75-3.65,1.19-1.21.45-2.42.94-3.63,1.46-2.41,1.04-4.83,2.16-7.21,3.32-.6.29-1.19.58-1.79.87l-.89.43c-.3.15-.59.28-.88.42-1.16.53-2.37.96-3.58,1.33-1.6.48-3.22.83-4.83,1.03.21-.07.44-.16.69-.27,1.08-.47,2.57-1.26,4.31-2.3.87-.51,1.81-1.07,2.79-1.67.99-.59,2.04-1.21,3.13-1.84,1.09-.63,2.23-1.24,3.4-1.84,1.17-.6,2.38-1.16,3.62-1.66,1.23-.5,2.49-.94,3.76-1.25.32-.08.64-.16.96-.24.32-.08.63-.14.94-.21.31-.06.62-.14.94-.19.31-.05.62-.1.93-.15.31-.06.62-.08.92-.12.3-.03.61-.08.9-.1.6-.04,1.18-.1,1.76-.1,1.14-.04,2.22.04,3.21.16.25.04.49.07.72.11.24.04.46.1.68.14.45.08.86.22,1.25.33.76.27,1.42.54,1.92.85.08.05.15.09.23.14-1.03-.49-2.16-.71-3.3-.8Z"/></g></svg>