<?xml version="1.0" encoding="UTF-8"?><svg id="_レイヤー_2" xmlns="http://www.w3.org/2000/svg" xmlns:xlink="http://www.w3.org/1999/xlink" viewBox="0 0 191.07 43.44"><defs><style>.cls-1{fill:url(#_名称未設定グラデーション_4-2);}.cls-1,.cls-2,.cls-3,.cls-4,.cls-5,.cls-6{stroke-width:0px;}.cls-2{fill:#000;}.cls-3{fill:#040000;}.cls-4{fill:url(#_名称未設定グラデーション_4);}.cls-5{fill:url(#_名称未設定グラデーション_4-3);}.cls-6{fill:url(#_名称未設定グラデーション_4-4);}</style><linearGradient id="_名称未設定グラデーション_4" x1="31.79" y1="-5504.61" x2="-.44" y2="-5510.24" gradientTransform="translate(0 -5482.68) scale(1 -1)" gradientUnits="userSpaceOnUse"><stop offset="0" stop-color="#280305"/><stop offset="1" stop-color="#e7211a"/></linearGradient><linearGradient id="_名称未設定グラデーション_4-2" x1="6.57" y1="-5524.88" x2="27.34" y2="-5491.52" xlink:href="#_名称未設定グラデーション_4"/><linearGradient id="_名称未設定グラデーション_4-3" x1="57.33" y1="-5494.96" x2="32.36" y2="-5499.32" xlink:href="#_名称未設定グラデーション_4"/><linearGradient id="_名称未設定グラデーション_4-4" x1="37.81" y1="-5510.69" x2="53.9" y2="-5484.84" xlink:href="#_名称未設定グラデーション_4"/></defs><g id="_レイヤー_1-2"><path class="cls-4" d="M26.23,7.56c-6.41-4.05-16.28.35-22.15,9.87-5.82,9.46-5.35,20.45,1.06,24.51,6.41,4.05,16.34-.35,22.15-9.87,5.82-9.46,5.35-20.45-1.06-24.51ZM20.76,27.95c-3.7,6.05-8.99,9.46-11.81,7.7-2.82-1.76-2.12-8.11,1.59-14.16,3.76-5.99,9.05-9.46,11.87-7.64,2.82,1.76,2.12,8.11-1.65,14.1Z"/><path class="cls-1" d="M8.42,16.14C16.65,1.74,26.23,7.56,26.23,7.56c6.41,4.05,6.88,14.99,1.06,24.51-5.82,9.46-15.75,13.87-22.15,9.81,0,0,.65.41,1.35.59,2.29.65,7.46,1.12,13.1-4.94,7.4-7.93,9.93-19.86,2.82-23.8-3.06-1.47-8.11,1.65-11.81,7.7-3.7,6.05-4.41,12.34-1.59,14.16-.06.06-8.99-4.76-.59-19.45Z"/><path class="cls-5" d="M53.02,1.15c-4.94-3.11-12.63.29-17.16,7.64-4.52,7.35-4.17,15.87.82,18.98,4.94,3.11,12.63-.29,17.16-7.64,4.52-7.35,4.17-15.81-.82-18.98ZM48.79,16.96c-2.88,4.64-6.99,7.35-9.17,5.94-2.17-1.35-1.65-6.29,1.23-10.93,2.88-4.64,6.99-7.35,9.17-5.94,2.23,1.35,1.65,6.29-1.23,10.93Z"/><path class="cls-6" d="M39.27,7.79c6.35-11.11,13.75-6.64,13.75-6.64,4.94,3.11,5.29,11.64.82,18.98-4.52,7.35-12.22,10.75-17.16,7.64,0,0,.53.29,1.06.47,1.76.53,5.76.82,10.11-3.82,5.7-6.11,7.7-15.4,2.17-18.45-2.41-1.18-6.29,1.29-9.17,5.94-2.88,4.64-3.41,9.58-1.23,10.93,0,.12-6.93-3.64-.35-15.04Z"/><path class="cls-2" d="M70.95,22.54c.65-.41,1.23-1.23,1.23-2.35,0-2-1.35-3.23-3.53-3.23h-4.47v11.52h4.64c2.17,0,3.53-1.29,3.53-3.35,0-1.12-.53-2.06-1.41-2.59ZM68.54,21.66h-2.23v-2.76h2.23c1,0,1.59.53,1.59,1.41s-.59,1.35-1.59,1.35ZM66.25,23.6h2.41c1,0,1.59.59,1.59,1.47,0,.94-.59,1.47-1.59,1.47h-2.41v-2.94Z"/><polygon class="cls-2" points="82.29 18.9 82.29 16.96 74.89 16.96 74.89 28.48 76.94 28.48 76.94 23.78 81.47 23.78 81.47 21.9 76.94 21.9 76.94 18.9 82.29 18.9"/><path class="cls-2" d="M90.28,23.48c1.29-.47,2.12-1.59,2.12-3.06,0-2.06-1.47-3.47-3.58-3.47h-4.47v11.52h2.06v-4.7h1.76l2.29,4.7h2.41l-2.59-5ZM86.4,18.9h2.23c1,0,1.65.59,1.65,1.53s-.65,1.53-1.65,1.53h-2.23v-3.06Z"/><path class="cls-3" d="M98.16,16.84v3.29c2.29.59,4.47,1.65,6.46,2.82l-.88,1.88c-1.18-.82-4.05-2.41-5.58-2.82v6.58h-1.88v-11.75h1.88Z"/><path class="cls-3" d="M108.56,26.31c2.17-.24,5.35-1.06,6.88-6.17l1.65.82c-1.29,3.64-3.41,7.17-10.4,7.4v-11.28h1.88v9.23Z"/><path class="cls-3" d="M128.48,21.78v1.88h-10.28v-1.88h10.28Z"/><path class="cls-3" d="M134.3,19.66v-2.76h1.82v2.76h4.58v1.7h-4.64c0,1.47-.12,3.23-1.41,4.7-1.47,1.65-3.11,2.23-3.82,2.41l-1-1.47c2.12-.71,3.06-1.65,3.47-2.12.88-1.06,1-2.94,1-3.11v-.47h-4.88v-1.7h4.88v.06Z"/><path class="cls-3" d="M152.04,21.78v1.88h-10.28v-1.88h10.28Z"/><path class="cls-3" d="M161.92,28.48c-1-1.18-1.88-2.12-4-4-1.7,1.94-3.17,3.06-5.17,4l-1.06-1.53c2.53-.94,4.29-2.82,4.88-3.47,1.41-1.53,2.06-3.06,2.47-4.17h-6.58v-1.7h7.87c.06.29.12.59.24,1.53l.41-.06c-.18.59-.65,2.06-2,4,.82.65,2.82,2.29,4.41,3.94l-1.47,1.47ZM160.92,18.67c-.12-.82-.24-1.41-.47-2.12l1.18-.18c.18.53.35,1.29.47,2.06l-1.18.24ZM162.74,18.49c-.12-.82-.29-1.53-.47-2.06l1.18-.12c.18.47.35,1.18.53,2.06l-1.23.12Z"/><path class="cls-3" d="M169.73,27.6c-.29.71-.59,1.12-.88,1.47l-1.06-1.06v1.06h-1.59v-7.87h-1v-1.65h1v-3.11h1.59v3.11h.94v1.06c1.53-.47,2.23-1.23,2.59-1.65h-2.47v-1.47h3.11c.12-.47.12-.71.12-1.06h1.65c0,.29-.06.59-.12,1.06h3.41c-.06,1.47-.12,2.35-.24,2.94-.06.41-.24,1.29-1.65,1.29h-1.76l-.29-1.53h1.59c.41,0,.71,0,.65-1.23h-2.23c-.65,1.47-1.94,2.53-3.41,3.06l-.88-1.23v.47h-.94v6.76c1.06-1.29,1.23-2.7,1.35-3.47h-.82v-1.53h.88v-.88h1.41v.88h1.88c0,.29,0,4.35-.41,5.35-.12.24-.29.76-1.06.76h-1.06l-.29-1.53ZM170.32,27.54c.29,0,.47-.06.53-.41.12-.35.18-1.94.24-2.7h-.59c-.12,1-.35,2.06-.76,3.06h.59v.06ZM173.96,22.96v-1h1.41v1h2.06c-.06,3.23-.06,4.35-.41,5.29-.24.59-.59.82-1.18.82h-1l-.24-1.53h.59c.29,0,.53,0,.59-.35.18-.53.18-2.06.18-2.7h-.65c-.12,1.53-.47,3.11-1.94,4.64l-1.12-1c1.23-1.41,1.53-2.53,1.65-3.64h-.76v-1.53h.82Z"/><path class="cls-3" d="M181.19,20.78c-1.06.65-1.7.94-2.12,1.12l-.82-1.65c3.23-1.29,4.76-2.76,5.47-3.82h1.88c.71.88,2,2.41,5.47,3.82l-.82,1.65c-.41-.18-1.06-.47-2.06-1.12v.76h-6.99v-.76ZM188.83,29.13c-.12-.29-.24-.47-.53-.94-1.7.18-3.88.47-9.17.59l-.24-1.7h1.88c.41-.76.82-1.82,1.12-2.76h-3.17v-1.59h11.75v1.59h-6.7c-.53,1.18-.82,1.94-1.23,2.76.41,0,2.64-.06,4.76-.24-.29-.41-.65-.82-1.35-1.65l1.41-.76c1.53,1.53,2.64,3.41,2.88,3.82l-1.41.88ZM187.13,20.02c-1.41-1.06-2.06-1.82-2.41-2.23-.65.88-1.59,1.65-2.35,2.23h4.76Z"/><path class="cls-3" d="M66.25,36.59h-2.06v-4.94h1.94c.94,0,1.53.53,1.53,1.41,0,.53-.35.88-.59,1,.29.12.65.47.65,1.12,0,.94-.59,1.41-1.47,1.41ZM66.07,32.53h-.94v1.12h.94c.41,0,.65-.24.65-.59s-.24-.53-.65-.53ZM66.13,34.53h-1v1.23h1c.41,0,.65-.29.65-.59,0-.41-.18-.65-.65-.65Z"/><path class="cls-3" d="M69.66,36.59c-.71,0-1.06-.53-1.06-1.06v-3.88h.88v3.82c0,.24.12.35.29.35h.35v.76h-.47Z"/><path class="cls-3" d="M73.36,36.18c-.24.24-.59.47-1.12.47s-.88-.24-1.12-.47c-.29-.35-.41-.76-.41-1.41s.06-1.06.41-1.41c.24-.24.59-.47,1.12-.47s.88.24,1.12.47c.29.35.41.76.41,1.41-.06.65-.12,1.06-.41,1.41ZM72.65,33.89c-.12-.12-.24-.18-.41-.18s-.29.06-.41.18c-.18.18-.18.47-.18.88,0,.35,0,.71.18.88.12.12.24.18.41.18s.29-.06.41-.18c.18-.18.18-.53.18-.88,0-.35,0-.65-.18-.88Z"/><path class="cls-3" d="M77.06,36.18c-.24.24-.59.47-1.12.47s-.88-.24-1.12-.47c-.29-.35-.41-.76-.41-1.41s.06-1.06.41-1.41c.24-.24.59-.47,1.12-.47s.88.24,1.12.47c.29.35.41.76.41,1.41s-.12,1.06-.41,1.41ZM76.35,33.89c-.12-.12-.24-.18-.41-.18s-.29.06-.41.18c-.18.18-.18.47-.18.88,0,.35,0,.71.18.88.12.12.24.18.41.18s.29-.06.41-.18c.18-.18.18-.53.18-.88.06-.35,0-.65-.18-.88Z"/><path class="cls-3" d="M80.29,36.59v-.35c-.24.29-.53.35-.88.35s-.71-.12-.88-.35c-.35-.35-.35-1-.35-1.53s0-1.18.35-1.53c.18-.18.53-.35.88-.35s.65.12.88.35v-1.65h.88v4.94h-.88v.12ZM79.7,33.77c-.53,0-.59.47-.59,1.06s.06,1.06.59,1.06.59-.47.59-1.06-.06-1.06-.59-1.06Z"/><path class="cls-3" d="M84.76,32.53v1.23h1.94v.88h-1.94v2h-.94v-4.94h3.23v.88h-2.29v-.06Z"/><path class="cls-3" d="M88.81,36.59c-.71,0-1.06-.53-1.06-1.06v-3.88h.88v3.82c0,.24.12.35.29.35h.35v.76h-.47Z"/><path class="cls-3" d="M92.52,36.18c-.24.24-.59.47-1.12.47s-.88-.24-1.12-.47c-.29-.35-.41-.76-.41-1.41s.06-1.06.41-1.41c.24-.24.59-.47,1.12-.47s.88.24,1.12.47c.29.35.41.76.41,1.41s-.12,1.06-.41,1.41ZM91.81,33.89c-.12-.12-.24-.18-.41-.18s-.29.06-.41.18c-.18.18-.18.47-.18.88,0,.35,0,.71.18.88.12.12.24.18.41.18s.29-.06.41-.18c.18-.18.18-.53.18-.88.06-.35,0-.65-.18-.88Z"/><path class="cls-3" d="M97.33,36.59h-.71l-.76-2.29-.76,2.29h-.71l-1.12-3.58h.94l.59,2.23.71-2.23h.65l.71,2.23.59-2.23h.94l-1.06,3.58Z"/><path class="cls-3" d="M103.21,36.59l-.94-1.94h-.71v1.94h-.94v-4.94h1.88c1,0,1.59.71,1.59,1.53,0,.71-.41,1.12-.88,1.29l1.12,2.12h-1.12ZM102.45,32.53h-.88v1.29h.88c.41,0,.71-.29.71-.65,0-.41-.29-.65-.71-.65Z"/><path class="cls-3" d="M105.62,35.06c0,.47.29.82.76.82.41,0,.59-.12.82-.35l.53.53c-.35.35-.71.59-1.35.59-.82,0-1.65-.41-1.65-1.82,0-1.18.65-1.82,1.53-1.82,1,0,1.53.71,1.53,1.7v.41h-2.17v-.06ZM106.91,34.06c-.12-.24-.29-.35-.59-.35s-.47.18-.59.35c-.06.12-.06.24-.06.41h1.35c-.06-.18-.06-.29-.12-.41Z"/><path class="cls-3" d="M109.91,36.65c-.59,0-1.06-.06-1.53-.53l.59-.59c.29.29.71.35.94.35.29,0,.65-.12.65-.35,0-.18-.12-.29-.35-.35l-.59-.06c-.65-.06-1.06-.35-1.06-1,0-.76.65-1.18,1.35-1.18.53,0,1,.12,1.35.41l-.53.59c-.18-.18-.53-.24-.82-.24-.35,0-.53.18-.53.35,0,.12.06.29.35.29l.59.06c.71.06,1.06.47,1.06,1.06.06.76-.65,1.18-1.47,1.18Z"/><path class="cls-3" d="M113.38,36.59c-.71,0-1.06-.53-1.06-1.06v-1.76h-.35v-.71h.35v-1.06h.88v1.06h.65v.71h-.65v1.7c0,.24.12.35.29.35h.29v.76h-.41Z"/><path class="cls-3" d="M116.61,33.94c-.12-.12-.24-.24-.47-.24-.29,0-.59.24-.59.65v2.17h-.88v-3.53h.88v.35c.18-.24.53-.41.88-.41s.59.12.82.35l-.65.65Z"/><path class="cls-3" d="M118.31,32.53c-.29,0-.59-.24-.59-.59s.24-.59.59-.59c.29,0,.53.24.53.59s-.24.59-.53.59ZM117.84,36.59v-3.58h.88v3.58h-.88Z"/><path class="cls-3" d="M121.13,36.65c-.71,0-1.59-.41-1.59-1.82s.88-1.82,1.59-1.82c.47,0,.88.18,1.18.47l-.59.59c-.18-.18-.35-.29-.59-.29s-.35.06-.53.24c-.12.18-.18.41-.18.82,0,.35.06.65.18.82.12.18.29.24.53.24s.41-.06.59-.29l.59.59c-.29.29-.71.47-1.18.47Z"/><path class="cls-3" d="M124.25,36.59c-.71,0-1.06-.53-1.06-1.06v-1.76h-.35v-.71h.35v-1.06h.88v1.06h.65v.71h-.65v1.7c0,.24.12.35.29.35h.29v.76h-.41Z"/><path class="cls-3" d="M126.01,32.53c-.29,0-.59-.24-.59-.59s.24-.59.59-.59c.29,0,.53.24.53.59s-.24.59-.53.59ZM125.54,36.59v-3.58h.88v3.58h-.88Z"/><path class="cls-3" d="M129.83,36.18c-.24.24-.59.47-1.12.47s-.88-.24-1.12-.47c-.29-.35-.41-.76-.41-1.41s.06-1.06.41-1.41c.24-.24.59-.47,1.12-.47s.88.24,1.12.47c.29.35.41.76.41,1.41s-.06,1.06-.41,1.41ZM129.18,33.89c-.12-.12-.24-.18-.41-.18s-.29.06-.41.18c-.18.18-.18.47-.18.88,0,.35,0,.71.18.88.12.12.24.18.41.18s.29-.06.41-.18c.18-.18.18-.53.18-.88s0-.65-.18-.88Z"/><path class="cls-3" d="M133.18,36.59v-2.17c0-.47-.29-.65-.59-.65s-.59.18-.59.65v2.17h-.88v-3.58h.88v.35c.24-.24.59-.35.88-.35.35,0,.65.12.82.29.29.29.35.65.35,1v2.29h-.88Z"/><path class="cls-3" d="M138.53,32.53v4.05h-.94v-4.05h-1.29v-.88h3.47v.88h-1.23Z"/><path class="cls-3" d="M142,33.94c-.12-.12-.24-.24-.47-.24-.29,0-.59.24-.59.65v2.17h-.88v-3.53h.88v.35c.18-.24.53-.41.88-.41s.59.12.82.35l-.65.65Z"/><path class="cls-3" d="M145.11,36.59v-.29c-.24.24-.47.35-.88.35s-.71-.12-.88-.29-.29-.47-.29-.82c0-.59.41-1.06,1.23-1.06h.82v-.18c0-.41-.18-.59-.65-.59-.35,0-.47.06-.71.29l-.59-.59c.35-.41.71-.47,1.29-.47,1,0,1.53.41,1.53,1.29v2.35h-.88ZM145.11,35.06h-.71c-.29,0-.47.18-.47.41s.18.41.53.41c.24,0,.41,0,.59-.18.12-.12.12-.24.12-.47v-.18h-.06Z"/><path class="cls-3" d="M147.4,32.53c-.29,0-.59-.24-.59-.59s.24-.59.59-.59c.29,0,.53.24.53.59s-.24.59-.53.59ZM146.93,36.59v-3.58h.88v3.58h-.88Z"/><path class="cls-3" d="M150.87,36.59v-2.17c0-.47-.29-.65-.59-.65s-.59.18-.59.65v2.17h-.88v-3.58h.88v.35c.24-.24.59-.35.88-.35.35,0,.65.12.82.29.29.29.35.65.35,1v2.29h-.88Z"/><path class="cls-3" d="M153.4,35.06c0,.47.29.82.76.82.41,0,.59-.12.82-.35l.53.53c-.35.35-.71.59-1.35.59-.82,0-1.65-.41-1.65-1.82,0-1.18.65-1.82,1.53-1.82,1,0,1.53.71,1.53,1.7v.41h-2.17v-.06ZM154.69,34.06c-.12-.24-.29-.35-.59-.35s-.47.18-.59.35c-.06.12-.06.24-.06.41h1.35c-.06-.18-.06-.29-.12-.41Z"/><path class="cls-3" d="M158.39,33.94c-.12-.12-.24-.24-.47-.24-.29,0-.59.24-.59.65v2.17h-.88v-3.53h.88v.35c.18-.24.53-.41.88-.41s.59.12.82.35l-.65.65Z"/><path class="cls-3" d="M160.8,36.65c-.59,0-1.06-.06-1.53-.53l.59-.59c.29.29.71.35.94.35.29,0,.65-.12.65-.35,0-.18-.12-.29-.35-.35l-.59-.06c-.65-.06-1.06-.35-1.06-1,0-.76.65-1.18,1.35-1.18.53,0,1,.12,1.35.41l-.53.59c-.18-.18-.53-.24-.82-.24-.35,0-.53.18-.53.35,0,.12.06.29.35.29l.59.06c.71.06,1.06.47,1.06,1.06.06.76-.65,1.18-1.47,1.18Z"/><path class="cls-3" d="M164.74,36.59v-4.94h.94v4.94h-.94Z"/><path class="cls-3" d="M168.79,36.59v-2.17c0-.47-.29-.65-.59-.65s-.59.18-.59.65v2.17h-.88v-3.58h.88v.35c.24-.24.59-.35.88-.35.35,0,.65.12.82.29.29.29.35.65.35,1v2.29h-.88Z"/><path class="cls-3" d="M171.85,36.65c-.59,0-1.06-.06-1.53-.53l.59-.59c.29.29.71.35.94.35.29,0,.65-.12.65-.35,0-.18-.12-.29-.35-.35l-.59-.06c-.65-.06-1.06-.35-1.06-1,0-.76.65-1.18,1.35-1.18.53,0,1,.12,1.35.41l-.53.59c-.18-.18-.53-.24-.82-.24-.35,0-.53.18-.53.35,0,.12.06.29.35.29l.59.06c.71.06,1.06.47,1.06,1.06.06.76-.65,1.18-1.47,1.18Z"/><path class="cls-3" d="M175.32,36.59c-.71,0-1.06-.53-1.06-1.06v-1.76h-.35v-.71h.35v-1.06h.88v1.06h.65v.71h-.65v1.7c0,.24.12.35.29.35h.29v.76h-.41Z"/><path class="cls-3" d="M177.02,32.53c-.29,0-.59-.24-.59-.59s.24-.59.59-.59c.29,0,.53.24.53.59s-.24.59-.53.59ZM176.55,36.59v-3.58h.88v3.58h-.88Z"/><path class="cls-3" d="M179.55,36.59c-.71,0-1.06-.53-1.06-1.06v-1.76h-.35v-.71h.35v-1.06h.88v1.06h.65v.71h-.59v1.7c0,.24.12.35.29.35h.29v.76h-.47Z"/><path class="cls-3" d="M182.9,36.59v-.35c-.24.24-.59.35-.88.35-.35,0-.65-.12-.82-.29-.29-.29-.35-.65-.35-1v-2.29h.88v2.17c0,.47.29.65.59.65s.59-.18.59-.65v-2.17h.88v3.58h-.88Z"/><path class="cls-3" d="M185.84,36.59c-.71,0-1.06-.53-1.06-1.06v-1.76h-.35v-.71h.35v-1.06h.88v1.06h.65v.71h-.65v1.7c0,.24.12.35.29.35h.29v.76h-.41Z"/><path class="cls-3" d="M187.83,35.06c0,.47.29.82.76.82.41,0,.59-.12.82-.35l.53.53c-.35.35-.71.59-1.35.59-.82,0-1.65-.41-1.65-1.82,0-1.18.65-1.82,1.53-1.82,1,0,1.53.71,1.53,1.7v.41h-2.17v-.06ZM189.07,34.06c-.12-.24-.29-.35-.59-.35s-.47.18-.59.35c-.06.12-.06.24-.06.41h1.35c0-.18-.06-.29-.12-.41Z"/></g></svg>