<?xml version="1.0" encoding="UTF-8"?><svg id="_レイヤー_2" xmlns="http://www.w3.org/2000/svg" viewBox="0 0 193.18 36.22"><defs><style>.cls-1{fill:#231815;}.cls-1,.cls-2{stroke-width:0px;}.cls-2{fill:#d193d1;}</style></defs><g id="_レイヤー_1-2"><path class="cls-1" d="M47.06,23.99h3.25c.77,0,1.24.15,1.7.46.46.31.62.77.62,1.39s-.15.93-.46,1.24c-.46.46-1.08.62-1.86.62h-1.24v2.32q0,.15.15.31c.15,0,.15.15.31.15h.77v.31h-3.25v-.31h.93l.15-.15v-5.26c0-.15,0-.31-.15-.31s-.15-.15-.46-.15h-.46v-.62ZM49.07,27.4h.93c.62,0,.93-.15,1.24-.31s.31-.62.31-1.24c0-.31,0-.62-.15-.93-.15-.15-.31-.31-.46-.46-.15-.15-.62-.15-1.08-.15-.31,0-.62,0-.62.15s-.15.15-.15.31v2.63Z"/><path class="cls-1" d="M54.95,26.31c.62,0,1.08.15,1.39.62.46.46.62.93.62,1.55,0,.46-.15.93-.31,1.24-.15.31-.46.62-.77.77-.31.31-.62.31-.93.31-.62,0-1.08-.15-1.39-.62s-.62-.93-.62-1.55.15-1.24.62-1.55c.31-.46.77-.77,1.39-.77ZM54.95,26.62c-.31,0-.62.15-.77.46-.15.31-.31.77-.31,1.39s.15,1.24.31,1.55c.15.31.46.46.77.46s.62-.15.93-.46c.15-.31.31-.77.31-1.55,0-.62-.15-1.08-.31-1.39-.31-.31-.62-.46-.93-.46Z"/><path class="cls-1" d="M57.27,26.47h1.86v.31h-.62v.31l.93,2.32.77-2.32c-.15-.31-.15-.46-.31-.46s-.31-.15-.46-.15v-.31h2.17v.31h-.46l-.15.15v.15l.93,2.32.77-2.17v-.31q0-.15-.15-.15c-.15,0-.15-.15-.46-.15v-.31h1.7v.31c-.15,0-.31.15-.46.15-.15.15-.15.31-.31.46l-.93,3.87h-.31l-1.24-2.94-1.08,2.94h-.31l-1.55-3.71c0-.15-.15-.15-.15-.31h-.31v-.31h.15Z"/><path class="cls-1" d="M68.26,28.64h-3.1c0,.62.15,1.08.31,1.39.31.31.62.46.93.46.62,0,1.08-.31,1.39-1.08l.31.15c-.31.77-.93,1.24-1.7,1.24-.62,0-1.08-.15-1.39-.62s-.62-.93-.62-1.55.15-1.24.62-1.7c.31-.46.93-.62,1.39-.62s.77.15,1.08.31.46.46.62.93c.15.31.15.62.15,1.08ZM65.17,28.33h1.86q.15,0,.31-.15s.15-.15.15-.31c0-.31-.15-.62-.31-.77-.15-.31-.46-.31-.77-.31s-.62.15-.77.46c-.31.15-.31.46-.46,1.08Z"/><path class="cls-1" d="M68.57,26.47h1.55v1.7c.15-.62.31-.93.62-1.24.15-.31.46-.46.77-.46.15,0,.46,0,.62.15s.15.31.15.62c0,.15,0,.31-.15.46,0,0-.15,0-.31,0s-.31,0-.31-.15q-.15-.15-.15-.31v-.46h-.15c-.15,0-.31,0-.46.15s-.31.46-.46.77c-.15.62-.31.93-.31,1.39v.93q0,.15.15.31s.15.15.31.15h.46v.31h-2.63v-.31h.46c.15,0,.31,0,.31-.15l.15-.15v-2.63c0-.15,0-.31-.15-.46q-.15-.15-.31-.15h-.31v-.46h.15Z"/><path class="cls-1" d="M76.62,28.64h-3.1c0,.62.15,1.08.31,1.39.31.31.62.46.93.46.62,0,1.08-.31,1.39-1.08l.31.15c-.31.77-.93,1.24-1.7,1.24-.62,0-1.08-.15-1.39-.62s-.62-.93-.62-1.55.15-1.24.62-1.7c.31-.46.93-.62,1.39-.62s.77.15,1.08.31.46.46.62.93c0,.31.15.62.15,1.08ZM73.52,28.33h1.86q.15,0,.31-.15s.15-.15.15-.31c0-.31-.15-.62-.31-.77-.15-.31-.46-.31-.77-.31s-.62.15-.77.46c-.31.15-.46.46-.46,1.08Z"/><path class="cls-1" d="M79.41,23.99h1.7v5.73c0,.15,0,.31.15.46q.15.15.31.15h.31v.31h-1.39l-.15-.93c-.15.31-.31.46-.62.62-.15.15-.46.31-.77.31-.46,0-.93-.15-1.24-.62s-.46-.93-.46-1.55c0-.77.15-1.24.62-1.7.31-.31.77-.46,1.24-.46.31,0,.46,0,.77.15s.46.31.62.62v-2.32q0-.15-.15-.31c-.15,0-.31-.15-.46-.15h-.31v-.31h-.15ZM79.1,26.78c-.31,0-.62.15-.77.46-.15.31-.31.77-.31,1.39s.15,1.24.31,1.39c.15.31.46.46.77.46s.62-.15.77-.46c.31-.31.31-.77.31-1.39s-.15-1.08-.31-1.39c-.15-.31-.46-.46-.77-.46Z"/><path class="cls-1" d="M85.75,23.99v3.1c.15-.31.31-.46.62-.62.15-.15.46-.15.77-.15.46,0,.93.15,1.24.62s.46.93.46,1.55-.15,1.24-.62,1.7c-.31.31-.77.62-1.39.62-.31,0-.46,0-.77-.15-.15-.15-.46-.31-.62-.46-.15.31-.31.46-.46.62h-.15c.15-.31.15-.77.15-1.08v-4.8c0-.15,0-.31-.15-.31-.15-.15-.31-.15-.46-.15h-.15v-.31l1.55-.15ZM86.84,26.78c-.31,0-.62.15-.77.46-.15.31-.31.77-.31,1.39s.15,1.08.31,1.39c.15.31.46.46.77.46s.62-.15.77-.46c.31-.31.31-.77.31-1.55,0-.62-.15-1.08-.31-1.39-.15-.15-.46-.31-.77-.31Z"/><path class="cls-1" d="M89.31,26.47h2.01v.31h-.46l-.15.15v.15l1.24,2.48.93-2.17c0-.15.15-.31.15-.46s0-.15-.15-.31c-.15,0-.31-.15-.46-.15v-.31h1.7v.31c-.31,0-.62.15-.62.46l-1.55,3.71c-.31.62-.46,1.08-.77,1.24-.31.31-.62.31-.93.31-.15,0-.46,0-.62-.15-.15-.15-.15-.31-.15-.46s0-.31.15-.31q.15-.15.31-.15t.31.15c.15,0,.15.15.15.31v.31s0,.15.15.15.15,0,.31-.15c.15,0,.31-.15.31-.31.15-.15.31-.46.62-1.08l-1.55-3.41c0-.15-.15-.15-.15-.31-.15,0-.15-.15-.31-.15v-.15h-.46Z"/><path class="cls-1" d="M96.59,23.99h3.56c.62,0,1.24.15,1.55.46.31.31.62.62.62,1.08,0,.31-.15.77-.31.93-.31.31-.62.46-1.08.62.62.15,1.08.31,1.39.62.31.31.46.62.46,1.08,0,.31-.15.62-.31.93s-.46.46-.93.62c-.46.15-.93.31-1.39.31h-3.41v-.31h.46c.15,0,.31,0,.31-.15l.15-.15v-5.42q0-.15-.15-.31s-.15-.15-.31-.15h-.62v-.15ZM98.6,27.09h1.24c.46,0,.77-.15.93-.31s.31-.62.31-1.08c0-.31,0-.62-.15-.77s-.31-.31-.46-.46c-.15-.15-.62-.15-1.08-.15-.31,0-.62,0-.62.15-.15,0-.15.15-.15.31v2.32ZM98.6,27.4v2.63q0,.15.15.31s.15.15.31.15h.77c.46,0,.93-.15,1.24-.31.31-.31.31-.62.31-1.08s-.15-.77-.46-1.08c-.31-.31-.62-.46-1.08-.46h-1.24v-.15Z"/><path class="cls-1" d="M103.09,23.99h5.42l.15,2.32h-.31c-.15-.77-.31-1.24-.62-1.55-.31-.31-.62-.46-1.24-.46h-1.24v2.63h.62c.31,0,.62-.15.77-.31s.31-.46.31-.93h.31v2.94h-.31c0-.46-.15-.93-.31-1.08s-.46-.31-.77-.31h-.62v2.48c0,.15,0,.31.15.31,0,0,.15.15.31.15h.62v.31h-3.25v-.31h.62c.15,0,.31,0,.31-.15,0,0,.15-.15.15-.31v-5.26q0-.15-.15-.31c-.15-.15-.15,0-.31,0h-.62v-.15Z"/><path class="cls-1" d="M108.82,23.99h3.41c.62,0,1.24.15,1.55.46.31.31.62.77.62,1.24,0,.31,0,.62-.15.77s-.31.46-.62.62c-.31.15-.77.31-1.24.31.46.15.77.31.93.31.15.15.31.31.46.46.15.15.15.62.31,1.08.15.46.15.62.31.77s.15.15.31.15.15,0,.31-.15.15-.31.15-.77h.31c0,1.08-.46,1.55-1.08,1.55-.15,0-.46,0-.62-.15s-.31-.31-.31-.46-.15-.62-.15-1.24c0-.46-.15-.62-.15-.93-.15-.15-.31-.31-.46-.46-.15-.15-.46-.15-.77-.15h-.62v2.63q0,.15.15.31s.15.15.31.15h.62v.31h-3.1v-.31h.62c.15,0,.31,0,.31-.15,0,0,.15-.15.15-.31v-5.42q0-.15-.15-.31s-.15-.15-.31-.15h-.62v-.15h-.46ZM110.83,27.09h.77c.46,0,.93-.15,1.24-.31s.46-.62.46-1.08c0-.31,0-.62-.15-.77s-.31-.31-.46-.46c-.15,0-.62-.15-1.08-.15h-.62c-.15,0-.15.15-.15.31,0,0,0,2.48,0,2.48Z"/><path class="cls-1" d="M120.12,23.99h5.42l.15,2.48h-.31c-.15-1.55-.77-2.17-1.55-2.17-.15,0-.31,0-.31.15,0,0-.15.15-.15.31v5.42q0,.15.15.31h.93v.31h-3.1v-.31h1.08l.15-.15v-5.73q0-.15-.15-.31s-.15-.15-.31-.15c-.46,0-.77.15-1.08.62-.31.31-.46.93-.46,1.55h-.31l-.15-2.32Z"/><path class="cls-1" d="M126,26.47h1.55v1.7c.15-.62.31-.93.62-1.24.15-.31.46-.46.77-.46.15,0,.46,0,.62.15s.15.31.15.62c0,.15,0,.31-.15.46-.15,0-.31,0-.46,0s-.31,0-.31-.15q-.15-.15-.15-.31v-.46h-.15c-.15,0-.31,0-.46.15-.15.15-.31.46-.46.77-.15.62-.31.93-.31,1.39v.93q0,.15.15.31s.15.15.31.15h.46v.31h-2.63v-.31h.46c.15,0,.31,0,.31-.15l.15-.15v-2.63c0-.15,0-.31-.15-.46s-.15-.15-.31-.15h-.31v-.46h.31Z"/><path class="cls-1" d="M134.36,30.18l.15.31c-.15.15-.46.31-.77.31-.15,0-.31,0-.46-.15-.15-.15-.31-.31-.31-.62-.31.31-.46.46-.77.62s-.46.15-.77.15c-.46,0-.77-.15-.93-.31s-.31-.46-.31-.77c0-.46.31-.77.77-1.08s1.24-.46,2.01-.62v-.62c0-.15-.15-.46-.31-.62s-.46-.31-.77-.31-.46,0-.62.15-.15.15-.15.31c0,0,0,.15.15.15q.15.15.15.31c0,.15,0,.31-.15.31q-.15.15-.31.15c-.15,0-.31,0-.31-.15s-.15-.31-.15-.46c0-.31.15-.62.46-.77.31-.31.77-.31,1.39-.31.46,0,.93.15,1.08.31.31.15.46.46.46.77v2.32c0,.15,0,.31.15.46,0,.15.15.15.31.15-.31.15-.15.15,0,0ZM132.81,28.48c-.77.15-1.24.31-1.7.46-.31.15-.31.46-.31.77,0,.15,0,.46.15.62s.31.15.46.15c.31,0,.62-.15.93-.46.31-.31.46-.62.46-1.08,0,0,0-.46,0-.46Z"/><path class="cls-1" d="M134.67,26.47h1.7v3.87s.15.15.31.15h.46v.31h-2.48v-.31h.46q.15,0,.31-.15s.15-.15.15-.31v-2.63c0-.15,0-.31-.15-.31-.15-.15-.31-.15-.46-.15h-.31v-.46ZM135.9,23.99c.15,0,.31,0,.31.15q.15.15.15.31c0,.15,0,.31-.15.31q-.15.15-.31.15c-.15,0-.31,0-.31-.15q-.15-.15-.15-.31c0-.15,0-.31.15-.31,0-.15.15-.15.31-.15Z"/><path class="cls-1" d="M137.45,26.47l1.39-.15c0,.31.15.62.15.93.15-.31.46-.46.62-.62.31-.15.62-.15.93-.15s.46,0,.77.15c.15.15.31.31.46.46.15.31.15.46.15.77v2.01c0,.15,0,.31.15.31,0,0,.15.15.31.15h.31v.31h-2.17v-.31h.15c.15,0,.31,0,.46-.15s.15-.15.15-.31v-1.86c0-.46,0-.62-.15-.93s-.46-.46-.77-.46-.62.15-.93.46c-.15.31-.31.62-.31,1.08v1.55c0,.15,0,.31.15.31,0,0,.15.15.31.15h.31v.31h-2.17v-.31h.31c.15,0,.31,0,.31-.15s.15-.15.15-.15v-2.79c0-.15,0-.31-.15-.46s-.31-.15-.46-.15h-.46Z"/><path class="cls-1" d="M146.89,28.64h-3.1c0,.62.15,1.08.31,1.39.31.31.62.46.93.46.62,0,1.08-.31,1.39-1.08l.31.15c-.46.93-1.08,1.24-1.86,1.24-.62,0-1.08-.15-1.39-.62-.31-.46-.62-.93-.62-1.55s.15-1.24.62-1.7c.31-.46.93-.62,1.39-.62s.77.15,1.08.31.46.46.62.93c.31.31.31.62.31,1.08ZM143.8,28.33h1.86q.15,0,.31-.15s.15-.15.15-.31c0-.31-.15-.62-.31-.77-.15-.31-.46-.31-.77-.31s-.62.15-.77.46c-.31.15-.31.46-.46,1.08Z"/><path class="cls-1" d="M147.2,26.47h1.55v1.7c.15-.62.31-.93.62-1.24.15-.31.46-.46.77-.46.15,0,.46,0,.62.15s.15.31.15.62c0,.15,0,.31-.15.46s-.15,0-.31,0-.31,0-.31-.15q-.15-.15-.15-.31v-.46h-.15c-.15,0-.31,0-.46.15-.15.15-.31.46-.46.77-.15.62-.31.93-.31,1.39v.93q0,.15.15.31s.15.15.31.15h.46v.31h-2.63v-.31h.46c.15,0,.31,0,.31-.15l.15-.15v-2.63c0-.15,0-.31-.15-.46q-.15-.15-.31-.15h-.31v-.46h.15Z"/><path class="cls-1" d="M151.69,29.1c.15.46.46.93.62,1.08.31.15.46.31.93.31.31,0,.62,0,.77-.15s.31-.31.31-.62c0-.15,0-.31-.15-.31,0-.15-.15-.15-.31-.15s-.46-.15-.93-.15c-.46-.15-.77-.15-.93-.31s-.31-.31-.46-.46c-.15-.15-.15-.31-.15-.62s.15-.62.31-.77c.31-.31.62-.46,1.08-.46.31,0,.77.15,1.08.31l.31-.31h.15l.15,1.55h-.31c-.15-.46-.31-.77-.46-.93-.15-.15-.46-.31-.77-.31s-.46,0-.62.15-.31.31-.31.46,0,.31.15.46c.15.15.46.15.93.31.46.15.77.15.93.15.31.15.46.15.62.46.15.15.15.46.15.62,0,.31-.15.62-.46.93-.31.31-.62.31-1.08.31s-.77-.15-1.24-.46l-.31.62h-.31v-1.7h.31Z"/><path class="cls-1" d="M157.73,23.99h3.1v.31h-.46q-.31,0-.46.15s-.15.15-.15.31v5.11c0,.15,0,.31.15.31,0,0,.15.15.46.15h.62v.31h-3.1v-.31h.62c.15,0,.31,0,.46-.15,0,0,.15-.15.15-.46v-5.11c0-.15,0-.31-.15-.31s-.31-.15-.46-.15h-.46v-.15h-.31Z"/><path class="cls-1" d="M161.13,26.47l1.39-.15c0,.31.15.62.15.93.15-.31.46-.46.62-.62.31-.15.62-.15.93-.15s.46,0,.77.15.31.31.46.46c.15.31.15.46.15.77v2.01c0,.15,0,.31.15.31,0,0,.15.15.31.15h.31v.31h-2.17v-.31h.15c.15,0,.31,0,.46-.15.15,0,.15-.15.15-.31v-1.86c0-.46,0-.62-.15-.93s-.46-.46-.77-.46-.62.15-.93.46c-.15.31-.31.62-.31,1.08v1.55c0,.15,0,.31.15.31,0,0,.15.15.31.15h.31v.31h-2.17v-.31h.31c.15,0,.31,0,.31-.15l.15-.15v-2.79c0-.15,0-.31-.15-.46s-.31-.15-.46-.15h-.46Z"/><path class="cls-1" d="M167.17,29.1c.15.46.46.93.62,1.08.31.15.46.31.93.31.31,0,.62,0,.77-.15s.31-.31.31-.62c0-.15,0-.31-.15-.31,0-.15-.15-.15-.31-.15s-.46-.15-.93-.15c-.46-.15-.77-.15-.93-.31s-.31-.31-.46-.46c-.15-.15-.15-.31-.15-.62s.15-.62.31-.77c.31-.31.62-.46,1.08-.46.31,0,.77.15,1.08.31l.31-.31h.15l.15,1.55h-.31c-.15-.46-.31-.77-.46-.93-.15-.15-.46-.31-.77-.31s-.46,0-.62.15-.31.31-.31.46,0,.31.15.46c.15.15.46.15.93.31.46.15.77.15.93.15.31.15.46.15.62.46.15.15.15.46.15.62,0,.31-.15.62-.46.93-.31.31-.62.31-1.08.31s-.77-.15-1.24-.46l-.31.31h-.31l-.15-1.7h.46v.31Z"/><path class="cls-1" d="M171.82,24.77h.31v1.7h1.39v.46h-1.39v2.79c0,.31,0,.46.15.46.15.15.31.15.46.15s.31-.15.46-.31c.15-.15.15-.46.31-.93h.31c0,.62-.15.93-.31,1.24-.31.31-.62.46-.93.46s-.62-.15-.77-.31-.31-.46-.31-.77v-2.79h-.77v-.31c.31,0,.62-.15.77-.46.15-.31.31-.77.31-1.39Z"/><path class="cls-1" d="M173.98,26.47h1.7v3.87s.15.15.31.15h.46v.31h-2.48v-.31h.46q.15,0,.31-.15s.15-.15.15-.31v-2.63c0-.15,0-.31-.15-.31-.15-.15-.31-.15-.46-.15h-.31v-.46ZM175.22,23.99c.15,0,.31,0,.31.15q.15.15.15.31c0,.15,0,.31-.15.31q-.15.15-.31.15c-.15,0-.31,0-.31-.15q-.15-.15-.15-.31c0-.15,0-.31.15-.31,0-.15.15-.15.31-.15Z"/><path class="cls-1" d="M177.85,24.77h.31v1.7h1.39v.46h-1.39v2.79c0,.31,0,.46.15.46.15.15.31.15.46.15s.31-.15.46-.31c.15-.15.15-.46.31-.93h.31c0,.62-.15.93-.31,1.24-.31.31-.62.46-.93.46s-.62-.15-.77-.31-.31-.46-.31-.77v-2.79h-.77v-.31c.31,0,.62-.15.77-.46.15-.31.31-.77.31-1.39Z"/><path class="cls-1" d="M181.57,26.47v2.79c0,.31.15.62.31.77s.46.31.62.31c.31,0,.62-.15.93-.46.31-.31.31-.62.31-1.08v-1.55c0-.15,0-.31-.15-.31-.15-.15-.31-.15-.62-.15v-.31h1.55v3.41c0,.15,0,.31.15.31q.15.15.31.15h.31v.31h-1.39l-.15-.77c-.31.31-.46.46-.77.62s-.46.15-.77.15-.77-.15-.93-.31c-.31-.31-.46-.62-.46-1.24v-1.86c0-.15,0-.31-.15-.31s-.31-.15-.62-.15v-.31h1.55Z"/><path class="cls-1" d="M186.68,24.77h.31v1.7h1.39v.46h-1.39v2.79c0,.31,0,.46.15.46.15.15.31.15.46.15s.31-.15.46-.31c.15-.15.15-.46.31-.93h.31c0,.62-.15.93-.31,1.24-.31.31-.62.46-.93.46s-.62-.15-.77-.31-.31-.46-.31-.77v-2.79h-.93v-.31c.31,0,.62-.15.77-.46.31-.31.46-.77.46-1.39Z"/><path class="cls-1" d="M192.87,28.64h-3.1c0,.62.15,1.08.31,1.39.31.31.62.46.93.46.62,0,1.08-.31,1.39-1.08l.31.15c-.46.93-1.08,1.24-1.86,1.24-.62,0-1.08-.15-1.39-.62-.31-.46-.62-.93-.62-1.55s.15-1.24.62-1.7c.31-.46.93-.62,1.39-.62s.77.15,1.08.31.46.46.62.93c.31.31.31.62.31,1.08ZM189.93,28.33h1.86q.15,0,.31-.15s.15-.15.15-.31c0-.31-.15-.62-.31-.77-.15-.31-.46-.31-.77-.31s-.62.15-.77.46c-.46.15-.46.46-.46,1.08Z"/><path class="cls-1" d="M52.94,19.97h-6.19v-.46c.62,0,1.08,0,1.24-.15.31-.15.46-.15.62-.46.15-.15.15-.46.15-.93v-8.36c0-.46,0-.77-.15-1.08s-.31-.46-.62-.46c-.31-.15-.77-.15-1.39-.15v-.46h7.12c.93,0,1.7.15,2.32.46s1.24.77,1.55,1.24.46,1.08.46,1.7c0,.46-.15.77-.31,1.08-.15.31-.31.77-.62.93-.31.31-.62.62-1.08.77s-.93.31-1.39.46c.46.46.93.93,1.55,1.7l.93,1.08.15.15c0,.15.15.15.31.31.31.31.46.62.77.93.15.15.46.46.62.62.15.15.31.31.62.46.15.15.31.15.62.31v.31h-1.7c-.31,0-.77-.15-1.08-.31s-.62-.46-.93-.77c-.31-.31-.62-.77-1.08-1.24l-1.24-1.55c-.62-.77-1.08-1.24-1.24-1.55-.31-.31-.46-.46-.77-.46h-.93v3.87c0,.31,0,.62.15.93.15.15.31.31.62.46.15,0,.31.15.62.15h.62v.46h-.31ZM48.91,9.6v8.82c0,.62-.15.93-.62,1.08.77,0,1.24-.31,1.24-.93v-10.06c0-.31-.15-.46-.31-.46-.15-.15-.46-.15-.77-.15.31.15.46.31.62.46s-.15.62-.15,1.24ZM50.93,9.75v4.02h1.39c.46,0,.93-.15,1.39-.31.46-.15.77-.31,1.08-.62.46-.46.77-1.08.77-2.17s-.31-2.01-1.08-2.48c-.31-.15-.62-.31-.77-.31-.31,0-.62-.15-1.08-.15s-.77,0-1.08.15-.46.31-.46.62c-.15.31-.15.77-.15,1.24ZM53.25,14.24h-.77c.15.15.46.46.77.77s.62.77,1.08,1.24c.46.62.93,1.08,1.24,1.7.46.46.77.93,1.08,1.24.31.31.62.46.93.46s.62.15.77.15c-.31-.15-.77-.46-1.08-.77s-.77-.77-1.08-1.24c-.46-.46-.77-.93-1.24-1.55s-.77-1.08-1.24-1.55c0-.15-.15-.15-.15-.31,0,0-.15,0-.31-.15ZM54.02,13.78c.77-.15,1.39-.46,1.86-.93s.62-1.24.62-2.01-.15-1.55-.62-2.01c-.31-.46-.93-.77-1.7-.93.46.31.93.62,1.24,1.08s.46,1.08.46,1.86-.15,1.39-.46,1.86c-.31.46-.77.77-1.39,1.08Z"/><path class="cls-1" d="M60.52,7.43h6.04v.46c-.62,0-.93.15-1.24.15-.31.15-.62.46-.62.93v8.98c0,.31,0,.62.15.77,0,.15.15.31.31.46.15.15.31.15.46.15s.46,0,.93.15v.46h-6.04v-.46c.46,0,.93,0,1.24-.15s.46-.31.46-.46c.15-.15.15-.62.15-1.08v-9.13c0-.15-.15-.46-.31-.46-.15-.15-.31-.15-.46-.15s-.62,0-1.08-.15c0,0,0-.46,0-.46ZM62.69,9.6v8.82c0,.31,0,.46-.15.62s-.31.31-.62.46c.46,0,.77,0,.93-.15.31-.15.31-.31.31-.77v-9.44c0-.46-.15-.77-.31-.93-.15-.15-.46-.31-.93-.31.46.31.62.62.62,1.39q.15,0,.15.31,0-.15,0,0Z"/><path class="cls-1" d="M79.1,7.28l.15,3.87h-.46c-.31-.62-.62-1.08-.93-1.55-.31-.46-.77-.77-1.08-1.08s-.77-.46-1.24-.62c-.46-.15-.77-.15-1.24-.15-.77,0-1.55.31-2.17.77s-1.08,1.24-1.55,2.17c-.31.93-.46,1.86-.46,3.1,0,1.08.15,2.17.62,3.1.46.93.93,1.55,1.55,2.17.62.46,1.39.77,2.17.77.46,0,.93-.15,1.24-.31.46-.15.62-.46.93-.77.15-.15.31-.46.31-.77v-.93c0-.62,0-1.08-.15-1.24,0-.31-.15-.46-.46-.46-.31-.15-.62-.15-1.24-.15v-.46h5.88v.46c-.62,0-.93.15-1.24.15-.15.15-.31.31-.46.46-.15.31-.15.62-.15,1.24v2.01c-.46.31-1.08.46-1.55.62-.62.15-1.08.31-1.7.46-.62.15-1.08.15-1.7.15-1.08,0-2.01-.15-2.79-.46-.77-.31-1.55-.77-2.17-1.39s-.93-1.24-1.24-2.01-.46-1.55-.46-2.48c0-.77.15-1.7.46-2.48s.77-1.55,1.24-2.17c.62-.62,1.24-1.08,2.01-1.55.77-.31,1.55-.46,2.48-.46.62,0,1.39.15,2.17.31.77.15,1.24.31,1.55.31.62,0,.93-.15,1.08-.46h.62v-.15ZM72.91,19.97c-.62-.31-1.08-.46-1.55-.77s-.77-.62-1.24-1.08c-.62-.62-.93-1.24-1.24-2.01s-.46-1.55-.46-2.32c0-.93.15-1.86.62-2.63.46-.93.93-1.7,1.55-2.32.31-.31.62-.62.93-.77.31-.15.62-.31,1.08-.46-.46.15-.77.15-1.08.31-.46.15-1.08.46-1.39.93-.46.46-.93.93-1.24,1.39-.31.62-.62,1.08-.77,1.7-.15.62-.31,1.24-.31,1.86,0,.77.15,1.7.46,2.48s.77,1.55,1.24,2.01c.31.31.62.62,1.08.77.31.15.62.31,1.08.46.31.15.77.31,1.24.46ZM77.39,16.41v1.24c0,.31-.15.77-.31,1.08-.15.31-.46.62-.93.93.46-.15.77-.31,1.08-.46.31-.15.46-.46.62-.77.15-.31.15-.62.15-1.24v-1.24c0-.31-.15-.46-.31-.62-.15-.15-.46-.31-.93-.31.15.15.46.31.46.46,0,.31.15.62.15.93ZM78.32,9.6l-.15-1.7c-.31.15-.46.15-.62.15h-.93c.46.31,1.08.93,1.7,1.55Z"/><path class="cls-1" d="M90.09,19.97v-.46c.62,0,1.08-.15,1.24-.15s.46-.31.46-.46c.15-.15.15-.62.15-1.08v-3.87h-6.35v4.64c0,.15.15.46.15.46.15.15.31.15.46.31.15,0,.62.15,1.08.15v.46h-6.04v-.46c.46,0,.77,0,.93-.15.15,0,.46-.15.62-.31.15-.15.15-.31.31-.46v-9.29c0-.62-.15-.93-.46-1.08-.31-.15-.77-.31-1.55-.31v-.46h6.04v.46c-.62,0-1.08,0-1.24.15-.31.15-.46.31-.46.62s-.15.62-.15,1.24v3.25h6.35v-3.71c0-.46,0-.77-.15-.93s-.31-.31-.46-.46c-.31,0-.62-.15-1.24-.15v-.46h6.04v.46c-.62,0-1.08,0-1.24.15-.31.15-.46.31-.46.46,0,.31,0,.77,0,1.39v7.74c0,.46,0,.93.15,1.08,0,.31.31.46.46.62.31.15.62.15,1.24.15v.46h-5.88ZM83.59,9.44v8.51c0,.46,0,.93-.15,1.08s-.31.31-.46.46h.31c.31,0,.62-.15.77-.46.15-.31.15-.62.15-1.24v-9.29c0-.31-.15-.46-.31-.62-.15-.15-.46-.15-.77-.15.15.15.46.31.46.46,0,.46,0,.77,0,1.24ZM92.25,9.29v8.82c0,.46,0,.77-.15.93s-.31.31-.46.46h.31c.31,0,.62-.15.77-.31s.15-.46.15-.93v-8.82c0-.62,0-.93-.15-1.24s-.31-.46-.77-.46h-.31c.31.15.46.31.46.46,0,.31.15.62.15,1.08Z"/><path class="cls-1" d="M97.05,7.43h11.3l.62,2.94h-.62c-.46-.77-.93-1.39-1.39-1.7-.46-.31-.93-.62-1.39-.62s-1.08-.15-1.7-.15v10.22c0,.46,0,.62.15.93.15.15.31.31.62.46.31.15.62.15,1.24.15v.31h-6.35v-.46c.46,0,.93,0,1.24-.15.31,0,.46-.15.62-.46.15-.15.15-.62.15-1.08V7.89c-.62,0-1.24,0-1.7.15-.46.15-.93.31-1.24.46s-.62.46-.77.62c-.15.31-.46.62-.93,1.08h-.62l.77-2.79ZM98.76,7.89h-1.55l-.31,1.55c.31-.46.62-.62.77-.93.31-.15.62-.31,1.08-.62ZM102.47,17.8v-8.82c0-.31,0-.62-.15-.77s-.15-.31-.46-.31v10.22c0,.31,0,.62-.15.93-.15.15-.31.46-.46.62h.15c.46,0,.77-.15.77-.46.31-.31.31-.77.31-1.39ZM108.04,9.29l-.46-1.39h-1.7c.46.15.77.31,1.08.62.46.15.77.46,1.08.77Z"/><path class="cls-1" d="M117.95,14.24v3.87c0,.31,0,.62.15.77.15.15.31.31.46.46.15.15.46.15.77.15h.93v.46h-6.5v-.46c.46,0,.77,0,1.08-.15.31,0,.46-.15.62-.31s.31-.31.31-.46v-8.67c0-.62,0-1.08-.15-1.39,0-.31-.15-.46-.46-.62-.31-.15-.77-.15-1.39-.15v-.31h6.19c.31,0,.93,0,2.01.15.31,0,.62.15,1.08.31.31.15.77.46,1.08.62.31.31.62.62.77,1.08s.31.77.31,1.24-.15.93-.31,1.39c-.15.46-.46.77-.93,1.08s-.93.46-1.55.77c-.62.15-1.39.31-2.32.31h-2.17v-.15ZM115.94,10.06v8.36c0,.62-.15.93-.62,1.08h.31c.62,0,.93-.31.93-.93v-9.6c0-.15,0-.46-.15-.62,0-.15-.15-.31-.31-.31s-.46-.15-.77-.15c.31.15.46.31.46.31.15.15.15.31.15.62v1.24ZM117.95,13.78h1.24c.77,0,1.39-.15,1.86-.31.46-.15.93-.46,1.08-.93.31-.46.46-1.08.46-1.7,0-1.08-.31-1.86-1.08-2.48-.31-.15-.62-.31-.93-.46-.31,0-.62-.15-1.08-.15s-.93,0-1.08.15-.31.31-.46.62c0,.31-.15.77-.15,1.24v4.02h.15ZM121.35,13.78c.77-.15,1.24-.46,1.55-.77.31-.46.46-1.08.46-2.01s-.15-1.55-.46-2.01c-.31-.46-.93-.77-1.55-.93.31.15.62.46.93.62.31.31.46.62.46.93.15.31.15.77.15,1.24,0,1.55-.62,2.48-1.55,2.94Z"/><path class="cls-1" d="M126,7.43h6.04v.46c-.62,0-.93.15-1.24.15-.31.15-.46.46-.46.77v8.98c0,.31,0,.62.15.77,0,.15.15.31.31.46.15.15.31.15.46.15s.46,0,.93.15v.62h-6.04v-.46c.46,0,.93,0,1.24-.15.31-.15.46-.31.46-.46.15-.15.15-.62.15-1.08v-9.13c0-.15-.15-.46-.31-.46-.15-.15-.31-.15-.46-.15s-.62,0-1.08-.15v-.46h-.15ZM128.16,9.6v8.82c0,.31,0,.46-.15.62s-.31.31-.62.46c.46,0,.77,0,.93-.15.31-.15.31-.31.31-.77v-9.44c0-.46-.15-.77-.31-.93s-.46-.31-.93-.31c.46.31.62.62.62,1.39q.15,0,.15.31,0-.15,0,0Z"/><path class="cls-1" d="M132.81,7.89v-.46h6.19v.46h-.31c-.46,0-.77,0-1.08.15s-.46.31-.46.46-.15.62-.15.93v8.82c0,.31,0,.62.15.77s.31.31.62.46c.31.15.77.15,1.24.15s.93,0,1.24-.15c.46,0,.77-.15,1.24-.46.46-.15.77-.46,1.24-.77.46-.31.77-.77,1.24-1.39h.77l-1.08,3.1h-10.84v-.46h.15c.46,0,.93,0,1.24-.15.31-.15.46-.31.46-.46.15-.15.15-.46.15-.93v-8.51c0-.46,0-.77-.15-1.08-.15-.15-.31-.46-.62-.46-.15,0-.62,0-1.24,0ZM135.13,9.29v9.13c0,.31,0,.46-.15.62s-.31.31-.46.46h.31c.62,0,.93-.46.93-1.24v-8.51c0-.62,0-1.08-.15-1.39s-.31-.46-.77-.46h-.31c.31.15.46.31.46.46s.15.46.15.93ZM141.17,19.5h1.7l.77-1.7c-.31.46-.77.77-1.08,1.08-.46.15-.93.46-1.39.62Z"/><path class="cls-1" d="M153.55,17.8l-.93-2.48h-4.33l-.62,1.55c-.15.31-.15.77-.15,1.24s.15.77.31,1.08c.31.31.62.46,1.08.46v.31h-4.18v-.46c.93-.15,1.7-.93,2.17-2.32l3.1-7.89c-.15-.31-.31-.46-.46-.62-.15-.15-.46-.15-.77-.15v-.46l2.17-.77h.77l4.18,10.53c.31.62.46.93.77,1.24.31.15.62.31,1.08.46v.46h-5.26v-.46c.46,0,.77-.15,1.08-.15.15-.15.31-.31.31-.62,0-.15-.15-.46-.31-.93ZM145.81,19.5h1.7c-.31-.31-.62-.62-.62-1.08v-.31c-.15.31-.31.62-.46.77s-.31.46-.62.62ZM148.6,14.7h3.87l-1.86-4.8-2.01,4.8ZM154.32,17.49l-3.25-8.05c-.15-.46-.31-.62-.46-.93s-.46-.31-.62-.31h-.46c.31.15.46.31.62.46s.31.46.46.77l3.1,8.05c.15.46.31.77.31,1.08,0,.15,0,.31-.15.31,0,0-.15.15-.46.31h.15c.31,0,.46,0,.62-.15s.15-.31.15-.46c.31,0,.31-.46,0-1.08Z"/><path class="cls-1" d="M158.5,7.43h11.3l.62,2.94h-.46c-.46-.77-.93-1.39-1.39-1.7s-.93-.62-1.39-.62-1.08-.15-1.7-.15v10.22c0,.46,0,.62.15.93.15.15.31.31.62.46.31.15.62.15,1.24.15v.31h-6.35v-.46c.46,0,.93,0,1.24-.15.31,0,.46-.15.62-.46.15-.15.15-.62.15-1.08V7.89c-.62,0-1.24,0-1.7.15-.46.15-.93.31-1.24.46-.31.15-.62.46-.77.62-.15.31-.46.62-.93,1.08h-.62l.62-2.79ZM160.21,7.89h-1.39l-.31,1.55c.31-.46.62-.62.77-.93.15-.15.46-.31.93-.62ZM163.92,17.8v-8.82c0-.31,0-.62-.15-.77s-.15-.31-.46-.31v10.22c0,.31,0,.62-.15.93-.15.15-.31.46-.46.62h.15c.46,0,.77-.15.77-.46.31-.31.31-.77.31-1.39ZM169.49,9.29l-.46-1.39h-1.7c.46.15.77.31,1.08.62.46.15.77.46,1.08.77Z"/><path class="cls-1" d="M175.07,13.78v3.87c0,.46,0,.77.15,1.08,0,.31.15.46.31.46.15.15.46.15.77.15h1.24c.62,0,1.24-.15,1.7-.31.46-.15,1.08-.46,1.55-.93.46-.46.93-.93,1.55-1.55h.77l-1.08,3.25h-10.99v-.46c.46,0,.93,0,1.24-.15.31-.15.46-.15.62-.46.15-.15.15-.46.15-.77v-8.82c0-.46,0-.77-.15-.93s-.31-.31-.62-.46c-.31,0-.62-.15-1.24-.15v-.15h10.53l1.08,2.79h-.62c-.31-.46-.77-.77-1.24-1.24-.46-.31-1.08-.62-1.7-.93-.62-.15-1.24-.31-2.01-.31-.62,0-.93,0-1.24.15-.31.15-.46.31-.62.46s-.15.46-.15.77v3.87h1.86c1.55,0,2.32-.77,2.32-2.17h.62v4.8h-.62c0-.77-.31-1.24-.62-1.55-.31-.31-.93-.46-1.55-.46h-2.01v.15ZM173.21,9.44v8.67c0,.46,0,.77-.15.93s-.31.31-.46.46c.46,0,.77-.15.93-.46.15-.31.15-.62.15-1.24v-8.67c0-.46-.15-.77-.31-1.08-.15-.15-.46-.31-.93-.31.15.15.31.31.46.46.15.46.31.77.31,1.24ZM179.25,14.4v-1.7c-.31.46-.62.62-1.24.93.31.15.62.15.77.31.15,0,.31.15.46.46ZM180.64,7.89h-1.55c.46.15.77.31,1.24.46.31.15.77.46,1.08.77l-.77-1.24ZM180.95,19.5l.62-1.55c-.31.31-.62.62-.93.93-.31.15-.62.46-1.24.77h1.55v-.15Z"/><path class="cls-1" d="M184.04,15.48h.62c.31.93.77,1.7,1.24,2.32.46.62.93,1.08,1.55,1.39.62.31,1.08.46,1.7.46.77,0,1.39-.31,1.86-.77.46-.46.77-1.08.77-1.86,0-.62-.15-1.24-.46-1.55-.31-.31-.77-.62-1.24-.77s-1.08-.31-1.86-.46-1.39-.31-1.7-.31c-.46-.15-.93-.46-1.39-.77-.31-.31-.62-.62-.77-1.08s-.31-.93-.31-1.39.15-.93.31-1.39c.15-.46.46-.77.77-1.24.31-.31.62-.62,1.08-.77.46-.15.93-.31,1.39-.31s.93,0,1.39.15c.62.15.93.15,1.24.15s.62,0,.93-.15h.62l.31,3.71h-.62c-.62-1.08-1.24-1.86-1.86-2.48-.62-.62-1.39-.93-2.32-.93-.46,0-.77.15-1.24.31-.31.15-.62.46-.93.77s-.31.77-.31,1.24c0,.62.15,1.08.62,1.39s1.08.62,1.86.77,1.55.31,2.17.46,1.08.31,1.55.46c.62.31,1.24.77,1.55,1.39s.62,1.24.62,2.01-.15,1.39-.46,2.01c-.31.62-.77,1.08-1.39,1.55-.62.31-1.39.62-2.17.62-.46,0-.77,0-.93-.15-.15,0-.62-.15-1.08-.31-.46-.15-.93-.31-1.24-.31-.46,0-.93.15-1.08.62h-.46v-4.8h-.31ZM184.2,9.75c-.15.46-.15.77-.15,1.08s0,.62.15.93c.15.31.31.62.46.93.15.31.46.46.77.62.31.31.77.46,1.24.46.46.15,1.08.15,1.86.31.77.15,1.39.31,1.7.46.62.15,1.08.46,1.39.93.31.46.46.93.46,1.55,0,.46-.15.93-.31,1.39.46-.46.77-1.08.77-1.7,0-.77-.15-1.24-.46-1.7-.31-.46-.77-.77-1.39-.93-.46-.15-1.24-.31-2.17-.46s-1.39-.31-1.39-.31c-.77-.15-1.55-.62-1.86-1.08-.46-.62-.62-1.24-.62-1.86v-.31q-.46-.15-.46-.31ZM184.2,17.18v2.32c.15-.15.31-.31.46-.46.15,0,.31-.15.62-.15-.15-.31-.31-.46-.46-.46-.15-.15-.15-.31-.31-.46,0-.15-.15-.46-.31-.77ZM191.01,9.75l-.31-1.7c-.15,0-.46.15-.62.15s-.46,0-.77-.15c.31.15.46.31.62.46s.31.46.62.62c.31.31.46.46.46.62Z"/><path class="cls-2" d="M18.11,0C8.05,0,0,8.05,0,18.11s8.05,18.11,18.11,18.11,18.11-8.05,18.11-18.11S28.02,0,18.11,0ZM19.97,2.32c3.71.77,6.04,2.79,6.5,5.42.46,2.32-.62,4.8-2.63,6.81,0-.15,0-.31-.15-.62-1.24-5.57-5.11-10.06-9.6-11.3,1.24-.31,2.48-.46,3.87-.46.77,0,1.39.15,2.01.15ZM6.5,7.74c1.86-2.17,4.18-3.1,6.66-2.48,1.08.31,2.32.93,3.25,1.7-5.57,4.18-8.98,4.8-10.22,4.18-.15-.15-.62-.31-.46-1.24,0-.77.31-1.55.77-2.17ZM3.71,11.45c.31.62.77,1.24,1.39,1.55s1.39.46,2.32.46c2.32,0,5.26-1.24,8.82-3.56-1.24,4.18-4.64,10.53-13.62,11.76-.31-1.08-.46-2.32-.46-3.56,0-2.48.62-4.64,1.55-6.66ZM3.41,24.15c10.84-1.7,14.4-10.06,15.63-14.7,1.08,1.55,1.86,3.25,2.32,5.11,1.55,6.5-1.39,13.31-8.05,18.57h0c-4.49-1.39-8.05-4.64-9.91-8.98ZM18.11,33.9c-.62,0-1.08,0-1.7-.15,5.26-4.8,8.05-10.68,7.89-16.56,3.41-2.48,5.26-6.35,4.49-9.91-.15-.46-.15-.77-.31-1.24,3.41,2.94,5.42,7.12,5.42,11.92,0,8.82-7.12,15.94-15.79,15.94Z"/></g></svg>