<?xml version="1.0" encoding="UTF-8"?><svg id="_レイヤー_2" xmlns="http://www.w3.org/2000/svg" viewBox="0 0 133.47 30.31"><defs><style>.cls-1{fill:#c69c6d;stroke-width:0px;}</style></defs><g id="_レイヤー_1-2"><path class="cls-1" d="M14.18,24.8c-2.84-1.3-5.65-3.56-5.65-6.95,0-8.28,14.25-12.85,18.57-15.15,0,0,2.48-2.7,3.13-2.7.14,0,.43.43.43.58s-.07.22-.36.36c-.61.36-1.76,1.22-2.63,2.12-4.14,4.5-5.15,15.77-10.83,22.28.76.18,1.37.18,2.23.18.22,0,.47.36.47.43s-.14.14-.43.14c-.65,0-1.55-.14-2.56-.43-2.52,2.77-5.9,4.64-10.83,4.64-2.7,0-4.9-.83-5.47-1.12-.14-.07-.25-.14-.25-.22s.07-.18.18-.18,1.84.83,4.72.83c3.82,0,6.8-1.98,9.29-4.82ZM14.58,24.33c5.18-6.33,8.14-16.63,11.77-20.77-3.56,1.76-15.77,6.12-15.77,14.51,0,2.92,1.98,5.04,4,6.26Z"/><path class="cls-1" d="M27.02,16.27c0,.65-.97,2.02-1.76,3.38,1.33-1.04,5.18-3.6,6.55-3.6.58,0,1.01,1.04,1.01,1.51,0,.4-2.74,3.09-2.74,5,0,.32.22.47.5.47,2.2,0,6.05-3.82,6.05-3.82,0,0,.14-.14.22-.14.11,0,.18.11.18.14,0,.07-.4.43-.4.43,0,0-4.14,4.1-6.05,4.1-.9,0-2.05-1.12-2.05-2.3,0-1.58,1.69-3.85,1.69-4.1,0-.04-.04-.07-.11-.07-.4,0-3.17,1.37-5.15,3.2-2.3,2.12-2.59,3.89-2.92,3.89-.36,0-.97-.9-.97-1.66s3.67-5.11,4.18-7.88c0-.29.18-.32.36-.32.36,0,1.4.83,1.4,1.76Z"/><path class="cls-1" d="M35.99,21.89c0-3.49,2.66-7.96,4.82-11.52-1.37.32-2.2.72-2.3.72-.36,0-.79-.65-.79-.97,0-.11,0-.18.18-.25.76-.25,2.3-.36,3.46-.4,1.26-2.05,2.23-3.71,2.23-4.61,0-.18.07-.25.18-.25.5,0,1.66,1.44,1.66,2.48,0,.29-.65,1.19-1.51,2.41,4,.14,5.76.97,5.76,1.04s-.07.22-.14.22c-.11,0-2.27-.76-5.44-.76h-.54c-2.3,3.2-5.9,8.39-5.9,12.56,0,.43.25.61.58.61,1.94,0,5.83-4.21,7.88-7.38-.86-.36-1.98-.72-1.98-1.62,0-1.33,1.66-2.52,2.45-2.52.58,0,1.44.72,1.44.97,0,.68-.54,1.8-1.37,3.06,1.15.54,2.92.83,2.92,1.76,0,1.37-2.45,3.31-2.45,4.68,0,.43.22.83.72.83,1.3,0,5.08-3.74,5.08-3.74,0,0,.14-.14.22-.14.11,0,.18.11.18.14,0,.07-.29.32-.4.43,0,0-3.78,3.92-5.51,3.92-1.08,0-2.23-.94-2.23-1.94,0-2.12,1.94-3.85,1.94-4.97,0-.29-.25-.5-.61-.68-2.3,3.46-6.62,7.88-8.78,7.88-.83,0-1.73-.83-1.73-1.98ZM47.22,12.67c-.36,0-1.48.76-1.48,2.05,0,.32.22.58.54.79.68-1.12,1.12-2.09,1.12-2.66,0-.11-.11-.18-.18-.18Z"/><path class="cls-1" d="M56.93,22.32c-1.04.83-2.02,1.3-2.48,1.3-.86,0-2.41-.86-2.41-2.52,0-.72.14-1.37.4-1.98,0-.07-.04-.14-.04-.25,0-3.06,3.31-5.25,5.22-5.25,1.62,0,2.81,1.04,2.81,2.56,0,2.38-1.55,4.43-3.1,5.79,2.16-.14,4.03-1.62,5.15-2.74,0,0,.11-.14.22-.14s.18.11.18.14c0,.07-.29.32-.4.43-1.08.97-2.77,2.56-5.54,2.66ZM56.68,14.9c.43,0,1.15,1.01,1.15,1.37,0,.22-.25.36-.47.47-1.33.79-3.17,2.38-3.96,3.96.61.79,1.69,1.26,2.99,1.33,1.51-1.33,2.99-3.64,2.99-5.98,0-1.19-.68-1.94-2.09-1.94s-3.96,1.66-4.39,4.03c.58-.94,1.37-1.66,2.12-2.3.58-.5,1.19-.94,1.66-.94ZM53.08,21.99c0,.65.4,1.19,1.01,1.19.54,0,1.26-.32,1.98-.86-1.19-.11-2.2-.5-2.84-1.19-.11.29-.14.58-.14.86Z"/><path class="cls-1" d="M72.69,25.12c.07,0,.14.07.14.14,0,.14-.14.22-.32.22-1.55,0-3.46-1.76-3.53-5.8-2.59,2.56-5,4.46-6.15,4.46-.65,0-1.8-1.08-1.8-1.94,0-2.63,4.03-7.27,5.76-7.27,1.19,0,2.16.5,2.16.83,0,.11-.07.18-.22.18-2.05,0-6.05,5.33-6.05,7.27,0,.22.14.32.25.32,1.19,0,3.53-1.87,6.05-4.43.32-5.58,5.69-14.4,8.67-14.4.76,0,1.4.83,1.4,1.76,0,1.55-3.71,6.33-7.63,10.65-.25.94-.5,1.58-.5,3.64,0,2.3.9,4.21,1.76,4.36ZM78.02,6.41c-1.8,0-5,5.51-6.37,9.86,3.56-4,6.77-8.32,6.77-9.47,0-.22-.14-.4-.4-.4Z"/><path class="cls-1" d="M77.74,16.63c0,.97-3.78,5.08-3.78,6.8,0,.18.14.36.32.36,1.33,0,6.41-6.55,7.63-6.55.5,0,1.15.94,1.15,1.51,0,.61-1.22,2.23-1.22,3.17,0,.25.14.4.47.4,1.69,0,4.97-3.1,4.97-3.1,0,0,.14-.14.25-.14.07,0,.14.11.14.14,0,.07-.29.32-.4.43,0,0-3.42,3.31-5.58,3.31-.79,0-1.69-.47-1.69-1.69,0-.9.36-1.51.36-2.02,0-.04-.04-.11-.14-.11-.58,0-4.82,5.36-6.01,5.36-.72,0-2.02-.79-2.02-2.12,0-2.45,3.82-6.08,3.82-7.52,0-.18.07-.25.29-.25.54,0,1.44,1.04,1.44,2.02Z"/><path class="cls-1" d="M89.08,24.48c-1.3,0-2.66-.86-2.66-2.56,0-3.6,4-7.6,6.23-7.6.9,0,1.8.65,1.8,1.62,0,.43-.29,1.12-.94,1.8-.04.04-.36.11-.5.11-.04,0-.07-.04-.07-.07s.04-.11.11-.18c.54-.54.94-1.22.94-1.62,0-.18-.11-.36-.36-.36-1.91,0-5.4,3.53-5.4,6.59,0,.9.43,1.58,1.37,1.58,2.66,0,7.45-4.57,7.45-4.57,0,0,.14-.14.22-.14s.14.11.14.14c0,.07-.25.32-.36.43,0,0-5,4.82-7.96,4.82Z"/><path class="cls-1" d="M105.01,9.86c1.87,0,3.92.43,3.92.5,0,.11-.07.22-.14.22-.11,0-1.44-.25-3.28-.25-1.22,0-1.83.18-1.83.18-2.63,3.78-6.77,9.79-6.77,13.93,0,1.58.61,2.23,1.73,2.23.14,0,.32.22.32.32,0,.14-.22.18-.36.18-.94,0-2.63-1.15-2.63-3.56,0-3.49,2.81-8.5,5.11-12.56-1.33.22-2.02.61-2.09.61-.29,0-.76-.61-.76-.83,0-.07,0-.14.18-.22.58-.25,1.76-.47,3.24-.61,1.33-2.34,2.38-4.25,2.38-5.15,0-.18.07-.25.18-.25.5,0,1.66,1.44,1.66,2.48,0,.32-.68,1.33-1.73,2.77h.86Z"/><path class="cls-1" d="M106.76,15.73c0,.65-4.1,5.29-4.1,6.84,0,.43.25.61.58.61,2.05,0,6.23-3.96,6.23-3.96,0,0,.14-.14.25-.14.07,0,.14.11.14.14,0,.07-.29.32-.4.43,0,0-4.39,4.21-6.73,4.21-.58,0-1.73-.83-1.73-1.98,0-1.58,3.13-5.58,3.82-7.27.11-.22.25-.36.43-.36.72,0,1.51.83,1.51,1.48ZM110.33,9.47c0,.25-.47,1.01-.76,1.15-.22.11-.68.25-1.01.36-.68.22-.9.61-1.04.61-.11,0-.22-.07-.22-.22,0-.86,1.37-2.66,1.37-3.53,0-.11.07-.14.14-.14.58,0,1.51,1.26,1.51,1.76Z"/><path class="cls-1" d="M113.8,22.32c-1.04.83-2.02,1.3-2.48,1.3-.86,0-2.41-.86-2.41-2.52,0-.72.14-1.37.4-1.98,0-.07-.04-.14-.04-.25,0-3.06,3.31-5.25,5.22-5.25,1.62,0,2.81,1.04,2.81,2.56,0,2.38-1.55,4.43-3.1,5.79,2.16-.14,4.03-1.62,5.15-2.74,0,0,.11-.14.22-.14s.18.11.18.14c0,.07-.29.32-.4.43-1.08.97-2.77,2.56-5.54,2.66ZM113.55,14.9c.43,0,1.15,1.01,1.15,1.37,0,.22-.25.36-.47.47-1.33.79-3.17,2.38-3.96,3.96.61.79,1.69,1.26,2.99,1.33,1.51-1.33,2.99-3.64,2.99-5.98,0-1.19-.68-1.94-2.09-1.94s-3.96,1.66-4.39,4.03c.58-.94,1.37-1.66,2.12-2.3.58-.5,1.19-.94,1.66-.94ZM109.95,21.99c0,.65.4,1.19,1.01,1.19.54,0,1.26-.32,1.98-.86-1.19-.11-2.2-.5-2.84-1.19-.11.29-.14.58-.14.86Z"/><path class="cls-1" d="M123.46,16.27c0,.65-.97,2.02-1.76,3.38,1.33-1.04,5.18-3.6,6.55-3.6.58,0,1.01,1.04,1.01,1.51,0,.4-2.74,3.09-2.74,5,0,.32.22.47.5.47,2.2,0,6.05-3.82,6.05-3.82,0,0,.14-.14.22-.14.11,0,.18.11.18.14,0,.07-.4.43-.4.43,0,0-4.14,4.1-6.05,4.1-.9,0-2.05-1.12-2.05-2.3,0-1.58,1.69-3.85,1.69-4.1,0-.04-.04-.07-.11-.07-.4,0-3.17,1.37-5.15,3.2-2.3,2.12-2.59,3.89-2.92,3.89-.36,0-.97-.9-.97-1.66s3.67-5.11,4.18-7.88c0-.29.18-.32.36-.32.36,0,1.4.83,1.4,1.76Z"/></g></svg>