<?xml version="1.0" encoding="UTF-8"?><svg id="_レイヤー_2" xmlns="http://www.w3.org/2000/svg" viewBox="0 0 336 132.36"><defs><style>.cls-1{fill:#1f4492;}.cls-1,.cls-2{stroke-width:0px;}.cls-3{fill:none;stroke:#1f4492;stroke-miterlimit:10;}.cls-2{fill:#fff;}</style></defs><g id="_レイヤー_1-2"><rect class="cls-1" x=".5" y=".5" width="335" height="131.36" rx="11.46" ry="11.46"/><path class="cls-2" d="M82.12,45.74c-.47.17-.92.2-1.37.1-.44-.1-.75-.41-.92-.93-.13-.42-.11-.8.08-1.15s.5-.6.95-.75c1.92-.69,3.33-1.63,4.24-2.85.9-1.21,1.43-2.75,1.58-4.63h-5.99c-.38,0-.71-.14-.99-.41-.28-.28-.41-.61-.41-.99s.14-.71.41-.98c.28-.27.61-.4.99-.4h8.8v-3.08h-4.81c-.4.65-.77,1.21-1.1,1.68-.27.37-.61.61-1.04.73-.43.12-.85.04-1.27-.23-.33-.22-.55-.52-.64-.92-.09-.39-.02-.75.21-1.07.37-.48.75-1.08,1.15-1.78s.78-1.4,1.13-2.11c.35-.7.62-1.3.8-1.81.17-.4.45-.67.84-.81.39-.14.78-.15,1.17-.01.43.17.72.43.87.79.14.36.15.73.01,1.12-.17.52-.39,1.07-.68,1.65h3.36v-2.73c0-.48.15-.87.46-1.17.31-.29.69-.44,1.14-.44s.81.15,1.13.44.48.68.48,1.17v2.73h6.02c.38,0,.71.13.98.4.27.27.4.59.4.98s-.13.69-.4.97c-.27.28-.59.41-.98.41h-6.02v3.08h8.25c.38,0,.71.13.98.4.27.27.4.59.4.98s-.13.71-.4.99-.59.41-.98.41h-6.24v5.72c0,.62.16,1.03.48,1.24.32.21.96.31,1.93.31.57,0,1-.04,1.3-.13.3-.08.54-.25.71-.5.17-.25.33-.61.46-1.08.13-.42.39-.71.76-.88.38-.17.8-.18,1.27-.02.42.15.7.39.85.73.15.33.17.73.05,1.18-.28,1.29-.84,2.21-1.67,2.77-.83.56-2.1.84-3.82.84-1.34,0-2.39-.11-3.17-.33-.78-.22-1.33-.61-1.64-1.18s-.48-1.37-.48-2.41v-6.27h-2.08c-.2,2.52-.89,4.64-2.07,6.36-1.18,1.71-3,3-5.48,3.85Z"/><path class="cls-2" d="M116.94,45.97c-1.34,0-2.38-.13-3.12-.39-.74-.26-1.26-.69-1.54-1.29-.29-.6-.43-1.41-.43-2.43v-2.71c0-.45.03-.86.08-1.23-.62.79-1.26,1.53-1.93,2.23-.67.7-1.35,1.33-2.03,1.88-.35.27-.75.39-1.19.38-.44-.02-.81-.21-1.09-.58-.23-.28-.34-.62-.31-1.02.03-.39.19-.7.49-.92.62-.48,1.25-1.06,1.91-1.72.65-.66,1.29-1.35,1.91-2.08.62-.73,1.16-1.42,1.63-2.09h-4.59c-.32,0-.59-.11-.8-.33-.22-.22-.33-.48-.33-.8s.11-.59.33-.81c.22-.23.48-.34.8-.34h9v-1.08h-6.32c-.27,0-.5-.1-.71-.31-.21-.21-.31-.45-.31-.71,0-.28.1-.53.31-.74.21-.21.45-.31.71-.31h6.32v-1.1h-8.35c-.3,0-.56-.11-.79-.33-.23-.22-.34-.48-.34-.8s.11-.58.34-.8c.23-.22.49-.33.79-.33h5.01l-.5-1c-.17-.33-.18-.67-.04-1.02.14-.34.4-.59.76-.74.38-.13.76-.16,1.13-.09.37.08.64.32.83.74l1.03,2.11h3.38c.13-.28.31-.65.53-1.09.22-.44.38-.79.5-1.04.18-.4.46-.64.83-.73.37-.08.74-.05,1.1.1.38.13.65.37.79.71.14.34.13.69-.04,1.04-.05.1-.12.24-.21.43s-.2.38-.31.58h4.94c.3,0,.56.11.78.33.22.22.33.48.33.8s-.11.59-.33.8c-.22.22-.48.33-.78.33h-8.35v1.1h6.42c.28,0,.53.1.74.31.21.21.31.46.31.74,0,.27-.1.51-.31.71-.21.21-.46.31-.74.31h-6.42v1.08h9.1c.32,0,.58.11.8.34.22.23.33.5.33.81s-.11.58-.33.8c-.22.22-.48.33-.8.33h-13.34c-.13.23-.27.47-.41.71-.14.24-.29.49-.44.74.38-.17.85-.28,1.39-.35.54-.07,1.17-.1,1.89-.1h3.41c1.35,0,2.4.13,3.13.39.74.26,1.25.69,1.53,1.29s.43,1.42.43,2.46v2.71c0,1.02-.14,1.83-.43,2.43s-.79,1.03-1.53,1.29-1.78.39-3.13.39h-3.41ZM114.86,40.98h7.55v-1.03h-7.55v1.03ZM114.93,38.1h7.42c-.07-.43-.25-.71-.54-.83-.29-.12-.78-.18-1.47-.18h-3.41c-.67,0-1.15.06-1.44.18-.29.12-.48.39-.56.83ZM116.94,43.86h3.41c.69,0,1.17-.06,1.47-.19.29-.12.47-.4.54-.84h-7.42c.07.44.25.71.54.84.29.13.78.19,1.47.19Z"/><path class="cls-2" d="M137.13,46.16c-2.43,0-4.26-.97-5.47-2.91-.34-.55-.43-1.05-.26-1.47s.5-.71.99-.86c.53-.17.97-.17,1.31,0,.34.17.71.47,1.12.9.23.32.54.58.91.78.37.2.82.3,1.33.3,1.09,0,1.95-.27,2.59-.8.64-.53.96-1.43.96-2.69,0-1.13-.32-2.04-.96-2.72-.64-.68-1.56-1.02-2.75-1.02-1.07,0-1.6-.52-1.6-1.57s.53-1.57,1.6-1.57,1.86-.31,2.37-.94c.51-.63.77-1.4.77-2.32,0-1.07-.3-1.82-.91-2.26-.61-.44-1.3-.66-2.06-.66-.43,0-.8.11-1.14.32-.33.21-.61.47-.85.77-.41.43-.78.73-1.14.9-.35.17-.78.15-1.3-.06-.49-.19-.81-.51-.96-.94-.15-.44-.03-.91.35-1.42.62-.92,1.37-1.62,2.26-2.1.88-.48,1.83-.72,2.83-.72,1.3,0,2.44.25,3.41.75.97.5,1.73,1.2,2.27,2.1s.82,1.95.82,3.17c0,1.11-.29,2.11-.88,2.99-.59.89-1.33,1.53-2.22,1.94,1.07.41,1.94,1.1,2.61,2.08.67.98,1.01,2.12,1.01,3.42,0,2.03-.61,3.64-1.84,4.83-1.23,1.2-2.95,1.79-5.17,1.79Z"/><path class="cls-2" d="M155.09,46.16c-1.71,0-3.04-.43-4-1.28-.96-.85-1.64-2.13-2.03-3.84-.4-1.71-.59-3.84-.59-6.4s.2-4.7.59-6.42c.39-1.72,1.07-3,2.03-3.86.96-.85,2.29-1.28,4-1.28s3.04.43,3.98,1.28c.95.85,1.62,2.14,2.02,3.86.39,1.72.59,3.86.59,6.42s-.2,4.69-.59,6.4c-.39,1.71-1.07,2.99-2.02,3.84-.95.85-2.28,1.28-3.98,1.28ZM155.09,42.89c.79,0,1.41-.25,1.87-.75.46-.5.79-1.35,1.01-2.54.21-1.19.32-2.85.32-4.96s-.11-3.8-.32-4.99c-.21-1.19-.55-2.04-1.01-2.54-.46-.5-1.08-.75-1.87-.75s-1.42.25-1.89.75c-.47.5-.81,1.35-1.01,2.54-.2,1.19-.3,2.86-.3,4.99s.1,3.77.3,4.96c.2,1.2.54,2.04,1.01,2.54.47.5,1.1.75,1.89.75Z"/><path class="cls-2" d="M172.87,46.16c-1.71,0-3.04-.43-4-1.28-.96-.85-1.64-2.13-2.03-3.84-.39-1.71-.59-3.84-.59-6.4s.2-4.7.59-6.42c.39-1.72,1.07-3,2.03-3.86.96-.85,2.29-1.28,4-1.28s3.03.43,3.98,1.28c.95.85,1.62,2.14,2.02,3.86.39,1.72.59,3.86.59,6.42s-.2,4.69-.59,6.4c-.4,1.71-1.07,2.99-2.02,3.84-.95.85-2.28,1.28-3.98,1.28ZM172.87,42.89c.79,0,1.41-.25,1.87-.75.46-.5.79-1.35,1.01-2.54.21-1.19.32-2.85.32-4.96s-.11-3.8-.32-4.99c-.21-1.19-.55-2.04-1.01-2.54-.46-.5-1.08-.75-1.87-.75s-1.42.25-1.89.75c-.47.5-.8,1.35-1.01,2.54s-.3,2.86-.3,4.99.1,3.77.3,4.96c.2,1.2.54,2.04,1.01,2.54.47.5,1.1.75,1.89.75Z"/><path class="cls-2" d="M184.8,45.14c-.4.22-.82.31-1.27.28-.44-.03-.81-.26-1.09-.68-.25-.37-.32-.76-.21-1.19.11-.43.36-.75.76-.97,1.72-.95,3.24-2.07,4.55-3.36,1.31-1.29,2.33-2.74,3.07-4.35.74-1.61,1.1-3.37,1.1-5.28v-4.94c0-.48.15-.86.46-1.14s.67-.41,1.09-.41.8.14,1.1.41.45.66.45,1.14v4.09c0,1.54.23,2.99.7,4.35.47,1.36,1.12,2.62,1.96,3.77.83,1.15,1.8,2.19,2.88,3.12,1.09.93,2.26,1.72,3.51,2.37.38.22.63.55.74.99.11.44.05.86-.19,1.24-.25.38-.61.62-1.09.71-.48.09-.92.01-1.34-.24-1.91-1.12-3.6-2.52-5.09-4.21-1.49-1.69-2.64-3.58-3.46-5.67-.47,1.34-1.12,2.62-1.97,3.86-.84,1.24-1.83,2.37-2.97,3.41-1.14,1.04-2.37,1.93-3.71,2.68Z"/><path class="cls-2" d="M209.62,46.17c-.37,0-.68-.12-.94-.36s-.39-.57-.39-.99v-17.8c0-.95.1-1.69.31-2.21s.61-.88,1.19-1.08c.58-.2,1.45-.3,2.58-.3,1.35,0,2.35.17,3,.51.64.34.99.84,1.04,1.48.05.64-.14,1.41-.58,2.29-.22.42-.43.82-.63,1.22-.2.39-.4.78-.6,1.17-.27.5-.4.86-.39,1.07,0,.21.18.49.51.84.55.55,1,1.2,1.34,1.96.34.75.51,1.55.51,2.38,0,1.05-.18,1.91-.53,2.56-.35.65-.82,1.14-1.42,1.45-.59.32-1.26.49-1.99.53-.42.02-.76-.09-1.04-.31-.28-.23-.45-.53-.51-.92-.05-.38.02-.72.2-1,.18-.28.44-.46.78-.53.65-.13,1.09-.37,1.32-.7.23-.33.34-.87.34-1.6,0-.55-.15-1.12-.44-1.72-.29-.59-.65-1.12-1.07-1.57-.28-.32-.48-.6-.59-.84-.11-.24-.13-.51-.08-.81.06-.3.2-.69.41-1.15.15-.33.33-.74.53-1.22.2-.48.38-.88.53-1.22.23-.48.29-.82.16-1.02-.12-.19-.46-.29-1.02-.29-.52,0-.85.07-.99.2-.14.13-.21.41-.21.83v17.8c0,.42-.13.75-.39.99s-.58.36-.96.36ZM215.74,45.54c-.43.1-.81.05-1.14-.16-.33-.21-.53-.52-.61-.94-.07-.38-.01-.73.16-1.04.17-.31.47-.5.89-.59.33-.07.71-.14,1.12-.23.41-.08.84-.17,1.29-.25v-14.74c0-1.47.33-2.49,1-3.06.67-.57,1.76-.85,3.28-.85h2.81c1.54,0,2.64.28,3.3.85.66.57.99,1.59.99,3.06v2.96c0,1.49-.33,2.51-.99,3.07-.66.56-1.76.84-3.3.84h-.45c.2,1.02.5,1.97.9,2.86.3-.22.63-.46,1-.71.37-.26.72-.51,1.05-.75.33-.24.59-.45.78-.61.28-.25.61-.37.99-.36s.69.15.94.44c.23.28.35.61.35.98s-.15.67-.45.9c-.23.2-.55.44-.95.73-.4.28-.81.57-1.24.85-.43.28-.8.53-1.12.75.48.62,1.04,1.19,1.67,1.7.63.52,1.3.99,2.02,1.43.33.2.54.49.63.88.08.38.03.74-.15,1.08-.23.38-.58.62-1.04.7s-.88,0-1.27-.25c-1.87-1.2-3.36-2.64-4.48-4.31s-1.83-3.77-2.17-6.29h-1.3v7.25c.38-.08.76-.17,1.12-.25.36-.08.68-.16.97-.23.38-.1.73-.07,1.03.1s.48.43.55.78c.08.4.04.75-.12,1.05-.17.3-.45.51-.85.63-.4.12-.92.25-1.55.41-.64.16-1.3.32-2.01.49-.7.17-1.38.33-2.02.48-.64.15-1.18.28-1.62.38ZM220.25,27.92h5.72v-.15c0-.65-.13-1.09-.39-1.32s-.74-.34-1.44-.34h-2.06c-.7,0-1.18.11-1.44.34-.26.23-.39.66-.39,1.32v.15ZM220.25,32.01h3.89c.7,0,1.18-.11,1.44-.34.26-.23.39-.66.39-1.32v-.2h-5.72v1.86Z"/><path class="cls-2" d="M250.09,45.59c-1.97,0-3.64-.15-5.01-.45s-2.52-.77-3.43-1.42-1.71-1.46-2.38-2.44c-.92,1.35-1.89,2.57-2.91,3.64-.32.32-.69.5-1.13.55-.43.05-.84-.08-1.2-.4-.33-.28-.5-.63-.49-1.04,0-.41.15-.76.44-1.04,1.09-1.07,2.03-2.21,2.84-3.43.81-1.22,1.46-2.5,1.94-3.84.18-.45.47-.76.85-.93.38-.17.79-.18,1.2-.02.42.17.71.43.88.79.17.36.17.75,0,1.17-.13.32-.28.65-.43.99-.15.34-.32.68-.5,1.02.7,1.32,1.69,2.3,2.96,2.93v-8.5h-4.69c-.4,0-.72-.13-.96-.4-.24-.27-.36-.58-.36-.95s.12-.68.36-.94.56-.39.96-.39h12.33c.4,0,.72.13.96.39s.36.57.36.94-.12.69-.36.95c-.24.27-.56.4-.96.4h-4.51v2.88h5.67c.42,0,.75.13.99.39.24.26.36.58.36.97s-.12.69-.36.96c-.24.28-.57.41-.99.41h-5.67v3.79c.48.07.99.12,1.53.15s1.1.05,1.71.05c.82,0,1.65,0,2.49-.02s1.68-.06,2.49-.13c.49-.03.9.07,1.25.31.35.24.53.61.53,1.12s-.16.88-.48,1.14c-.32.26-.73.39-1.23.39s-1.07,0-1.69.01c-.63,0-1.24.01-1.83.01h-1.54ZM235.67,32.18c-.42,0-.77-.13-1.07-.39-.29-.26-.44-.61-.44-1.07v-1c0-1.34.33-2.29.98-2.87.65-.58,1.76-.87,3.33-.87h5.01v-1.85c0-.48.16-.87.48-1.14.32-.28.7-.41,1.15-.41s.86.14,1.18.41c.32.28.48.66.48,1.14v1.85h5.14c1.57,0,2.68.29,3.32.87.64.58.97,1.53.97,2.87v1c0,.45-.14.81-.43,1.07-.28.26-.63.39-1.05.39s-.77-.12-1.07-.36c-.29-.24-.44-.59-.44-1.04v-.95c0-.48-.12-.83-.36-1.03-.24-.2-.68-.3-1.32-.3h-12.71c-.62,0-1.05.1-1.29.3-.24.2-.36.54-.36,1.03v.95c0,.45-.15.8-.44,1.04-.29.24-.65.36-1.07.36Z"/><path class="cls-2" d="M31.42,77.29c-.4.25-.84.34-1.3.28-.47-.07-.83-.31-1.08-.73-.22-.38-.26-.79-.13-1.23s.41-.77.83-1c1.87-1.09,3.49-2.41,4.85-3.97,1.36-1.56,2.45-3.24,3.26-5.04.81-1.8,1.29-3.58,1.44-5.35.07-.67-.04-1.14-.31-1.4-.28-.27-.82-.4-1.62-.4h-2.73c-.38,0-.71-.14-.99-.41-.28-.28-.41-.61-.41-.99s.14-.71.41-.99c.28-.28.61-.41.99-.41h2.73c1.25,0,2.24.13,2.97.38s1.25.68,1.57,1.29c.32.61.48,1.46.48,2.54,0,2.06.37,3.98,1.1,5.77s1.78,3.43,3.15,4.94c1.36,1.5,2.97,2.86,4.83,4.06.38.25.61.61.69,1.08.08.47-.02.89-.29,1.25-.27.4-.64.62-1.12.66-.48.04-.92-.08-1.32-.36-1.97-1.39-3.74-2.99-5.29-4.81-1.55-1.82-2.72-3.89-3.51-6.19-.97,2.29-2.23,4.38-3.79,6.26-1.55,1.88-3.36,3.48-5.42,4.8Z"/><path class="cls-2" d="M55.78,64.98c-.42.23-.83.32-1.24.26-.41-.06-.73-.28-.97-.66-.18-.33-.22-.68-.11-1.03.11-.35.37-.65.79-.9.92-.55,1.88-1.17,2.9-1.87,1.01-.69,2-1.41,2.96-2.14.96-.74,1.82-1.44,2.57-2.11.65-.58,1.24-.97,1.75-1.17.52-.19,1.04-.2,1.57-.03.53.18,1.12.54,1.79,1.09.69.55,1.52,1.19,2.5,1.91.98.72,2,1.43,3.06,2.14,1.06.71,2.06,1.34,3,1.89.49.27.78.6.88.99.1.39.03.78-.2,1.17-.22.37-.55.58-1,.65s-.9-.04-1.35-.33c-.65-.4-1.36-.87-2.12-1.4-.76-.53-1.53-1.09-2.31-1.67s-1.52-1.14-2.22-1.71c-.7-.56-1.32-1.07-1.85-1.54-.33-.3-.63-.45-.88-.45s-.54.15-.88.45c-.75.67-1.63,1.4-2.62,2.21-1,.8-2.01,1.58-3.06,2.33-1.04.75-2.03,1.39-2.95,1.91ZM74.13,77.24c-.32.25-.68.35-1.09.31-.41-.04-.73-.21-.96-.51-.18-.25-.38-.51-.59-.78-.21-.27-.43-.53-.66-.8-.84.13-1.81.28-2.92.43-1.11.15-2.27.3-3.46.45-1.2.15-2.35.29-3.46.41s-2.08.22-2.92.29c-.47.05-.84-.04-1.12-.26-.28-.23-.44-.55-.49-.96-.05-.38.07-.71.36-.99.29-.28.66-.42,1.12-.44.23-.02.47-.03.71-.05.24-.02.5-.03.76-.05.2-.35.43-.78.69-1.28.26-.5.53-1.02.81-1.57.28-.54.54-1.05.75-1.52h-4.96c-.33,0-.62-.13-.86-.39-.24-.26-.36-.56-.36-.89,0-.35.12-.66.36-.92.24-.26.53-.39.86-.39h17.3c.33,0,.62.13.87.39.24.26.36.56.36.92s-.12.63-.36.89c-.24.26-.53.39-.87.39h-9.23c-.25.54-.57,1.18-.95,1.93-.38.75-.76,1.46-1.13,2.13,1.09-.1,2.17-.21,3.26-.33,1.09-.12,2.08-.23,2.98-.35-.12-.13-.23-.25-.34-.36-.11-.11-.22-.22-.34-.34-.22-.23-.33-.53-.34-.89,0-.36.11-.66.36-.89.3-.28.65-.41,1.04-.39.39.03.72.17.99.44.63.6,1.31,1.3,2.03,2.11.72.8,1.36,1.55,1.93,2.23.23.3.35.65.34,1.05,0,.4-.17.73-.49.98ZM60.82,65.43c-.33,0-.62-.13-.86-.39-.24-.26-.36-.56-.36-.92s.12-.63.36-.89c.24-.26.53-.39.86-.39h8.98c.33,0,.62.13.87.39.24.26.36.56.36.89,0,.35-.12.66-.36.92-.24.26-.53.39-.87.39h-8.98Z"/><path class="cls-2" d="M91.52,77.04c-.42.05-.8-.05-1.14-.31-.34-.26-.54-.6-.59-1.02-.05-.45-.15-1.22-.3-2.29-.15-1.08-.32-2.29-.5-3.62-1.07.12-2.09.24-3.06.36-.97.12-1.81.23-2.52.31-.71.08-1.22.15-1.54.2-.42.05-.79-.06-1.13-.33-.33-.27-.52-.61-.55-1.03-.05-.43.06-.81.33-1.14.27-.33.61-.51,1.03-.56.27-.03.75-.09,1.45-.16.7-.08,1.54-.17,2.51-.29.97-.12,1.99-.23,3.06-.35l-.4-2.86c-1.1.12-2.1.23-3,.35-.89.12-1.51.19-1.84.23-.42.05-.79-.06-1.12-.34-.33-.28-.51-.62-.56-1.04-.03-.42.08-.79.35-1.12.27-.33.61-.51,1.03-.56.27-.03.84-.1,1.72-.19.88-.09,1.88-.2,3-.34-.2-1.3-.34-2.27-.43-2.91-.07-.43.03-.82.3-1.15.27-.33.61-.53,1.03-.58.43-.07.82.03,1.15.29.33.26.53.61.58,1.04.03.32.09.73.16,1.24s.15,1.09.24,1.74c.99-.12,1.89-.22,2.71-.31.82-.09,1.45-.16,1.88-.21.42-.05.79.06,1.12.33.33.27.51.62.54,1.05.03.42-.08.79-.34,1.12-.26.33-.61.51-1.04.54-.42.03-1.03.09-1.83.18-.8.08-1.68.18-2.63.3l.4,2.83c1.02-.13,1.98-.25,2.88-.35.9-.1,1.68-.19,2.33-.28.65-.08,1.09-.13,1.33-.15.53.22.94.43,1.23.63s.44.44.48.73c.05.42-.06.79-.33,1.13-.27.33-.61.52-1.03.55-.25.02-.69.06-1.33.14-.63.08-1.4.16-2.29.26-.89.1-1.84.22-2.84.35.18,1.35.35,2.56.51,3.62.16,1.06.27,1.8.34,2.22.08.42,0,.8-.28,1.14-.27.34-.62.55-1.05.61Z"/><path class="cls-2" d="M114.62,77.89c-.37.07-.71,0-1.03-.21-.32-.21-.51-.5-.58-.87-.1-.6-.24-1.35-.41-2.23-.17-.89-.38-1.84-.6-2.86s-.46-2.04-.71-3.06c-.92.17-1.78.32-2.58.46-.8.14-1.44.26-1.91.34-.37.05-.7-.04-1-.26-.3-.23-.49-.52-.55-.89-.05-.37.04-.7.26-.99s.52-.46.89-.51c.42-.07,1-.16,1.75-.29.75-.13,1.58-.26,2.48-.41-.28-1.15-.55-2.12-.8-2.91-.12-.35-.08-.69.1-1.03.18-.33.46-.55.83-.65.37-.1.71-.06,1.04.11.33.18.54.45.64.81.13.42.27.9.4,1.45.13.55.28,1.14.43,1.75l3.79-.65c2.62-.45,4.15.31,4.59,2.28.23,1.1-.01,2.11-.74,3.01-.73.9-1.97,1.64-3.72,2.21-.35.12-.69.1-1.02-.05-.33-.15-.56-.41-.69-.78-.12-.35-.1-.69.05-1.03s.41-.56.78-.68c.77-.28,1.34-.54,1.71-.75.37-.22.61-.43.71-.64.11-.21.14-.41.09-.61-.03-.2-.14-.34-.33-.43-.18-.08-.48-.08-.88,0-.5.08-1.07.18-1.72.3-.64.12-1.31.24-1.99.38.25,1.02.49,2.04.71,3.05s.43,1.95.63,2.82c.19.87.35,1.6.46,2.21.07.37,0,.71-.21,1.02-.21.31-.5.5-.87.59Z"/><path class="cls-2" d="M131.24,65.05c-.64-.53-1.35-1.09-2.13-1.67-.79-.58-1.5-1.05-2.13-1.42-.37-.23-.6-.56-.7-.97-.1-.41-.04-.8.17-1.17.23-.37.56-.61.97-.71.41-.11.8-.05,1.17.19.45.28.97.63,1.54,1.04.58.41,1.14.81,1.68,1.22.54.4.99.74,1.34,1.03.33.27.53.61.59,1.04s-.05.81-.31,1.14c-.27.33-.61.53-1.04.59-.43.06-.81-.05-1.14-.31ZM129.08,74.93c-.4.15-.8.13-1.19-.05-.39-.18-.66-.48-.81-.88-.15-.4-.13-.8.05-1.19.18-.39.48-.66.88-.81,1.34-.47,2.69-1.04,4.05-1.73,1.36-.69,2.67-1.43,3.91-2.24,1.25-.81,2.38-1.65,3.41-2.51,1.03-.86,1.87-1.69,2.52-2.49.28-.33.64-.53,1.07-.58.43-.05.8.07,1.12.35.33.27.53.61.58,1.04s-.07.81-.35,1.14c-.69.84-1.6,1.73-2.73,2.67-1.14.94-2.41,1.88-3.81,2.8-1.4.92-2.85,1.77-4.34,2.56-1.49.79-2.93,1.43-4.34,1.93Z"/><path class="cls-2" d="M168.16,73.07c-.5-.48-1.13-1.06-1.88-1.72-.75-.66-1.55-1.35-2.41-2.06s-1.69-1.39-2.51-2.04c-.82-.65-1.55-1.21-2.18-1.68-.47-.35-.89-.59-1.27-.71s-.77-.14-1.18-.05c-.41.09-.9.3-1.47.61-.47.27-1,.59-1.6.95-.6.37-1.18.73-1.74,1.08-.56.35-1.02.64-1.37.85-.37.22-.76.28-1.18.18-.42-.1-.74-.33-.95-.7-.22-.37-.28-.76-.19-1.18.09-.42.32-.73.69-.95.35-.22.82-.5,1.42-.85.59-.35,1.21-.71,1.86-1.07s1.2-.67,1.67-.94c1-.53,1.88-.89,2.62-1.05.74-.17,1.46-.14,2.14.08.68.22,1.45.64,2.31,1.25.45.32.99.72,1.63,1.22.64.49,1.32,1.03,2.04,1.6.73.58,1.45,1.17,2.18,1.77.73.6,1.4,1.17,2.03,1.72.63.54,1.16,1.02,1.59,1.44.32.28.48.64.49,1.08s-.15.82-.46,1.15c-.3.3-.68.46-1.13.46s-.84-.14-1.15-.44ZM165.55,63.7c-.7,0-1.3-.25-1.79-.75-.49-.5-.74-1.09-.74-1.78s.25-1.3.74-1.79c.49-.49,1.09-.74,1.79-.74s1.3.25,1.79.74c.49.49.74,1.09.74,1.79s-.25,1.28-.74,1.78c-.49.5-1.09.75-1.79.75ZM165.55,62.24c.3,0,.56-.11.76-.33.21-.22.31-.47.31-.75,0-.3-.1-.56-.31-.78-.21-.22-.46-.33-.76-.33s-.56.11-.76.33c-.21.22-.31.48-.31.78,0,.28.1.54.31.75.21.22.46.33.76.33Z"/><path class="cls-2" d="M174.98,68.04c-.42,0-.78-.15-1.09-.46-.31-.31-.46-.67-.46-1.09s.15-.8.46-1.1c.31-.3.67-.45,1.09-.45h15.62c.43,0,.8.15,1.1.45.3.3.45.67.45,1.1s-.15.78-.45,1.09c-.3.31-.67.46-1.1.46h-15.62Z"/><path class="cls-2" d="M200.69,65.05c-.64-.53-1.35-1.09-2.13-1.67-.79-.58-1.5-1.05-2.13-1.42-.37-.23-.6-.56-.7-.97-.1-.41-.04-.8.18-1.17.23-.37.56-.61.96-.71.41-.11.8-.05,1.17.19.45.28.96.63,1.54,1.04.58.41,1.14.81,1.68,1.22.54.4.99.74,1.34,1.03.33.27.53.61.59,1.04s-.05.81-.31,1.14c-.27.33-.61.53-1.04.59-.43.06-.81-.05-1.14-.31ZM198.54,74.93c-.4.15-.8.13-1.19-.05-.39-.18-.66-.48-.81-.88-.15-.4-.13-.8.05-1.19.18-.39.48-.66.88-.81,1.34-.47,2.69-1.04,4.05-1.73,1.36-.69,2.67-1.43,3.91-2.24,1.25-.81,2.38-1.65,3.41-2.51,1.03-.86,1.87-1.69,2.52-2.49.28-.33.64-.53,1.07-.58.43-.05.8.07,1.12.35.33.27.53.61.58,1.04.05.43-.07.81-.35,1.14-.69.84-1.6,1.73-2.73,2.67-1.14.94-2.41,1.88-3.81,2.8-1.4.92-2.85,1.77-4.34,2.56-1.49.79-2.93,1.43-4.34,1.93Z"/><path class="cls-2" d="M219.75,77.99c-.47.1-.89.08-1.27-.08-.38-.15-.63-.46-.76-.93-.12-.44-.06-.82.16-1.17.23-.34.57-.55,1.04-.61,1.69-.3,3.13-.76,4.32-1.37,1.2-.61,2.14-1.4,2.85-2.37h-7.17c-.33,0-.62-.12-.87-.36s-.36-.53-.36-.87c0-.35.12-.65.36-.89s.53-.36.87-.36h8.3c.07-.2.12-.41.16-.64s.07-.45.09-.66h-5.37c-.33,0-.62-.12-.86-.36-.24-.24-.36-.53-.36-.87s.12-.62.36-.86c.24-.24.53-.36.86-.36h5.44v-1.3h-5.42c-.28,0-.54-.09-.76-.28-.23-.18-.37-.41-.44-.68-.25.35-.64.53-1.18.53-.4,0-.74-.13-1.03-.38-.29-.25-.43-.59-.43-1.03v-1.1c0-1.3.31-2.23.94-2.78.63-.55,1.7-.83,3.22-.83h4.96v-1.2c0-.43.16-.8.48-1.1s.7-.45,1.15-.45.84.15,1.15.45.48.67.48,1.1v1.2h5.06c1.52,0,2.59.28,3.22.83.63.55.94,1.48.94,2.78v1.1c0,.43-.14.78-.43,1.03-.28.25-.63.38-1.03.38-.5,0-.89-.16-1.15-.48-.07.25-.21.46-.43.64-.22.18-.47.26-.75.26h-5.57v1.3h5.57c.33,0,.62.12.85.36.23.24.35.53.35.86s-.12.62-.35.87c-.23.24-.52.36-.85.36h-5.62c-.02.22-.04.44-.08.65-.03.22-.08.44-.12.65h9.03c.33,0,.62.12.87.36.24.24.36.54.36.89s-.12.62-.36.87c-.24.24-.53.36-.87.36h-7.37c.79.87,1.8,1.61,3.03,2.23,1.24.62,2.67,1.09,4.29,1.43.43.08.76.29.98.61.22.33.28.71.17,1.14-.12.52-.39.86-.83,1.02-.43.16-.89.19-1.38.09-1.22-.28-2.41-.7-3.56-1.24-1.15-.54-2.21-1.2-3.16-1.98-.95-.78-1.75-1.65-2.38-2.62-.82,1.42-2,2.62-3.56,3.6-1.55.98-3.49,1.73-5.82,2.24ZM221.2,61.92c.2-.28.51-.43.93-.43h5.42v-1.73h-4.74c-.62,0-1.04.1-1.27.29-.23.19-.34.52-.34.99v.88ZM237.02,61.87v-.83c0-.47-.12-.8-.35-.99-.23-.19-.66-.29-1.28-.29h-4.84v1.73h5.57c.35,0,.65.13.9.38Z"/><path class="cls-2" d="M248.84,77.96c-.47.02-.85-.08-1.14-.3-.29-.22-.46-.54-.49-.95-.02-.4.1-.73.34-.99s.56-.4.94-.41c.48-.03.82-.13,1.02-.28.19-.15.35-.54.46-1.18.08-.45.16-1.03.24-1.73s.14-1.42.19-2.17c.05-.74.08-1.41.1-1.99.02-.42-.05-.69-.19-.81-.14-.12-.43-.19-.86-.19h-.33c-.15,1.87-.46,3.67-.94,5.4s-1.16,3.32-2.04,4.78c-.22.35-.53.58-.94.68-.41.1-.8.04-1.17-.18-.32-.18-.52-.46-.6-.84-.08-.38-.02-.72.18-1.04.67-1.04,1.21-2.1,1.62-3.2.41-1.09.71-2.33.9-3.7.19-1.37.29-2.96.29-4.76v-2.38h-1.58c-.35,0-.65-.12-.9-.36s-.38-.55-.38-.92.12-.65.38-.9c.25-.25.55-.38.9-.38h2.73v-3.03c0-.43.14-.79.43-1.05.28-.27.63-.4,1.03-.4s.74.13,1.02.4c.28.27.41.62.41,1.05v3.03h2.23c.33,0,.62.11.85.33s.38.48.43.8c.43-.75.83-1.54,1.19-2.36.36-.82.65-1.57.87-2.26.13-.4.39-.67.78-.8.38-.13.76-.13,1.13.02.35.15.59.39.71.71.13.33.12.67-.01,1.04-.08.27-.18.53-.29.79-.11.26-.21.52-.31.79h7.62c.33,0,.62.12.86.36.24.24.36.53.36.86s-.12.62-.36.85c-.24.23-.53.35-.86.35h-8.8c-.2.37-.4.72-.6,1.05-.2.33-.41.66-.63.98.22-.08.43-.13.63-.13.37,0,.68.12.93.35.25.23.38.56.38.98v1.5l1.35-.4v-2.48c0-.38.12-.69.38-.93s.55-.35.9-.35.67.12.92.35.36.54.36.93v1.75c1.35-.37,2.39-.34,3.12.08.73.42,1.09,1.35,1.09,2.78v2.51c0,.97-.2,1.7-.61,2.18-.41.48-1.09.78-2.04.88-.35.03-.66,0-.94-.1-.28-.1-.48-.28-.61-.53v.43c0,.38-.12.69-.36.93-.24.23-.55.35-.92.35s-.65-.12-.9-.35c-.25-.23-.38-.54-.38-.93v-4.79l-1.35.4v4.94c0,.6.08,1.06.25,1.37.17.31.49.51.98.61.48.1,1.2.15,2.16.15.89,0,1.56-.06,2.03-.18.47-.12.8-.3,1-.54.2-.24.35-.55.45-.92.12-.42.35-.7.71-.85s.74-.16,1.14-.02c.4.12.67.33.82.65.14.32.16.67.06,1.05-.2.84-.51,1.5-.94,2.01-.43.5-1.06.86-1.89,1.08s-1.96.33-3.38.33c-1.5,0-2.69-.12-3.57-.36-.88-.24-1.5-.69-1.88-1.33s-.56-1.57-.56-2.77v-4.46l-1.38.4c-.12.05-.26.08-.43.08-.05.94-.11,1.84-.19,2.72s-.15,1.61-.24,2.19c-.18,1.37-.58,2.32-1.18,2.86-.6.53-1.49.82-2.66.85ZM253.13,66.66l1.78-.53v-2.23c0-.08,0-.15.03-.2l-.08.08c-.23.32-.55.53-.95.63-.4.1-.77.02-1.1-.25-.3-.23-.47-.53-.5-.9-.03-.37.08-.69.33-.98l.45-.6c-.07.02-.13.03-.19.04-.06,0-.13.01-.21.01h-3.46v2.63h.28c1.24,0,2.13.16,2.67.49.54.33.87.93.96,1.82ZM261.45,70.77c.18-.33.49-.54.9-.6.3-.05.49-.13.58-.24.08-.11.12-.3.12-.59v-1.5c0-.53-.1-.86-.31-.99-.21-.13-.54-.12-.99.01l-.3.1v3.81Z"/><path class="cls-2" d="M280.33,77.84c-.47,0-.84-.12-1.13-.36-.28-.24-.43-.59-.43-1.04v-6.67h-3.46c-1.35,0-2.44-.14-3.26-.43-.82-.28-1.41-.79-1.78-1.53-.37-.74-.55-1.76-.55-3.08s.19-2.39.56-3.12.97-1.23,1.79-1.5c.82-.28,1.9-.41,3.23-.41h3.46v-3.41c0-.45.14-.79.43-1.03s.66-.35,1.13-.35.86.12,1.13.35.4.58.4,1.03v3.41h3.51c1.34,0,2.42.14,3.23.41.82.28,1.42.78,1.79,1.5s.56,1.77.56,3.12-.19,2.35-.58,3.08c-.38.74-.99,1.25-1.8,1.53-.82.28-1.89.43-3.21.43h-3.51v6.67c0,.45-.13.8-.4,1.04-.27.24-.64.36-1.13.36ZM275.32,67.01h3.46v-4.56h-3.46c-.63,0-1.14.05-1.5.15-.37.1-.63.31-.78.63-.15.32-.23.82-.23,1.5s.07,1.14.21,1.47c.14.33.39.54.75.65.36.11.87.16,1.54.16ZM281.86,67.01h3.51c.63,0,1.13-.05,1.49-.16.36-.11.62-.33.78-.65.16-.33.24-.81.24-1.47,0-.69-.07-1.19-.21-1.5-.14-.32-.4-.53-.76-.63-.37-.1-.88-.15-1.53-.15h-3.51v4.56Z"/><path class="cls-2" d="M296.43,76.26c-.52,0-.96-.18-1.33-.55-.37-.37-.55-.81-.55-1.33s.18-.99.55-1.35c.37-.37.81-.55,1.33-.55s.99.18,1.37.55c.38.37.56.82.56,1.35s-.19.96-.56,1.33c-.38.37-.83.55-1.37.55ZM296.45,70.87c-.72,0-1.1-.49-1.15-1.48l-.33-9.55c-.03-1,.45-1.5,1.45-1.5s1.53.5,1.48,1.5l-.33,9.55c-.03.99-.41,1.48-1.13,1.48Z"/><path class="cls-2" d="M304.38,76.26c-.52,0-.96-.18-1.33-.55-.37-.37-.55-.81-.55-1.33s.18-.99.55-1.35c.37-.37.81-.55,1.33-.55s.99.18,1.37.55c.38.37.56.82.56,1.35s-.19.96-.56,1.33c-.38.37-.83.55-1.37.55ZM304.41,70.87c-.72,0-1.1-.49-1.15-1.48l-.33-9.55c-.03-1,.45-1.5,1.45-1.5s1.53.5,1.48,1.5l-.33,9.55c-.03.99-.41,1.48-1.13,1.48Z"/><path class="cls-2" d="M.5,100.21v20.76c0,6.01,4.87,10.89,10.89,10.89h313.22c6.01,0,10.89-4.87,10.89-10.89v-20.76H.5Z"/><rect class="cls-3" x=".5" y=".5" width="335" height="131.36" rx="11.46" ry="11.46"/><path class="cls-1" d="M102.44,121.82c-.65,0-1.03-.31-1.15-.94l-2.34-10.49c-.08-.38-.05-.67.1-.87.15-.2.39-.3.71-.3.38,0,.68.07.87.22.2.14.33.39.39.74l1.6,7.88,2.07-7.92c.16-.61.53-.92,1.13-.92s1,.31,1.15.92l2.07,7.92,1.6-7.88c.11-.64.49-.95,1.15-.95.37,0,.64.1.81.31s.21.49.13.86l-2.34,10.49c-.12.62-.51.94-1.17.94s-1.03-.31-1.19-.92l-2.21-8.39-2.2,8.39c-.16.61-.55.92-1.19.92Z"/><path class="cls-1" d="M118.58,122.02c-1.26,0-2.28-.38-3.06-1.14s-1.17-1.89-1.17-3.39c0-.94.17-1.74.52-2.42.35-.68.83-1.2,1.46-1.57.62-.37,1.34-.55,2.14-.55s1.49.19,2.05.56c.56.37,1,.85,1.3,1.44.3.59.45,1.2.45,1.84,0,.44-.09.74-.27.87-.18.14-.44.21-.79.21h-4.86c.05.86.28,1.48.68,1.84.41.37.94.55,1.58.55.73,0,1.3-.25,1.71-.76.24-.25.46-.42.67-.5s.43-.03.67.13c.24.17.38.38.41.65.04.26-.07.54-.32.83-.41.49-.88.85-1.4,1.07-.53.22-1.12.33-1.78.33ZM116.44,116.29h3.83c-.1-.56-.3-1-.62-1.31-.32-.31-.72-.46-1.22-.46-.53,0-.96.14-1.3.43s-.57.73-.69,1.33Z"/><path class="cls-1" d="M129.29,122.02c-1.02,0-1.82-.44-2.41-1.33v.36c0,.29-.09.49-.28.6-.19.11-.42.17-.69.17-.6,0-.9-.35-.9-1.06v-10.71c0-.71.34-1.06,1.03-1.06s1.01.35,1.01,1.06v3.89c.29-.31.62-.56,1.01-.73s.8-.26,1.24-.26c.8,0,1.52.18,2.15.54.63.36,1.12.88,1.48,1.56.36.68.54,1.49.54,2.44s-.18,1.76-.54,2.44c-.36.68-.85,1.2-1.48,1.56-.63.36-1.35.54-2.15.54ZM129.21,120.18c.64,0,1.16-.23,1.58-.7.42-.47.63-1.13.63-2s-.21-1.53-.63-2c-.42-.47-.95-.7-1.58-.7s-1.16.23-1.58.7c-.42.47-.63,1.13-.63,2s.21,1.53.63,2c.42.47.95.7,1.58.7Z"/><path class="cls-1" d="M136.74,122.81c-.29.18-.6.25-.94.2s-.59-.22-.77-.52c-.16-.28-.19-.57-.09-.88.1-.31.29-.55.59-.72,1.34-.78,2.5-1.73,3.48-2.85.98-1.12,1.76-2.33,2.34-3.62.58-1.29.93-2.57,1.04-3.84.05-.48-.03-.82-.22-1.01-.2-.19-.58-.29-1.16-.29h-1.96c-.28,0-.51-.1-.71-.3-.2-.2-.3-.44-.3-.71s.1-.51.3-.71c.2-.2.43-.3.71-.3h1.96c.9,0,1.61.09,2.13.27.52.18.9.49,1.12.93.23.44.34,1.05.34,1.83,0,1.48.26,2.86.79,4.14s1.28,2.47,2.26,3.55c.98,1.08,2.13,2.05,3.46,2.92.28.18.44.44.5.77.05.34-.01.64-.21.9-.19.29-.46.45-.8.48s-.66-.06-.95-.26c-1.42-1-2.68-2.15-3.8-3.46-1.12-1.31-1.96-2.79-2.52-4.45-.7,1.64-1.6,3.14-2.72,4.49-1.12,1.35-2.41,2.5-3.89,3.45Z"/><path class="cls-1" d="M154.28,113.97c-.3.17-.6.23-.89.19-.29-.04-.52-.2-.69-.48-.13-.24-.16-.49-.08-.74.08-.25.27-.47.57-.65.66-.4,1.35-.84,2.08-1.34s1.43-1.01,2.12-1.54,1.3-1.03,1.84-1.51c.47-.42.89-.7,1.26-.84.37-.14.75-.14,1.12-.02s.81.39,1.29.78c.49.4,1.09.85,1.79,1.37.7.52,1.43,1.03,2.2,1.54.76.51,1.48.96,2.15,1.36.35.19.56.43.63.71.07.28.02.56-.14.84-.16.26-.4.42-.72.47-.32.05-.65-.03-.97-.23-.47-.29-.97-.62-1.52-1.01-.55-.38-1.1-.78-1.66-1.2-.56-.41-1.09-.82-1.59-1.22-.5-.4-.95-.77-1.33-1.11-.24-.22-.45-.32-.63-.32s-.39.11-.63.32c-.54.48-1.17,1.01-1.88,1.58-.71.58-1.45,1.13-2.2,1.67s-1.46,1-2.11,1.37ZM167.46,122.77c-.23.18-.49.25-.78.23-.29-.03-.53-.15-.69-.37-.13-.18-.27-.37-.42-.56s-.31-.38-.48-.58c-.6.1-1.3.2-2.1.31-.8.11-1.63.22-2.48.32-.86.11-1.69.21-2.48.3s-1.5.16-2.1.21c-.34.04-.6-.03-.8-.19-.2-.16-.32-.39-.35-.69-.04-.28.05-.51.26-.71.21-.2.48-.3.8-.31.17-.01.34-.02.51-.04.17-.01.36-.02.55-.04.14-.25.31-.56.5-.92.19-.36.38-.73.58-1.12s.38-.75.54-1.09h-3.56c-.24,0-.45-.09-.62-.28-.17-.19-.26-.4-.26-.64s.09-.47.26-.66c.17-.19.38-.28.62-.28h12.42c.24,0,.45.09.62.28s.26.4.26.66-.09.45-.26.64-.38.28-.62.28h-6.62c-.18.38-.41.85-.68,1.39s-.55,1.05-.81,1.53c.78-.07,1.56-.15,2.34-.23.78-.08,1.49-.17,2.14-.25-.08-.1-.17-.18-.24-.26-.08-.08-.16-.16-.24-.24-.16-.17-.24-.38-.24-.64,0-.26.08-.47.26-.64.22-.2.46-.3.75-.28s.52.12.71.31c.46.43.94.94,1.46,1.51s.98,1.11,1.39,1.6c.17.22.25.47.24.76,0,.29-.12.52-.35.7ZM157.9,114.3c-.24,0-.45-.09-.62-.28-.17-.19-.26-.4-.26-.66s.09-.45.26-.64c.17-.19.38-.28.62-.28h6.44c.24,0,.45.09.62.28.17.19.26.4.26.64,0,.25-.09.47-.26.66-.17.19-.38.28-.62.28h-6.44Z"/><path class="cls-1" d="M173.89,122.54c-.3.05-.57-.01-.81-.18-.24-.17-.39-.4-.45-.68-.07-.4-.13-.94-.16-1.62s-.06-1.45-.07-2.3,0-1.74,0-2.66c.02-.92.05-1.81.1-2.68s.11-1.66.19-2.38c.08-.71.17-1.29.28-1.74.07-.29.23-.51.49-.67.25-.16.52-.2.81-.13.29.07.51.23.67.49.16.25.2.52.13.81-.11.44-.2,1-.27,1.67s-.13,1.41-.18,2.21c-.05.8-.08,1.62-.1,2.46-.02.84-.02,1.65,0,2.44.01.79.04,1.5.08,2.14.04.64.1,1.17.17,1.58.06.29,0,.55-.17.79-.17.24-.41.39-.69.45ZM179.88,122.52c-.96,0-1.73-.24-2.31-.71-.58-.47-.87-1.15-.87-2.04s.29-1.53.87-2.03c.58-.5,1.38-.75,2.4-.75.31,0,.63.02.95.05-.01-.56-.03-1.18-.04-1.85-.02-.67-.04-1.35-.06-2.04-.64.04-1.25.06-1.85.07-.59.01-1.11.01-1.54,0-.3-.01-.55-.12-.75-.33-.2-.21-.29-.46-.28-.77.02-.29.14-.53.35-.73.21-.2.46-.29.75-.28.42.01.92.02,1.49,0,.57,0,1.17-.03,1.79-.06-.01-.46-.02-.89-.02-1.31v-1.19c0-.3.1-.55.31-.77.2-.21.46-.31.76-.31s.57.11.77.31c.2.21.31.47.31.77,0,.37,0,.76,0,1.15s0,.8,0,1.21c.53-.05,1.01-.1,1.45-.14.44-.05.81-.1,1.11-.14.29-.06.55,0,.79.17.24.17.38.4.43.69s-.02.55-.19.79c-.17.24-.4.38-.69.41-.34.05-.75.1-1.25.15-.5.05-1.04.11-1.61.15.02.84.05,1.65.07,2.43.02.78.04,1.47.05,2.07.66.22,1.28.47,1.86.77s1.09.61,1.52.94c.24.18.38.42.43.71.05.29-.01.56-.18.8-.17.24-.4.39-.69.45-.29.06-.56,0-.8-.18-.3-.23-.63-.45-.99-.67-.36-.22-.73-.41-1.12-.58-.12,1.84-1.2,2.75-3.24,2.75ZM179.88,120.49c.74,0,1.12-.35,1.12-1.06,0-.04,0-.08,0-.14,0-.06,0-.13,0-.2-.36-.07-.73-.11-1.1-.11s-.65.07-.82.22-.26.33-.26.56.08.41.25.54c.17.13.44.2.83.2Z"/><path class="cls-1" d="M201.08,121.32c-1.81.42-3.43.6-4.85.55-1.42-.05-2.6-.33-3.55-.82-.94-.49-1.6-1.19-1.97-2.09-.12-.28-.12-.55,0-.83.12-.28.32-.47.59-.58.28-.12.55-.12.82,0,.27.12.46.32.57.59.23.52.7.91,1.4,1.19s1.62.41,2.73.4c1.11,0,2.37-.18,3.77-.53.29-.07.56-.03.81.13s.41.39.49.68c.06.29.01.56-.14.81-.16.25-.38.41-.67.49ZM199.43,111.47c-.65-.17-1.34-.3-2.08-.39-.74-.09-1.47-.14-2.19-.15-.72-.01-1.39.01-2.02.07-.3.04-.57-.04-.8-.22-.23-.18-.37-.42-.41-.72s.04-.57.22-.8c.18-.23.42-.37.72-.4.72-.07,1.51-.09,2.38-.06.86.03,1.71.09,2.53.19.82.1,1.54.22,2.15.38.29.08.51.25.67.5.16.25.2.51.13.8-.06.29-.22.51-.48.68-.26.16-.53.21-.82.13Z"/><path class="cls-1" d="M211.74,123.04c-.3.01-.56-.09-.77-.3-.22-.21-.34-.46-.36-.76-.01-.3.09-.56.3-.78.21-.22.46-.33.76-.33,1.72-.05,2.94-.34,3.68-.87.74-.53,1.11-1.31,1.11-2.33,0-.56-.18-1.01-.55-1.35s-.85-.54-1.44-.6c-.59-.07-1.25.03-1.95.28-.71.25-1.4.68-2.09,1.28-.18.16-.39.24-.62.24-.23,0-.45-.05-.66-.17-.19-.13-.33-.31-.41-.52-.08-.22-.1-.44-.04-.67.17-.58.32-1.25.45-2.03.13-.78.24-1.56.32-2.34-.59.01-1.14.02-1.66,0-.52,0-.97-.02-1.35-.04-.29-.02-.52-.15-.71-.38-.19-.23-.27-.49-.24-.77.02-.29.15-.52.38-.71.23-.19.49-.27.77-.24.4.04.86.06,1.38.07.52.01,1.07.01,1.63,0,.02-.34.04-.65.05-.93.01-.28.02-.53.02-.75,0-.3.1-.55.3-.77.2-.21.45-.32.75-.33.3-.01.56.08.77.29.22.2.32.46.32.76,0,.2,0,.44-.03.72-.02.28-.04.58-.06.9,1.2-.07,2.24-.21,3.11-.41.29-.06.55,0,.8.15s.39.39.44.67c.06.29.01.55-.14.79-.16.24-.38.39-.67.45-.52.1-1.1.18-1.75.25-.65.07-1.32.13-2.02.18-.06.53-.13,1.05-.22,1.56-.08.51-.17.97-.25,1.38.67-.38,1.36-.64,2.05-.77.7-.13,1.37-.15,2.02-.05.65.1,1.23.31,1.75.63.52.32.92.75,1.22,1.29.3.53.45,1.17.45,1.9,0,1.7-.61,3.02-1.82,3.94s-2.89,1.42-5.04,1.49Z"/><path class="cls-1" d="M227.19,122.47c-.3,0-.56-.1-.77-.31s-.32-.46-.33-.76c0-.3.1-.55.31-.77.2-.21.46-.32.76-.33,3.36-.06,5.04-1.02,5.04-2.88,0-.61-.21-1.09-.63-1.44-.42-.35-.98-.52-1.67-.52-.77,0-1.56.19-2.38.57s-1.57.95-2.24,1.7c-.16.18-.36.29-.6.33s-.47,0-.67-.1c-.2-.1-.35-.25-.45-.46-.1-.21-.13-.43-.09-.66.08-.5.18-1.05.28-1.64.1-.59.21-1.19.33-1.79s.24-1.17.36-1.68c.06-.3.22-.52.48-.67.26-.15.53-.19.82-.12.29.07.51.24.67.5.16.26.2.53.13.82-.08.34-.18.72-.3,1.16s-.23.9-.35,1.4c1.38-.94,2.74-1.4,4.09-1.4.89,0,1.66.17,2.32.5s1.17.8,1.54,1.4.55,1.3.55,2.11c0,1.5-.59,2.71-1.76,3.62-1.18.91-2.98,1.39-5.4,1.42ZM230.07,111.2c-.38-.19-.82-.4-1.31-.62-.49-.22-.97-.44-1.46-.65-.49-.21-.92-.39-1.29-.53-.26-.11-.44-.31-.54-.59-.1-.29-.08-.56.04-.83.13-.28.34-.46.61-.55.28-.09.55-.08.83.03.4.16.83.33,1.29.53.46.2.93.4,1.39.61.47.21.89.41,1.28.6.26.13.45.33.57.6.11.27.12.54,0,.82-.12.26-.32.46-.59.58-.28.12-.55.12-.83,0Z"/></g></svg>