<?xml version="1.0" encoding="UTF-8"?><svg id="_レイヤー_2" xmlns="http://www.w3.org/2000/svg" viewBox="0 0 336 132.36"><defs><style>.cls-1{fill:#1f4492;}.cls-1,.cls-2{stroke-width:0px;}.cls-3{fill:none;stroke:#1f4492;stroke-miterlimit:10;}.cls-2{fill:#fff;}</style></defs><g id="_レイヤー_1-2"><rect class="cls-1" x=".5" y=".5" width="335" height="131.36" rx="11.46" ry="11.46"/><path class="cls-2" d="M68.09,40.25c-.44.27-.92.38-1.43.3-.51-.07-.91-.34-1.18-.8-.24-.42-.28-.87-.14-1.35s.45-.84.91-1.1c2.06-1.19,3.83-2.65,5.33-4.36,1.5-1.72,2.69-3.56,3.58-5.53.89-1.97,1.42-3.93,1.58-5.88.07-.73-.04-1.25-.34-1.54-.3-.29-.9-.44-1.78-.44h-3c-.42,0-.78-.15-1.09-.45-.3-.3-.45-.67-.45-1.09s.15-.79.45-1.09c.3-.3.67-.45,1.09-.45h3c1.38,0,2.46.14,3.26.41.8.27,1.37.75,1.72,1.42.35.67.52,1.6.52,2.79,0,2.26.4,4.37,1.21,6.33.81,1.96,1.96,3.77,3.46,5.42,1.5,1.65,3.26,3.14,5.3,4.46.42.28.67.67.76,1.18.08.51-.02.97-.32,1.38-.29.44-.7.68-1.23.73-.52.05-1.01-.09-1.45-.4-2.17-1.52-4.1-3.29-5.81-5.29-1.71-2-2.99-4.27-3.85-6.8-1.06,2.52-2.45,4.8-4.16,6.87-1.71,2.07-3.69,3.82-5.95,5.27Z"/><path class="cls-2" d="M94.82,26.73c-.46.26-.91.35-1.36.29-.45-.06-.8-.31-1.06-.73-.2-.37-.24-.74-.12-1.13.12-.39.41-.72.87-.99,1.01-.61,2.07-1.29,3.18-2.05,1.11-.76,2.19-1.55,3.25-2.35,1.06-.81,2-1.58,2.82-2.31.72-.64,1.36-1.07,1.93-1.28s1.14-.22,1.72-.03,1.23.59,1.97,1.2c.75.61,1.67,1.3,2.74,2.09,1.07.79,2.19,1.57,3.36,2.35,1.17.78,2.26,1.47,3.29,2.08.53.29.85.66.96,1.09.11.43.04.86-.22,1.28-.24.4-.61.64-1.1.72-.5.07-.99-.05-1.49-.36-.72-.44-1.49-.95-2.33-1.54-.84-.59-1.68-1.2-2.53-1.83s-1.67-1.26-2.44-1.87c-.77-.61-1.45-1.18-2.04-1.69-.37-.33-.69-.5-.96-.5s-.6.17-.96.5c-.83.73-1.79,1.54-2.88,2.42-1.09.88-2.21,1.73-3.36,2.56-1.15.83-2.23,1.52-3.24,2.09ZM114.98,40.19c-.35.28-.75.39-1.2.34-.45-.05-.8-.23-1.06-.56-.2-.28-.42-.56-.65-.85-.23-.29-.47-.59-.73-.88-.92.15-1.99.3-3.21.47-1.22.17-2.49.33-3.8.5-1.31.17-2.58.32-3.8.45s-2.29.24-3.21.32c-.51.05-.92-.04-1.23-.29-.3-.25-.48-.6-.54-1.06-.06-.42.08-.78.4-1.09s.73-.46,1.23-.48c.26-.02.52-.04.78-.06.27-.02.55-.04.84-.05.22-.39.47-.85.76-1.4.28-.55.58-1.12.89-1.72.31-.6.59-1.15.83-1.67h-5.45c-.37,0-.68-.14-.95-.43-.27-.28-.4-.61-.4-.98s.13-.72.4-1c.27-.28.58-.43.95-.43h19c.37,0,.68.14.95.43.27.28.4.62.4,1s-.13.69-.4.98c-.27.28-.58.43-.95.43h-10.13c-.28.59-.62,1.29-1.05,2.12-.42.83-.84,1.61-1.24,2.34,1.19-.11,2.39-.23,3.58-.36s2.29-.26,3.28-.39c-.13-.15-.25-.28-.37-.4s-.24-.24-.37-.37c-.24-.26-.36-.58-.37-.98,0-.39.12-.72.4-.98.33-.31.71-.45,1.14-.43.43.03.79.19,1.09.48.7.66,1.44,1.43,2.23,2.31.79.88,1.5,1.7,2.12,2.45.26.33.38.72.37,1.16,0,.44-.19.8-.54,1.07ZM100.36,27.22c-.37,0-.68-.14-.95-.43-.27-.28-.4-.62-.4-1s.13-.69.4-.98.58-.43.95-.43h9.86c.37,0,.68.14.95.43.27.28.4.61.4.98,0,.39-.13.72-.4,1-.27.28-.58.43-.95.43h-9.86Z"/><path class="cls-2" d="M134.06,39.97c-.46.05-.88-.06-1.25-.34-.38-.29-.59-.66-.65-1.12-.06-.5-.17-1.34-.33-2.52-.17-1.18-.35-2.51-.55-3.98-1.18.13-2.29.26-3.36.4-1.06.14-1.99.25-2.77.34s-1.34.17-1.69.22c-.46.06-.87-.06-1.24-.36-.37-.29-.57-.67-.61-1.13-.06-.48.06-.9.36-1.25.29-.36.67-.56,1.13-.62.29-.04.83-.1,1.6-.18.77-.08,1.69-.19,2.75-.32,1.06-.13,2.18-.26,3.36-.39l-.44-3.14c-1.21.13-2.31.26-3.29.39-.98.13-1.66.21-2.02.25-.46.06-.87-.07-1.23-.37-.36-.3-.56-.68-.62-1.14-.04-.46.09-.87.39-1.23.29-.36.67-.56,1.13-.62.29-.04.92-.11,1.89-.21.96-.1,2.06-.22,3.29-.37-.22-1.43-.38-2.5-.47-3.19-.07-.48.04-.9.33-1.27.29-.37.67-.58,1.13-.63.48-.07.9.03,1.27.32s.58.67.63,1.14c.04.35.1.8.18,1.36.08.56.17,1.2.26,1.91,1.08-.13,2.07-.24,2.97-.34.9-.1,1.59-.18,2.06-.23.46-.05.87.06,1.23.36s.55.68.59,1.16c.04.46-.09.87-.37,1.23-.28.36-.67.56-1.14.59-.46.04-1.13.1-2.01.19s-1.84.2-2.89.33l.44,3.11c1.12-.15,2.18-.28,3.17-.39.99-.11,1.84-.21,2.56-.3.72-.09,1.2-.15,1.46-.17.59.24,1.04.47,1.35.69.31.22.49.49.52.8.06.46-.06.87-.36,1.24-.29.37-.67.57-1.13.61-.28.02-.76.07-1.46.15-.7.08-1.54.18-2.52.29-.98.11-2.02.24-3.12.39.2,1.49.39,2.81.56,3.98.17,1.17.3,1.98.37,2.44.09.46,0,.88-.3,1.25-.29.38-.68.6-1.16.67Z"/><path class="cls-2" d="M159.39,40.91c-.4.07-.78,0-1.13-.23-.35-.23-.56-.55-.63-.95-.11-.66-.26-1.48-.45-2.45-.19-.97-.41-2.02-.66-3.14-.25-1.12-.51-2.24-.79-3.36-1.01.18-1.95.35-2.84.51-.88.16-1.58.28-2.09.37-.4.06-.77-.04-1.1-.29-.33-.25-.53-.57-.61-.98-.06-.4.04-.77.29-1.09.25-.32.57-.51.98-.56.46-.07,1.1-.18,1.93-.32.83-.14,1.73-.29,2.73-.45-.31-1.27-.61-2.33-.88-3.19-.13-.39-.09-.76.11-1.13.2-.37.5-.61.91-.72.4-.11.78-.07,1.14.12.36.19.59.49.7.89.15.46.29.99.44,1.6.15.61.3,1.25.47,1.93l4.16-.72c2.88-.5,4.56.34,5.04,2.51.26,1.21-.01,2.31-.81,3.3s-2.16,1.8-4.09,2.42c-.39.13-.76.11-1.12-.06s-.61-.45-.76-.85c-.13-.39-.11-.76.06-1.13.17-.37.45-.62.85-.74.84-.31,1.47-.59,1.87-.83.4-.24.67-.47.78-.7.12-.23.15-.45.1-.67-.04-.22-.16-.38-.36-.47-.2-.09-.52-.09-.96,0-.55.09-1.18.2-1.89.33s-1.44.27-2.19.41c.28,1.12.54,2.23.78,3.35.25,1.11.48,2.14.69,3.1.21.96.38,1.76.51,2.42.07.4,0,.78-.23,1.12-.23.34-.55.55-.95.65Z"/><path class="cls-2" d="M177.6,26.81c-.7-.59-1.48-1.2-2.34-1.83s-1.64-1.15-2.34-1.56c-.4-.26-.66-.61-.77-1.06-.11-.45-.05-.88.19-1.28.26-.4.61-.67,1.06-.79.45-.12.88-.05,1.28.21.5.31,1.06.69,1.69,1.14s1.25.89,1.84,1.34c.6.44,1.09.82,1.47,1.13.37.29.58.67.65,1.14.06.47-.05.89-.34,1.25-.29.37-.67.58-1.14.65-.47.06-.89-.05-1.25-.34ZM175.23,37.66c-.44.17-.88.15-1.31-.06-.43-.2-.73-.52-.9-.96-.17-.44-.15-.88.06-1.31.2-.43.52-.73.96-.9,1.47-.51,2.95-1.15,4.45-1.9,1.5-.75,2.93-1.57,4.3-2.46,1.37-.89,2.62-1.81,3.75-2.75,1.13-.94,2.05-1.86,2.77-2.74.31-.37.7-.58,1.17-.63.47-.05.88.07,1.23.39.37.29.58.67.63,1.14.06.47-.07.89-.39,1.25-.75.92-1.75,1.9-3,2.93-1.25,1.04-2.64,2.06-4.19,3.07-1.54,1.01-3.13,1.95-4.76,2.81-1.63.86-3.22,1.57-4.76,2.12Z"/><path class="cls-2" d="M218.12,35.62c-.55-.53-1.24-1.16-2.07-1.89-.83-.73-1.71-1.48-2.64-2.26-.94-.78-1.85-1.53-2.75-2.24-.9-.72-1.7-1.33-2.4-1.85-.51-.39-.98-.65-1.39-.78-.41-.14-.84-.16-1.29-.06-.45.1-.99.33-1.61.67-.51.29-1.1.64-1.76,1.05-.66.4-1.3.8-1.91,1.18-.62.39-1.12.7-1.5.94-.4.24-.84.3-1.29.19-.46-.11-.81-.37-1.05-.77-.24-.4-.31-.83-.21-1.29.1-.46.35-.81.76-1.05.39-.24.9-.55,1.56-.94.65-.39,1.33-.78,2.04-1.17.71-.39,1.32-.74,1.83-1.03,1.1-.59,2.06-.97,2.88-1.16.82-.18,1.6-.16,2.35.08.75.24,1.6.7,2.53,1.38.5.35,1.09.79,1.79,1.34.7.54,1.45,1.13,2.24,1.76.8.63,1.6,1.28,2.4,1.94.8.66,1.54,1.29,2.23,1.89.69.6,1.27,1.12,1.75,1.58.35.31.53.71.54,1.18,0,.48-.16.9-.51,1.27-.33.33-.74.5-1.24.51s-.92-.15-1.27-.48ZM215.26,25.32c-.77,0-1.43-.28-1.97-.83-.54-.55-.81-1.2-.81-1.96s.27-1.43.81-1.97c.54-.54,1.2-.81,1.97-.81s1.43.27,1.97.81c.54.54.81,1.2.81,1.97s-.27,1.4-.81,1.96-1.2.83-1.97.83ZM215.26,23.72c.33,0,.61-.12.84-.36.23-.24.34-.51.34-.83,0-.33-.11-.61-.34-.85-.23-.24-.51-.36-.84-.36s-.61.12-.84.36c-.23.24-.34.52-.34.85,0,.31.11.59.34.83.23.24.51.36.84.36Z"/><path class="cls-2" d="M225.58,30.08c-.46,0-.86-.17-1.2-.51-.34-.34-.51-.74-.51-1.2s.17-.88.51-1.21c.34-.33.74-.5,1.2-.5h17.15c.48,0,.88.17,1.21.5.33.33.5.73.5,1.21s-.17.86-.5,1.2c-.33.34-.73.51-1.21.51h-17.15Z"/><path class="cls-2" d="M253.79,26.81c-.7-.59-1.48-1.2-2.34-1.83s-1.64-1.15-2.34-1.56c-.4-.26-.66-.61-.77-1.06-.11-.45-.05-.88.19-1.28.26-.4.61-.67,1.06-.79.45-.12.88-.05,1.28.21.5.31,1.06.69,1.69,1.14s1.25.89,1.84,1.34c.6.44,1.09.82,1.47,1.13.37.29.58.67.65,1.14.06.47-.05.89-.34,1.25-.29.37-.67.58-1.14.65-.47.06-.89-.05-1.25-.34ZM251.42,37.66c-.44.17-.88.15-1.31-.06-.43-.2-.73-.52-.9-.96-.17-.44-.15-.88.06-1.31.2-.43.52-.73.96-.9,1.47-.51,2.95-1.15,4.45-1.9,1.5-.75,2.93-1.57,4.3-2.46,1.37-.89,2.62-1.81,3.75-2.75,1.13-.94,2.05-1.86,2.77-2.74.31-.37.7-.58,1.17-.63.47-.05.88.07,1.23.39.37.29.58.67.63,1.14.06.47-.07.89-.39,1.25-.75.92-1.75,1.9-3,2.93-1.25,1.04-2.64,2.06-4.19,3.07-1.54,1.01-3.13,1.95-4.76,2.81-1.63.86-3.22,1.57-4.76,2.12Z"/><path class="cls-2" d="M106.6,83.48c-.68.15-1.29.11-1.83-.11-.54-.22-.91-.67-1.11-1.34-.17-.63-.09-1.19.24-1.69.33-.5.83-.79,1.51-.89,2.45-.44,4.53-1.1,6.27-1.98,1.73-.88,3.11-2.03,4.12-3.43h-10.39c-.48,0-.9-.18-1.25-.53-.35-.35-.53-.77-.53-1.25s.18-.94.53-1.29c.35-.35.77-.53,1.25-.53h12.02c.1-.29.18-.6.24-.93.06-.33.1-.65.13-.96h-7.77c-.48,0-.9-.18-1.25-.53-.35-.35-.53-.77-.53-1.25s.18-.9.53-1.25.77-.53,1.25-.53h7.88v-1.89h-7.85c-.41,0-.78-.13-1.11-.4-.33-.27-.54-.59-.64-.98-.36.51-.93.76-1.71.76-.58,0-1.08-.18-1.49-.54-.41-.36-.62-.86-.62-1.49v-1.6c0-1.89.45-3.23,1.36-4.03.91-.8,2.46-1.2,4.67-1.2h7.19v-1.74c0-.63.23-1.16.69-1.6.46-.44,1.02-.65,1.67-.65s1.21.22,1.67.65c.46.44.69.97.69,1.6v1.74h7.34c2.2,0,3.76.4,4.67,1.2.91.8,1.36,2.14,1.36,4.03v1.6c0,.63-.21,1.13-.62,1.49-.41.36-.91.54-1.49.54-.73,0-1.28-.23-1.67-.69-.1.36-.3.67-.62.93-.31.25-.68.38-1.09.38h-8.06v1.89h8.06c.48,0,.9.18,1.23.53.34.35.51.77.51,1.25s-.17.9-.51,1.25c-.34.35-.75.53-1.23.53h-8.14c-.02.31-.06.63-.11.94-.05.31-.11.63-.18.94h13.08c.48,0,.9.18,1.25.53.35.35.53.78.53,1.29s-.18.9-.53,1.25c-.35.35-.77.53-1.25.53h-10.68c1.14,1.26,2.6,2.34,4.4,3.23,1.79.9,3.86,1.59,6.21,2.07.63.12,1.1.42,1.42.89.31.47.4,1.02.25,1.65-.17.75-.57,1.24-1.2,1.47-.63.23-1.3.27-2,.13-1.77-.41-3.49-1.01-5.16-1.8-1.67-.79-3.2-1.74-4.58-2.87s-2.53-2.39-3.45-3.8c-1.19,2.06-2.91,3.8-5.16,5.21-2.25,1.42-5.06,2.5-8.43,3.25ZM108.71,60.2c.29-.41.74-.62,1.34-.62h7.85v-2.51h-6.87c-.9,0-1.51.14-1.83.42-.33.28-.49.76-.49,1.43v1.27ZM131.63,60.13v-1.2c0-.68-.17-1.16-.51-1.43-.34-.28-.96-.42-1.85-.42h-7.01v2.51h8.06c.51,0,.94.18,1.31.54Z"/><path class="cls-2" d="M148.64,83.45c-.68.02-1.23-.12-1.65-.44-.42-.31-.66-.78-.71-1.38-.02-.58.14-1.06.49-1.43.35-.38.8-.57,1.36-.6.7-.05,1.19-.18,1.47-.4.28-.22.5-.79.67-1.71.12-.65.24-1.49.35-2.51.11-1.02.2-2.06.27-3.14.07-1.08.12-2.04.15-2.89.02-.6-.07-1-.27-1.18-.21-.18-.62-.27-1.25-.27h-.47c-.22,2.71-.67,5.32-1.36,7.83-.69,2.51-1.68,4.81-2.96,6.92-.31.51-.77.84-1.36.98-.59.15-1.16.06-1.69-.25-.46-.27-.75-.67-.87-1.22s-.04-1.05.25-1.51c.97-1.5,1.75-3.04,2.34-4.63.59-1.59,1.03-3.37,1.31-5.36.28-1.99.42-4.29.42-6.9v-3.45h-2.29c-.51,0-.94-.18-1.31-.53-.36-.35-.54-.79-.54-1.33s.18-.94.54-1.31.8-.54,1.31-.54h3.96v-4.4c0-.63.21-1.14.62-1.53.41-.39.91-.58,1.49-.58s1.07.19,1.47.58c.4.39.6.9.6,1.53v4.4h3.23c.48,0,.9.16,1.23.47.34.31.54.7.62,1.16.63-1.09,1.2-2.23,1.73-3.41.52-1.19.94-2.28,1.25-3.27.19-.58.57-.97,1.13-1.16.56-.19,1.1-.18,1.63.04.51.22.85.56,1.04,1.04s.18.97-.02,1.51c-.12.39-.26.77-.42,1.14-.16.38-.31.76-.45,1.14h11.04c.48,0,.9.18,1.25.53.35.35.53.77.53,1.25s-.18.9-.53,1.23c-.35.34-.77.51-1.25.51h-12.75c-.29.53-.58,1.04-.87,1.53s-.59.96-.91,1.42c.31-.12.62-.18.91-.18.53,0,.98.17,1.34.51.36.34.54.81.54,1.42v2.18l1.96-.58v-3.6c0-.56.18-1,.54-1.34.36-.34.8-.51,1.31-.51s.97.17,1.33.51c.35.34.53.79.53,1.34v2.54c1.96-.53,3.47-.5,4.52.11,1.05.61,1.58,1.95,1.58,4.03v3.63c0,1.4-.3,2.46-.89,3.16-.59.7-1.58,1.13-2.96,1.27-.51.05-.96,0-1.36-.15-.4-.15-.7-.4-.89-.76v.62c0,.56-.18,1.01-.53,1.34-.35.34-.79.51-1.33.51s-.94-.17-1.31-.51c-.36-.34-.54-.79-.54-1.34v-6.94l-1.96.58v7.16c0,.87.12,1.53.36,1.98.24.45.71.74,1.42.89.7.15,1.74.22,3.12.22,1.28,0,2.26-.08,2.94-.25.68-.17,1.16-.43,1.45-.78.29-.35.51-.79.65-1.33.17-.6.51-1.02,1.04-1.24.52-.22,1.07-.23,1.65-.04.58.17.97.48,1.18.94.21.46.24.97.09,1.53-.29,1.21-.74,2.18-1.36,2.91-.62.73-1.53,1.25-2.74,1.56-1.21.31-2.85.47-4.9.47-2.18,0-3.9-.18-5.18-.53-1.27-.35-2.18-.99-2.72-1.92-.54-.93-.82-2.27-.82-4.01v-6.47l-2,.58c-.17.07-.38.11-.62.11-.07,1.36-.16,2.67-.27,3.94-.11,1.27-.22,2.33-.35,3.18-.27,1.99-.84,3.37-1.71,4.14-.87.77-2.16,1.19-3.85,1.23ZM154.85,67.06l2.58-.76v-3.23c0-.12.01-.22.04-.29l-.11.11c-.34.46-.8.76-1.38.91-.58.15-1.11.02-1.6-.36-.44-.34-.68-.77-.73-1.31-.05-.53.11-1,.47-1.42l.65-.87c-.1.02-.19.04-.27.05s-.19.02-.31.02h-5.01v3.81h.4c1.79,0,3.08.24,3.87.71.79.47,1.25,1.35,1.4,2.63ZM166.91,73.02c.27-.48.7-.77,1.31-.87.44-.07.71-.19.84-.34.12-.16.18-.44.18-.85v-2.18c0-.77-.15-1.25-.45-1.43-.3-.18-.78-.18-1.44.02l-.44.15v5.52Z"/><path class="cls-2" d="M194.11,83.26c-.68,0-1.22-.18-1.63-.53-.41-.35-.62-.85-.62-1.51v-9.66h-5.01c-1.96,0-3.54-.21-4.72-.62-1.19-.41-2.05-1.15-2.58-2.22-.53-1.07-.8-2.55-.8-4.47s.27-3.47.82-4.52c.54-1.05,1.41-1.78,2.6-2.18,1.19-.4,2.75-.6,4.69-.6h5.01v-4.94c0-.65.21-1.15.62-1.49.41-.34.96-.51,1.63-.51s1.25.17,1.63.51c.39.34.58.84.58,1.49v4.94h5.08c1.94,0,3.5.2,4.69.6s2.05,1.13,2.6,2.18.82,2.56.82,4.52-.28,3.4-.84,4.47c-.56,1.07-1.43,1.8-2.62,2.22-1.19.41-2.74.62-4.65.62h-5.08v9.66c0,.65-.19,1.16-.58,1.51-.39.35-.93.53-1.63.53ZM186.84,67.57h5.01v-6.61h-5.01c-.92,0-1.65.07-2.18.22-.53.15-.91.45-1.13.91-.22.46-.33,1.19-.33,2.18s.1,1.65.31,2.12c.21.47.57.79,1.09.94.52.16,1.27.24,2.23.24ZM196.32,67.57h5.08c.92,0,1.64-.08,2.16-.24.52-.16.9-.47,1.13-.94s.35-1.18.35-2.12c0-.99-.1-1.72-.31-2.18-.21-.46-.58-.76-1.11-.91-.53-.15-1.27-.22-2.22-.22h-5.08v6.61Z"/><path class="cls-2" d="M217.27,80.98c-.75,0-1.39-.27-1.93-.8-.53-.53-.8-1.17-.8-1.93s.27-1.43.8-1.96c.53-.53,1.17-.8,1.93-.8s1.43.27,1.98.8c.54.53.82,1.19.82,1.96s-.27,1.39-.82,1.93c-.54.53-1.21.8-1.98.8ZM217.31,73.17c-1.04,0-1.6-.71-1.67-2.14l-.47-13.84c-.05-1.45.65-2.18,2.11-2.18s2.22.73,2.14,2.18l-.47,13.84c-.05,1.43-.59,2.14-1.63,2.14Z"/><path class="cls-2" d="M228.67,80.98c-.75,0-1.39-.27-1.93-.8-.53-.53-.8-1.17-.8-1.93s.27-1.43.8-1.96c.53-.53,1.17-.8,1.93-.8s1.43.27,1.98.8c.54.53.82,1.19.82,1.96s-.27,1.39-.82,1.93c-.54.53-1.21.8-1.98.8ZM228.71,73.17c-1.04,0-1.6-.71-1.67-2.14l-.47-13.84c-.05-1.45.65-2.18,2.11-2.18s2.22.73,2.14,2.18l-.47,13.84c-.05,1.43-.59,2.14-1.63,2.14Z"/><path class="cls-2" d="M.5,100.21v20.76c0,6.01,4.87,10.89,10.89,10.89h313.22c6.01,0,10.89-4.87,10.89-10.89v-20.76H.5Z"/><rect class="cls-3" x=".5" y=".5" width="335" height="131.36" rx="11.46" ry="11.46"/><path class="cls-1" d="M102.44,121.82c-.65,0-1.03-.31-1.15-.94l-2.34-10.49c-.08-.38-.05-.67.1-.87.15-.2.39-.3.71-.3.38,0,.68.07.87.22.2.14.33.39.39.74l1.6,7.88,2.07-7.92c.16-.61.53-.92,1.13-.92s1,.31,1.15.92l2.07,7.92,1.6-7.88c.11-.64.49-.95,1.15-.95.37,0,.64.1.81.31s.21.49.13.86l-2.34,10.49c-.12.62-.51.94-1.17.94s-1.03-.31-1.19-.92l-2.21-8.39-2.2,8.39c-.16.61-.55.92-1.19.92Z"/><path class="cls-1" d="M118.58,122.02c-1.26,0-2.28-.38-3.06-1.14s-1.17-1.89-1.17-3.39c0-.94.17-1.74.52-2.42.35-.68.83-1.2,1.46-1.57.62-.37,1.34-.55,2.14-.55s1.49.19,2.05.56c.56.37,1,.85,1.3,1.44.3.59.45,1.2.45,1.84,0,.44-.09.74-.27.87-.18.14-.44.21-.79.21h-4.86c.05.86.28,1.48.68,1.84.41.37.94.55,1.58.55.73,0,1.3-.25,1.71-.76.24-.25.46-.42.67-.5s.43-.03.67.13c.24.17.38.38.41.65.04.26-.07.54-.32.83-.41.49-.88.85-1.4,1.07-.53.22-1.12.33-1.78.33ZM116.44,116.29h3.83c-.1-.56-.3-1-.62-1.31-.32-.31-.72-.46-1.22-.46-.53,0-.96.14-1.3.43s-.57.73-.69,1.33Z"/><path class="cls-1" d="M129.29,122.02c-1.02,0-1.82-.44-2.41-1.33v.36c0,.29-.09.49-.28.6-.19.11-.42.17-.69.17-.6,0-.9-.35-.9-1.06v-10.71c0-.71.34-1.06,1.03-1.06s1.01.35,1.01,1.06v3.89c.29-.31.62-.56,1.01-.73s.8-.26,1.24-.26c.8,0,1.52.18,2.15.54.63.36,1.12.88,1.48,1.56.36.68.54,1.49.54,2.44s-.18,1.76-.54,2.44c-.36.68-.85,1.2-1.48,1.56-.63.36-1.35.54-2.15.54ZM129.21,120.18c.64,0,1.16-.23,1.58-.7.42-.47.63-1.13.63-2s-.21-1.53-.63-2c-.42-.47-.95-.7-1.58-.7s-1.16.23-1.58.7c-.42.47-.63,1.13-.63,2s.21,1.53.63,2c.42.47.95.7,1.58.7Z"/><path class="cls-1" d="M136.74,122.81c-.29.18-.6.25-.94.2s-.59-.22-.77-.52c-.16-.28-.19-.57-.09-.88.1-.31.29-.55.59-.72,1.34-.78,2.5-1.73,3.48-2.85.98-1.12,1.76-2.33,2.34-3.62.58-1.29.93-2.57,1.04-3.84.05-.48-.03-.82-.22-1.01-.2-.19-.58-.29-1.16-.29h-1.96c-.28,0-.51-.1-.71-.3-.2-.2-.3-.44-.3-.71s.1-.51.3-.71c.2-.2.43-.3.71-.3h1.96c.9,0,1.61.09,2.13.27.52.18.9.49,1.12.93.23.44.34,1.05.34,1.83,0,1.48.26,2.86.79,4.14s1.28,2.47,2.26,3.55c.98,1.08,2.13,2.05,3.46,2.92.28.18.44.44.5.77.05.34-.01.64-.21.9-.19.29-.46.45-.8.48s-.66-.06-.95-.26c-1.42-1-2.68-2.15-3.8-3.46-1.12-1.31-1.96-2.79-2.52-4.45-.7,1.64-1.6,3.14-2.72,4.49-1.12,1.35-2.41,2.5-3.89,3.45Z"/><path class="cls-1" d="M154.28,113.97c-.3.17-.6.23-.89.19-.29-.04-.52-.2-.69-.48-.13-.24-.16-.49-.08-.74.08-.25.27-.47.57-.65.66-.4,1.35-.84,2.08-1.34s1.43-1.01,2.12-1.54,1.3-1.03,1.84-1.51c.47-.42.89-.7,1.26-.84.37-.14.75-.14,1.12-.02s.81.39,1.29.78c.49.4,1.09.85,1.79,1.37.7.52,1.43,1.03,2.2,1.54.76.51,1.48.96,2.15,1.36.35.19.56.43.63.71.07.28.02.56-.14.84-.16.26-.4.42-.72.47-.32.05-.65-.03-.97-.23-.47-.29-.97-.62-1.52-1.01-.55-.38-1.1-.78-1.66-1.2-.56-.41-1.09-.82-1.59-1.22-.5-.4-.95-.77-1.33-1.11-.24-.22-.45-.32-.63-.32s-.39.11-.63.32c-.54.48-1.17,1.01-1.88,1.58-.71.58-1.45,1.13-2.2,1.67s-1.46,1-2.11,1.37ZM167.46,122.77c-.23.18-.49.25-.78.23-.29-.03-.53-.15-.69-.37-.13-.18-.27-.37-.42-.56s-.31-.38-.48-.58c-.6.1-1.3.2-2.1.31-.8.11-1.63.22-2.48.32-.86.11-1.69.21-2.48.3s-1.5.16-2.1.21c-.34.04-.6-.03-.8-.19-.2-.16-.32-.39-.35-.69-.04-.28.05-.51.26-.71.21-.2.48-.3.8-.31.17-.01.34-.02.51-.04.17-.01.36-.02.55-.04.14-.25.31-.56.5-.92.19-.36.38-.73.58-1.12s.38-.75.54-1.09h-3.56c-.24,0-.45-.09-.62-.28-.17-.19-.26-.4-.26-.64s.09-.47.26-.66c.17-.19.38-.28.62-.28h12.42c.24,0,.45.09.62.28s.26.4.26.66-.09.45-.26.64-.38.28-.62.28h-6.62c-.18.38-.41.85-.68,1.39s-.55,1.05-.81,1.53c.78-.07,1.56-.15,2.34-.23.78-.08,1.49-.17,2.14-.25-.08-.1-.17-.18-.24-.26-.08-.08-.16-.16-.24-.24-.16-.17-.24-.38-.24-.64,0-.26.08-.47.26-.64.22-.2.46-.3.75-.28s.52.12.71.31c.46.43.94.94,1.46,1.51s.98,1.11,1.39,1.6c.17.22.25.47.24.76,0,.29-.12.52-.35.7ZM157.9,114.3c-.24,0-.45-.09-.62-.28-.17-.19-.26-.4-.26-.66s.09-.45.26-.64c.17-.19.38-.28.62-.28h6.44c.24,0,.45.09.62.28.17.19.26.4.26.64,0,.25-.09.47-.26.66-.17.19-.38.28-.62.28h-6.44Z"/><path class="cls-1" d="M173.89,122.54c-.3.05-.57-.01-.81-.18-.24-.17-.39-.4-.45-.68-.07-.4-.13-.94-.16-1.62s-.06-1.45-.07-2.3,0-1.74,0-2.66c.02-.92.05-1.81.1-2.68s.11-1.66.19-2.38c.08-.71.17-1.29.28-1.74.07-.29.23-.51.49-.67.25-.16.52-.2.81-.13.29.07.51.23.67.49.16.25.2.52.13.81-.11.44-.2,1-.27,1.67s-.13,1.41-.18,2.21c-.05.8-.08,1.62-.1,2.46-.02.84-.02,1.65,0,2.44.01.79.04,1.5.08,2.14.04.64.1,1.17.17,1.58.06.29,0,.55-.17.79-.17.24-.41.39-.69.45ZM179.88,122.52c-.96,0-1.73-.24-2.31-.71-.58-.47-.87-1.15-.87-2.04s.29-1.53.87-2.03c.58-.5,1.38-.75,2.4-.75.31,0,.63.02.95.05-.01-.56-.03-1.18-.04-1.85-.02-.67-.04-1.35-.06-2.04-.64.04-1.25.06-1.85.07-.59.01-1.11.01-1.54,0-.3-.01-.55-.12-.75-.33-.2-.21-.29-.46-.28-.77.02-.29.14-.53.35-.73.21-.2.46-.29.75-.28.42.01.92.02,1.49,0,.57,0,1.17-.03,1.79-.06-.01-.46-.02-.89-.02-1.31v-1.19c0-.3.1-.55.31-.77.2-.21.46-.31.76-.31s.57.11.77.31c.2.21.31.47.31.77,0,.37,0,.76,0,1.15s0,.8,0,1.21c.53-.05,1.01-.1,1.45-.14.44-.05.81-.1,1.11-.14.29-.06.55,0,.79.17.24.17.38.4.43.69s-.02.55-.19.79c-.17.24-.4.38-.69.41-.34.05-.75.1-1.25.15-.5.05-1.04.11-1.61.15.02.84.05,1.65.07,2.43.02.78.04,1.47.05,2.07.66.22,1.28.47,1.86.77s1.09.61,1.52.94c.24.18.38.42.43.71.05.29-.01.56-.18.8-.17.24-.4.39-.69.45-.29.06-.56,0-.8-.18-.3-.23-.63-.45-.99-.67-.36-.22-.73-.41-1.12-.58-.12,1.84-1.2,2.75-3.24,2.75ZM179.88,120.49c.74,0,1.12-.35,1.12-1.06,0-.04,0-.08,0-.14,0-.06,0-.13,0-.2-.36-.07-.73-.11-1.1-.11s-.65.07-.82.22-.26.33-.26.56.08.41.25.54c.17.13.44.2.83.2Z"/><path class="cls-1" d="M201.08,121.32c-1.81.42-3.43.6-4.85.55-1.42-.05-2.6-.33-3.55-.82-.94-.49-1.6-1.19-1.97-2.09-.12-.28-.12-.55,0-.83.12-.28.32-.47.59-.58.28-.12.55-.12.82,0,.27.12.46.32.57.59.23.52.7.91,1.4,1.19s1.62.41,2.73.4c1.11,0,2.37-.18,3.77-.53.29-.07.56-.03.81.13s.41.39.49.68c.06.29.01.56-.14.81-.16.25-.38.41-.67.49ZM199.43,111.47c-.65-.17-1.34-.3-2.08-.39-.74-.09-1.47-.14-2.19-.15-.72-.01-1.39.01-2.02.07-.3.04-.57-.04-.8-.22-.23-.18-.37-.42-.41-.72s.04-.57.22-.8c.18-.23.42-.37.72-.4.72-.07,1.51-.09,2.38-.06.86.03,1.71.09,2.53.19.82.1,1.54.22,2.15.38.29.08.51.25.67.5.16.25.2.51.13.8-.06.29-.22.51-.48.68-.26.16-.53.21-.82.13Z"/><path class="cls-1" d="M211.74,123.04c-.3.01-.56-.09-.77-.3-.22-.21-.34-.46-.36-.76-.01-.3.09-.56.3-.78.21-.22.46-.33.76-.33,1.72-.05,2.94-.34,3.68-.87.74-.53,1.11-1.31,1.11-2.33,0-.56-.18-1.01-.55-1.35s-.85-.54-1.44-.6c-.59-.07-1.25.03-1.95.28-.71.25-1.4.68-2.09,1.28-.18.16-.39.24-.62.24-.23,0-.45-.05-.66-.17-.19-.13-.33-.31-.41-.52-.08-.22-.1-.44-.04-.67.17-.58.32-1.25.45-2.03.13-.78.24-1.56.32-2.34-.59.01-1.14.02-1.66,0-.52,0-.97-.02-1.35-.04-.29-.02-.52-.15-.71-.38-.19-.23-.27-.49-.24-.77.02-.29.15-.52.38-.71.23-.19.49-.27.77-.24.4.04.86.06,1.38.07.52.01,1.07.01,1.63,0,.02-.34.04-.65.05-.93.01-.28.02-.53.02-.75,0-.3.1-.55.3-.77.2-.21.45-.32.75-.33.3-.01.56.08.77.29.22.2.32.46.32.76,0,.2,0,.44-.03.72-.02.28-.04.58-.06.9,1.2-.07,2.24-.21,3.11-.41.29-.06.55,0,.8.15s.39.39.44.67c.06.29.01.55-.14.79-.16.24-.38.39-.67.45-.52.1-1.1.18-1.75.25-.65.07-1.32.13-2.02.18-.06.53-.13,1.05-.22,1.56-.08.51-.17.97-.25,1.38.67-.38,1.36-.64,2.05-.77.7-.13,1.37-.15,2.02-.05.65.1,1.23.31,1.75.63.52.32.92.75,1.22,1.29.3.53.45,1.17.45,1.9,0,1.7-.61,3.02-1.82,3.94s-2.89,1.42-5.04,1.49Z"/><path class="cls-1" d="M227.19,122.47c-.3,0-.56-.1-.77-.31s-.32-.46-.33-.76c0-.3.1-.55.31-.77.2-.21.46-.32.76-.33,3.36-.06,5.04-1.02,5.04-2.88,0-.61-.21-1.09-.63-1.44-.42-.35-.98-.52-1.67-.52-.77,0-1.56.19-2.38.57s-1.57.95-2.24,1.7c-.16.18-.36.29-.6.33s-.47,0-.67-.1c-.2-.1-.35-.25-.45-.46-.1-.21-.13-.43-.09-.66.08-.5.18-1.05.28-1.64.1-.59.21-1.19.33-1.79s.24-1.17.36-1.68c.06-.3.22-.52.48-.67.26-.15.53-.19.82-.12.29.07.51.24.67.5.16.26.2.53.13.82-.08.34-.18.72-.3,1.16s-.23.9-.35,1.4c1.38-.94,2.74-1.4,4.09-1.4.89,0,1.66.17,2.32.5s1.17.8,1.54,1.4.55,1.3.55,2.11c0,1.5-.59,2.71-1.76,3.62-1.18.91-2.98,1.39-5.4,1.42ZM230.07,111.2c-.38-.19-.82-.4-1.31-.62-.49-.22-.97-.44-1.46-.65-.49-.21-.92-.39-1.29-.53-.26-.11-.44-.31-.54-.59-.1-.29-.08-.56.04-.83.13-.28.34-.46.61-.55.28-.09.55-.08.83.03.4.16.83.33,1.29.53.46.2.93.4,1.39.61.47.21.89.41,1.28.6.26.13.45.33.57.6.11.27.12.54,0,.82-.12.26-.32.46-.59.58-.28.12-.55.12-.83,0Z"/></g></svg>