<?xml version="1.0" encoding="UTF-8"?><svg id="_レイヤー_2" xmlns="http://www.w3.org/2000/svg" viewBox="0 0 336 132.36"><defs><style>.cls-1{fill:#00b900;}.cls-1,.cls-2{stroke-width:0px;}.cls-3{fill:none;stroke:#00b900;stroke-miterlimit:10;}.cls-2{fill:#fff;}</style></defs><g id="_レイヤー_1-2"><rect class="cls-1" x=".5" y=".5" width="335" height="131.36" rx="11.46" ry="11.46"/><path class="cls-2" d="M115.42,49.68c-.44,0-.82-.14-1.12-.43s-.45-.66-.45-1.12v-2.8h-1.97c-.44,0-.82-.15-1.12-.45-.3-.3-.45-.68-.45-1.12s.15-.8.45-1.11c.3-.31.68-.47,1.12-.47h1.97v-5.18c-.77,1.25-1.61,2.48-2.52,3.71-.92,1.23-1.79,2.26-2.63,3.09-.32.32-.71.5-1.16.55-.45.04-.85-.1-1.19-.44v4.14c0,.43-.15.79-.45,1.09-.3.3-.67.45-1.09.45s-.79-.15-1.09-.45c-.3-.3-.45-.67-.45-1.09v-12.17c-.18.27-.36.53-.55.79-.19.26-.38.51-.57.76-.25.34-.59.53-1.03.59-.44.05-.83-.06-1.19-.35-.3-.25-.48-.57-.53-.97-.05-.4.04-.75.27-1.05.69-.85,1.38-1.85,2.07-2.99s1.32-2.29,1.89-3.46c.58-1.16,1.04-2.23,1.4-3.19.18-.46.46-.77.84-.92.38-.15.79-.16,1.21-.01.39.14.67.39.84.73s.17.74.01,1.19c-.21.59-.45,1.19-.72,1.8-.27.61-.55,1.23-.85,1.85v11.1c.52-.52,1.07-1.13,1.65-1.84.59-.71,1.18-1.47,1.79-2.28.6-.81,1.17-1.6,1.69-2.37.52-.77.97-1.47,1.35-2.09h-4.27c-.39,0-.73-.14-1.03-.43-.29-.28-.44-.63-.44-1.04s.15-.76.44-1.04c.29-.28.64-.43,1.03-.43h5.28v-3.9c0-.46.15-.84.45-1.12.3-.28.68-.43,1.12-.43s.79.14,1.09.43c.3.29.45.66.45,1.12v3.9h5.74c.41,0,.76.14,1.05.43.29.28.44.63.44,1.04s-.15.76-.44,1.04c-.29.29-.64.43-1.05.43h-4.83c.37.62.83,1.31,1.37,2.05.54.75,1.12,1.5,1.72,2.27.6.77,1.21,1.49,1.83,2.17.61.69,1.17,1.29,1.67,1.8.3.3.46.68.48,1.12.02.44-.15.84-.51,1.17-.34.32-.74.48-1.21.49-.47,0-.87-.16-1.19-.49-.82-.85-1.68-1.89-2.59-3.09s-1.73-2.41-2.48-3.6v5.12h2c.43,0,.8.16,1.11.47.31.31.47.68.47,1.11s-.16.82-.47,1.12c-.31.3-.68.45-1.11.45h-2v2.8c0,.46-.15.84-.45,1.12-.3.28-.67.43-1.09.43Z"/><path class="cls-2" d="M128.77,46.24c-.25.02-.47-.06-.65-.24-.19-.18-.27-.39-.25-.64.02-.28.02-.64.01-1.07,0-.43-.01-.85-.01-1.28s0-.77-.03-1.04c-.02-.25.06-.46.23-.63s.37-.26.6-.28c.27-.04.49.03.67.19s.28.36.29.61c.02.27.03.62.04,1.05,0,.44.02.87.04,1.31.02.44.03.8.03,1.08,0,.27-.08.48-.25.65-.17.17-.4.26-.71.28ZM134.08,49.33c-.43,0-.77-.12-1.04-.35-.27-.23-.42-.52-.45-.85-.04-.37.04-.7.23-.99s.48-.44.87-.45c.71-.05,1.21-.15,1.49-.29.28-.14.47-.49.56-1.04.04-.16.06-.33.08-.51s.04-.36.05-.56c-.04.04-.11.07-.21.11-.18.05-.36.04-.55-.05-.19-.09-.3-.23-.33-.43-.05-.36-.14-.81-.27-1.36s-.23-1-.32-1.33c-.05-.18-.03-.35.07-.51s.24-.27.41-.32c.2-.05.37-.03.53.07.16.1.27.24.32.44.07.21.15.48.23.81s.16.65.23.97c.02-.3.03-.6.04-.89,0-.29.01-.56.01-.79,0-.43-.07-.72-.21-.89-.14-.17-.44-.25-.91-.25h-2.88c-1.16,0-1.97-.21-2.43-.63-.46-.42-.69-1.14-.69-2.17v-8.3c0-1.12.24-1.91.73-2.36.49-.45,1.32-.68,2.49-.68h5.63c.34,0,.6.12.8.36.2.24.29.51.29.81s-.1.57-.29.81c-.2.24-.46.36-.8.36h-2.27v1.57h1.47c.36,0,.64.11.85.33.21.22.32.49.32.81l-.03.08c.55-.37,1.13-.82,1.73-1.35.6-.52,1.19-1.07,1.76-1.64s1.07-1.09,1.49-1.57c.68-.76,1.35-1.15,2.03-1.15s1.4.35,2.19,1.04c.46.41.99.85,1.59,1.32.6.47,1.21.93,1.85,1.37.64.44,1.24.84,1.81,1.17.36.2.58.48.67.85.09.37.04.74-.16,1.09-.18.34-.47.57-.88.71s-.8.08-1.17-.15-.76-.49-1.15-.77c.2.23.29.52.29.85s-.11.63-.32.88c-.21.25-.52.37-.91.37h-2.05v1.55h1.33c.91,0,1.61.1,2.11.29.5.2.85.54,1.05,1.03.2.49.31,1.17.31,2.04s-.1,1.53-.31,2.01c-.2.49-.56.83-1.05,1.03-.5.2-1.2.29-2.11.29h-.8c.46.98,1.14,1.83,2.04,2.56.9.73,1.89,1.35,2.97,1.87.36.16.58.42.68.79.1.36.06.72-.12,1.05-.2.39-.5.64-.91.76-.41.12-.82.08-1.23-.12-.92-.48-1.85-1.1-2.77-1.85-.92-.76-1.7-1.65-2.32-2.68-.59,1.03-1.35,1.93-2.28,2.68-.93.76-1.95,1.41-3.05,1.96-.39.18-.79.21-1.19.09-.4-.12-.68-.34-.84-.68-.16-.37-.18-.74-.07-1.09.12-.36.34-.6.68-.75,1.21-.53,2.22-1.17,3.03-1.92.81-.75,1.38-1.64,1.72-2.67h-.85c-.89,0-1.59-.1-2.09-.29-.51-.2-.86-.54-1.07-1.03-.2-.49-.31-1.16-.31-2.01s.1-1.55.31-2.04c.2-.49.56-.83,1.07-1.03.51-.2,1.21-.29,2.09-.29h1.17v-1.55h-2.11c-.39,0-.7-.12-.92-.37-.22-.25-.33-.54-.33-.88,0-.11.02-.23.05-.37-.18.12-.34.25-.49.37-.15.12-.3.24-.44.35-.34.23-.7.32-1.08.27-.38-.05-.68-.23-.89-.53-.21-.27-.3-.58-.27-.93-.18.11-.39.16-.64.16h-1.47v1.55h1.47c.36,0,.64.11.85.33.21.22.32.49.32.81s-.11.6-.32.83c-.21.23-.5.35-.85.35h-1.47v1.76h.27c1.01,0,1.75.22,2.2.65.45.44.67,1.17.65,2.2-.02.92-.06,1.92-.13,2.99-.07,1.07-.17,2-.29,2.8-.16,1.1-.57,1.89-1.23,2.36-.66.47-1.62.72-2.88.73ZM131.33,45.57c-.23.04-.44-.01-.63-.15-.19-.13-.29-.32-.31-.55,0-.25-.02-.56-.05-.95s-.07-.76-.11-1.13c-.04-.37-.07-.68-.11-.91-.02-.21.04-.41.16-.59.12-.18.29-.28.51-.29.21-.04.41.01.59.15s.28.31.29.52c.04.23.08.53.12.91.04.37.09.75.13,1.12s.08.69.09.93c.05.53-.18.84-.69.93ZM131.41,29.65h1.71v-1.57h-.43c-.5,0-.84.08-1.01.25-.18.17-.27.48-.27.95v.37ZM131.41,33.51h1.71v-1.55h-1.71v1.55ZM132.74,37.6h.37v-1.76h-1.71v.67c0,.43.08.72.25.87.17.15.53.23,1.08.23ZM133.57,45.04c-.21.04-.4,0-.57-.09s-.27-.27-.31-.52c-.05-.36-.13-.82-.23-1.4-.1-.58-.18-1.04-.25-1.37-.04-.25,0-.45.12-.61.12-.16.26-.26.44-.29.21-.04.4,0,.57.09.17.1.28.27.33.52.05.23.11.52.17.87.06.35.12.69.19,1.03.06.34.11.62.15.85.04.21,0,.41-.12.6-.12.19-.28.3-.49.33ZM149.5,31.54c-.64-.48-1.28-.98-1.91-1.51-.63-.52-1.13-.98-1.51-1.37-.28-.28-.54-.42-.76-.41-.22,0-.47.16-.73.47-.34.39-.76.83-1.27,1.31-.51.48-1.02.95-1.53,1.41h7.15c.23,0,.42.04.56.11ZM143.47,39.81h.61v-2h-.61c-.6,0-.99.06-1.16.17-.17.12-.25.4-.25.84s.08.72.25.83c.17.11.56.16,1.16.16ZM146.88,39.81h.77c.6,0,.99-.05,1.16-.16.17-.11.25-.38.25-.83s-.08-.72-.25-.84c-.17-.12-.56-.17-1.16-.17h-.77v2Z"/><path class="cls-2" d="M157.95,39.28c-.43,0-.79-.14-1.08-.43-.29-.28-.44-.66-.44-1.12v-1.12c0-1.33.3-2.3.89-2.91.6-.6,1.7-.94,3.32-1.01l-.03-.08c-.07-.11-.17-.28-.31-.52-.13-.24-.27-.48-.4-.73-.13-.25-.24-.43-.31-.53-.18-.3-.22-.64-.13-1,.09-.36.3-.64.64-.81h-.91c-.44,0-.81-.13-1.09-.39-.28-.26-.43-.61-.43-1.05-.02-.43.13-.76.44-1,.31-.24.71-.35,1.19-.33,1.28.02,2.64,0,4.08-.07,1.44-.06,2.88-.15,4.32-.27,1.44-.12,2.82-.26,4.13-.44,1.32-.18,2.48-.37,3.49-.59.52-.11.94-.07,1.28.12.34.19.55.46.64.81.14.46.09.85-.16,1.17-.25.32-.55.52-.91.61-.23.04-.46.08-.69.12-.23.04-.47.08-.72.12l.03.03c.37.14.63.4.77.76.14.36.12.75-.05,1.16-.12.28-.33.71-.63,1.28-.29.57-.57,1.11-.84,1.63h.8c1.24,0,2.22.12,2.92.35.7.23,1.2.62,1.49,1.17.29.55.44,1.3.44,2.24v1.28c0,.46-.15.84-.45,1.12-.3.28-.67.43-1.09.43s-.79-.14-1.09-.43c-.3-.28-.45-.66-.45-1.12v-1.2c0-.52-.12-.87-.37-1.05-.25-.19-.74-.28-1.47-.28h-13.45c-.73,0-1.22.09-1.47.28-.25.19-.37.54-.37,1.05v1.2c0,.46-.15.84-.45,1.12-.3.28-.67.43-1.09.43ZM158.51,49.49c-.57.07-1.03,0-1.39-.24-.36-.23-.56-.59-.61-1.07-.05-.46.07-.85.37-1.16.3-.31.72-.49,1.25-.55,1.48-.14,2.85-.38,4.11-.71,1.26-.33,2.44-.74,3.52-1.24-.66-.68-1.25-1.42-1.77-2.23-.52-.81-.98-1.69-1.37-2.65h-1.09c-.36,0-.66-.13-.92-.4-.26-.27-.39-.59-.39-.96s.13-.67.39-.93c.26-.27.56-.4.92-.4h9.02c1.4,0,2.45.27,3.12.81.68.54,1,1.22.97,2.03-.03.81-.4,1.63-1.11,2.47-.36.43-.73.83-1.13,1.21-.4.38-.8.75-1.21,1.11,1.89.93,4.28,1.48,7.18,1.65.53.02.95.19,1.25.52.3.33.44.72.4,1.19-.11,1.03-.76,1.5-1.97,1.41-3.93-.21-7.19-1.14-9.76-2.77-1.3.73-2.76,1.34-4.38,1.83-1.62.49-3.41.85-5.39,1.08ZM163.1,32.69h3.39c-.02-.05-.06-.13-.13-.24-.05-.12-.14-.32-.27-.59-.12-.27-.25-.53-.37-.8-.12-.27-.21-.46-.27-.59-.12-.3-.15-.61-.08-.92.07-.31.24-.56.51-.73-.71.04-1.42.07-2.12.09-.7.03-1.4.06-2.09.09.14.07.28.2.43.4.07.11.18.3.32.57s.29.54.44.8c.15.26.24.42.28.49.28.52.28.99-.03,1.41ZM168.54,42.88c.78-.57,1.5-1.23,2.16-1.97.32-.36.43-.65.32-.89-.11-.24-.44-.36-1.01-.36h-4.08c.69,1.26,1.56,2.34,2.61,3.23ZM168.94,32.69h2.05c.18-.36.38-.8.61-1.35.23-.54.46-1.07.68-1.59.22-.52.38-.9.47-1.15.04-.11.08-.2.15-.28.06-.08.13-.16.2-.23-.84.12-1.72.23-2.65.32s-1.89.18-2.87.27c.23.11.41.29.53.56.05.11.15.31.28.6s.27.58.4.87c.13.28.22.47.25.56.23.55.2,1.02-.11,1.41Z"/><path class="cls-2" d="M189.07,49.55c-.44,0-.82-.14-1.13-.43-.31-.28-.47-.67-.47-1.15v-12.32c-.59.75-1.17,1.44-1.76,2.08-.28.32-.65.49-1.08.52-.44.03-.81-.1-1.13-.39-.3-.28-.47-.62-.49-1.01-.03-.39.09-.73.36-1.01.84-.91,1.66-1.94,2.48-3.09.82-1.16,1.56-2.34,2.24-3.55.68-1.21,1.21-2.34,1.6-3.39.18-.41.45-.69.83-.84.37-.15.76-.16,1.17-.01.39.12.68.37.85.75.18.37.18.77,0,1.2-.23.62-.51,1.27-.83,1.93-.32.67-.68,1.34-1.07,2.01v17.13c0,.48-.16.86-.47,1.15-.31.28-.68.43-1.11.43ZM199.63,49.44c-.53,0-.96-.16-1.28-.47-.32-.31-.5-.72-.53-1.21-.02-.44.12-.83.4-1.16.28-.33.68-.51,1.2-.55.78-.05,1.28-.17,1.48-.36.2-.19.31-.57.31-1.16v-10.48h-8.3c-.44,0-.8-.15-1.08-.44-.28-.29-.41-.64-.41-1.05s.14-.76.41-1.05c.28-.29.64-.44,1.08-.44h8.3v-4.51c0-.5.16-.89.47-1.17.31-.28.69-.43,1.13-.43s.82.14,1.13.43c.31.28.47.68.47,1.17v4.51h2.37c.46,0,.83.15,1.09.44.27.29.4.65.4,1.05s-.13.76-.4,1.05c-.27.29-.63.44-1.09.44h-2.37v11.02c0,1.1-.15,1.97-.44,2.61-.29.64-.79,1.09-1.48,1.36-.69.27-1.65.4-2.85.4ZM198.48,42.1c-.43.28-.86.38-1.29.29-.44-.09-.78-.33-1.03-.72-.18-.3-.42-.67-.73-1.09s-.63-.85-.95-1.28c-.32-.43-.6-.77-.83-1.04-.25-.32-.34-.69-.27-1.11.07-.42.28-.75.61-1,.36-.25.74-.37,1.16-.36.42,0,.78.19,1.08.55.23.27.52.62.85,1.05.34.44.67.87,1,1.31.33.44.58.8.76,1.08.28.41.38.84.29,1.28-.09.44-.31.79-.67,1.04Z"/><path class="cls-2" d="M212.98,46.77c-.39.2-.8.22-1.24.07-.44-.15-.75-.43-.95-.84s-.22-.83-.07-1.25c.15-.43.42-.74.81-.93,2.54-1.23,4.81-2.71,6.79-4.44,1.98-1.73,3.6-3.61,4.84-5.64.78-1.28.36-1.92-1.28-1.92h-7.28c-.44,0-.83-.16-1.15-.49-.32-.33-.48-.72-.48-1.16s.16-.85.48-1.17c.32-.32.7-.48,1.15-.48h7.39c1.6,0,2.83.29,3.68.87.85.58,1.32,1.37,1.4,2.36.08,1-.25,2.14-1,3.44-.39.71-.86,1.42-1.41,2.13.82.68,1.66,1.42,2.52,2.23.86.81,1.67,1.59,2.43,2.35s1.39,1.4,1.91,1.93c.3.32.45.71.45,1.17s-.17.85-.51,1.17c-.32.32-.71.48-1.17.47-.46,0-.85-.17-1.17-.49-.48-.5-1.08-1.12-1.81-1.88-.73-.76-1.5-1.54-2.32-2.35-.82-.81-1.61-1.54-2.37-2.2-1.35,1.41-2.86,2.73-4.52,3.96-1.66,1.24-3.37,2.27-5.11,3.11Z"/><path class="cls-2" d="M239.71,48.45c-.43.18-.85.19-1.27.03s-.72-.45-.92-.88c-.18-.41-.18-.83-.01-1.25s.46-.73.87-.91c3.66-1.58,6.68-3.59,9.04-6.03-.39-.39-.77-.75-1.12-1.07-.36-.32-.66-.58-.91-.77-.34-.3-.54-.68-.6-1.12-.06-.44.05-.84.33-1.17.3-.36.68-.56,1.13-.61.45-.05.85.07,1.19.37.3.23.63.5.97.81.35.31.72.65,1.11,1,.32-.46.62-.93.91-1.41.28-.48.55-.97.8-1.47.28-.59.34-1.03.17-1.32-.17-.29-.6-.44-1.29-.44h-3.63c-.89,1.19-1.89,2.33-2.99,3.43-1.1,1.09-2.15,2.01-3.15,2.73-.37.27-.79.36-1.24.28s-.8-.31-1.05-.68c-.27-.37-.36-.78-.28-1.23.08-.44.31-.8.68-1.07,1.03-.75,2.02-1.59,2.97-2.53.95-.94,1.81-1.93,2.57-2.97.76-1.04,1.38-2.05,1.84-3.03.2-.41.5-.7.92-.87s.83-.16,1.24.01c.41.18.7.48.87.92.17.44.16.86-.04,1.27-.04.09-.08.18-.12.28-.04.1-.09.19-.15.28h2.05c1.37,0,2.42.26,3.16.77.74.52,1.15,1.23,1.24,2.15.09.92-.16,1.96-.75,3.13-.66,1.39-1.48,2.71-2.45,3.98.41.39.78.76,1.12,1.12s.62.68.85.96c.3.36.43.77.37,1.23-.05.46-.27.84-.64,1.15-.36.28-.76.4-1.21.33-.45-.06-.83-.26-1.13-.6-.18-.21-.4-.46-.67-.75-.27-.28-.55-.58-.85-.88-2.77,2.88-6.09,5.16-9.95,6.83Z"/><path class="cls-2" d="M262.18,38.93c-.44,0-.83-.16-1.16-.49s-.49-.72-.49-1.16.16-.85.49-1.17c.33-.32.72-.48,1.16-.48h16.62c.46,0,.85.16,1.17.48s.48.71.48,1.17-.16.83-.48,1.16c-.32.33-.71.49-1.17.49h-16.62Z"/><path class="cls-2" d="M291.15,48.45c-.44,0-.83-.16-1.15-.48-.32-.32-.48-.7-.48-1.15v-18.43c0-.46.16-.85.48-1.16.32-.31.7-.47,1.15-.47s.85.16,1.17.47c.32.31.48.7.48,1.16v6.43c.23-.36.55-.59.96-.71.41-.12.81-.08,1.2.12,1.05.55,2.12,1.18,3.21,1.89,1.09.71,2.04,1.41,2.84,2.08.36.28.56.66.6,1.13.04.47-.08.88-.39,1.24-.29.34-.66.53-1.12.57-.46.04-.87-.08-1.23-.36-.5-.39-1.07-.81-1.72-1.25-.65-.44-1.3-.88-1.95-1.29s-1.24-.78-1.77-1.08c-.28-.16-.5-.36-.64-.59v10.24c0,.44-.16.83-.48,1.15-.32.32-.71.48-1.17.48Z"/><path class="cls-2" d="M308.56,47.68c-.55,0-1.02-.2-1.41-.59-.39-.39-.59-.86-.59-1.41s.2-1.05.59-1.44.86-.59,1.41-.59,1.05.2,1.45.59c.4.39.6.87.6,1.44s-.2,1.02-.6,1.41c-.4.39-.88.59-1.45.59ZM308.59,41.94c-.76,0-1.17-.52-1.23-1.57l-.35-10.16c-.04-1.07.48-1.6,1.55-1.6s1.63.53,1.57,1.6l-.35,10.16c-.04,1.05-.44,1.57-1.2,1.57Z"/><path class="cls-2" d="M317.01,47.68c-.55,0-1.02-.2-1.41-.59-.39-.39-.59-.86-.59-1.41s.2-1.05.59-1.44.86-.59,1.41-.59,1.05.2,1.45.59c.4.39.6.87.6,1.44s-.2,1.02-.6,1.41c-.4.39-.88.59-1.45.59ZM317.04,41.94c-.76,0-1.17-.52-1.23-1.57l-.35-10.16c-.04-1.07.48-1.6,1.55-1.6s1.63.53,1.57,1.6l-.35,10.16c-.04,1.05-.44,1.57-1.2,1.57Z"/><path class="cls-2" d="M111.1,78.78c-.29,0-.54-.09-.74-.28-.2-.19-.3-.44-.3-.74v-1.85h-1.31c-.29,0-.54-.1-.74-.3-.2-.2-.3-.45-.3-.74s.1-.53.3-.73c.2-.21.45-.31.74-.31h1.31v-3.42c-.51.82-1.06,1.64-1.67,2.45-.61.81-1.19,1.49-1.74,2.05-.21.21-.47.33-.77.36-.3.03-.56-.07-.79-.29v2.73c0,.28-.1.52-.3.72-.2.2-.44.3-.72.3s-.52-.1-.72-.3c-.2-.2-.3-.44-.3-.72v-8.04c-.12.18-.24.35-.36.52-.12.17-.25.34-.38.5-.17.22-.39.35-.68.39-.29.04-.55-.04-.79-.23-.2-.16-.32-.38-.35-.64-.04-.26.02-.5.18-.7.46-.56.91-1.22,1.37-1.98.45-.75.87-1.51,1.25-2.28.38-.77.69-1.47.93-2.11.12-.31.3-.51.56-.61.25-.1.52-.1.8,0,.26.09.44.26.56.49s.11.49,0,.79c-.14.39-.3.78-.48,1.19s-.36.81-.56,1.23v7.34c.34-.34.71-.75,1.09-1.22s.78-.97,1.18-1.51.77-1.06,1.12-1.57c.35-.51.64-.97.89-1.38h-2.82c-.26,0-.49-.09-.68-.28-.19-.19-.29-.42-.29-.69s.1-.5.29-.69c.19-.19.42-.28.68-.28h3.49v-2.58c0-.31.1-.55.3-.74.2-.19.45-.28.74-.28s.52.09.72.28c.2.19.3.44.3.74v2.58h3.79c.27,0,.5.09.7.28.19.19.29.42.29.69s-.1.5-.29.69c-.19.19-.43.28-.7.28h-3.19c.25.41.55.86.91,1.36.36.49.74.99,1.14,1.5.4.51.8.98,1.21,1.44.41.45.77.85,1.1,1.19.2.2.31.45.32.74.01.29-.1.55-.33.78-.22.21-.49.32-.8.33-.31,0-.57-.1-.79-.33-.54-.56-1.11-1.25-1.71-2.05-.6-.8-1.15-1.59-1.64-2.38v3.39h1.32c.28,0,.53.1.73.31.21.21.31.45.31.73s-.1.54-.31.74c-.21.2-.45.3-.73.3h-1.32v1.85c0,.31-.1.55-.3.74-.2.19-.44.28-.72.28Z"/><path class="cls-2" d="M119.97,76.5c-.16.01-.31-.04-.43-.16s-.18-.26-.17-.42c.01-.19.01-.42,0-.71,0-.28,0-.56,0-.85s0-.51-.02-.69c-.01-.16.04-.3.15-.41.11-.11.24-.17.4-.19.18-.02.32.02.44.12s.18.24.19.41c.01.18.02.41.03.7,0,.29.01.58.03.86.01.29.02.53.02.71,0,.18-.06.32-.17.43-.11.11-.27.17-.47.19ZM123.48,78.55c-.28,0-.51-.08-.69-.23s-.28-.34-.3-.56c-.02-.25.03-.46.15-.65s.31-.29.57-.3c.47-.04.8-.1.99-.19s.31-.32.37-.69c.02-.11.04-.22.05-.34.01-.12.02-.24.04-.37-.02.02-.07.05-.14.07-.12.04-.24.02-.36-.04-.12-.06-.2-.15-.22-.28-.04-.24-.09-.54-.18-.9-.08-.36-.15-.66-.21-.88-.04-.12-.02-.23.04-.34.06-.11.16-.18.27-.21.13-.04.25-.02.35.04.11.06.18.16.21.29.05.14.1.32.15.54.05.22.1.43.15.64.01-.2.02-.4.03-.59,0-.19,0-.37,0-.52,0-.28-.05-.48-.14-.59s-.29-.17-.6-.17h-1.91c-.76,0-1.3-.14-1.61-.41-.31-.28-.46-.76-.46-1.44v-5.49c0-.74.16-1.26.49-1.56.32-.3.87-.45,1.65-.45h3.72c.22,0,.4.08.53.24s.19.34.19.54-.06.38-.19.54-.31.24-.53.24h-1.5v1.04h.97c.23,0,.42.07.56.22s.21.33.21.54l-.02.05c.36-.25.75-.54,1.15-.89.4-.35.79-.71,1.16-1.08s.71-.72.99-1.04c.45-.51.89-.76,1.34-.76s.93.23,1.45.69c.31.27.66.56,1.05.87.39.31.8.61,1.23.91s.82.55,1.2.78c.23.13.38.32.44.56.06.25.02.49-.11.72-.12.22-.31.38-.58.47-.27.09-.53.06-.78-.1-.25-.15-.5-.32-.76-.51.13.15.19.34.19.56s-.07.42-.21.58c-.14.17-.34.25-.6.25h-1.36v1.02h.88c.6,0,1.06.06,1.39.19.33.13.56.36.7.68.14.32.2.77.2,1.35s-.07,1.01-.2,1.33c-.14.32-.37.55-.7.68-.33.13-.79.19-1.39.19h-.53c.31.65.76,1.21,1.35,1.69.59.48,1.25.89,1.97,1.23.23.11.39.28.45.52.06.24.04.47-.08.7-.13.26-.33.43-.6.5-.27.08-.54.05-.81-.08-.61-.32-1.22-.73-1.83-1.23-.61-.5-1.12-1.09-1.53-1.77-.39.68-.89,1.27-1.51,1.77-.62.5-1.29.93-2.02,1.3-.26.12-.52.14-.78.06s-.45-.23-.56-.45c-.11-.25-.12-.49-.04-.72.08-.24.23-.4.45-.49.8-.35,1.47-.78,2-1.27.54-.49.91-1.08,1.14-1.76h-.56c-.59,0-1.05-.06-1.38-.19-.33-.13-.57-.36-.71-.68-.14-.32-.2-.77-.2-1.33s.07-1.03.2-1.35c.14-.32.37-.55.71-.68.34-.13.8-.19,1.38-.19h.78v-1.02h-1.39c-.26,0-.46-.08-.61-.25-.15-.16-.22-.36-.22-.58,0-.07.01-.15.04-.25-.12.08-.23.17-.33.25-.1.08-.2.16-.29.23-.22.15-.46.21-.71.18-.25-.04-.45-.15-.59-.35-.14-.18-.2-.38-.18-.62-.12.07-.26.11-.42.11h-.97v1.02h.97c.23,0,.42.07.56.22.14.15.21.33.21.54s-.07.39-.21.55c-.14.15-.33.23-.56.23h-.97v1.16h.18c.67,0,1.16.14,1.46.43.3.29.44.77.43,1.46-.01.61-.04,1.27-.09,1.98-.05.71-.11,1.32-.19,1.85-.11.73-.38,1.25-.81,1.56-.44.31-1.07.47-1.91.49ZM121.66,76.06c-.15.02-.29,0-.41-.1s-.19-.21-.2-.36c0-.16-.01-.37-.04-.63-.02-.25-.05-.5-.07-.75-.02-.25-.05-.45-.07-.6-.01-.14.02-.27.11-.39.08-.12.19-.18.33-.19.14-.02.27,0,.39.1.12.09.18.2.19.34.02.15.05.35.08.6.03.25.06.49.09.74.03.25.05.45.06.62.04.35-.12.56-.46.62ZM121.71,65.53h1.13v-1.04h-.28c-.33,0-.55.06-.67.17s-.18.32-.18.63v.25ZM121.71,68.09h1.13v-1.02h-1.13v1.02ZM122.6,70.78h.25v-1.16h-1.13v.44c0,.28.06.47.17.57.11.1.35.15.71.15ZM123.14,75.71c-.14.02-.27,0-.38-.06-.11-.06-.18-.18-.2-.34-.04-.23-.09-.54-.15-.93-.06-.38-.12-.68-.17-.91-.02-.16,0-.3.08-.41.08-.11.17-.17.29-.19.14-.02.27,0,.38.06.11.06.19.18.22.34.04.15.07.34.11.57.04.23.08.46.12.68.04.22.07.41.1.56.02.14,0,.27-.08.4-.08.12-.19.2-.33.22ZM133.68,66.78c-.42-.32-.84-.65-1.26-1-.42-.35-.75-.65-1-.91-.19-.19-.36-.28-.5-.27-.15,0-.31.11-.49.31-.22.26-.5.55-.84.86-.33.32-.67.63-1.01.94h4.73c.15,0,.28.02.37.07ZM129.69,72.25h.41v-1.32h-.41c-.4,0-.66.04-.77.11-.11.08-.17.26-.17.56s.06.48.17.55c.11.07.37.11.77.11ZM131.95,72.25h.51c.4,0,.66-.04.77-.11.11-.07.17-.25.17-.55s-.06-.48-.17-.56c-.11-.08-.37-.11-.77-.11h-.51v1.32Z"/><path class="cls-2" d="M138.29,78.07c-.19-.18-.29-.39-.31-.65-.02-.26.07-.47.26-.64s.42-.39.71-.67.56-.57.84-.87.49-.56.64-.77c.16-.21.37-.33.63-.37.25-.04.49.03.71.19.21.16.34.37.39.61.05.24-.01.47-.18.68-.31.44-.67.88-1.08,1.33s-.8.83-1.14,1.14c-.2.19-.44.29-.72.3s-.53-.08-.74-.28ZM138.87,73.84c-.26,0-.46-.09-.62-.26s-.23-.37-.23-.59c0-.23.08-.43.23-.6.15-.16.36-.25.62-.25h.94v-6.02h-.81c-.26,0-.46-.09-.62-.26s-.23-.37-.23-.59c0-.23.08-.43.23-.6.15-.16.36-.25.62-.25h.81v-1.01c0-.31.08-.55.26-.72s.41-.26.71-.26.54.09.71.26c.17.18.26.42.26.72v1.01h2.05v-1.01c0-.31.09-.55.26-.72.18-.18.42-.26.72-.26s.54.09.71.26c.17.18.26.42.26.72v1.01h.69c.27,0,.48.08.63.25.15.17.22.36.22.6s-.07.42-.22.59-.36.26-.63.26h-.69v6.02h.85c.27,0,.48.08.63.25.15.17.22.36.22.6s-.07.42-.22.59-.36.26-.63.26h-7.73ZM141.75,67.17h2.05v-1.04h-2.05v1.04ZM141.75,69.62h2.05v-.97h-2.05v.97ZM141.75,72.14h2.05v-1.02h-2.05v1.02ZM150.98,78.72c-.29,0-.54-.09-.74-.28-.2-.19-.31-.44-.32-.74-.01-.27.07-.5.24-.69.17-.19.4-.29.7-.32.4-.02.67-.08.81-.18.14-.09.21-.31.21-.64v-3.37h-2.21c-.09,1.33-.33,2.47-.71,3.42-.38.95-1.01,1.78-1.9,2.47-.22.19-.48.28-.77.27-.29,0-.53-.12-.73-.34-.14-.18-.21-.37-.22-.58,0-.21.05-.41.17-.58-.15.02-.31.01-.47-.04-.16-.05-.29-.15-.4-.3-.08-.12-.21-.27-.37-.45-.17-.18-.33-.37-.49-.56-.16-.19-.3-.33-.41-.44-.18-.19-.25-.4-.21-.64.04-.23.13-.42.28-.56.2-.18.43-.26.68-.26s.48.1.68.3c.09.09.23.23.4.41.17.18.34.35.52.53.18.18.31.32.39.42.21.25.29.51.23.79.59-.66.98-1.44,1.19-2.35.21-.91.31-2.06.31-3.43v-5.01c0-.68.08-1.21.26-1.59.17-.38.47-.64.91-.79.44-.15,1.04-.23,1.82-.23s1.39.08,1.82.23c.42.15.72.42.89.79.17.38.26.91.26,1.59v10.73c0,.84-.22,1.44-.67,1.83-.45.38-1.16.58-2.13.59ZM149.72,66.96h2.15v-1.22c0-.4-.07-.66-.2-.78-.14-.12-.43-.18-.87-.18s-.72.06-.86.18c-.14.12-.21.38-.21.78v1.22ZM149.72,70.82h2.15v-2.15h-2.15v2.15Z"/><path class="cls-2" d="M158.06,78.74c-.27,0-.5-.09-.7-.28-.19-.19-.29-.43-.29-.72v-12.35c0-.96.22-1.64.66-2.03.44-.39,1.17-.58,2.2-.58h1.16c1.03,0,1.77.19,2.21.58.44.39.66,1.06.66,2.03v.92c0,.65-.1,1.15-.29,1.51-.19.36-.5.61-.92.75-.42.14-.97.21-1.67.21h-2.03v8.96c0,.29-.1.54-.29.72-.19.19-.43.28-.71.28ZM159.07,67.2h1.83c.41,0,.7-.05.86-.15.16-.1.25-.31.27-.64h-2.96v.79ZM159.08,65.1h2.93c-.02-.32-.11-.53-.26-.63s-.44-.15-.85-.15h-.71c-.4,0-.68.05-.84.15s-.25.31-.27.63ZM164.15,76.82c-1.04,0-1.78-.21-2.23-.64-.45-.43-.68-1.13-.68-2.09v-1.46c0-.98.23-1.67.68-2.09.45-.42,1.2-.63,2.23-.63h.94c1.03,0,1.78.21,2.22.63.45.42.67,1.11.67,2.09v1.46c0,.96-.22,1.66-.67,2.09-.45.43-1.19.64-2.22.64h-.94ZM163.12,72.6h2.98c-.01-.44-.1-.73-.27-.87-.17-.15-.5-.22-.98-.22h-.49c-.48,0-.81.07-.98.22-.17.15-.26.44-.26.87ZM164.36,75.21h.49c.48,0,.81-.08.98-.23s.26-.45.27-.88h-2.98c0,.44.09.73.26.88s.5.23.98.23ZM169.39,78.63c-.34,0-.61-.09-.8-.27-.19-.18-.3-.43-.33-.73-.04-.28.04-.53.21-.74.18-.21.41-.34.71-.37.45-.06.72-.15.82-.26.1-.12.15-.34.15-.67v-6.81h-2.1c-.68,0-1.23-.07-1.66-.21s-.73-.39-.93-.75c-.19-.36-.29-.86-.29-1.51v-.9c0-.98.22-1.66.67-2.05.45-.39,1.18-.58,2.21-.58h1.23c1.02,0,1.76.19,2.2.58.44.39.66,1.07.66,2.05v10.69c0,.89-.21,1.54-.64,1.94s-1.13.6-2.11.6ZM167.13,65.1h3.02c-.04-.32-.13-.53-.28-.63s-.44-.15-.85-.15h-.76c-.4,0-.68.05-.85.15s-.26.31-.28.63ZM168.26,67.2h1.89v-.79h-3.02c.02.33.11.54.27.64.16.1.44.15.86.15Z"/><path class="cls-2" d="M179.55,68.31c-.41,0-.76-.15-1.05-.44-.29-.29-.43-.65-.43-1.06s.14-.76.43-1.05.64-.43,1.05-.43.76.14,1.06.43c.29.29.44.64.44,1.05s-.15.76-.44,1.06-.65.44-1.06.44ZM179.55,75.69c-.41,0-.76-.15-1.05-.44s-.43-.65-.43-1.06.14-.76.43-1.05c.29-.29.64-.43,1.05-.43s.76.14,1.06.43c.29.29.44.64.44,1.05s-.15.76-.44,1.06c-.29.29-.65.44-1.06.44Z"/><path class="cls-2" d="M190.29,77.38c-.73,0-1.37-.16-1.92-.48-.55-.32-.99-.76-1.3-1.34s-.47-1.24-.47-1.99c0-.62.16-1.19.48-1.7.32-.51.72-.9,1.19-1.16-.4-.27-.73-.62-.99-1.05-.26-.43-.39-.93-.39-1.51,0-.69.14-1.3.43-1.83.29-.52.69-.93,1.2-1.23.51-.29,1.1-.44,1.76-.44s1.26.15,1.77.44c.51.29.91.7,1.2,1.23.29.52.43,1.13.43,1.83,0,.58-.13,1.08-.4,1.51-.26.43-.58.78-.96,1.05.47.26.86.64,1.18,1.16.32.51.48,1.08.48,1.7,0,.76-.16,1.43-.48,2-.32.57-.75,1.01-1.31,1.33s-1.19.48-1.92.48ZM190.29,75.58c.59,0,1.04-.17,1.35-.5.31-.34.47-.84.47-1.53,0-.64-.16-1.14-.47-1.51-.31-.37-.76-.56-1.35-.56s-1.02.19-1.33.56c-.31.37-.47.87-.47,1.51,0,1.35.6,2.03,1.8,2.03ZM190.29,69.99c.49,0,.87-.16,1.12-.48.25-.32.38-.76.38-1.34s-.14-1.01-.42-1.29-.64-.42-1.08-.42-.79.14-1.08.42-.42.71-.42,1.29.13,1.02.38,1.34.63.48,1.12.48Z"/><path class="cls-2" d="M197.23,77.13c-.32.64-.66.85-1.04.65-.36-.2-.39-.61-.09-1.23l5.93-11.66c.15-.31.32-.51.5-.62.18-.11.36-.11.54-.02.38.2.41.61.11,1.22l-5.95,11.66Z"/><path class="cls-2" d="M206.14,77.21c-.69,0-1.04-.19-1.04-.58,0-.85.22-1.67.66-2.47.44-.8,1.18-1.69,2.21-2.68.36-.35.71-.71,1.04-1.07.33-.36.6-.71.81-1.06.21-.35.32-.68.33-1,.01-.61-.13-1.06-.41-1.36s-.7-.44-1.23-.44c-.72,0-1.18.36-1.38,1.09-.09.32-.21.56-.36.73-.15.17-.37.26-.68.26s-.53-.1-.71-.3c-.18-.2-.22-.47-.14-.81.19-.87.57-1.55,1.15-2.04.58-.49,1.28-.73,2.12-.73.68,0,1.29.14,1.83.42.53.28.96.69,1.26,1.23.31.54.45,1.21.42,1.99-.01.55-.14,1.06-.39,1.53-.25.47-.57.93-.98,1.37s-.87.91-1.38,1.4c-.54.53-1.02,1.04-1.44,1.52-.42.48-.66.9-.73,1.25h3.67c.69,0,1.04.29,1.04.86s-.35.86-1.04.86h-4.64Z"/><path class="cls-2" d="M217.14,77.38c-1.34,0-2.35-.53-3.02-1.6-.19-.31-.24-.58-.14-.81.09-.24.28-.39.55-.48.29-.09.54-.09.72,0,.19.09.39.26.62.49.13.18.3.32.5.43s.45.17.73.17c.6,0,1.08-.15,1.43-.44.35-.29.53-.79.53-1.48,0-.62-.18-1.12-.53-1.5-.35-.38-.86-.56-1.52-.56-.59,0-.88-.29-.88-.86s.29-.86.88-.86,1.02-.17,1.31-.52c.28-.35.42-.77.42-1.28,0-.59-.17-1-.5-1.24-.34-.24-.71-.36-1.14-.36-.24,0-.44.06-.63.18-.18.12-.34.26-.47.42-.22.24-.43.4-.63.49s-.43.08-.71-.04c-.27-.11-.45-.28-.53-.52-.08-.24-.02-.5.19-.79.34-.51.76-.89,1.24-1.16.49-.26,1.01-.4,1.56-.4.72,0,1.34.14,1.88.41s.95.66,1.25,1.16c.3.49.45,1.08.45,1.75,0,.61-.16,1.16-.49,1.65-.32.49-.73.84-1.23,1.07.59.22,1.07.61,1.44,1.15.37.54.56,1.17.56,1.89,0,1.12-.34,2.01-1.01,2.66-.68.66-1.63.99-2.85.99Z"/><path class="cls-2" d="M226.43,79.15c-.16.1-.33.13-.49.09-.16-.04-.3-.14-.42-.3-.58-.87-1.03-1.77-1.37-2.73-.33-.95-.5-1.96-.5-3.03s.17-2.09.5-3.04c.33-.95.79-1.86,1.37-2.73.11-.16.25-.26.42-.3.16-.04.33,0,.49.1.15.08.25.21.28.39.03.18,0,.33-.09.47-.35.54-.65,1.07-.91,1.6-.25.53-.45,1.08-.58,1.65-.13.57-.2,1.19-.2,1.86s.07,1.28.2,1.85c.13.57.32,1.12.58,1.65.25.53.56,1.06.91,1.6.09.15.12.31.09.48-.03.17-.12.3-.28.39Z"/><path class="cls-2" d="M228.65,77.65c-.2,0-.37-.07-.51-.21-.14-.14-.21-.31-.21-.51s.07-.37.21-.51.31-.21.51-.21h4.2v-4.16h-3.41c-.2,0-.38-.07-.51-.21-.14-.14-.21-.31-.21-.51s.07-.38.21-.51c.14-.14.31-.21.51-.21h3.41v-2.73c0-.24.08-.43.23-.58s.34-.22.55-.22.4.07.55.22.23.34.23.58v2.73h3.47c.2,0,.38.07.51.21.14.14.21.31.21.51s-.07.37-.21.51c-.14.14-.31.21-.51.21h-3.47v4.16h4.26c.2,0,.38.07.51.21.14.14.21.31.21.51s-.07.38-.21.51-.31.21-.51.21h-10.03Z"/><path class="cls-2" d="M240.85,79.15c-.16-.09-.25-.22-.27-.39s0-.33.1-.47c.36-.55.66-1.08.91-1.61s.43-1.08.56-1.65c.13-.57.2-1.19.2-1.85s-.07-1.29-.2-1.86c-.13-.57-.32-1.12-.56-1.65s-.55-1.07-.91-1.6c-.09-.14-.12-.3-.1-.47s.11-.3.27-.39c.16-.11.33-.14.5-.1.17.04.31.14.42.3.58.87,1.03,1.77,1.36,2.73s.49,1.97.49,3.04-.16,2.08-.49,3.03c-.33.95-.78,1.86-1.36,2.73-.11.16-.26.26-.42.3-.17.04-.33,0-.5-.09Z"/><path class="cls-2" d="M261.63,69.76c-1.11,1.99-2.73,3.05-4.59,3.05-1.59,0-2.7-.65-3.93-1.85-.97-.94-1.76-1.5-3.07-1.5-1.43,0-2.68.97-3.42,2.38l-1.15-.6c1.11-1.99,2.73-3.05,4.59-3.05,1.59,0,2.7.65,3.93,1.85.97.94,1.78,1.5,3.07,1.5,1.43,0,2.68-.97,3.42-2.38l1.15.6Z"/><path class="cls-2" d="M267.38,77.38c-.73,0-1.37-.16-1.92-.48-.55-.32-.99-.76-1.3-1.34s-.47-1.24-.47-1.99c0-.62.16-1.19.48-1.7.32-.51.72-.9,1.19-1.16-.4-.27-.73-.62-.99-1.05-.26-.43-.39-.93-.39-1.51,0-.69.14-1.3.43-1.83.29-.52.69-.93,1.2-1.23.51-.29,1.1-.44,1.76-.44s1.26.15,1.77.44c.51.29.91.7,1.2,1.23.29.52.43,1.13.43,1.83,0,.58-.13,1.08-.4,1.51-.26.43-.58.78-.96,1.05.47.26.86.64,1.18,1.16.32.51.48,1.08.48,1.7,0,.76-.16,1.43-.48,2-.32.57-.75,1.01-1.31,1.33s-1.19.48-1.92.48ZM267.38,75.58c.59,0,1.04-.17,1.35-.5.31-.34.47-.84.47-1.53,0-.64-.16-1.14-.47-1.51-.31-.37-.76-.56-1.35-.56s-1.02.19-1.33.56c-.31.37-.47.87-.47,1.51,0,1.35.6,2.03,1.8,2.03ZM267.38,69.99c.49,0,.87-.16,1.12-.48.25-.32.38-.76.38-1.34s-.14-1.01-.42-1.29-.64-.42-1.08-.42-.79.14-1.08.42-.42.71-.42,1.29.13,1.02.38,1.34.63.48,1.12.48Z"/><path class="cls-2" d="M274.32,77.13c-.32.64-.66.85-1.04.65-.36-.2-.39-.61-.09-1.23l5.93-11.66c.15-.31.32-.51.5-.62.18-.11.36-.11.54-.02.38.2.41.61.11,1.22l-5.95,11.66Z"/><path class="cls-2" d="M283.23,77.21c-.69,0-1.04-.19-1.04-.58,0-.85.22-1.67.66-2.47.44-.8,1.18-1.69,2.21-2.68.36-.35.71-.71,1.04-1.07.33-.36.6-.71.81-1.06.21-.35.32-.68.33-1,.01-.61-.13-1.06-.41-1.36s-.7-.44-1.23-.44c-.72,0-1.18.36-1.38,1.09-.09.32-.21.56-.36.73-.15.17-.37.26-.68.26s-.53-.1-.71-.3c-.18-.2-.22-.47-.14-.81.19-.87.57-1.55,1.15-2.04.58-.49,1.28-.73,2.12-.73.68,0,1.29.14,1.83.42.53.28.96.69,1.26,1.23.31.54.45,1.21.42,1.99-.01.55-.14,1.06-.39,1.53-.25.47-.57.93-.98,1.37s-.87.91-1.38,1.4c-.54.53-1.02,1.04-1.44,1.52-.42.48-.66.9-.73,1.25h3.67c.69,0,1.04.29,1.04.86s-.35.86-1.04.86h-4.64Z"/><path class="cls-2" d="M293.56,77.21c-.29,0-.51-.1-.66-.3-.15-.2-.19-.48-.11-.83.14-.67.32-1.41.53-2.23.21-.82.45-1.66.71-2.52.26-.86.52-1.7.79-2.51s.54-1.55.79-2.21h-3.83c-.71,0-1.06-.29-1.06-.88s.35-.86,1.06-.86h4.87c.33,0,.58.06.77.18.18.12.27.28.27.49,0,.22-.02.43-.06.63-.04.19-.11.41-.2.64-.25.62-.5,1.34-.76,2.14-.26.81-.51,1.65-.76,2.52-.25.88-.48,1.73-.69,2.56-.21.83-.39,1.58-.53,2.25-.12.62-.49.94-1.13.94Z"/><path class="cls-2" d="M301.94,79.15c-.16.1-.33.13-.49.09-.16-.04-.3-.14-.42-.3-.58-.87-1.03-1.77-1.37-2.73-.33-.95-.5-1.96-.5-3.03s.17-2.09.5-3.04c.33-.95.79-1.86,1.37-2.73.11-.16.25-.26.42-.3.16-.04.33,0,.49.1.15.08.25.21.28.39.03.18,0,.33-.09.47-.35.54-.65,1.07-.91,1.6-.25.53-.45,1.08-.58,1.65-.13.57-.2,1.19-.2,1.86s.07,1.28.2,1.85c.13.57.32,1.12.58,1.65.25.53.56,1.06.91,1.6.09.15.12.31.09.48-.03.17-.12.3-.28.39Z"/><path class="cls-2" d="M303.51,76.78c-.13-.14-.19-.31-.18-.5,0-.2.08-.36.22-.49.67-.59,1.26-1.23,1.77-1.92.51-.69.88-1.39,1.11-2.09.08-.25.08-.41,0-.49-.08-.08-.25-.12-.51-.12h-1.79c-.18,0-.33-.06-.47-.2-.13-.13-.2-.29-.2-.47s.06-.35.2-.48.29-.2.47-.2h1.87c.82,0,1.38.16,1.66.47.28.31.32.83.13,1.56-.27,1.02-.69,1.94-1.25,2.75s-1.21,1.54-1.94,2.19c-.16.14-.33.21-.54.22-.2,0-.39-.07-.55-.22ZM307.73,78.27c-.25,0-.44-.06-.58-.19-.14-.13-.22-.29-.23-.5-.02-.21.03-.39.17-.55.14-.15.35-.24.62-.26.26-.02.43-.06.51-.13.08-.07.12-.21.12-.42v-8.71c0-.21.07-.38.2-.51.13-.13.3-.19.5-.19s.35.06.49.19c.14.13.21.3.21.51v1.85c.09.3.2.6.32.89.13.29.26.58.41.87.24-.2.5-.42.78-.67.29-.25.56-.5.83-.74.27-.25.49-.46.67-.64.14-.14.31-.21.51-.23s.37.06.52.2c.14.13.21.29.21.49,0,.2-.07.36-.21.5-.2.2-.46.43-.77.69-.31.27-.63.53-.96.8s-.63.51-.91.72c.84,1.25,1.86,2.33,3.06,3.25.16.12.26.29.29.5.03.21-.03.4-.18.57-.15.17-.33.26-.56.28s-.42-.06-.59-.2c-.7-.6-1.34-1.27-1.92-1.98-.58-.72-1.08-1.49-1.51-2.33v4.07c0,.66-.16,1.14-.48,1.43-.32.29-.83.44-1.54.44Z"/><path class="cls-2" d="M315.83,79.15c-.16-.09-.25-.22-.27-.39s0-.33.1-.47c.36-.55.66-1.08.91-1.61s.43-1.08.56-1.65c.13-.57.2-1.19.2-1.85s-.07-1.29-.2-1.86c-.13-.57-.32-1.12-.56-1.65s-.55-1.07-.91-1.6c-.09-.14-.12-.3-.1-.47s.11-.3.27-.39c.16-.11.33-.14.5-.1.17.04.31.14.42.3.58.87,1.03,1.77,1.36,2.73s.49,1.97.49,3.04-.16,2.08-.49,3.03c-.33.95-.78,1.86-1.36,2.73-.11.16-.26.26-.42.3-.17.04-.33,0-.5-.09Z"/><path class="cls-2" d="M85.42,48.94c0-15.38-15.42-27.89-34.37-27.89s-34.37,12.51-34.37,27.89c0,13.79,12.23,25.34,28.74,27.52,1.12.24,2.64.74,3.03,1.69.35.87.23,2.23.11,3.11,0,0-.4,2.43-.49,2.94-.15.87-.69,3.4,2.98,1.85,3.67-1.55,19.79-11.65,27.01-19.96h0c4.98-5.46,7.37-11.01,7.37-17.16ZM38.93,57.15c0,.37-.3.67-.67.67h-9.63c-.18,0-.34-.07-.46-.19,0,0,0,0,0,0,0,0,0,0,0-.01-.12-.12-.19-.28-.19-.46v-14.97c0-.37.3-.67.67-.67h2.41c.37,0,.67.3.67.67v11.89h6.55c.37,0,.67.3.67.67v2.41ZM44.74,57.15c0,.37-.3.67-.67.67h-2.41c-.37,0-.67-.3-.67-.67v-14.98c0-.37.3-.67.67-.67h2.41c.37,0,.67.3.67.67v14.98ZM61.33,57.15c0,.37-.3.67-.67.67h-2.41c-.06,0-.12,0-.17-.02h-.01s-.03-.01-.05-.02c0,0-.01,0-.02,0-.01,0-.02,0-.03-.01-.01,0-.02-.01-.03-.02,0,0-.01,0-.02-.01-.01,0-.03-.02-.04-.02,0,0,0,0,0,0-.06-.04-.12-.1-.17-.16l-6.87-9.28v8.89c0,.37-.3.67-.67.67h-2.41c-.37,0-.67-.3-.67-.67v-14.98c0-.37.3-.67.67-.67h2.41s.02,0,.02,0c.01,0,.02,0,.03,0,.01,0,.02,0,.03,0,0,0,.02,0,.03,0,.01,0,.03,0,.04,0,0,0,.02,0,.02,0,.01,0,.03,0,.04.01,0,0,.01,0,.02,0,.01,0,.03.01.04.02,0,0,.01,0,.02,0,.01,0,.02.01.03.02,0,0,.01,0,.02.01.01,0,.02.02.03.02,0,0,.01,0,.02.01.01,0,.02.02.04.03,0,0,0,0,.01.01.01.01.03.03.04.04,0,0,0,0,0,0,.02.02.04.04.05.07l6.86,9.27v-8.9c0-.37.3-.67.67-.67h2.41c.37,0,.67.3.67.67v14.98ZM74.65,44.58c0,.37-.3.67-.67.67h-6.55v2.53h6.55c.37,0,.67.3.67.67v2.41c0,.37-.3.67-.67.67h-6.55v2.53h6.55c.37,0,.67.3.67.67v2.41c0,.37-.3.67-.67.67h-9.63c-.18,0-.34-.07-.46-.19,0,0,0,0,0,0,0,0,0,0,0-.01-.12-.12-.19-.28-.19-.46v-14.97c0-.18.07-.34.19-.46,0,0,0,0,.01-.01,0,0,0,0,0,0,.12-.12.28-.19.46-.19h9.63c.37,0,.67.3.67.67v2.41Z"/><path class="cls-2" d="M.5,100.21v20.76c0,6.01,4.87,10.89,10.89,10.89h313.22c6.01,0,10.89-4.87,10.89-10.89v-20.76H.5Z"/><rect class="cls-3" x=".5" y=".5" width="335" height="131.36" rx="11.46" ry="11.46"/><path class="cls-1" d="M61.31,121.82c-.6,0-.9-.3-.9-.9v-8.89c0-.6.29-.9.87-.9s.89.3.89.9v8.16h4.67c.6,0,.9.27.9.81s-.3.82-.9.82h-5.53Z"/><path class="cls-1" d="M70.59,121.82c-.58,0-.87-.3-.87-.9v-8.89c0-.6.29-.9.87-.9s.89.3.89.9v8.89c0,.6-.3.9-.89.9Z"/><path class="cls-1" d="M75.23,121.82c-.58,0-.87-.3-.87-.9v-8.89c0-.6.29-.9.87-.9h.2c.46,0,.82.2,1.08.6l4.64,7v-6.69c0-.3.08-.52.24-.67.16-.15.38-.23.66-.23.59,0,.89.3.89.9v8.89c0,.6-.28.9-.84.9h-.15c-.47,0-.83-.2-1.08-.6l-4.75-7.21v6.9c0,.6-.3.9-.89.9Z"/><path class="cls-1" d="M86.73,121.82c-.6,0-.9-.3-.9-.9v-8.89c0-.6.3-.9.9-.9h5.35c.6,0,.9.27.9.82s-.3.81-.9.81h-4.49v2.78h4.02c.6,0,.9.27.9.82s-.3.82-.9.82h-4.02v2.99h4.66c.6,0,.9.27.9.81s-.3.82-.9.82h-5.51Z"/><path class="cls-1" d="M94.92,116.93c-.19-.18-.29-.4-.27-.66,0-.26.12-.49.32-.68.39-.37.79-.8,1.2-1.31.41-.51.8-1.04,1.15-1.58s.64-1.04.84-1.49c.11-.25.29-.42.53-.49.24-.07.48-.05.7.06.23.12.39.3.47.53.08.23.06.46-.05.69-.27.59-.6,1.18-.98,1.76-.38.59-.77,1.14-1.19,1.67-.42.52-.83,1-1.24,1.41-.2.19-.45.31-.73.35-.28.04-.53-.05-.76-.26ZM107.38,122.54c-.22.15-.48.2-.76.15-.28-.05-.49-.19-.63-.41-.1-.15-.21-.32-.33-.49-.12-.17-.25-.36-.39-.55-.46.06-.99.13-1.6.2s-1.24.15-1.92.22c-.67.08-1.34.15-1.99.23-.66.08-1.27.15-1.85.21-.58.06-1.06.11-1.46.15-.32.03-.57-.03-.76-.18-.19-.15-.31-.37-.34-.66-.02-.24.05-.46.21-.64.16-.18.39-.29.67-.31.2-.02.43-.04.66-.05.24-.02.5-.03.79-.05.2-.4.43-.86.69-1.38.25-.52.51-1.07.77-1.63.26-.57.5-1.1.73-1.61.22-.51.41-.95.55-1.31.1-.25.27-.43.5-.53.23-.1.48-.11.73-.02.25.09.44.26.54.5.11.24.11.48,0,.73-.19.44-.43.95-.7,1.54-.27.59-.57,1.2-.87,1.82-.31.62-.6,1.2-.87,1.73.76-.07,1.53-.15,2.3-.22.77-.08,1.46-.15,2.08-.21-.23-.31-.47-.6-.7-.88-.23-.28-.44-.52-.62-.73-.16-.17-.24-.38-.23-.63.01-.24.11-.44.29-.6.19-.16.41-.24.66-.23.24.01.45.1.63.27.24.25.52.56.83.91.31.35.62.72.93,1.12.32.39.62.77.9,1.14.29.37.53.7.75.99.16.23.23.49.19.76-.04.27-.17.49-.4.66ZM107.37,116.78c-.54-.42-1.06-.88-1.56-1.38-.5-.5-.95-1.03-1.35-1.58-.4-.55-.75-1.09-1.03-1.62-.12-.23-.23-.41-.33-.53-.1-.12-.22-.19-.37-.23-.15-.04-.36-.05-.63-.05h-1.08c-.22,0-.42-.08-.58-.25-.16-.17-.24-.36-.24-.59s.08-.43.24-.6.36-.24.58-.24h1.08c.57,0,1.02.05,1.36.14.34.09.62.25.85.49s.46.56.69.99c.39.68.9,1.37,1.53,2.07.63.7,1.33,1.31,2.09,1.84.23.15.37.37.42.64.05.27-.02.52-.19.75-.18.22-.42.35-.7.37-.29.03-.54-.05-.78-.22Z"/><path class="cls-1" d="M120.97,121.94c-.64-.76-1.23-1.81-1.77-3.15-.54-1.33-.94-3.01-1.21-5.04h-6.42c-.25,0-.46-.08-.62-.25-.16-.17-.24-.37-.24-.62s.08-.44.24-.6c.16-.17.36-.25.62-.25h6.23c-.02-.35-.04-.7-.05-1.07-.02-.37-.03-.74-.05-1.11,0-.29.09-.51.27-.68.18-.17.39-.25.65-.25s.47.08.65.24c.18.16.27.38.27.68-.01.38,0,.75,0,1.12s.03.73.05,1.08h4.23c.26,0,.47.08.63.25s.23.37.23.6-.08.45-.23.62-.36.25-.63.25h-4.05c.22,1.63.56,3.03,1.02,4.21s.96,2.05,1.52,2.63c.15.16.28.23.39.21s.21-.13.3-.31c.05-.11.11-.24.18-.39.07-.15.13-.27.17-.37.1-.23.26-.39.48-.47.22-.08.44-.07.66.02.23.1.39.26.48.47.09.21.09.42.02.63s-.15.42-.24.61-.19.41-.3.64c-.27.57-.61.95-1.01,1.15-.4.2-.81.22-1.25.08-.43-.15-.85-.46-1.24-.92ZM111.88,122.52c-.29.04-.52,0-.7-.15-.18-.14-.3-.34-.35-.6-.04-.26.01-.48.16-.65.15-.17.36-.27.63-.31.07,0,.3-.05.69-.11.39-.06.84-.13,1.37-.21v-3.3h-1.83c-.25,0-.46-.08-.6-.24-.15-.16-.22-.36-.22-.58s.07-.43.22-.59.35-.24.6-.24h5.32c.25,0,.45.08.6.24s.21.35.21.59-.07.42-.21.58c-.14.16-.34.24-.6.24h-1.59v2.99c.54-.08,1.02-.16,1.43-.23s.67-.11.77-.12c.26-.05.48-.02.65.09.17.11.27.29.31.53.05.24.02.45-.1.62s-.29.28-.53.33c-.09.02-.3.06-.61.11-.32.06-.7.12-1.15.21-.45.08-.92.17-1.41.25s-.95.17-1.4.25c-.44.08-.81.15-1.12.2s-.49.08-.56.09ZM122.88,111.81c-.18.15-.39.22-.63.2s-.45-.12-.62-.29c-.07-.08-.17-.19-.31-.31s-.26-.25-.4-.37c-.13-.12-.24-.22-.32-.29-.16-.14-.24-.33-.24-.55,0-.22.09-.42.25-.58.16-.17.35-.27.57-.29.22-.02.42.05.6.21.09.07.21.18.37.31.15.14.3.27.45.4.15.13.26.24.33.32.17.17.25.38.24.62s-.11.45-.3.62Z"/><path class="cls-1" d="M130.28,122.46c-.2.16-.43.23-.69.2-.25-.03-.46-.15-.63-.35-.16-.2-.23-.44-.2-.69.03-.26.15-.47.35-.63.69-.54,1.27-1.17,1.73-1.9.46-.73.78-1.52.95-2.39.18-.87.19-1.76.02-2.69-.04-.26,0-.5.15-.71.14-.21.34-.33.6-.37.26-.05.5,0,.71.14.21.14.33.35.37.61.02.07.03.15.04.23,0,.08.01.16.02.24.92-.05,1.61-.13,2.07-.24.46-.11.77-.23.93-.37.16-.14.24-.28.24-.42,0-.21-.07-.38-.2-.5-.13-.12-.42-.18-.86-.18h-8.08c-.25,0-.48-.09-.66-.28-.19-.18-.28-.4-.28-.66s.09-.49.28-.66.41-.27.66-.27h8.08c2.02,0,3.02.82,3.02,2.46,0,.61-.18,1.12-.53,1.52-.35.4-.91.71-1.67.92s-1.75.36-2.99.43c-.09,1.32-.44,2.55-1.04,3.68-.6,1.13-1.41,2.09-2.43,2.87Z"/><path class="cls-1" d="M142.5,122.31c-.19-.17-.3-.39-.31-.65-.01-.26.07-.49.24-.68.79-.85,1.47-1.82,2.04-2.89.56-1.07,1.01-2.24,1.32-3.49-.57.03-1.1.06-1.6.08-.49.03-.82.04-.97.05-.25.01-.48-.07-.67-.25-.19-.18-.3-.39-.31-.65-.01-.26.07-.49.24-.69.17-.19.39-.3.66-.31.11-.01.33-.02.64-.03.32,0,.68-.02,1.11-.04.42-.02.85-.03,1.28-.05.12-.76.2-1.55.23-2.37,0-.26.11-.49.31-.66.19-.18.42-.26.67-.24.26.01.49.11.66.3.18.19.26.42.24.68-.01.38-.04.75-.08,1.12s-.09.74-.14,1.11l.44-.03c1.11-.04,1.97.1,2.57.41.6.32.99.84,1.16,1.57.17.73.16,1.72-.03,2.95-.16,1.04-.39,1.88-.69,2.54-.3.65-.66,1.14-1.08,1.47-.42.33-.9.53-1.43.61-.53.08-1.1.06-1.73-.04-.25-.04-.46-.17-.61-.38s-.21-.45-.17-.7c.05-.26.18-.47.4-.62s.45-.2.7-.15c.34.06.64.08.92.05.27-.03.53-.14.76-.34.23-.19.43-.51.61-.95.18-.44.33-1.05.47-1.83.14-.8.18-1.41.12-1.81s-.24-.67-.54-.8c-.3-.13-.75-.19-1.35-.17-.15,0-.44.02-.87.05-.37,1.54-.89,2.98-1.56,4.32-.67,1.34-1.45,2.5-2.32,3.45-.17.19-.39.29-.65.3-.26,0-.49-.08-.68-.25Z"/><path class="cls-1" d="M160.25,122.58c-.23.1-.47.12-.72.05-.24-.07-.43-.22-.55-.45-.12-.23-.15-.48-.07-.73.08-.25.23-.43.47-.53,1.49-.67,2.62-1.43,3.41-2.26s1.32-1.78,1.6-2.83c.1-.36.16-.64.18-.86.02-.22-.02-.4-.1-.56-.08-.12-.23-.22-.44-.3s-.53-.13-.95-.17-.98-.05-1.68-.05-1.29.01-1.69.04c-.4.03-.7.07-.89.14-.19.07-.34.16-.44.28-.1.13-.15.35-.15.64,0,.3.06.76.16,1.39.05.25,0,.49-.15.7s-.36.34-.63.38c-.25.04-.49-.02-.69-.17-.21-.15-.34-.36-.39-.61-.1-.65-.17-1.2-.2-1.64-.03-.44,0-.82.08-1.14.08-.32.23-.6.46-.86.21-.24.46-.43.74-.57.28-.13.65-.23,1.12-.3.47-.07,1.07-.1,1.82-.11v-1.77c0-.26.09-.49.28-.67.18-.18.4-.28.66-.28s.49.09.67.28c.18.18.27.41.27.67v1.77c.71.02,1.3.07,1.77.14.47.07.85.18,1.15.34.3.15.55.36.76.63.3.4.43.85.41,1.34-.02.5-.13,1.1-.32,1.82-.21.78-.56,1.56-1.02,2.32-.47.76-1.1,1.48-1.9,2.15s-1.8,1.26-3.02,1.78Z"/><path class="cls-1" d="M173.02,115.21c-.39-.33-.82-.66-1.3-1.02-.48-.35-.91-.64-1.3-.86-.22-.14-.37-.34-.43-.59s-.03-.49.11-.71c.14-.22.34-.37.59-.44.25-.07.49-.03.71.11.28.17.59.38.94.63s.69.5,1.02.74c.33.24.6.45.82.63.2.16.32.37.36.63.04.26-.03.49-.19.7-.16.2-.38.32-.63.36s-.49-.03-.7-.19ZM171.7,121.22c-.24.09-.49.08-.73-.03-.24-.11-.4-.29-.5-.53-.09-.24-.08-.49.03-.73.11-.24.29-.4.53-.5.82-.29,1.64-.64,2.47-1.05.83-.42,1.62-.87,2.38-1.37.76-.49,1.45-1,2.08-1.53.63-.52,1.14-1.03,1.54-1.52.17-.2.39-.32.65-.35.26-.03.49.04.68.21.21.16.32.37.35.63.03.26-.04.49-.21.7-.42.51-.97,1.05-1.67,1.63-.69.58-1.46,1.14-2.32,1.7-.86.56-1.74,1.08-2.64,1.56-.91.48-1.79.87-2.64,1.18Z"/><path class="cls-1" d="M187.18,122.48c-.25,0-.47-.09-.66-.27s-.28-.4-.28-.66v-10.55c0-.26.09-.49.28-.66s.4-.27.66-.27.49.09.67.27c.18.18.27.4.27.66v3.68c.13-.2.32-.34.55-.4s.46-.04.69.07c.6.32,1.21.68,1.84,1.08s1.17.8,1.63,1.19c.2.16.32.38.34.65.03.27-.05.51-.22.71-.16.19-.38.3-.64.33-.26.03-.5-.04-.7-.21-.29-.22-.61-.46-.98-.72-.37-.25-.74-.5-1.12-.74-.37-.24-.71-.45-1.02-.62-.16-.09-.29-.2-.37-.34v5.87c0,.25-.09.47-.27.66-.18.18-.41.27-.67.27Z"/><path class="cls-1" d="M197.88,122.43c-.25.04-.48-.01-.69-.15s-.33-.34-.38-.58c-.06-.34-.11-.79-.14-1.38-.03-.58-.05-1.23-.06-1.96-.01-.72,0-1.47,0-2.25.01-.78.04-1.54.08-2.28.04-.74.09-1.41.16-2.02s.14-1.1.24-1.47c.06-.24.2-.43.41-.57.21-.13.44-.17.69-.11.24.06.43.2.56.41.13.21.17.44.11.69-.09.38-.17.85-.23,1.42-.06.57-.11,1.19-.15,1.87-.04.68-.07,1.37-.08,2.08-.02.71-.02,1.4,0,2.07,0,.67.03,1.27.07,1.82.04.54.08.99.15,1.34.05.24,0,.47-.15.67s-.34.33-.59.38ZM202.97,122.42c-.82,0-1.47-.2-1.96-.6-.49-.4-.74-.98-.74-1.73s.25-1.3.74-1.72c.49-.42,1.17-.63,2.04-.63.26,0,.53.02.81.05-.01-.48-.02-1-.04-1.57-.02-.57-.03-1.14-.05-1.73-.54.03-1.06.05-1.57.06-.5.01-.94.01-1.31,0-.25,0-.47-.1-.63-.28s-.25-.39-.24-.65c.02-.24.12-.45.3-.62.18-.17.39-.25.63-.24.36.01.78.01,1.26,0,.48,0,.99-.02,1.52-.05-.01-.39-.02-.76-.02-1.11v-1.01c0-.25.09-.47.26-.65.17-.18.39-.27.64-.27s.48.09.66.27c.17.18.26.39.26.65,0,.32,0,.64,0,.98s0,.68,0,1.02c.45-.04.86-.08,1.23-.12s.68-.08.94-.12c.24-.05.47,0,.67.15.2.15.33.34.37.59.04.24-.01.47-.16.67s-.34.32-.59.35c-.29.04-.64.08-1.06.13s-.88.09-1.37.13c.02.71.04,1.4.06,2.06.02.66.04,1.25.05,1.76.56.18,1.09.4,1.58.66.49.25.92.52,1.29.79.2.15.33.35.37.6.04.25-.01.48-.15.68s-.34.33-.59.38c-.25.05-.48,0-.68-.15-.25-.19-.53-.38-.84-.56-.31-.18-.62-.35-.95-.49-.1,1.56-1.02,2.34-2.75,2.34ZM202.97,120.69c.63,0,.95-.3.95-.9,0-.03,0-.07,0-.12,0-.05,0-.11,0-.17-.31-.06-.62-.09-.93-.09s-.55.06-.7.18c-.15.12-.22.28-.22.47s.07.35.21.46c.14.11.38.17.7.17Z"/><path class="cls-1" d="M220.98,121.39c-1.54.36-2.91.51-4.12.47-1.21-.05-2.21-.28-3.01-.69-.8-.42-1.36-1.01-1.67-1.77-.1-.23-.1-.47,0-.7.1-.23.27-.4.5-.49.23-.1.47-.1.7,0,.23.1.39.27.48.5.19.44.59.77,1.19,1.01.6.23,1.37.35,2.31.34.94,0,2.01-.16,3.2-.45.25-.06.47-.02.69.11.21.14.35.33.41.57.05.24.01.47-.12.69-.13.21-.32.35-.56.41ZM219.58,113.04c-.55-.14-1.14-.25-1.76-.33s-1.25-.12-1.86-.13c-.61,0-1.18.01-1.71.06-.25.03-.48-.03-.68-.18-.2-.15-.31-.36-.34-.61-.03-.25.03-.48.18-.68.15-.2.36-.31.61-.34.61-.06,1.28-.08,2.02-.05s1.45.08,2.15.16c.7.08,1.31.19,1.83.32.24.07.43.21.56.42.13.21.17.44.11.68-.05.24-.19.44-.41.57-.22.14-.45.18-.69.11Z"/><path class="cls-1" d="M230.05,122.86c-.25.01-.47-.07-.66-.25s-.29-.39-.31-.65c0-.25.07-.48.25-.66s.39-.28.65-.28c1.46-.04,2.5-.29,3.12-.74.63-.45.94-1.11.94-1.98,0-.48-.16-.86-.47-1.15s-.72-.46-1.22-.51c-.5-.06-1.06.02-1.66.24-.6.21-1.19.58-1.77,1.08-.15.13-.33.2-.53.21-.2,0-.38-.04-.56-.15-.16-.11-.28-.26-.35-.44-.07-.18-.08-.37-.03-.56.14-.49.27-1.06.38-1.73.11-.66.2-1.32.28-1.99-.5.01-.97.01-1.41,0-.44,0-.82-.02-1.15-.04-.25-.02-.45-.13-.6-.32-.16-.19-.23-.41-.21-.66.02-.24.13-.45.32-.6.19-.16.41-.23.66-.21.34.03.73.05,1.17.06.44.01.9.01,1.38,0,.02-.29.04-.55.05-.79,0-.24.01-.45.01-.63,0-.25.08-.47.25-.65s.38-.27.63-.28c.25,0,.47.07.66.24.18.17.28.39.28.64,0,.17,0,.38-.02.61-.02.23-.03.49-.05.76,1.02-.06,1.9-.18,2.64-.35.25-.05.47,0,.68.13.21.14.33.33.38.57.05.24,0,.47-.12.67-.13.2-.32.33-.56.38-.44.08-.93.15-1.48.21-.55.06-1.12.11-1.71.15-.05.45-.11.89-.18,1.32-.07.43-.14.82-.21,1.17.57-.33,1.15-.54,1.74-.66.59-.11,1.16-.13,1.71-.05s1.04.26,1.48.53.78.64,1.04,1.09c.25.45.38.99.38,1.61,0,1.45-.51,2.56-1.54,3.35-1.03.78-2.45,1.21-4.28,1.27Z"/><path class="cls-1" d="M243.18,122.37c-.25,0-.47-.09-.65-.26-.18-.17-.27-.39-.28-.64,0-.25.09-.47.26-.65.17-.18.39-.27.64-.28,2.85-.05,4.28-.87,4.28-2.44,0-.52-.18-.93-.53-1.22-.36-.29-.83-.44-1.42-.44-.65,0-1.33.16-2.02.48-.7.32-1.33.8-1.9,1.44-.13.15-.3.25-.51.28-.21.04-.4,0-.57-.08-.17-.08-.3-.21-.38-.39-.08-.18-.11-.36-.08-.56.07-.43.15-.89.24-1.39.09-.5.18-1.01.28-1.52.1-.51.2-.99.31-1.43.05-.25.19-.45.41-.57.22-.13.45-.16.69-.1.25.06.43.2.57.42.13.22.17.45.11.69-.07.29-.16.61-.25.99-.1.37-.2.77-.3,1.18,1.17-.79,2.33-1.19,3.47-1.19.75,0,1.41.14,1.97.43.56.29,1,.68,1.31,1.19s.47,1.1.47,1.79c0,1.27-.5,2.3-1.5,3.07s-2.53,1.18-4.58,1.21ZM245.63,112.81c-.33-.16-.7-.34-1.11-.53-.41-.19-.83-.37-1.24-.55-.41-.18-.78-.33-1.09-.45-.22-.09-.38-.26-.46-.5-.08-.24-.07-.48.03-.7.11-.23.29-.39.52-.47.23-.08.47-.07.7.02.34.13.7.28,1.09.45s.79.34,1.18.52c.4.18.76.35,1.08.51.22.11.38.28.48.51s.1.46,0,.69c-.1.22-.27.39-.5.49-.23.1-.47.1-.7,0Z"/><path class="cls-1" d="M256.33,122.19c-.25-.03-.46-.15-.61-.34-.15-.2-.21-.43-.18-.68.04-.25.16-.46.36-.61.2-.15.42-.21.66-.18.33.04.61.05.86.02.25-.03.46-.13.65-.31.19-.18.35-.48.5-.9.14-.42.27-.99.37-1.73.09-.64.1-1.14.02-1.5-.08-.36-.28-.61-.58-.75s-.76-.19-1.36-.15c-.24.83-.53,1.67-.87,2.5-.34.83-.71,1.63-1.12,2.38-.41.75-.86,1.42-1.34,2.02-.15.19-.35.31-.6.34-.25.04-.48-.02-.68-.18-.19-.16-.31-.37-.34-.62-.04-.25.03-.47.19-.66.6-.73,1.15-1.59,1.64-2.58.49-.99.91-2.01,1.25-3.05-.32.04-.64.08-.97.11-.33.04-.66.07-.99.1-.24.02-.47-.05-.66-.2-.2-.15-.31-.36-.34-.61-.02-.25.05-.48.21-.68.16-.2.36-.31.6-.33.44-.05.88-.09,1.33-.13.45-.04.89-.06,1.31-.08.21-.94.35-1.81.4-2.63.02-.25.12-.47.31-.63.18-.17.4-.24.66-.22.25.01.47.11.63.3s.24.41.22.66c-.03.38-.08.77-.15,1.18-.07.41-.14.82-.24,1.25,1.39.02,2.34.39,2.83,1.12.49.72.63,1.82.43,3.28-.16,1.26-.42,2.24-.79,2.93-.36.69-.83,1.15-1.42,1.38s-1.31.29-2.16.18ZM264.91,117.66c-.22.12-.46.15-.69.08-.24-.07-.43-.21-.56-.43-.17-.33-.39-.67-.66-1.04-.26-.37-.54-.72-.82-1.06-.28-.34-.55-.63-.8-.88-.18-.17-.28-.38-.29-.63-.01-.24.07-.46.24-.64.17-.18.38-.28.63-.29.25-.01.47.07.65.24.33.31.65.65.99,1.05.33.39.64.79.93,1.2s.53.79.73,1.16c.13.22.16.46.09.7-.07.24-.22.42-.44.53Z"/><path class="cls-1" d="M271.79,122.37c-.25,0-.47-.09-.65-.26-.18-.17-.27-.39-.28-.64,0-.25.09-.47.26-.65.17-.18.39-.27.64-.28,2.85-.05,4.28-.87,4.28-2.44,0-.52-.18-.93-.53-1.22-.36-.29-.83-.44-1.42-.44-.65,0-1.33.16-2.02.48-.7.32-1.33.8-1.9,1.44-.13.15-.3.25-.51.28-.21.04-.4,0-.57-.08-.17-.08-.3-.21-.38-.39-.08-.18-.11-.36-.08-.56.07-.43.15-.89.24-1.39.09-.5.18-1.01.28-1.52.1-.51.2-.99.31-1.43.05-.25.19-.45.41-.57.22-.13.45-.16.69-.1.25.06.43.2.57.42.13.22.17.45.11.69-.07.29-.16.61-.25.99-.1.37-.2.77-.3,1.18,1.17-.79,2.33-1.19,3.47-1.19.75,0,1.41.14,1.97.43.56.29,1,.68,1.31,1.19s.47,1.1.47,1.79c0,1.27-.5,2.3-1.5,3.07s-2.53,1.18-4.58,1.21ZM274.23,112.81c-.33-.16-.7-.34-1.11-.53-.41-.19-.83-.37-1.24-.55-.41-.18-.78-.33-1.09-.45-.22-.09-.38-.26-.46-.5-.08-.24-.07-.48.03-.7.11-.23.29-.39.52-.47.23-.08.47-.07.7.02.34.13.7.28,1.09.45s.79.34,1.18.52c.4.18.76.35,1.08.51.22.11.38.28.48.51s.1.46,0,.69c-.1.22-.27.39-.5.49-.23.1-.47.1-.7,0Z"/></g></svg>