<?xml version="1.0" encoding="UTF-8"?><svg id="_レイヤー_2" xmlns="http://www.w3.org/2000/svg" viewBox="0 0 63.78 17.37"><defs><style>.cls-1{fill:#c69c6d;stroke-width:0px;}</style></defs><g id="_レイヤー_1-2"><path class="cls-1" d="M10.17,5.71c0,.11-.09.4-.27.82-1.47,3.59-4.08,5.86-6.67,5.86-1.6,0-3.23-1.03-3.23-2.79C0,4.66,9.47,0,16.47,0c3.59,0,5.71,1.81,5.71,3.83,0,4.39-7.07,7.54-9.92,7.54-.71,0-1-.07-1-.2,0-.04.04-.09.11-.09s.36.02.47.02c2.83,0,8.96-3.54,8.96-8.09,0-1.52-1.76-2.72-4.99-2.72C10.34.29,1.2,5.04,1.2,10.21c0,1.05.54,1.85,1.63,1.85,2.65,0,5.53-3.01,7.04-6.26.07-.16.11-.22.18-.22s.11.04.11.13ZM15.9,1.11c.27,0,.85.78.85,1.05,0,.13-.07.2-.29.33-2.41,1.45-8.36,10.66-8.36,14.69,0,.11-.02.18-.09.18-.13,0-.89-.47-.89-.87,0-3.88,7.49-15.38,8.78-15.38Z"/><path class="cls-1" d="M21.93,13.82c-.65.51-1.25.8-1.54.8-.53,0-1.49-.54-1.49-1.56,0-.45.09-.85.25-1.23,0-.04-.02-.09-.02-.16,0-1.9,2.05-3.25,3.23-3.25,1,0,1.74.65,1.74,1.58,0,1.47-.96,2.74-1.92,3.59,1.34-.09,2.5-1,3.19-1.69,0,0,.07-.09.13-.09s.11.07.11.09c0,.04-.18.2-.25.27-.67.6-1.72,1.58-3.43,1.65ZM21.78,9.23c.27,0,.71.62.71.85,0,.13-.16.22-.29.29-.83.49-1.96,1.47-2.45,2.45.38.49,1.05.78,1.85.83.94-.83,1.85-2.25,1.85-3.7,0-.74-.42-1.2-1.29-1.2s-2.45,1.03-2.72,2.5c.36-.58.85-1.03,1.32-1.43.36-.31.74-.58,1.03-.58ZM19.55,13.62c0,.4.25.74.62.74.33,0,.78-.2,1.23-.54-.74-.07-1.36-.31-1.76-.74-.07.18-.09.36-.09.54Z"/><path class="cls-1" d="M28.23,9.74c0,.4-2.54,3.28-2.54,4.24,0,.27.16.38.36.38,1.27,0,3.86-2.45,3.86-2.45,0,0,.09-.09.16-.09.04,0,.09.07.09.09,0,.04-.18.2-.25.27,0,0-2.72,2.61-4.17,2.61-.36,0-1.07-.51-1.07-1.23,0-.98,1.94-3.46,2.36-4.5.07-.13.16-.22.27-.22.45,0,.94.51.94.91ZM30.43,5.86c0,.16-.29.62-.47.71-.13.07-.42.16-.62.22-.42.13-.56.38-.65.38-.07,0-.13-.04-.13-.13,0-.53.85-1.65.85-2.18,0-.07.04-.09.09-.09.36,0,.94.78.94,1.09Z"/><path class="cls-1" d="M32.4,10.08c0,.4-.6,1.25-1.09,2.1.82-.65,3.21-2.23,4.06-2.23.36,0,.62.65.62.94,0,.25-1.69,1.92-1.69,3.1,0,.2.13.29.31.29,1.36,0,3.75-2.36,3.75-2.36,0,0,.09-.09.13-.09.07,0,.11.07.11.09,0,.04-.25.27-.25.27,0,0-2.56,2.54-3.75,2.54-.56,0-1.27-.69-1.27-1.43,0-.98,1.05-2.38,1.05-2.54,0-.02-.02-.04-.07-.04-.25,0-1.96.85-3.19,1.98-1.43,1.32-1.61,2.41-1.81,2.41-.22,0-.6-.56-.6-1.03s2.27-3.17,2.59-4.88c0-.18.11-.2.22-.2.22,0,.87.51.87,1.09Z"/><path class="cls-1" d="M43.34,6.11c1.16,0,2.43.27,2.43.31,0,.07-.04.13-.09.13-.07,0-.89-.16-2.03-.16-.76,0-1.14.11-1.14.11-1.63,2.34-4.19,6.06-4.19,8.63,0,.98.38,1.38,1.07,1.38.09,0,.2.13.2.2,0,.09-.13.11-.22.11-.58,0-1.63-.71-1.63-2.21,0-2.16,1.74-5.26,3.17-7.78-.83.13-1.25.38-1.29.38-.18,0-.47-.38-.47-.51,0-.04,0-.09.11-.13.36-.16,1.09-.29,2.01-.38.83-1.45,1.47-2.63,1.47-3.19,0-.11.04-.16.11-.16.31,0,1.03.89,1.03,1.54,0,.2-.42.83-1.07,1.72h.54Z"/><path class="cls-1" d="M42.08,13.84c0,.4-.62.85-.78.85-.13,0-.29-.07-.47-.07-.13,0-.25.16-.36.16-.09,0-.18-.11-.18-.4,0-.27.11-.62.36-.91.2-.25.04-.47.04-.56s.07-.13.16-.13c.36,0,1.23.62,1.23,1.07Z"/><path class="cls-1" d="M55.84,3.01c.71.25,1.45,1.07,1.45,2.05,0,3.63-4.12,9.61-6.96,9.61-1.47,0-3.14-1.32-3.14-3.21,0-3.77,4.66-9.16,7.47-9.16.51,0,.89.25,1.18.71ZM55.1,3.72c-2.1.31-6.67,4.66-6.67,8.54,0,1.05.56,1.76,1.34,1.76,3.3,0,6.64-5.53,6.64-9.39,0-.69-.33-1.14-.71-1.43,0,0-.16.45-.6.51Z"/><path class="cls-1" d="M57.47,6.69c1.07,0,3.63-2.14,3.63-2.14,0,0,1.38-2.07,1.81-2.07s.87.74.87,1.03-2.27,2.23-3.7,5.39c-1.43,3.17-1.63,5.15-1.63,5.44,0,.33.11.49.11.58s-.04.11-.11.11c-.25,0-1.2-.74-1.2-1.16,0-1.65,3.41-8.4,3.41-8.4,0,0-.62.51-1.05,1-.56.65-.98,1.05-1.54,1.05s-1.09-.69-1.09-.85c0-.07.04-.13.11-.13.09,0,.18.16.38.16Z"/></g></svg>