<?xml version="1.0" encoding="UTF-8"?><svg id="_レイヤー_2" xmlns="http://www.w3.org/2000/svg" viewBox="0 0 337.3 592.64"><defs><style>.cls-1{fill:#000;}.cls-1,.cls-2,.cls-3{stroke-width:0px;}.cls-2{fill:#ff9c00;}.cls-4{fill:none;stroke:#fff;stroke-miterlimit:10;}.cls-3{fill:#fff;}</style></defs><g id="_背景2"><path class="cls-3" d="M135.81,557.04l-3.28,3.24c-2.08-2.19-4.49-3.29-7.26-3.29-2.41,0-4.42.8-6.05,2.39-1.63,1.6-2.44,3.54-2.44,5.82s.84,4.36,2.53,6c1.69,1.64,3.77,2.46,6.24,2.46,1.61,0,2.97-.34,4.07-1.01,1.1-.68,1.99-1.74,2.67-3.18h-7.08v-4.37h12.3l.03,1.03c0,2.14-.55,4.17-1.66,6.09-1.11,1.92-2.54,3.38-4.31,4.39-1.76,1.01-3.83,1.51-6.2,1.51-2.54,0-4.8-.55-6.79-1.65-1.99-1.1-3.56-2.67-4.72-4.71-1.16-2.04-1.74-4.24-1.74-6.6,0-3.24,1.07-6.05,3.21-8.45,2.54-2.85,5.84-4.27,9.91-4.27,2.13,0,4.12.39,5.97,1.18,1.56.66,3.09,1.81,4.59,3.43Z"/><path class="cls-3" d="M152.35,553.04h4.72l9.41,24.46h-4.84l-1.91-5.04h-9.98l-1.99,5.04h-4.84l9.43-24.46ZM154.74,559.53l-3.28,8.4h6.54l-3.26-8.4Z"/><path class="cls-3" d="M173.89,553.04h12.14v4.54h-7.52v4.44h7.52v4.47h-7.52v11.01h-4.62v-24.46Z"/><path class="cls-3" d="M196.99,553.04h4.62v24.46h-4.62v-24.46Z"/><path class="cls-3" d="M211.59,553.04h13.52v4.59h-4.46v19.87h-4.72v-19.87h-4.34v-4.59Z"/><path class="cls-3" d="M114.84,583.43h3.63v.71h-2.91v2.27h2.91v.71h-2.91v3.56h-.73v-7.25Z"/><path class="cls-3" d="M120.95,583.68c0,.31-.26.58-.58.58s-.57-.26-.57-.58.26-.57.57-.57.58.25.58.57ZM120.04,585.32h.69v5.36h-.69v-5.36Z"/><path class="cls-3" d="M123.27,583.32h.69v2h1.1v.61h-1.1v4.75h-.69v-4.75h-.95v-.61h.95v-2Z"/><path class="cls-3" d="M127.27,586.28c.56-.73,1.22-1.1,2.01-1.1,1.17,0,1.99.81,1.99,2.49v3.01h-.69v-2.92c0-1.26-.39-1.96-1.43-1.96-.58,0-1.05.25-1.41.73-.4.53-.46,1.05-.46,1.9v2.25h-.69v-5.36h.69v.96Z"/><path class="cls-3" d="M133.7,588.06c.03,1.23.87,2.13,2.02,2.13s1.66-.64,2.05-1.28l.58.3c-.55,1.07-1.38,1.6-2.55,1.6-1.78,0-2.8-1.36-2.8-2.8s1.08-2.84,2.76-2.84c1.52,0,2.76,1.1,2.78,2.88h-4.83ZM137.77,587.45c-.28-1.11-1.08-1.6-2.01-1.6s-1.68.51-1.99,1.6h4Z"/><path class="cls-3" d="M140.24,589.56c.34.38.72.6,1.12.6.53,0,.99-.38.99-.89,0-.31-.18-.61-.44-.75-1.23-.69-1.86-.98-1.86-1.92,0-.85.66-1.42,1.47-1.42.59,0,1.03.28,1.48.73l-.44.45c-.32-.31-.65-.51-1.08-.51s-.81.31-.81.72c0,.27.17.58.41.72,1.23.72,1.92.99,1.92,1.96,0,.84-.65,1.58-1.62,1.58-.6,0-1.2-.27-1.58-.77l.43-.49Z"/><path class="cls-3" d="M144.66,589.56c.34.38.72.6,1.12.6.53,0,.99-.38.99-.89,0-.31-.18-.61-.44-.75-1.23-.69-1.86-.98-1.86-1.92,0-.85.66-1.42,1.47-1.42.59,0,1.03.28,1.48.73l-.44.45c-.32-.31-.65-.51-1.08-.51s-.81.31-.81.72c0,.27.17.58.41.72,1.23.72,1.92.99,1.92,1.96,0,.84-.65,1.58-1.62,1.58-.6,0-1.2-.27-1.58-.77l.43-.49Z"/><path class="cls-3" d="M160,587.2c-.01,2.3-1.47,3.65-3.64,3.65-2.51,0-4.09-1.8-4.09-3.8s1.6-3.81,3.98-3.81c1.33,0,2.35.48,3.32,1.4l-.56.52c-.82-.8-1.81-1.22-2.75-1.22-1.74,0-3.24,1.33-3.24,3.08s1.4,3.15,3.35,3.15c1.37,0,2.6-.82,2.81-2.28h-2.31v-.71h3.13Z"/><path class="cls-3" d="M161.19,585.32h.73l1.85,4.13,1.79-4.13h.74l-3.2,7.32h-.73l1.03-2.36-2.2-4.96Z"/><path class="cls-3" d="M172.02,590.68h-.69v-2.75c0-.41-.04-.76-.05-1-.03-.59-.5-1.09-1.21-1.09-.47,0-.95.23-1.25.63-.38.49-.45,1.13-.45,1.94v2.27h-.69v-5.36h.69v.92c.47-.69,1.07-1.06,1.84-1.06.82,0,1.4.42,1.7,1.29.47-.86,1.18-1.29,1.97-1.29,1.11,0,1.83.8,1.83,2.32v3.18h-.69v-2.93c0-.39-.05-.71-.06-.91-.03-.47-.48-1-1.21-1-.67,0-1.25.4-1.52,1.09-.17.43-.19.91-.19,1.4v2.34Z"/><path class="cls-3" d="M182.94,590.85c-1.2,0-1.85-.78-1.85-1.68,0-.96.7-1.64,1.74-2.46-.58-.69-.93-1.15-.93-1.71,0-.77.72-1.3,1.6-1.3.94,0,1.58.57,1.58,1.31,0,.62-.46,1.16-1.25,1.83,1.21,1.29,1.84,1.89,1.86,1.91.32-.27.64-.54.88-.76l.48.53c-.25.22-.53.47-.85.73.47.51.96.95,1.37,1.43h-1.01c-.49-.53-.82-.84-.94-.97-.85.64-1.58,1.14-2.7,1.14ZM181.8,589.14c0,.51.48,1.05,1.21,1.05.67,0,1.33-.4,2.14-.98-.51-.53-1.15-1.14-1.85-1.94-.92.7-1.5,1.23-1.5,1.87ZM184.38,585.01c0-.35-.38-.64-.9-.64-.43,0-.88.24-.88.65,0,.28.27.71.79,1.28.65-.51.99-.96.99-1.29Z"/><path class="cls-3" d="M192.52,583.43h1.68c.76,0,1.32.05,1.68.18.74.28,1.19.93,1.19,1.75,0,.69-.32,1.26-.84,1.58-.51.32-1.26.36-2.26.36h-.72v3.37h-.73v-7.25ZM193.25,584.14v2.46c.41.01.83,0,1.2,0,.63,0,1.11-.04,1.43-.3.25-.2.42-.58.42-.94s-.18-.74-.45-.95c-.32-.24-.76-.27-1.32-.27h-1.28Z"/><path class="cls-3" d="M199.71,583.68c0,.31-.26.58-.58.58s-.57-.26-.57-.58.26-.57.57-.57.58.25.58.57ZM198.8,585.32h.69v5.36h-.69v-5.36Z"/><path class="cls-3" d="M201.32,583.25h.69v7.43h-.69v-7.43Z"/><path class="cls-3" d="M208.61,585.32h.68v5.36h-.68v-.92c-.59.71-1.32,1.05-2.16,1.05-1.56,0-2.75-1.3-2.75-2.83s1.21-2.81,2.77-2.81c.87,0,1.6.37,2.14,1.12v-.98ZM204.41,588.01c0,1.16.91,2.18,2.11,2.18,1.1,0,2.14-.83,2.14-2.16,0-1.24-.93-2.18-2.13-2.18s-2.12,1.01-2.12,2.16Z"/><path class="cls-3" d="M211.96,583.32h.69v2h1.1v.61h-1.1v4.75h-.69v-4.75h-.95v-.61h.95v-2Z"/><path class="cls-3" d="M215.73,588.06c.03,1.23.87,2.13,2.02,2.13s1.66-.64,2.05-1.28l.58.3c-.55,1.07-1.38,1.6-2.55,1.6-1.78,0-2.8-1.36-2.8-2.8s1.08-2.84,2.76-2.84c1.52,0,2.76,1.1,2.78,2.88h-4.83ZM219.79,587.45c-.28-1.11-1.08-1.6-2.01-1.6s-1.68.51-1.99,1.6h4Z"/><path class="cls-3" d="M222.27,589.56c.34.38.72.6,1.12.6.53,0,.99-.38.99-.89,0-.31-.18-.61-.44-.75-1.23-.69-1.86-.98-1.86-1.92,0-.85.66-1.42,1.47-1.42.59,0,1.03.28,1.48.73l-.44.45c-.32-.31-.65-.51-1.08-.51s-.81.31-.81.72c0,.27.17.58.41.72,1.23.72,1.92.99,1.92,1.96,0,.84-.65,1.58-1.62,1.58-.6,0-1.2-.27-1.58-.77l.43-.49Z"/><path class="cls-3" d="M162.92,478.9h18.33c-3.25-3.47-8.15-5.67-15.5-5.67h-21.2c-4.69,0-7.98,1.95-7.98,8.21v38.32c0,6.26,3.28,8.21,7.98,8.21h1.53c-4.9-4.92-6.4-12.65-6.4-21.7,0-15.64,4.46-27.37,23.23-27.37Z"/><path class="cls-3" d="M190.29,506.86v18.58c0,6.26-3.29,8.21-7.98,8.21h-19.4c-3.66,0-6.77-.45-9.42-1.29,3.42,5.16,9.28,8.28,18.96,8.28h19.4c4.69,0,7.98-1.96,7.98-8.21v-25.57h-9.54Z"/><path class="cls-3" d="M167.77,525.44h8.29c.86,0,1.54-.06,2.08-.22.45-.28.89-.58,1.3-.9.38-.6.52-1.49.52-2.8v-8.05h-7.69v-6.76h14.8c.18-2.02.25-4.07.25-6.11,0-4.61-.36-9.31-1.6-13.49h-17.97c-13.3,0-17.44,4.3-17.44,19.16s4.14,19.16,17.44,19.16Z"/></g><g id="_レイヤー_1-2"><path class="cls-3" d="M51.21,84.7h-2.38l-.56-2.48c-.99,1.13-1.98,1.91-2.97,2.34s-2.13.65-3.42.65c-1.58,0-3.01-.29-4.26-.88-1.26-.58-2.32-1.38-3.19-2.39-.87-1.01-1.54-2.19-2.01-3.53s-.7-2.78-.7-4.31.23-2.93.7-4.28c.47-1.35,1.13-2.52,2-3.54.87-1.01,1.94-1.81,3.19-2.41,1.26-.59,2.68-.89,4.26-.89,1.15,0,2.24.15,3.28.46,1.04.31,1.97.76,2.78,1.36.81.6,1.48,1.36,2.02,2.27.53.91.87,1.96,1.01,3.15h-3.62c-.1-.69-.31-1.3-.64-1.83-.33-.53-.74-.97-1.23-1.32-.49-.36-1.05-.62-1.66-.8-.61-.18-1.26-.27-1.93-.27-1.13,0-2.1.23-2.92.68-.82.46-1.49,1.07-2,1.83-.52.76-.9,1.63-1.14,2.6-.25.97-.37,1.96-.37,2.97s.12,2,.37,2.97c.25.97.63,1.84,1.14,2.6s1.18,1.37,2.01,1.83,1.8.68,2.93.68c.95.02,1.79-.1,2.53-.37.73-.27,1.35-.65,1.86-1.16s.89-1.12,1.14-1.86c.26-.73.4-1.55.42-2.44h-5.64v-2.83h9.02v11.18Z"/><path class="cls-3" d="M62.5,63.51h3.95l8.17,21.19h-3.97l-1.99-5.62h-8.47l-1.99,5.62h-3.83l8.14-21.19ZM61.21,76.25h6.47l-3.18-9.12h-.09l-3.21,9.12Z"/><path class="cls-3" d="M77.99,63.51h14.66v3.21h-10.93v5.54h9.59v3.02h-9.59v9.42h-3.73v-21.19Z"/><path class="cls-3" d="M96.47,63.51h3.73v21.19h-3.73v-21.19Z"/><path class="cls-3" d="M103.82,63.51h17.18v3.21h-6.74v17.98h-3.73v-17.98h-6.71v-3.21Z"/><path class="cls-3" d="M139.54,61.27c-4.48,3.7-6.08,7.61-6.08,12.37s1.59,8.67,6.08,12.37l-.7.84c-5.18-3.78-7.32-7.88-7.32-13.2s2.13-9.42,7.32-13.2l.7.84Z"/><path class="cls-3" d="M150.65,68.37c.11-1.32.16-2.19.19-3.64,0-.7-.03-1.27-.19-2.13,1.43.13,2.65.32,3.51.57.35.11.46.32.46.57,0,.16-.05.35-.14.51-.24.41-.3.67-.35,1.27-.08.86-.11,1.51-.24,2.83h4.1c1.24,0,2.51-.05,3.75-.05.43,0,.57.08.57.38,0,.35-.05,1.43-.11,2.86-.11,3.32-.49,7.07-1,8.88-.54,2.08-1.46,3.21-3.19,3.65-.62.16-1.59.3-2.73.3-.32,0-.54-.19-.65-.54-.35-1-.78-1.73-1.57-2.46,2,.08,3-.03,3.67-.24.73-.24,1.08-.67,1.4-1.89.49-2.05.73-4.35.81-8.1h-5.45c-.54,3.27-1.27,5.7-2.4,7.48-1.24,2.03-3.24,4.05-5.72,5.56-.22.14-.43.22-.62.22-.16,0-.35-.08-.51-.27-.54-.59-1.35-1.16-2.27-1.57,3.1-1.57,4.89-3.27,6.35-5.51.84-1.35,1.51-3.19,1.94-5.83h-2.43c-1.32,0-2.62.05-3.89.14-.27.03-.38-.14-.41-.46-.11-.65-.16-1.62-.22-2.62,1.7.11,2.92.11,4.48.11h2.83ZM160.77,63.43c.14-.11.24-.08.41.05.84.65,1.81,1.73,2.56,2.89.11.16.11.3-.08.43l-1.13.84c-.19.13-.32.11-.46-.08-.81-1.24-1.67-2.27-2.73-3.13l1.43-1ZM163.18,61.67c.16-.11.24-.08.4.05,1,.76,1.97,1.84,2.56,2.78.11.16.14.32-.08.49l-1.08.84c-.22.16-.35.08-.46-.08-.73-1.16-1.59-2.19-2.7-3.11l1.35-.97Z"/><path class="cls-3" d="M176.17,68.18c-1.75,0-3.29.08-4.46.13-.35.03-.46-.16-.51-.54-.08-.54-.19-1.94-.24-2.73,1.21.13,2.65.19,5.18.19h9.64c.81,0,1.11-.05,1.49-.27.13-.08.27-.11.41-.11.16,0,.32.05.51.13.73.46,1.46,1.13,1.97,1.78.14.16.19.3.19.46,0,.24-.13.46-.38.67-.24.24-.38.51-.62,1.05-1.32,3.19-2.97,6.16-5.24,8.77-2.32,2.65-4.94,4.89-7.67,6.43-.24.16-.49.24-.73.24-.22,0-.46-.08-.68-.3-.62-.59-1.51-1.08-2.51-1.48,3.94-2,6.34-3.86,8.83-6.75,2.11-2.4,3.48-4.7,4.56-7.7h-9.75Z"/><path class="cls-3" d="M204.93,80.35c0,1.3.05,3.02.08,4.4.03.32-.14.46-.46.49-.7.05-1.49.05-2.19,0-.3-.03-.46-.16-.43-.49.03-1.54.08-2.89.08-4.32v-4.62c-1.84,1.54-4.21,3.19-5.59,3.89-.11.08-.24.11-.35.11-.19,0-.41-.11-.54-.27-.49-.57-1.21-1.11-1.94-1.35,4.24-2.21,7.91-5.05,11.2-8.77.62-.73,1.08-1.4,1.43-2.32.92.54,2.05,1.24,2.48,1.62.19.16.3.35.3.49,0,.19-.14.38-.41.51-.35.19-.97.84-1.21,1.11-.7.81-1.51,1.7-2.46,2.62v6.91Z"/><path class="cls-3" d="M218.77,70.1c.3-.13.49-.11.7.19.94,1.19,1.81,2.57,2.32,4,.05.19.11.3.11.41,0,.16-.11.24-.32.38-.65.38-1.11.59-1.73.84-.38.13-.54,0-.68-.38-.62-1.57-1.46-3.05-2.54-4.35.92-.51,1.57-.81,2.13-1.08ZM233.6,70.45c.22.16.35.3.35.46s-.08.3-.3.49c-.41.35-.59.89-.81,1.38-1.16,2.75-2.56,5.21-4.08,7.18-1.78,2.27-3.27,3.7-5.56,5.21-.22.16-.43.3-.65.3-.13,0-.3-.05-.43-.19-.67-.54-1.3-.84-2.29-1.13,3.24-2.13,4.86-3.51,6.48-5.62,1.35-1.75,2.86-4.4,3.64-6.51.35-1,.51-1.59.62-2.86,1.13.35,2.35.84,3.02,1.3ZM224.23,68.8c.3-.13.49-.11.7.22.73.95,1.65,2.65,2.08,3.94.14.4.08.54-.27.73-.51.3-1.11.57-1.86.84-.3.11-.4-.03-.54-.41-.62-1.59-1.24-2.89-2.27-4.32,1.08-.51,1.7-.81,2.16-1Z"/><path class="cls-3" d="M246.49,70.01c3.29,1.03,5.91,2.08,8.59,3.67.3.16.43.35.3.7-.35.89-.78,1.73-1.16,2.35-.11.19-.22.3-.35.3-.08,0-.19-.03-.3-.13-2.48-1.59-4.91-2.78-7.1-3.46v5.97c0,1.76.05,3.35.11,5.29.03.32-.11.41-.49.41-.78.05-1.62.05-2.4,0-.38,0-.51-.08-.51-.41.08-2,.11-3.59.11-5.32v-13.28c0-2.03-.08-2.92-.27-4,1.24.08,2.59.22,3.38.43.38.08.51.24.51.46,0,.16-.08.38-.22.62-.19.35-.19,1.03-.19,2.54v3.86Z"/><path class="cls-3" d="M258.62,60.43c5.18,3.78,7.32,7.88,7.32,13.2s-2.13,9.42-7.32,13.2l-.7-.84c4.48-3.7,6.08-7.61,6.08-12.37s-1.59-8.67-6.08-12.37l.7-.84Z"/><path class="cls-3" d="M291.07,67.34c-.62,4.59-1.75,8.8-3.38,11.64-1.16,2.03-2.56,3.11-4.59,3.11-2.38,0-4.78-2.54-4.78-6.94,0-2.59,1.11-5.08,3.05-7.02,2.27-2.27,5.13-3.46,8.77-3.46,6.48,0,10.29,4,10.29,9.37,0,5.02-2.83,8.18-8.32,9.83-.57.16-.81.05-1.16-.49-.3-.46-.86-1.08-1.89-1.7,4.56-1.08,8.15-2.97,8.15-8.07,0-3.21-2.43-6.26-6.05-6.26h-.11ZM283.32,69.96c-1.3,1.46-2.11,3.27-2.11,5,0,2.48,1,3.86,1.84,3.86.7,0,1.3-.35,2.03-1.65,1.19-2.19,2.4-6.08,2.86-9.67-1.89.38-3.4,1.13-4.62,2.46Z"/><path class="cls-3" d="M84.78,104.8c1.57,0,1.89-.08,2.24-.24.13-.08.27-.13.38-.13.16,0,.32.08.46.22.73.65,1.35,1.32,1.94,2.16.14.22.22.4.22.59,0,.22-.11.41-.35.57-.57.4-.94.65-1.3,1.03-2.32,2.57-4.83,5.08-7.26,7.24.86.86,1.59,1.7,2.38,2.7.14.16.19.27.19.4s-.08.27-.24.43c-.54.54-1.13,1.11-1.76,1.59-.13.08-.24.13-.35.13s-.22-.08-.32-.24c-2.62-3.38-5.35-6.02-8.67-8.4.54-.51,1.46-1.38,1.94-1.81.11-.08.22-.14.3-.14.11,0,.22.08.38.19,1.4,1.03,2.7,1.97,3.83,3.02,2.27-1.97,4.24-4.05,6.24-6.37l-11.37.05c-1.57,0-3.56.05-5.02.19-.35,0-.43-.16-.49-.49-.16-.95-.27-1.89-.32-2.89,1.84.19,4.02.19,5.89.19h11.07Z"/><path class="cls-3" d="M95.69,107.85c.13-.19.27-.32.51-.27,2.02.67,3.65,1.54,5.18,2.65.19.13.3.24.3.41,0,.08-.05.19-.11.3-.3.73-.76,1.43-1.19,2.05-.13.16-.24.27-.35.27s-.19-.05-.32-.16c-1.73-1.27-3.48-2.16-5.45-2.94.68-1.08,1.11-1.86,1.43-2.29ZM100.07,117.87c2.56-1.35,4.78-2.62,7.4-4.67,2.16-1.65,5.05-4.24,7.78-7.53.16,1.19.38,1.86.78,3.02.08.19.13.35.13.51,0,.22-.08.41-.3.62-2.51,2.7-4.21,4.19-6.86,6.24-2.35,1.78-4.86,3.32-8.07,5.08-.65.35-1.3.65-1.57.92-.16.16-.3.22-.43.22-.19,0-.38-.11-.54-.32-.57-.57-1.3-1.62-2-2.75,1.13-.22,2.08-.51,3.67-1.32ZM98.96,101.64c.19-.32.35-.38.67-.22,1.73.7,3.59,1.7,5.08,3,.16.11.22.24.22.35s-.03.22-.11.35c-.38.67-.92,1.54-1.38,2.02-.08.13-.19.16-.27.16-.13,0-.27-.08-.4-.19-1.4-1.16-3.51-2.54-5.24-3.32.46-.7.97-1.46,1.43-2.16Z"/><path class="cls-3" d="M122.88,102.97c.11-.13.24-.22.38-.22.11,0,.22.05.35.13,1.38.73,3.62,2.38,5.16,3.83.16.16.24.27.24.38s-.05.22-.16.35c-.41.54-1.3,1.62-1.67,2.03-.13.13-.22.22-.32.22s-.22-.08-.35-.22c-1.62-1.67-3.56-3.21-5.51-4.4.59-.73,1.38-1.57,1.89-2.11ZM125.23,117.19c3.29-1.7,5.05-2.83,7.78-5.02,3.29-2.67,5.1-4.4,7.4-7.34.16,1.35.41,2.27.76,3.16.08.19.13.35.13.51,0,.24-.13.46-.43.81-1.43,1.67-3.75,3.83-6.21,5.72-2.24,1.76-4.51,3.27-8.15,5.29-1.21.73-1.57,1-1.81,1.24-.16.16-.32.27-.49.27-.14,0-.3-.11-.46-.3-.68-.76-1.51-1.86-2.16-3,1.38-.38,2.21-.62,3.65-1.35Z"/><path class="cls-3" d="M151.03,109.74c2.38-.78,4.43-1.57,6.59-2.62,1.46-.7,2.13-1.13,2.89-1.94.94.78,1.84,1.89,2.24,2.43.32.38.3.84-.24.97-.76.19-1.51.57-2.24.89-2.67,1.21-5.7,2.29-9.26,3.35v3.59c0,1.27.19,1.7.89,1.92.7.19,1.75.3,3.4.3,2.54,0,4.81-.19,7.61-.62.41-.05.46.05.49.38.08.76.16,1.78.16,2.35,0,.35-.16.46-.57.49-3.05.38-4.62.49-8.02.49-2.4,0-4-.24-5.13-.73-1.35-.57-1.92-1.84-1.92-4.05v-9.96c0-2.57-.05-3.59-.27-4.94,1.27.13,2.54.3,3.4.54.59.13.49.59.24,1-.22.43-.27,1.16-.27,2.43v3.75ZM168.23,103.72c0,1.62-1.3,2.89-2.92,2.89s-2.92-1.27-2.92-2.89,1.3-2.89,2.92-2.89,2.92,1.27,2.92,2.89ZM163.72,103.72c0,.92.68,1.59,1.59,1.59s1.59-.67,1.59-1.59-.67-1.59-1.59-1.59-1.59.67-1.59,1.59Z"/><path class="cls-3" d="M177.32,110.04c-1.35,0-2.7.03-4.05.11-.24,0-.35-.16-.41-.51-.16-.67-.22-1.67-.3-2.73,1.54.16,3.19.22,4.97.22h9.26c.46,0,1-.05,1.43-.3.13-.11.24-.16.35-.16.13,0,.27.08.41.19.65.51,1.38,1.19,1.81,1.67.19.19.27.38.27.57,0,.16-.08.35-.3.51-.43.35-.62.65-.92,1.27-2.7,5.75-5.8,9.13-11.02,11.93-.22.11-.38.19-.54.19-.19,0-.38-.11-.59-.32-.73-.65-1.59-1.05-2.51-1.4,4.99-2.32,9.4-6.05,11.34-11.26l-9.21.03ZM179.12,104.23c-1.21,0-2.56.03-3.7.11-.27,0-.35-.16-.38-.59-.08-.57-.13-1.76-.13-2.59,1.65.16,2.46.19,4.43.19h4.86c1.75,0,3.19-.08,4.24-.13.24,0,.32.13.32.43.05.67.05,1.43,0,2.11,0,.46-.08.57-.49.54-.89,0-2.16-.05-3.81-.05h-5.35Z"/><path class="cls-3" d="M209.82,110.85c-.16,3.02-.54,4.83-1.59,6.88-1.08,2.11-3.02,4.08-4.75,5.1-.3.19-.57.32-.81.32-.19,0-.38-.08-.57-.27-.54-.54-1.46-1.08-2.4-1.43,2.65-1.43,4.24-2.75,5.37-4.81,1-1.78,1.27-3.24,1.38-5.8h-5.13c-1.35,0-2.67.08-4.05.16-.24.03-.32-.16-.35-.51-.14-.76-.22-1.78-.22-2.59,1.51.14,3.02.14,4.59.14h12.12c2.11,0,3.67-.05,5.27-.16.27,0,.3.16.3.54.03.35.03,1.73,0,2.08,0,.35-.16.46-.41.46-1.4-.05-3.27-.11-5.13-.11h-3.62ZM204.47,104.59c-1.24,0-2.32.05-3.83.11-.35,0-.43-.13-.46-.46-.08-.65-.11-1.62-.19-2.59,1.89.11,3.27.13,4.48.13h6.05c1.51,0,3.21-.03,4.56-.11.27,0,.32.16.32.51.05.65.05,1.32,0,1.97,0,.38-.05.51-.35.51-1.46-.05-3.05-.08-4.54-.08h-6.05Z"/><path class="cls-3" d="M233.83,118.35c0,1.3.05,3.02.08,4.4.03.32-.14.46-.46.49-.7.05-1.49.05-2.19,0-.3-.03-.46-.16-.43-.49.03-1.54.08-2.89.08-4.32v-4.62c-1.84,1.54-4.21,3.19-5.59,3.89-.11.08-.24.11-.35.11-.19,0-.41-.11-.54-.27-.49-.57-1.21-1.11-1.94-1.35,4.24-2.21,7.91-5.05,11.2-8.77.62-.73,1.08-1.4,1.43-2.32.92.54,2.05,1.24,2.48,1.62.19.16.3.35.3.49,0,.19-.14.38-.41.51-.35.19-.97.84-1.21,1.11-.7.81-1.51,1.7-2.46,2.62v6.91Z"/><path class="cls-3" d="M257.75,103.13c.97,0,1.46-.03,1.86-.24.11-.08.19-.11.3-.11.16,0,.3.11.46.22.62.49,1.24,1.19,1.75,1.89.08.13.14.24.14.35,0,.16-.11.35-.35.54-.35.3-.7.7-1,1.19-1.11,1.89-2.16,3.4-3.46,5.05,2.59,1.92,5,4.02,7.48,6.53.13.13.22.27.22.38s-.05.24-.19.4c-.51.62-1.13,1.27-1.81,1.84-.11.11-.22.16-.32.16-.13,0-.24-.08-.38-.22-2.27-2.65-4.59-4.78-7.02-6.7-3.05,3.19-6.13,5.48-9.07,7.13-.24.11-.43.22-.62.22-.16,0-.32-.08-.46-.24-.59-.73-1.38-1.27-2.27-1.75,4.21-2.13,6.72-4.05,9.5-6.88,1.94-2.03,3.43-3.94,5.08-6.78l-6.97.03c-1.4,0-2.81.05-4.27.16-.22.03-.3-.16-.35-.46-.14-.57-.24-1.86-.24-2.81,1.46.11,2.81.11,4.56.11h7.42Z"/><path class="cls-3" d="M124.33,1.4c2.09,2.7,4.55,4.23,7.7,5.36-.34.41-.59.88-.77,1.37-.13.32-.18.47-.32.47-.09,0-.22-.07-.43-.16-.86-.38-1.69-.81-2.47-1.28v1.31c0,.18-.02.2-.18.2-.11,0-.68-.04-2.34-.04h-1.28v2.02h2.05c1.75,0,2.34-.04,2.45-.04.2,0,.22.02.22.2v1.37c0,.18-.02.2-.22.2-.11,0-.7-.04-2.45-.04h-2.05v2.2h4.28c1.64,0,2.21-.04,2.32-.04.18,0,.2.02.2.2v1.4c0,.18-.02.2-.2.2-.11,0-.68-.04-2.32-.04h-10.28c-1.66,0-2.23.04-2.34.04-.18,0-.2-.02-.2-.2v-1.4c0-.18.02-.2.2-.2.11,0,.68.04,2.34.04h4.07v-2.2h-1.82c-1.75,0-2.34.04-2.45.04-.18,0-.2-.02-.2-.2v-1.37c0-.18.02-.2.2-.2.11,0,.7.04,2.45.04h1.82v-2.02h-1.15c-1.66,0-2.21.04-2.32.04-.18,0-.2-.02-.2-.2v-1.17c-.7.45-1.42.86-2.2,1.24-.22.09-.34.16-.45.16-.13,0-.2-.13-.34-.45-.22-.49-.52-.9-.83-1.19,3.37-1.53,5.44-3.19,6.97-5.44.31-.45.54-.88.68-1.3.68.09,1.35.22,1.89.38.23.05.32.14.32.27,0,.11-.05.18-.18.27l-.18.14ZM125.51,6.95c1.24,0,1.85-.02,2.14-.02-1.71-1.12-3.19-2.45-4.32-4.05-1.15,1.6-2.54,2.93-4.14,4.05.32.02.92.02,1.96.02h4.36Z"/><path class="cls-3" d="M136.79,8.82c-1.64,0-2.2.04-2.3.04-.16,0-.18-.02-.18-.2v-1.3c0-.18.02-.2.18-.2.11,0,.67.04,2.3.04h2.61c.32-.83.5-1.44.67-2.05.07-.27.11-.52.14-.9.49.09,1.1.22,1.57.36.16.05.27.11.27.23s-.07.22-.14.29c-.11.11-.18.27-.23.41-.16.52-.34,1.03-.61,1.66,1.4,0,1.93-.04,2.03-.04.18,0,.2.02.2.2v1.3c0,.18-.02.2-.2.2-.11,0-.67-.04-2.29-.04h-4.01ZM137.12,3.98c-1.58,0-2.11.04-2.21.04-.18,0-.2-.02-.2-.2v-1.26c0-.2.02-.22.2-.22.11,0,.63.04,2.21.04h.81v-.32c0-.65-.02-1.08-.11-1.49.65.02,1.21.07,1.82.13.18.02.29.09.29.16,0,.13-.05.22-.13.36-.05.13-.07.34-.07.86v.31h.92c1.57,0,2.09-.04,2.2-.04.18,0,.2.02.2.22v1.26c0,.18-.02.2-.2.2-.11,0-.63-.04-2.2-.04h-3.53ZM135.59,16.85c-.18,0-.2-.02-.2-.18,0-.13.04-.58.04-3.04v-1.3c0-1.4-.04-1.89-.04-2.02,0-.18.02-.2.2-.2.13,0,.59.04,2,.04h2.59c1.4,0,1.89-.04,2-.04.2,0,.22.02.22.2,0,.11-.04.61-.04,1.76v1.49c0,2.47.04,2.92.04,3.02,0,.2-.02.22-.22.22h-1.39c-.18,0-.2-.02-.2-.22v-.83h-3.42v.9c0,.16-.02.18-.2.18h-1.39ZM136.74,6.95c-.27.07-.29.04-.32-.18-.11-.67-.27-1.39-.5-1.98-.07-.2-.04-.2.2-.27l.99-.27c.22-.05.27-.04.34.14.22.56.45,1.3.58,1.98.04.2,0,.2-.22.27l-1.06.31ZM137.17,14.18h3.42v-2.47h-3.42v2.47ZM148.6,1.39c.22,0,.38-.02.45-.05.11-.04.18-.05.27-.05.14,0,.29.07.76.54.38.43.43.59.43.74s-.07.23-.16.32c-.13.09-.22.25-.38.67-.52,1.39-1.03,2.61-1.64,3.91,1.84,1.66,2.2,2.74,2.2,4.21,0,1.87-1.06,2.86-3.17,3.06q-.56.05-.65-.54c-.09-.52-.27-.92-.5-1.19,1.69.04,2.5-.41,2.5-1.48,0-1.13-.41-2.02-2.32-3.78.74-1.53,1.31-3.02,1.85-4.72h-2.52v10.08c0,2.41.04,3.67.04,3.76,0,.18-.02.2-.2.2h-1.44c-.2,0-.22-.02-.22-.2,0-.11.04-1.3.04-3.74v-7.78c0-2.47-.04-3.67-.04-3.8,0-.18.02-.2.22-.2.11,0,.59.04,1.6.04h2.88Z"/><path class="cls-3" d="M159.12,9.54c-1.24.04-2.47.04-3.71-.07-.2,0-.27-.07-.29-.31-.07-.4-.11-1.12-.11-1.53,1.33.16,2.7.2,4.05.14-.02-.68-.02-1.39-.04-2.07-1.73.05-3.02.05-4.3-.09-.2,0-.29-.07-.31-.25-.05-.45-.09-.88-.13-1.62,1.57.18,3.13.18,4.72.18,0-.67-.02-1.13-.04-1.75-.04-.41-.07-.74-.22-1.21.95.05,1.73.16,2.27.32.22.07.32.32.2.54-.13.25-.25.56-.27.86-.02.36-.02.61-.04,1.15,1.67-.13,2.88-.32,3.94-.54.22-.05.29,0,.31.22.07.5.09.99.09,1.31,0,.23-.05.27-.2.29-1.28.22-2.43.36-4.16.47,0,.72.02,1.39.02,2.03,1.37-.09,2.23-.27,3.53-.47.22-.05.27-.02.29.14.02.34.05.94.05,1.48,0,.18-.07.23-.27.25-1.19.2-2.02.32-3.53.43.04.83.07,1.71.13,2.54,1.73.49,3.2,1.13,4.77,2.18.18.16.18.22.13.43-.13.34-.5,1.01-.79,1.33-.07.11-.14.14-.23.14-.05,0-.13-.02-.2-.09-1.1-.86-2.21-1.49-3.58-2.05-.02,1.94-1.19,2.74-3.65,2.74s-3.67-1.03-3.67-2.52,1.42-2.56,3.6-2.56c.45,0,.88,0,1.73.07-.04-.79-.07-1.53-.09-2.14ZM157.58,13.18c-1.31,0-1.94.38-1.94.95,0,.47.54.81,1.78.81.72,0,1.39-.22,1.64-.54.14-.2.2-.5.2-1.01-.52-.13-1.17-.22-1.67-.22Z"/><path class="cls-3" d="M175.11,1.59c.22.05.32.14.32.29,0,.25-.13.5-.13.76,0,.36.05.79.09,1.21.16,1.26.34,2.16.58,3.1.9-.49,1.55-.83,2.56-1.37.52-.31.95-.61,1.24-.97.58.59,1.04,1.22,1.31,1.69.07.11.13.25.13.38,0,.18-.11.32-.36.36-.54.09-1.15.31-1.73.54-1.55.63-2.99,1.3-4.23,2.11-1.57,1.03-2.12,1.87-2.12,2.72,0,1.06.79,1.51,2.86,1.51,2.27,0,4.1-.16,5.49-.41.2-.04.29,0,.32.22.09.49.14,1.13.18,1.67.02.2-.11.29-.32.31-1.64.22-3.08.27-5.36.27-3.4,0-5.2-1.12-5.2-3.46,0-2,1.31-3.31,3.42-4.64-.43-1.39-.76-3.01-.94-4.39-.13-.95-.25-1.58-.47-2.09.86,0,1.69.05,2.36.22Z"/><path class="cls-3" d="M194.08,2.74c.05-.4.09-.83.04-1.22.9.18,1.6.43,2.12.72.2.09.29.2.29.32,0,.09-.05.2-.13.31-.16.23-.25.4-.36.67-.11.29-.27.72-.5,1.44,2.84.45,4.81,2.36,4.81,5.22,0,3.2-1.94,5.13-5.53,6.01-.4.09-.52.04-.74-.31-.27-.43-.68-.9-1.17-1.19,2.45-.5,5.38-1.62,5.38-4.75,0-1.82-1.26-3.2-3.24-3.4-.88,2.14-1.67,3.76-2.63,5.26.2.27.43.59.77.92-.47.56-.77.88-1.12,1.1-.07.05-.16.09-.25.09s-.16-.04-.25-.11c-.14-.14-.29-.29-.49-.52-1.17,1.24-2.03,1.71-3.01,1.71-1.37,0-2.36-1.12-2.36-2.92s.83-3.6,2.56-5.17c-.2-.68-.38-1.58-.56-2.38-.18-.7-.29-1.19-.54-1.69.86.04,1.55.13,2.03.29.29.07.34.2.34.52,0,.29,0,.56.07,1.03.09.52.14.85.25,1.28,1.01-.54,2.45-.92,3.67-1.03.2-.58.36-1.24.52-2.2ZM187.59,11.9c0,.61.25,1.1.63,1.1.54,0,1.12-.4,1.87-1.31-.52-1.01-.95-2-1.24-2.92-.79.94-1.26,2.09-1.26,3.13ZM191.33,10.21c.61-.99,1.13-2.14,1.71-3.64-.85.11-1.91.49-2.72,1.01.23.86.61,1.89,1.01,2.63Z"/><path class="cls-3" d="M211.2,4.75c-2.2.41-4.12.79-6.05,1.19-.68.16-.86.2-1.13.29-.13.05-.25.14-.4.14-.13,0-.27-.11-.34-.27-.23-.49-.43-1.12-.67-1.94.92-.04,1.46-.11,2.86-.31,2.21-.32,6.17-.92,10.82-1.53.27-.04.36.07.38.2.09.41.18,1.08.2,1.58,0,.22-.11.27-.34.27-.85.05-1.42.14-2.2.4-3.06,1.04-4.59,3.15-4.59,5.31,0,2.32,1.66,3.58,4.79,3.78.29,0,.4.07.4.27,0,.47-.07,1.1-.2,1.55-.05.27-.13.38-.34.38-3.17,0-6.64-1.82-6.64-5.56,0-2.56,1.28-4.28,3.46-5.71v-.04Z"/><path class="cls-3" d="M99.06,36.62c0,.81.04,1.69.04,2.41,0,.67-.07,1.13-.45,1.49-.34.27-.77.36-1.94.38-.56,0-.56.02-.68-.54-.11-.43-.23-.81-.45-1.15.63.05,1.12.07,1.55.07.32-.02.47-.14.47-.58v-2.5h-3.6c-.16,1.98-.5,3.22-1.06,4.34-.13.23-.2.34-.29.34-.07,0-.14-.07-.25-.2-.36-.45-.7-.74-1.03-.95.94-1.73,1.24-3.37,1.24-6.89v-2.43l-.14.16c-.14.16-.23.25-.31.25-.09,0-.16-.13-.29-.36-.23-.41-.47-.7-.7-.92,1.1-1.13,1.93-2.47,2.43-3.78.18-.43.29-.81.34-1.22.52.09,1.15.23,1.51.36.2.05.29.14.29.25,0,.13-.05.2-.14.29-.13.13-.23.29-.38.61h1.76c.16,0,.25-.02.34-.05.07-.04.13-.07.23-.07.09,0,.2.05.59.38.38.29.45.41.45.52,0,.13-.04.2-.2.32-.11.09-.23.25-.36.5-.23.49-.47.94-.7,1.33,1.06,0,1.44-.04,1.55-.04.2,0,.22.02.22.2,0,.11-.04.77-.04,2.09v5.38ZM95.64,28.99c.29-.52.52-.99.76-1.57h-1.78c-.27.52-.59,1.06-.94,1.57h1.96ZM95.13,34.82v-1.57h-1.03c0,.56-.02,1.1-.04,1.57h1.06ZM95.13,31.87v-1.51h-1.03v1.51h1.03ZM96.56,30.35v1.51h1.03v-1.51h-1.03ZM97.58,34.82v-1.57h-1.03v1.57h1.03ZM103.04,32.46c0-.5-.02-.88-.11-1.39.59.02,1.22.05,1.73.11.16.02.23.07.23.18s-.05.22-.09.31c-.05.14-.09.36-.09.79v.47c1.78,0,2.41-.04,2.52-.04.18,0,.2.02.2.2v1.21c0,.2-.02.22-.2.22-.11,0-.74-.04-2.52-.04v1.67h.81c1.57,0,2.09-.04,2.2-.04.18,0,.2.02.2.2v1.24c0,.2-.02.22-.2.22-.11,0-.63-.04-2.2-.04h-.81v.72c0,1.49.04,2.23.04,2.32,0,.18-.02.2-.2.2h-1.33c-.2,0-.22-.02-.22-.2,0-.11.04-.83.04-2.32v-.72h-1.04c-1.57,0-2.11.04-2.21.04-.18,0-.2-.02-.2-.22v-1.24c0-.18.02-.2.2-.2.11,0,.65.04,2.21.04h1.04v-1.67h-1.67c-.13.32-.27.61-.4.9-.14.27-.22.4-.32.4-.09,0-.22-.07-.41-.22-.29-.16-.67-.32-1.01-.43.52-.85.9-1.69,1.21-2.66.11-.41.16-.67.18-.97.56.13.92.23,1.35.38.2.07.29.13.29.22,0,.11-.02.14-.05.2-.11.14-.14.23-.23.56l-.04.09h1.12v-.47ZM99.71,25.64c0-.18.02-.2.2-.2.11,0,.59.04,2.09.04h3.04c1.48,0,1.98-.04,2.09-.04.18,0,.23.05.22.22l-.04.9c-.07,1.73-.14,2.59-.45,3.29-.27.61-.94.9-1.69.9-.31,0-.56,0-.95-.04-.49-.05-.54-.05-.58-.47-.05-.5-.16-.92-.34-1.26.49.09.9.14,1.28.14.52,0,.67-.09.77-.45.13-.41.16-.95.2-1.69h-1.98c-.34,1.96-1.15,3.15-2.7,4.12-.2.13-.31.2-.4.2-.11,0-.18-.11-.34-.36-.25-.38-.58-.68-.88-.9,1.58-.77,2.29-1.6,2.56-3.06-1.33,0-1.8.04-1.89.04-.18,0-.2-.02-.2-.2v-1.19Z"/><path class="cls-3" d="M110.69,29.53c.14-.18.2-.18.36-.09.88.49,1.87,1.21,2.68,1.94.07.07.11.11.11.14,0,.05-.04.11-.11.22l-.81,1.15c-.05.09-.09.13-.14.13-.04,0-.09-.04-.16-.11-.77-.76-1.76-1.53-2.66-2.07-.09-.05-.14-.09-.14-.13,0-.05.05-.13.13-.22l.76-.97ZM110.92,38.31c.58-1.01,1.21-2.38,1.85-4.14.25.27.63.63.99.92.29.22.41.32.41.47,0,.11-.04.22-.13.41-.58,1.4-1.15,2.77-1.76,3.96-.14.29-.27.52-.31.68-.04.14-.11.23-.23.23-.11,0-.22-.04-.34-.11-.47-.25-.94-.58-1.46-1.01.41-.47.63-.83.97-1.42ZM111.53,24.97c.14-.18.2-.18.36-.09.88.54,1.73,1.26,2.54,2,.07.05.11.11.11.14,0,.05-.04.11-.11.22l-.83,1.12c-.07.11-.13.16-.18.16-.04,0-.07-.04-.14-.11-.77-.77-1.73-1.58-2.56-2.12-.09-.05-.13-.09-.13-.14,0-.04.04-.09.13-.2l.81-.97ZM116.16,25.28c.23-.11.29-.11.4.05.61.85,1.12,1.78,1.53,2.81.07.18.07.22-.18.32l-1.21.56c-.25.11-.27.11-.34-.07-.38-1.08-.86-1.98-1.48-2.83-.13-.16-.07-.22.14-.32l1.13-.52ZM124.71,36.62c0,.9.02,1.89.02,2.43,0,.68-.04,1.12-.45,1.48-.31.25-.83.41-2.34.43-.58,0-.59,0-.7-.54-.11-.54-.29-.99-.47-1.3.65.04,1.03.05,1.49.05s.59-.11.59-.47v-1.49h-5.53v1.31c0,1.53.04,2.25.04,2.34,0,.18-.02.2-.2.2h-1.48c-.18,0-.2-.02-.2-.2,0-.11.04-.81.04-2.39v-6.16c0-1.58-.04-2.3-.04-2.43,0-.18.02-.2.2-.2.13,0,.7.04,2.34.04h1.08v-2.65c0-1.04-.02-1.8-.13-2.52.68.02,1.35.05,1.94.13.18.02.27.11.27.18,0,.14-.04.23-.11.4-.07.2-.09.56-.09,1.53v2.93h1.21c1.66,0,2.21-.04,2.34-.04.18,0,.2.02.2.2,0,.11-.04.95-.04,2.59v4.14ZM117.33,31.36v1.42h5.53v-1.42h-5.53ZM122.85,35.72v-1.46h-5.53v1.46h5.53ZM123.38,25.89c.11-.29.18-.5.23-.79.56.22,1.22.52,1.66.76.16.09.23.16.23.25,0,.07-.05.14-.14.22-.14.11-.22.22-.31.38-.38.76-.74,1.4-1.19,2.14-.18.27-.25.38-.36.38-.09,0-.22-.07-.43-.2-.36-.22-.76-.4-1.13-.52.61-.88,1.06-1.73,1.44-2.61Z"/><path class="cls-3" d="M132.48,25.76c.31.07.43.16.43.34,0,.2-.11.41-.18.59-.09.25-.16.81-.25,2.2-.18,2.77-.27,4.61-.27,6.97,0,1.82.22,2.23,1.66,2.23,1.6,0,4.1-.97,6.3-3.31.07.68.23,1.28.41,1.71.09.2.14.32.14.43,0,.16-.07.31-.36.56-1.94,1.78-4.48,2.7-6.82,2.7s-3.38-.92-3.38-3.67c0-3.02.16-5.62.25-7.78.04-1.06.09-2.21-.18-3.29.83.09,1.69.18,2.25.32Z"/><path class="cls-3" d="M150.57,28.75c-2.2.41-4.12.79-6.05,1.19-.68.16-.86.2-1.13.29-.13.05-.25.14-.4.14-.13,0-.27-.11-.34-.27-.23-.49-.43-1.12-.67-1.94.92-.04,1.46-.11,2.86-.31,2.21-.32,6.17-.92,10.82-1.53.27-.04.36.07.38.2.09.41.18,1.08.2,1.58,0,.22-.11.27-.34.27-.85.05-1.42.14-2.2.4-3.06,1.04-4.59,3.15-4.59,5.31,0,2.32,1.66,3.58,4.79,3.78.29,0,.4.07.4.27,0,.47-.07,1.1-.2,1.55-.05.27-.13.38-.34.38-3.17,0-6.64-1.82-6.64-5.56,0-2.56,1.28-4.28,3.46-5.71v-.04Z"/><path class="cls-3" d="M167.65,26.39c.09.07.14.22.14.29,0,.16-.09.27-.25.34-.22.11-.49.27-.86.63-1.55,1.39-3.53,3.24-4.91,4.68-.16.2-.23.31-.23.4,0,.11.07.2.23.32,2.34,1.69,4.77,3.65,6.7,5.67.07.09.13.16.13.23s-.04.13-.13.22c-.41.45-.94.97-1.24,1.24-.11.09-.18.14-.25.14s-.13-.05-.22-.16c-2.09-2.34-4.1-4.21-6.55-6.08-.68-.52-.95-.92-.95-1.51s.32-.99.88-1.58c1.53-1.66,3.02-3.15,4.57-4.84.49-.52.76-.9.97-1.35.79.47,1.48.94,1.98,1.37Z"/><path class="cls-3" d="M176.48,26.85c0-.67-.04-1.21-.18-1.75.76.07,1.51.16,2.05.34.29.07.38.18.38.36,0,.11-.05.22-.13.34-.09.16-.13.38-.16.88-.04.59-.05.97-.09,1.8.25.13.5.27.68.4.11.07.16.16.16.25,0,.05-.04.13-.09.2-.34.56-.65,1.12-.94,1.71v.09c.58-.65.97-1.06,1.67-1.75,1.42-1.35,2.41-1.76,3.26-1.76,1.35,0,2.16.9,2.16,2.39,0,.52-.02,1.62-.14,3.28-.09,1.66-.18,2.47-.18,3.02,0,.9.22,1.03.67,1.03.4,0,.88-.27,1.33-.65.27-.23.63-.63,1.08-1.51.23.65.38.97.67,1.35.13.16.2.27.2.41,0,.09-.04.18-.13.31-.76,1.06-1.91,2.07-3.46,2.07s-2.3-.88-2.3-2.75c0-.49.05-1.49.14-3.02.09-1.58.13-2.18.13-2.95s-.2-1.19-.56-1.19c-.52,0-1.13.38-2.02,1.17-.74.72-1.58,1.57-2.52,2.65.02,2.27.07,4.86.07,6.82,0,.16-.07.25-.25.25-.23.04-.94.07-1.4.07-.18,0-.25-.09-.25-.31,0-1.64,0-3.53.05-5.15-.7,1.1-1.42,2.21-2.09,3.24-.07.13-.13.18-.2.18-.05,0-.13-.04-.22-.09-.29-.18-.86-.68-1.12-1.01-.07-.07-.11-.13-.11-.2,0-.11.07-.22.16-.31,1.49-1.91,2.43-3.19,3.53-4.73,0-.45,0-.79.02-1.22-.61.16-1.49.43-2.16.72-.16.07-.34.25-.52.25-.14,0-.27-.11-.36-.29-.25-.41-.45-.95-.7-1.66.5-.02.81-.07,1.31-.16.61-.14,1.62-.4,2.54-.68v-2.45Z"/><path class="cls-3" d="M197.11,32.1c1.01-.58,1.85-.81,2.86-.81,2.63,0,4.46,1.73,4.46,4.32,0,3.01-2.43,4.93-6.28,4.93-2.27,0-3.64-.97-3.64-2.65,0-1.21,1.13-2.2,2.54-2.2,1.69,0,2.93.9,3.38,2.63,1.26-.58,1.84-1.37,1.84-2.74,0-1.64-1.15-2.72-2.83-2.72-1.49,0-3.15.67-4.61,1.91-.52.47-1.03.99-1.57,1.53-.13.13-.22.2-.31.2-.07,0-.16-.05-.27-.16-.38-.32-.77-.79-1.06-1.17-.11-.14-.05-.27.09-.41,1.4-1.13,2.65-2.29,4.27-3.98,1.12-1.15,1.96-2.05,2.79-3.08-1.08.2-2.36.45-3.47.68-.23.05-.47.11-.76.22-.09.04-.27.09-.36.09-.18,0-.31-.09-.4-.31-.22-.41-.38-.92-.63-1.94.54.07,1.13.07,1.67.04,1.1-.11,2.68-.34,4.09-.61.45-.09.81-.18.99-.27.09-.05.25-.14.34-.14.18,0,.29.05.41.14.54.41.9.77,1.21,1.15.14.16.2.29.2.43,0,.18-.11.34-.31.43-.31.14-.45.27-.79.58-1.31,1.28-2.52,2.54-3.89,3.85l.02.05ZM197.13,37.23c-.52,0-.86.31-.86.68,0,.56.49.94,1.57.94.32,0,.56-.02.83-.07-.23-.99-.77-1.55-1.53-1.55Z"/><path class="cls-3" d="M216.77,28.61c-.41,3.06-1.17,5.87-2.25,7.76-.77,1.35-1.71,2.07-3.06,2.07-1.58,0-3.19-1.69-3.19-4.63,0-1.73.74-3.38,2.03-4.68,1.51-1.51,3.42-2.3,5.85-2.3,4.32,0,6.86,2.66,6.86,6.25,0,3.35-1.89,5.45-5.54,6.55-.38.11-.54.04-.77-.32-.2-.31-.58-.72-1.26-1.13,3.04-.72,5.44-1.98,5.44-5.38,0-2.14-1.62-4.18-4.03-4.18h-.07ZM211.6,30.35c-.86.97-1.4,2.18-1.4,3.33,0,1.66.67,2.57,1.22,2.57.47,0,.86-.23,1.35-1.1.79-1.46,1.6-4.05,1.91-6.44-1.26.25-2.27.76-3.08,1.64Z"/><path class="cls-3" d="M230.92,27.31c.09-.54.18-1.24.18-2,.94.2,1.44.32,2.16.59.18.05.29.2.29.36,0,.09-.04.18-.13.27-.18.23-.27.43-.36.68-.23.74-.41,1.4-.65,2.16.49-.05,1.03-.07,1.44-.07,1.67,0,2.57,1.17,2.57,3.47,0,1.94-.36,4.34-.97,5.63-.52,1.15-1.39,1.69-2.43,1.69-.86,0-1.48-.09-1.87-.27-.22-.09-.32-.23-.32-.5-.05-.58-.09-1.08-.34-1.67.81.38,1.51.47,2.07.47.59,0,.86-.22,1.15-.95.38-1.01.7-2.72.7-4.48,0-1.26-.23-1.66-1.03-1.66-.43,0-.99.05-1.51.13-1.19,3.46-2.21,5.94-3.62,8.46-.11.23-.25.27-.47.16-.32-.16-1.03-.59-1.24-.79-.09-.09-.14-.16-.14-.27,0-.05.02-.13.07-.2,1.44-2.5,2.38-4.41,3.29-7.06-.7.11-1.28.22-1.76.31-.47.09-.76.2-.99.29-.25.09-.47.05-.58-.23-.16-.41-.36-1.06-.56-1.85.79,0,1.58-.05,2.38-.13.76-.07,1.42-.16,2.12-.27.29-1.03.41-1.66.54-2.27ZM238.05,28.52c.13-.07.22-.04.34.09,1.22,1.15,2.32,2.65,2.99,4.37.07.16.05.25-.07.36-.31.29-.99.72-1.35.9-.18.09-.36.07-.41-.14-.72-1.89-1.66-3.44-2.95-4.66.45-.31.97-.67,1.46-.92ZM238.54,26c.09-.07.16-.05.27.04.56.43,1.21,1.15,1.71,1.93.07.11.07.2-.05.29l-.76.56c-.13.09-.22.07-.31-.05-.54-.83-1.12-1.51-1.82-2.09l.95-.67ZM240.14,24.83c.11-.07.16-.05.27.04.67.5,1.31,1.22,1.71,1.85.07.11.09.22-.05.32l-.72.56c-.14.11-.23.05-.31-.05-.49-.77-1.06-1.46-1.8-2.07l.9-.65Z"/><path class="cls-3" d="M25.97,297.99c-.18,0-.2-.02-.2-.2,0-.32.09-3.89.13-8.17-.47,1.44-1.15,2.83-2.03,4.12-.13.18-.22.27-.29.27s-.13-.09-.18-.29c-.16-.58-.4-1.13-.65-1.53,1.26-1.48,2.25-3.29,2.93-5.47h-.41c-1.31,0-1.75.04-1.85.04-.18,0-.2-.02-.2-.2v-1.31c0-.18.02-.2.2-.2.11,0,.54.04,1.85.04h.58v-1.12c0-1.12-.02-1.69-.14-2.45.65.02,1.22.05,1.8.13.18.02.29.09.29.18,0,.16-.05.25-.11.38-.09.22-.13.5-.13,1.75v1.13c1.33,0,1.76-.04,1.87-.04.18,0,.2.02.2.2v1.31c0,.18-.02.2-.2.2-.11,0-.52-.04-1.76-.04.52,1.22,1.46,2.43,2.38,3.44-.25.38-.47.83-.68,1.39-.09.2-.14.29-.2.29-.07,0-.14-.09-.25-.25-.58-.83-1.06-1.71-1.4-2.68.02,4.77.13,8.57.13,8.89,0,.18-.02.2-.2.2h-1.46ZM30.65,297.9c-.18,0-.2-.02-.2-.18,0-.11.04-1.3.04-6.8v-3.55c0-3.56-.04-4.75-.04-4.88,0-.18.02-.2.2-.2.13,0,.67.04,2.21.04h3.46c1.55,0,2.09-.04,2.2-.04.18,0,.2.02.2.2,0,.11-.04,1.31-.04,4.28v4.12c0,5.47.04,6.66.04,6.77,0,.16-.02.18-.2.18h-1.48c-.16,0-.18-.02-.18-.18v-.83h-4.54v.88c0,.16-.02.18-.22.18h-1.46ZM32.32,286.61h4.54v-2.56h-4.54v2.56ZM36.86,290.81v-2.5h-4.54v2.5h4.54ZM36.86,295.11v-2.61h-4.54v2.61h4.54Z"/><path class="cls-3" d="M45.64,292.88c-1.73,0-2.32.04-2.43.04-.18,0-.2-.02-.2-.22v-1.12c0-.18.02-.2.2-.2.09,0,.54.04,1.71.04v-1.62h-.65c-1.58,0-2.12.04-2.23.04-.16,0-.18-.02-.18-.22v-1.19c0-.18.02-.2.18-.2.11,0,.65.04,2.23.04h.65v-1.53c-1.17.02-1.62.04-1.71.04-.18,0-.2-.02-.2-.2v-1.19c0-.16.02-.18.2-.18.11,0,.7.04,2.43.04h3.29v-1.31c-1.55.11-3.11.18-4.52.22-.58,0-.59-.04-.74-.54-.11-.29-.31-.68-.54-.95,2.2.02,3.98-.07,5.89-.22,1.71-.13,3.15-.34,4.54-.61.47-.09.77-.18,1.15-.34.47.32.97.79,1.26,1.13.11.14.16.2.16.34,0,.13-.11.22-.29.22-.34,0-.61.05-1.01.13-1.22.2-2.72.36-4.09.49v1.46h3.62c1.73,0,2.32-.04,2.43-.04.18,0,.2.02.2.18v1.19c0,.18-.02.2-.2.2-.11,0-.59-.02-1.87-.04v1.53h.7c1.58,0,2.12-.04,2.23-.04.16,0,.18.02.18.2v1.19c0,.2-.02.22-.18.22-.11,0-.65-.04-2.23-.04h-.7v1.62c1.24,0,1.75-.04,1.84-.04.18,0,.2.02.2.2v1.12c0,.2-.02.22-.2.22-.11,0-.7-.04-2.43-.04h-2.41c1.73,1.44,4.03,2.36,6.55,2.93-.32.34-.58.81-.77,1.28-.14.34-.2.49-.38.49-.09,0-.2-.04-.4-.11-2.32-.81-4.57-2.07-6.23-3.83,0,2.21.13,3.94.13,4.21,0,.18-.02.2-.22.2h-1.57c-.16,0-.18-.02-.18-.2,0-.27.11-1.96.13-4.18-1.6,1.69-3.87,2.97-6.03,3.8-.22.09-.34.14-.45.14-.14,0-.22-.13-.36-.45-.22-.47-.47-.83-.76-1.15,2.47-.65,4.63-1.66,6.3-3.13h-2.05ZM48.93,288.27v-1.53h-2.27v1.53h2.27ZM48.93,291.42v-1.62h-2.27v1.62h2.27ZM53.16,288.27v-1.53h-2.41v1.53h2.41ZM53.16,291.42v-1.62h-2.41v1.62h2.41Z"/><path class="cls-3" d="M63.64,289.98c.18-.16.23-.18.38-.07.45.34.9.72,1.35,1.12l.22-.52c.2-.52.34-1.03.4-1.58.49.16,1.22.45,1.58.67.18.09.23.16.23.27s-.07.23-.2.34c-.16.16-.23.4-.38.77-.16.45-.34.86-.54,1.28.58.58,1.1,1.17,1.6,1.8.13.13.13.18-.04.34l-.9.97c-.09.09-.14.14-.2.14s-.11-.05-.16-.13c-.36-.5-.77-1.03-1.22-1.53-.92,1.37-2.11,2.56-3.58,3.55-.22.14-.32.22-.41.22-.13,0-.2-.13-.38-.41-.23-.38-.54-.68-.81-.9,1.76-.99,3.06-2.25,3.98-3.73-.56-.56-1.13-1.08-1.69-1.55-.14-.11-.13-.16.02-.31l.76-.74ZM62.65,286.86c.11-.23.2-.5.31-.88.45.18,1.17.45,1.48.65.18.09.27.18.27.29s-.07.16-.2.27c-.11.09-.27.36-.4.59-.47.83-1.03,1.64-1.84,2.5-.2.18-.31.29-.4.29s-.18-.11-.32-.32c-.25-.4-.67-.68-.92-.86.97-.83,1.57-1.64,2.02-2.52ZM63.46,285.62c-1.57,0-2.09.04-2.2.04-.18,0-.2-.02-.2-.2v-1.3c0-.2.02-.22.2-.22.11,0,.63.04,2.2.04h.95v-.59c0-.79,0-1.28-.11-1.91.67.02,1.21.05,1.8.13.2.02.31.09.31.18,0,.14-.07.25-.13.38-.09.22-.09.5-.09,1.22v.59h.74c1.57,0,2.09-.04,2.2-.04.18,0,.2.02.2.22v1.3c0,.18-.02.2-.2.2-.11,0-.63-.04-2.2-.04h-3.47ZM67.41,286.13c.2-.09.23-.09.32.07.52,1.03,1.31,2.12,2.27,3.08-.32.2-.67.47-.97.77-.2.2-.31.31-.4.31-.11,0-.2-.11-.38-.34-.77-.95-1.53-2.12-2.05-3.11-.09-.18-.05-.22.14-.31l1.06-.47ZM73.13,287.28c-.16,2.02-.47,3.73-.92,5.06-.72,2.11-1.8,3.76-3.6,5.26-.23.18-.34.27-.45.27-.09,0-.18-.09-.36-.32-.32-.43-.67-.7-1.03-.9,1.82-1.15,3.11-2.9,3.8-4.91.36-1.08.63-2.61.77-4.45-1.3,0-1.75.04-1.84.04-.2,0-.22-.02-.22-.2v-1.31c0-.18.02-.2.22-.2.09,0,.54.04,1.93.04.02-.49.04-.99.04-1.51,0-1.12-.04-1.67-.14-2.54.67.02,1.22.05,1.85.11.18.04.27.11.27.22,0,.13-.07.31-.13.49-.05.23-.09.68-.09,1.78,0,.5-.02.99-.04,1.46h1.26c1.46,0,1.94-.04,2.05-.04.16,0,.2.04.2.22-.02.63-.04,1.15-.04,1.71,0,3.08-.16,6.08-.5,8.21-.22,1.4-.9,1.96-2.27,1.96-.38,0-.74,0-1.1-.04q-.5-.02-.61-.61c-.07-.45-.2-.86-.41-1.24.65.11,1.26.14,1.73.14.56,0,.79-.2.94-1.12.27-1.73.45-4.57.45-7.56h-1.76Z"/><path class="cls-3" d="M81.95,292.35c-1.6,0-2.14.04-2.25.04-.2,0-.22-.02-.22-.22v-1.28c0-.18.02-.2.22-.2.11,0,.65.04,2.25.04h4.48v-1.31h-2.12c-1.73,0-2.36.04-2.48.04-.18,0-.2-.02-.2-.2,0-.11.04-.61.04-1.78v-3.2c0-1.17-.04-1.67-.04-1.8,0-.18.02-.2.2-.2.13,0,.76.04,2.48.04h6.37c1.75,0,2.38-.04,2.5-.04.18,0,.2.02.2.2,0,.11-.04.63-.04,1.8v3.2c0,1.17.04,1.69.04,1.78,0,.18-.02.2-.2.2-.13,0-.76-.04-2.5-.04h-2.39v1.31h4.79c1.6,0,2.14-.04,2.25-.04.18,0,.2.02.2.2v1.28c0,.2-.02.22-.2.22-.11,0-.65-.04-2.25-.04h-3.65c1.57,1.49,3.83,2.57,6.46,3.31-.31.32-.59.79-.81,1.24-.16.32-.22.45-.36.45-.11,0-.23-.05-.43-.13-2.41-.88-4.41-2.2-6.05-4.12,0,2.34.13,4.32.13,4.72,0,.18-.02.2-.2.2h-1.58c-.2,0-.22-.02-.22-.2,0-.4.11-2.32.13-4.64-1.51,1.84-3.51,3.17-5.74,4.09-.22.09-.34.14-.43.14-.13,0-.2-.11-.34-.43-.22-.41-.52-.83-.86-1.15,2.47-.77,4.48-1.82,6.07-3.47h-3.22ZM86.44,285.21v-1.4h-2.95v1.4h2.95ZM86.44,288v-1.39h-2.95v1.39h2.95ZM88.29,283.8v1.4h3.24v-1.4h-3.24ZM91.53,286.61h-3.24v1.39h3.24v-1.39Z"/><path class="cls-3" d="M103.29,284.24c.09-.54.18-1.24.18-2,.94.2,1.44.32,2.16.59.18.05.29.2.29.36,0,.09-.04.18-.13.27-.18.23-.27.43-.36.68-.23.74-.41,1.4-.65,2.16.49-.05,1.03-.07,1.44-.07,1.67,0,2.57,1.17,2.57,3.47,0,1.94-.36,4.34-.97,5.63-.52,1.15-1.39,1.69-2.43,1.69-.86,0-1.48-.09-1.87-.27-.22-.09-.32-.23-.32-.5-.05-.58-.09-1.08-.34-1.67.81.38,1.51.47,2.07.47.59,0,.86-.22,1.15-.95.38-1.01.7-2.72.7-4.48,0-1.26-.23-1.66-1.03-1.66-.43,0-.99.05-1.51.13-1.19,3.46-2.21,5.94-3.62,8.46-.11.23-.25.27-.47.16-.32-.16-1.03-.59-1.24-.79-.09-.09-.14-.16-.14-.27,0-.05.02-.13.07-.2,1.44-2.5,2.38-4.41,3.29-7.06-.7.11-1.28.22-1.76.31-.47.09-.76.2-.99.29-.25.09-.47.05-.58-.23-.16-.41-.36-1.06-.56-1.85.79,0,1.58-.05,2.38-.13.76-.07,1.42-.16,2.12-.27.29-1.03.41-1.66.54-2.27ZM110.42,285.44c.13-.07.22-.04.34.09,1.22,1.15,2.32,2.65,2.99,4.37.07.16.05.25-.07.36-.31.29-.99.72-1.35.9-.18.09-.36.07-.41-.14-.72-1.89-1.66-3.44-2.95-4.66.45-.31.97-.67,1.46-.92ZM110.9,282.92c.09-.07.16-.05.27.04.56.43,1.21,1.15,1.71,1.93.07.11.07.2-.05.29l-.76.56c-.13.09-.22.07-.31-.05-.54-.83-1.12-1.51-1.82-2.09l.95-.67ZM112.5,281.75c.11-.07.16-.05.27.04.67.5,1.31,1.22,1.71,1.85.07.11.09.22-.05.32l-.72.56c-.14.11-.23.05-.31-.05-.49-.77-1.06-1.46-1.8-2.07l.9-.65Z"/><path class="cls-3" d="M122.79,298.02c-.18,0-.2-.02-.2-.2,0-.11.02-.67.04-1.78-1.44.31-3.22.63-4.68.85-.29.04-.56.13-.65.18-.07.04-.18.11-.29.11s-.2-.11-.25-.29c-.16-.49-.25-.92-.36-1.44.63-.02,1.13-.05,1.69-.13.11,0,.22-.02.32-.04v-5.65c-1.22.02-1.69.04-1.78.04-.18,0-.2-.02-.2-.2v-1.13c0-.18.02-.2.2-.2.11,0,.63.04,2.2.04h11.56c1.57,0,2.09-.04,2.2-.04.16,0,.18.02.18.2v1.13c0,.18-.02.2-.18.2-.11,0-.63-.04-2.2-.04h-6.1v6.03c0,1.39.04,2.05.04,2.16,0,.18-.02.2-.2.2h-1.33ZM127.86,282.18c1.78,0,2.41-.04,2.52-.04.18,0,.2.02.2.22,0,.11-.04.5-.04,1.48v1.89c0,.97.04,1.37.04,1.48,0,.2-.02.22-.2.22-.11,0-.74-.04-2.52-.04h-6.55c-1.78,0-2.39.04-2.52.04-.18,0-.2-.02-.2-.22,0-.11.04-.5.04-1.48v-1.89c0-.97-.04-1.37-.04-1.48,0-.2.02-.22.2-.22.13,0,.74.04,2.52.04h6.55ZM122.63,290.59v-.95h-2.54v.95h2.54ZM122.63,292.68v-.94h-2.54v.94h2.54ZM122.63,293.83h-2.54v1.24c.85-.13,1.73-.25,2.54-.4v-.85ZM120.41,284.27h8.35v-.76h-8.35v.76ZM128.76,285.35h-8.35v.77h8.35v-.77ZM129.99,290.7c.11,0,.23-.04.32-.07.09-.04.18-.07.27-.07.13,0,.22.04.63.41.43.41.49.54.49.67,0,.14-.05.23-.18.32-.14.09-.27.31-.49.76-.4.79-.86,1.53-1.46,2.18.88.56,1.94.95,3.19,1.22-.2.29-.45.68-.63,1.15-.18.49-.22.49-.68.34-1.21-.38-2.21-.9-3.08-1.55-.79.61-1.69,1.15-2.72,1.58-.18.07-.29.13-.36.13-.13,0-.2-.13-.32-.41-.2-.43-.41-.77-.67-1.03,1.15-.34,2.11-.79,2.9-1.35-.7-.79-1.3-1.75-1.76-2.88-.29.02-.41.02-.47.02-.18,0-.2-.02-.2-.22v-1.04c0-.18.02-.2.2-.2.11,0,.56.04,1.98.04h3.04ZM127.07,292.08c.34.72.77,1.35,1.31,1.87.5-.54.92-1.17,1.24-1.87h-2.56Z"/><path class="cls-3" d="M137.6,284.6c-1.62,0-2.18.04-2.29.04-.18,0-.2-.02-.2-.2v-1.26c0-.18.02-.2.2-.2.11,0,.67.04,2.29.04h4.37v-.05c0-.59-.02-1.06-.13-1.49.67,0,1.3.04,1.91.09.18.02.29.09.29.18,0,.13-.07.22-.13.36-.04.14-.07.38-.07.86v.05h4.61c1.62,0,2.18-.04,2.29-.04.18,0,.2.02.2.2v1.26c0,.18-.02.2-.2.2-.11,0-.67-.04-2.29-.04h-10.85ZM150.28,293.83c0,.97.04,1.73.04,2.29,0,.49-.07.97-.43,1.3-.32.29-.74.38-2.03.38-.56,0-.58-.04-.67-.56-.07-.43-.22-.88-.38-1.19.54.05.77.07,1.15.07.29,0,.45-.13.45-.5v-3.94h-10.76v4.03c0,1.33.04,1.94.04,2.03,0,.18-.02.2-.2.2h-1.55c-.18,0-.2-.02-.2-.2,0-.11.04-.65.04-2.03v-3.49c0-1.26-.04-1.8-.04-1.91,0-.18.02-.2.2-.2.13,0,.72.04,2.43.04h9.32c1.71,0,2.3-.04,2.43-.04.18,0,.2.02.2.2,0,.11-.04.74-.04,2.05v1.48ZM145.2,285.48c1.64,0,2.21-.04,2.32-.04.18,0,.2.02.2.2,0,.13-.04.4-.04,1.17v1.1c0,.74.04,1.03.04,1.13,0,.18-.02.2-.2.2-.11,0-.68-.04-2.32-.04h-4.34c-1.64,0-2.21.04-2.32.04-.18,0-.2-.02-.2-.2,0-.11.04-.4.04-1.13v-1.1c0-.77-.04-1.04-.04-1.17,0-.18.02-.2.2-.2.11,0,.68.04,2.32.04h4.34ZM139.64,296.73c-.18,0-.2-.02-.2-.2,0-.13.04-.41.04-2.07v-.67c0-.68-.04-1.03-.04-1.13,0-.18.02-.2.2-.2.11,0,.58.04,1.94.04h2.81c1.35,0,1.82-.04,1.94-.04.18,0,.2.02.2.2,0,.11-.04.43-.04.95v.79c0,1.62.04,1.91.04,2.02,0,.18-.02.2-.2.2h-1.33c-.2,0-.22-.02-.22-.2v-.38h-3.65v.49c0,.18-.02.2-.2.2h-1.3ZM145.92,286.76h-5.8v1.19h5.8v-1.19ZM141.13,294.86h3.65v-1.15h-3.65v1.15Z"/><path class="cls-3" d="M162.15,285.53c-.41,3.06-1.17,5.87-2.25,7.76-.77,1.35-1.71,2.07-3.06,2.07-1.58,0-3.19-1.69-3.19-4.63,0-1.73.74-3.38,2.03-4.68,1.51-1.51,3.42-2.3,5.85-2.3,4.32,0,6.86,2.66,6.86,6.25,0,3.35-1.89,5.45-5.54,6.55-.38.11-.54.04-.77-.32-.2-.31-.58-.72-1.26-1.13,3.04-.72,5.44-1.98,5.44-5.38,0-2.14-1.62-4.18-4.03-4.18h-.07ZM156.99,287.28c-.86.97-1.4,2.18-1.4,3.33,0,1.66.67,2.57,1.22,2.57.47,0,.86-.23,1.35-1.1.79-1.46,1.6-4.05,1.91-6.44-1.26.25-2.27.76-3.08,1.64Z"/><path class="cls-3" d="M177.2,287.28c.16-.07.2-.07.29.11.52,1.04.92,2.12,1.19,3.22.05.22,0,.25-.2.34l-.86.34c-.25.09-.29.09-.34-.13l-.2-.79c-.41.05-.83.11-1.24.14v4.93c0,1.66.04,2.27.04,2.36,0,.18-.02.2-.2.2h-1.37c-.18,0-.2-.02-.2-.2,0-.11.04-.7.04-2.36v-4.81c-.52.05-1.03.09-1.51.13-.31.02-.54.07-.68.14-.11.05-.16.07-.27.07-.13,0-.2-.11-.23-.29-.09-.47-.14-.95-.2-1.53.52.05.92.07,1.4.05.34-.43.67-.86.97-1.3-.7-.95-1.49-1.87-2.36-2.7-.07-.07-.09-.13-.09-.16,0-.07.05-.13.13-.23l.67-.88c.14-.18.2-.2.32-.05l.47.49c.38-.61.77-1.33,1.08-2.02.16-.36.23-.59.32-.95.52.2,1.06.41,1.49.65.16.09.23.18.23.29s-.07.18-.16.23c-.14.09-.22.2-.34.43-.54.95-.95,1.69-1.57,2.54.27.29.52.59.77.9.45-.68.85-1.39,1.24-2.09.2-.38.36-.72.5-1.13.49.18,1.06.43,1.49.67.16.09.22.14.22.25,0,.13-.05.2-.2.29-.18.13-.29.29-.56.7-.95,1.51-1.91,2.9-2.77,4.03.72-.04,1.44-.07,2.16-.13-.14-.38-.29-.74-.45-1.1-.07-.16-.05-.22.16-.31l.81-.36ZM171.92,292.84c.04-.4.05-.72.04-1.15.58.09,1.04.18,1.39.29.22.07.31.14.31.22,0,.11-.02.18-.09.27-.05.09-.11.36-.14.67-.13,1.01-.29,2.21-.59,3.24-.09.29-.13.43-.23.43-.09,0-.22-.09-.41-.22-.23-.14-.77-.4-.99-.47.4-.95.65-2.05.74-3.28ZM177.34,291.74c.22-.07.25-.05.31.13.36.94.56,1.96.76,3.19.04.18.04.23-.22.32l-.9.31c-.27.09-.31.07-.32-.13-.14-1.3-.31-2.34-.63-3.29-.05-.18-.04-.2.18-.27l.83-.25ZM181.12,289.39c-1.57,0-2.11.04-2.21.04-.18,0-.2-.02-.2-.2v-1.26c0-.18.02-.2.2-.2.11,0,.65.04,2.21.04h.68v-2.11h-1.13c-1.67,0-2.23.04-2.34.04-.18,0-.2-.02-.2-.2v-1.28c0-.18.02-.2.2-.2.11,0,.67.04,2.34.04h1.13v-.52c0-.88,0-1.4-.11-2.03.67.02,1.22.05,1.84.13.18.02.31.07.31.2,0,.11-.04.2-.11.32-.07.18-.11.56-.11,1.35v.56h1.53c1.66,0,2.23-.04,2.32-.04.2,0,.22.02.22.2v1.28c0,.18-.02.2-.22.2-.09,0-.67-.04-2.32-.04h-1.53v2.11h1.04c1.55,0,2.09-.04,2.2-.04.18,0,.2.02.2.2v1.26c0,.18-.02.2-.2.2-.11,0-.65-.04-2.2-.04h-3.55ZM179.14,297.92c-.18,0-.2-.02-.2-.2,0-.11.04-.58.04-3.08v-1.42c0-1.42-.04-1.93-.04-2.03,0-.2.02-.22.2-.22.13,0,.63.04,2.14.04h3.1c1.51,0,2.02-.04,2.14-.04.18,0,.2.02.2.22,0,.11-.04.61-.04,1.78v1.64c0,2.48.04,2.95.04,3.06,0,.16-.02.18-.2.18h-1.44c-.18,0-.2-.02-.2-.18v-.76h-4.14v.81c0,.18-.02.2-.2.2h-1.4ZM180.74,295.34h4.14v-2.77h-4.14v2.77Z"/><path class="cls-3" d="M192.42,292.35c-1.6,0-2.14.04-2.25.04-.2,0-.22-.02-.22-.22v-1.28c0-.18.02-.2.22-.2.11,0,.65.04,2.25.04h4.48v-1.31h-2.12c-1.73,0-2.36.04-2.48.04-.18,0-.2-.02-.2-.2,0-.11.04-.61.04-1.78v-3.2c0-1.17-.04-1.67-.04-1.8,0-.18.02-.2.2-.2.13,0,.76.04,2.48.04h6.37c1.75,0,2.38-.04,2.5-.04.18,0,.2.02.2.2,0,.11-.04.63-.04,1.8v3.2c0,1.17.04,1.69.04,1.78,0,.18-.02.2-.2.2-.13,0-.76-.04-2.5-.04h-2.39v1.31h4.79c1.6,0,2.14-.04,2.25-.04.18,0,.2.02.2.2v1.28c0,.2-.02.22-.2.22-.11,0-.65-.04-2.25-.04h-3.65c1.57,1.49,3.83,2.57,6.46,3.31-.31.32-.59.79-.81,1.24-.16.32-.22.45-.36.45-.11,0-.23-.05-.43-.13-2.41-.88-4.41-2.2-6.05-4.12,0,2.34.13,4.32.13,4.72,0,.18-.02.2-.2.2h-1.58c-.2,0-.22-.02-.22-.2,0-.4.11-2.32.13-4.64-1.51,1.84-3.51,3.17-5.74,4.09-.22.09-.34.14-.43.14-.13,0-.2-.11-.34-.43-.22-.41-.52-.83-.86-1.15,2.47-.77,4.48-1.82,6.07-3.47h-3.22ZM196.9,285.21v-1.4h-2.95v1.4h2.95ZM196.9,288v-1.39h-2.95v1.39h2.95ZM198.75,283.8v1.4h3.24v-1.4h-3.24ZM201.99,286.61h-3.24v1.39h3.24v-1.39Z"/><path class="cls-3" d="M218.06,293.97c0,.2-.11.29-.34.32-.23.04-.77.09-1.28.09-.16,0-.23-.11-.23-.29,0-.65,0-1.55.02-2.2-1.6.83-2.18,1.53-2.18,2.39,0,.76.61,1.24,2.5,1.24,1.66,0,3.1-.16,4.48-.36.16-.02.23.04.25.2.09.41.16,1.04.16,1.48.02.22-.05.34-.2.34-1.55.2-2.72.23-4.46.23-2.95,0-4.52-.88-4.52-2.97,0-1.73,1.08-2.99,3.8-4.39-.05-.92-.27-1.28-1.08-1.24-.85.04-1.66.58-2.48,1.3-.77.76-1.22,1.28-1.8,1.96-.09.11-.14.16-.22.16-.05,0-.13-.05-.2-.13-.25-.25-.79-.81-1.03-1.19-.05-.07-.07-.13-.07-.16,0-.07.04-.13.13-.2,1.39-1.24,2.72-2.66,3.76-4.46-.85.04-1.82.05-2.88.05-.16,0-.22-.09-.25-.29-.05-.29-.13-.95-.18-1.49,1.37.07,2.77.05,4.14-.02.2-.49.36-.92.54-1.55.07-.31.13-.61.13-1.1.79.13,1.58.32,2.05.5.14.05.22.18.22.31,0,.09-.04.2-.13.27-.11.09-.22.25-.31.43-.11.25-.2.49-.41.97,1.1-.13,2.2-.31,3.28-.56.2-.04.25.02.29.18.09.36.16.77.18,1.3.02.18-.05.25-.31.29-1.35.2-2.9.4-4.21.54-.41.67-.81,1.33-1.35,2l.02.04c.58-.38,1.31-.56,1.8-.56,1.19,0,2.02.54,2.2,1.94.7-.32,1.73-.79,2.65-1.26.34-.18.92-.5,1.37-.97.59.63,1.06,1.26,1.26,1.58.11.16.14.29.14.4,0,.14-.09.22-.27.25-.38.05-.74.14-1.1.27-1.17.41-2.34.81-3.87,1.44v2.9Z"/><path class="cls-3" d="M229.03,297.11c-1.64,0-2.18.04-2.29.04-.18,0-.2-.02-.2-.2v-1.51c0-.18.02-.2.2-.2.11,0,.65.04,2.29.04h4.52v-3.28h-1.98c-1.76,0-2.38.04-2.48.04-.18,0-.2-.02-.2-.2v-1.46c0-.16.02-.18.2-.18.11,0,.72.04,2.48.04h1.98v-3.08h-3.78c-.43.88-.95,1.73-1.58,2.52-.16.22-.23.32-.34.32-.09,0-.2-.11-.4-.29-.34-.34-.79-.65-1.13-.81,1.33-1.55,2.23-3.28,2.9-5.26.13-.4.22-.83.25-1.19.59.11,1.24.29,1.75.43.2.05.32.14.32.27,0,.09-.05.18-.18.32-.11.11-.22.31-.34.68l-.43,1.19h2.97v-.94c0-1.28-.02-1.84-.14-2.74.7.02,1.44.05,2.03.13.18.02.29.11.29.2,0,.13-.04.23-.09.36-.09.23-.13.68-.13,2v.99h3.1c1.76,0,2.36-.04,2.47-.04.2,0,.22.02.22.2v1.48c0,.18-.02.2-.22.2-.11,0-.7-.04-2.47-.04h-3.1v3.08h2.25c1.76,0,2.38-.04,2.48-.04.18,0,.2.02.2.18v1.46c0,.18-.02.2-.2.2-.11,0-.72-.04-2.48-.04h-2.25v3.28h4.27c1.62,0,2.18-.04,2.29-.04.18,0,.2.02.2.2v1.51c0,.18-.02.2-.2.2-.11,0-.67-.04-2.29-.04h-10.75Z"/><path class="cls-3" d="M255.94,287.53c.04-.4.04-.74-.02-1.22.94.23,1.66.5,2.09.77.16.09.25.32.13.49-.11.23-.23.43-.29.7-.14.76-.32,1.55-.5,2.32,1.03.52,2.14,1.22,2.81,1.73.18.11.16.2.11.38-.18.43-.56,1.19-.77,1.55-.05.09-.11.13-.16.13-.07,0-.14-.05-.22-.13-.79-.68-1.51-1.21-2.36-1.69-.92,2.07-1.89,3.38-3.64,4.73-.16.13-.25.2-.36.2-.07,0-.14-.04-.27-.13-.49-.4-.94-.58-1.57-.74,2.25-1.57,3.35-3.06,4.03-4.88-.99-.5-2.27-.9-3.56-1.1-.95,1.98-1.48,2.88-2.2,3.6-.67.7-1.39.99-2.3.99-1.04,0-2.14-.72-2.14-2.47,0-2.23,2.3-3.98,5.31-3.98.59-1.49,1.04-2.75,1.49-4.27-.99.11-1.89.22-2.48.29-.25.04-.52.09-.81.2-.09.04-.22.07-.32.07-.14,0-.23-.07-.29-.2-.16-.36-.34-1.06-.52-1.96.54.11,1.04.13,1.58.11.86,0,1.76-.09,2.79-.23.45-.07.65-.16.88-.31.07-.05.16-.07.23-.07.09,0,.18.02.25.07.45.27.88.63,1.22.99.11.11.16.2.16.31s-.07.2-.18.31c-.27.25-.34.59-.49.94-.47,1.22-.97,2.63-1.51,3.92,1.13.14,2.2.41,3.49.9.18-.83.31-1.51.38-2.32ZM246.43,292.55c0,.58.2.83.63.83.34,0,.68-.23,1.04-.68.41-.52.85-1.24,1.31-2.2-1.84.07-2.99,1.03-2.99,2.05Z"/><path class="cls-3" d="M268.8,290.47c-1.24.04-2.47.04-3.71-.07-.2,0-.27-.07-.29-.31-.07-.4-.11-1.12-.11-1.53,1.33.16,2.7.2,4.05.14-.02-.68-.02-1.39-.04-2.07-1.73.05-3.02.05-4.3-.09-.2,0-.29-.07-.31-.25-.05-.45-.09-.88-.13-1.62,1.57.18,3.13.18,4.72.18,0-.67-.02-1.13-.04-1.75-.04-.41-.07-.74-.22-1.21.95.05,1.73.16,2.27.32.22.07.32.32.2.54-.13.25-.25.56-.27.86-.02.36-.02.61-.04,1.15,1.67-.13,2.88-.32,3.94-.54.22-.05.29,0,.31.22.07.5.09.99.09,1.31,0,.23-.05.27-.2.29-1.28.22-2.43.36-4.16.47,0,.72.02,1.39.02,2.03,1.37-.09,2.23-.27,3.53-.47.22-.05.27-.02.29.14.02.34.05.94.05,1.48,0,.18-.07.23-.27.25-1.19.2-2.02.32-3.53.43.04.83.07,1.71.13,2.54,1.73.49,3.2,1.13,4.77,2.18.18.16.18.22.13.43-.13.34-.5,1.01-.79,1.33-.07.11-.14.14-.23.14-.05,0-.13-.02-.2-.09-1.1-.86-2.21-1.49-3.58-2.05-.02,1.94-1.19,2.74-3.65,2.74s-3.67-1.03-3.67-2.52,1.42-2.56,3.6-2.56c.45,0,.88,0,1.73.07-.04-.79-.07-1.53-.09-2.14ZM267.25,294.1c-1.31,0-1.94.38-1.94.95,0,.47.54.81,1.78.81.72,0,1.39-.22,1.64-.54.14-.2.2-.5.2-1.01-.52-.13-1.17-.22-1.67-.22Z"/><path class="cls-3" d="M286.76,283.28c-.04-.52-.07-.77-.22-1.31.81.05,1.67.16,2.11.25.31.05.5.18.5.34,0,.14-.05.23-.16.41-.05.11-.11.29-.14.52-.02.23-.02.47-.04,1.15,1.94-.07,3.8-.09,5.53-.09.22,0,.25.04.27.27.02.45.02.92,0,1.37,0,.2-.09.25-.31.23-1.87-.05-3.62-.05-5.49-.04,0,1.1,0,2.25.02,3.35.18.49.27,1.19.27,1.78,0,2.09-.85,4.27-3.2,5.81-.31.2-.54.34-.7.34s-.36-.13-.54-.27c-.41-.34-.9-.58-1.37-.72,2.11-.94,3.37-2.45,3.69-3.96-.36.52-1.1.72-1.69.72-1.42,0-2.5-1.03-2.5-2.75s1.26-2.7,2.72-2.7c.54,0,1.08.11,1.37.36,0-.63-.02-1.24-.02-1.84-2.27.13-4.81.34-6.23.54-.4.05-.68.22-.85.22-.18,0-.25-.07-.31-.25-.14-.36-.31-1.08-.45-1.82.67.07,1.24,0,2.2-.07,1.1-.09,3.42-.23,5.58-.36-.02-.56-.02-1.01-.04-1.49ZM284.46,290.57c0,.79.5,1.22,1.15,1.22s1.22-.41,1.22-1.24c0-.74-.47-1.15-1.19-1.15-.56,0-1.19.38-1.19,1.17Z"/><path class="cls-3" d="M302.92,293.02h-1.82l-.5-10.71h2.81l-.49,10.71ZM303.26,294.77v2.43h-2.56v-2.43h2.56Z"/><line class="cls-4" x1="274.99" y1=".19" x2="257.32" y2="43.1"/><line class="cls-4" x1="57.52" y1=".19" x2="75.19" y2="43.1"/><path class="cls-3" d="M154.93,170.54l-5.66,5.6c-3.58-3.79-7.76-5.69-12.53-5.69-4.16,0-7.64,1.38-10.45,4.14-2.81,2.76-4.21,6.11-4.21,10.05s1.46,7.54,4.37,10.37c2.91,2.83,6.51,4.25,10.78,4.25,2.78,0,5.12-.58,7.03-1.75,1.91-1.17,3.45-3,4.62-5.49h-12.24v-7.55h21.26l.06,1.78c0,3.7-.96,7.2-2.87,10.51-1.92,3.31-4.4,5.84-7.44,7.58-3.04,1.74-6.62,2.61-10.71,2.61-4.39,0-8.3-.95-11.73-2.86-3.44-1.91-6.16-4.62-8.16-8.14-2-3.52-3-7.33-3-11.4,0-5.59,1.85-10.46,5.54-14.59,4.38-4.92,10.09-7.38,17.12-7.38,3.68,0,7.11.68,10.31,2.04,2.7,1.15,5.34,3.12,7.93,5.92Z"/><path class="cls-3" d="M183.51,163.64h8.16l16.25,42.25h-8.36l-3.31-8.7h-17.24l-3.44,8.7h-8.36l16.29-42.25ZM187.64,174.85l-5.67,14.51h11.3l-5.64-14.51Z"/><path class="cls-3" d="M220.73,163.64h20.97v7.84h-12.98v7.67h12.98v7.73h-12.98v19.02h-7.99v-42.25Z"/><path class="cls-3" d="M260.63,163.64h7.99v42.25h-7.99v-42.25Z"/><path class="cls-3" d="M285.85,163.64h23.35v7.93h-7.7v34.33h-8.16v-34.33h-7.5v-7.93Z"/><path class="cls-3" d="M118.35,216.14h6.28v1.22h-5.02v3.92h5.02v1.22h-5.02v6.16h-1.26v-12.52Z"/><path class="cls-3" d="M128.91,216.56c0,.54-.45.99-.99.99s-.98-.45-.98-.99.45-.98.98-.98.99.44.99.98ZM127.34,219.4h1.19v9.26h-1.19v-9.26Z"/><path class="cls-3" d="M132.92,215.95h1.19v3.45h1.9v1.05h-1.9v8.21h-1.19v-8.21h-1.64v-1.05h1.64v-3.45Z"/><path class="cls-3" d="M139.82,221.06c.96-1.26,2.11-1.9,3.47-1.9,2.02,0,3.44,1.4,3.44,4.31v5.2h-1.19v-5.04c0-2.18-.68-3.38-2.48-3.38-.99,0-1.81.44-2.44,1.26-.7.91-.8,1.81-.8,3.28v3.89h-1.19v-9.26h1.19v1.66Z"/><path class="cls-3" d="M150.93,224.13c.05,2.13,1.5,3.68,3.49,3.68s2.86-1.1,3.54-2.22l.99.52c-.94,1.85-2.39,2.77-4.41,2.77-3.07,0-4.83-2.35-4.83-4.83s1.87-4.9,4.76-4.9c2.63,0,4.76,1.9,4.8,4.97h-8.34ZM157.96,223.08c-.49-1.92-1.87-2.77-3.47-2.77s-2.89.89-3.44,2.77h6.91Z"/><path class="cls-3" d="M162.24,226.72c.59.66,1.24,1.03,1.94,1.03.91,0,1.71-.66,1.71-1.53,0-.54-.31-1.05-.77-1.29-2.13-1.19-3.21-1.69-3.21-3.31,0-1.47,1.13-2.46,2.55-2.46,1.01,0,1.78.49,2.56,1.26l-.77.78c-.56-.54-1.12-.89-1.87-.89s-1.4.54-1.4,1.24c0,.47.3.99.71,1.24,2.13,1.24,3.31,1.71,3.31,3.38,0,1.45-1.12,2.74-2.79,2.74-1.03,0-2.08-.47-2.74-1.32l.75-.86Z"/><path class="cls-3" d="M169.88,226.72c.59.66,1.24,1.03,1.94,1.03.91,0,1.71-.66,1.71-1.53,0-.54-.31-1.05-.77-1.29-2.13-1.19-3.21-1.69-3.21-3.31,0-1.47,1.13-2.46,2.55-2.46,1.01,0,1.78.49,2.56,1.26l-.77.78c-.56-.54-1.12-.89-1.87-.89s-1.4.54-1.4,1.24c0,.47.3.99.71,1.24,2.13,1.24,3.31,1.71,3.31,3.38,0,1.45-1.12,2.74-2.79,2.74-1.03,0-2.08-.47-2.74-1.32l.75-.86Z"/><path class="cls-3" d="M196.37,222.64c-.02,3.98-2.55,6.31-6.3,6.31-4.34,0-7.06-3.1-7.06-6.56s2.76-6.58,6.87-6.58c2.3,0,4.06.84,5.74,2.42l-.96.91c-1.41-1.38-3.12-2.11-4.74-2.11-3,0-5.6,2.3-5.6,5.32s2.42,5.44,5.79,5.44c2.37,0,4.5-1.41,4.85-3.94h-3.99v-1.22h5.41Z"/><path class="cls-3" d="M198.43,219.4h1.26l3.19,7.13,3.09-7.13h1.27l-5.53,12.65h-1.26l1.78-4.08-3.8-8.56Z"/><path class="cls-3" d="M217.13,228.66h-1.19v-4.74c0-.71-.07-1.31-.09-1.73-.05-1.01-.87-1.88-2.09-1.88-.82,0-1.64.4-2.16,1.08-.66.85-.78,1.95-.78,3.35v3.92h-1.19v-9.26h1.19v1.59c.82-1.19,1.85-1.83,3.17-1.83,1.41,0,2.42.73,2.93,2.23.82-1.48,2.04-2.23,3.4-2.23,1.92,0,3.16,1.38,3.16,4.01v5.49h-1.19v-5.06c0-.68-.09-1.22-.1-1.57-.05-.82-.84-1.73-2.09-1.73-1.15,0-2.16.7-2.63,1.88-.3.75-.33,1.57-.33,2.42v4.05Z"/><path class="cls-3" d="M236,228.96c-2.08,0-3.19-1.34-3.19-2.89,0-1.66,1.2-2.83,3-4.26-.99-1.19-1.6-1.99-1.6-2.95,0-1.32,1.24-2.25,2.77-2.25,1.62,0,2.74.98,2.74,2.27,0,1.06-.8,2.01-2.16,3.16,2.09,2.23,3.17,3.26,3.21,3.3.56-.47,1.1-.92,1.52-1.31l.84.91c-.44.38-.92.82-1.47,1.26.82.87,1.66,1.64,2.37,2.48h-1.74c-.85-.92-1.41-1.45-1.62-1.67-1.47,1.1-2.72,1.97-4.66,1.97ZM234.03,225.99c0,.89.84,1.81,2.09,1.81,1.15,0,2.3-.7,3.7-1.69-.89-.91-1.99-1.97-3.19-3.35-1.59,1.2-2.6,2.13-2.6,3.23ZM238.49,218.86c0-.61-.66-1.1-1.55-1.1-.75,0-1.52.42-1.52,1.12,0,.49.47,1.22,1.36,2.21,1.12-.87,1.71-1.66,1.71-2.23Z"/><path class="cls-3" d="M252.55,216.14h2.89c1.31,0,2.29.09,2.9.31,1.27.49,2.06,1.6,2.06,3.02,0,1.19-.56,2.18-1.45,2.74-.89.56-2.18.63-3.91.63h-1.24v5.83h-1.26v-12.52ZM253.81,217.36v4.26c.71.02,1.43,0,2.08,0,1.08,0,1.92-.07,2.48-.52.44-.35.73-.99.73-1.62s-.31-1.27-.79-1.64c-.56-.42-1.31-.47-2.28-.47h-2.22Z"/><path class="cls-3" d="M264.97,216.56c0,.54-.45.99-.99.99s-.98-.45-.98-.99.45-.98.98-.98.99.44.99.98ZM263.4,219.4h1.19v9.26h-1.19v-9.26Z"/><path class="cls-3" d="M267.75,215.82h1.19v12.84h-1.19v-12.84Z"/><path class="cls-3" d="M280.34,219.4h1.17v9.26h-1.17v-1.59c-1.01,1.22-2.28,1.81-3.73,1.81-2.7,0-4.74-2.25-4.74-4.88s2.09-4.85,4.78-4.85c1.5,0,2.77.65,3.7,1.94v-1.69ZM273.08,224.04c0,2.01,1.57,3.77,3.65,3.77,1.9,0,3.7-1.43,3.7-3.73,0-2.15-1.6-3.77-3.68-3.77s-3.66,1.74-3.66,3.73Z"/><path class="cls-3" d="M286.13,215.95h1.19v3.45h1.9v1.05h-1.9v8.21h-1.19v-8.21h-1.64v-1.05h1.64v-3.45Z"/><path class="cls-3" d="M292.64,224.13c.05,2.13,1.5,3.68,3.49,3.68s2.86-1.1,3.54-2.22l.99.52c-.94,1.85-2.39,2.77-4.41,2.77-3.07,0-4.83-2.35-4.83-4.83s1.87-4.9,4.76-4.9c2.63,0,4.76,1.9,4.8,4.97h-8.34ZM299.66,223.08c-.49-1.92-1.87-2.77-3.47-2.77s-2.89.89-3.44,2.77h6.91Z"/><path class="cls-3" d="M303.94,226.72c.59.66,1.24,1.03,1.94,1.03.91,0,1.71-.66,1.71-1.53,0-.54-.31-1.05-.77-1.29-2.13-1.19-3.21-1.69-3.21-3.31,0-1.47,1.13-2.46,2.55-2.46,1.01,0,1.78.49,2.56,1.26l-.77.78c-.56-.54-1.12-.89-1.87-.89s-1.4.54-1.4,1.24c0,.47.3.99.71,1.24,2.13,1.24,3.31,1.71,3.31,3.38,0,1.45-1.12,2.74-2.79,2.74-1.03,0-2.08-.47-2.74-1.32l.75-.86Z"/><path class="cls-3" d="M47.81,163.8h20.56c-3.65-3.89-9.15-6.36-17.38-6.36h-23.77c-5.26,0-8.94,2.19-8.94,9.21v42.98c0,7.02,3.68,9.21,8.94,9.21h1.72c-5.49-5.51-7.17-14.19-7.17-24.34,0-17.54,5-30.7,26.05-30.7Z"/><path class="cls-3" d="M78.5,195.15v20.83c0,7.02-3.68,9.21-8.95,9.21h-21.75c-4.11,0-7.6-.51-10.56-1.44,3.83,5.79,10.41,9.29,21.26,9.29h21.75c5.26,0,8.94-2.19,8.94-9.21v-28.68h-10.7Z"/><path class="cls-3" d="M53.25,215.99h9.3c.97,0,1.73-.07,2.33-.24.51-.32,1-.65,1.46-1.01.43-.68.59-1.67.59-3.13v-9.03h-8.62v-7.58h16.6c.2-2.26.28-4.57.28-6.85,0-5.17-.4-10.44-1.8-15.13h-20.15c-14.91,0-19.56,4.82-19.56,21.49s4.65,21.49,19.56,21.49Z"/><circle class="cls-3" cx="68.36" cy="394.93" r="68.36"/><circle class="cls-3" cx="268.93" cy="394.93" r="68.36"/><line class="cls-4" x1="157.88" y1="391.13" x2="175.07" y2="408.33"/><line class="cls-4" x1="157.88" y1="408.33" x2="175.07" y2="391.13"/><path class="cls-1" d="M52.33,392.09c1.28-1.37,2.31-3.12,3.09-5.25.15-.38.24-.76.27-1.15.65.18,1.15.35,1.51.51.17.08.26.17.26.27,0,.09-.06.18-.18.29-.1.09-.22.3-.35.64-.38.98-.7,1.75-.98,2.3v8.03l.03,2.43c0,.08-.01.14-.03.16-.02.02-.07.02-.14.02h-1.34c-.09,0-.14-.01-.16-.03-.02-.02-.02-.07-.02-.15l.03-2.43v-3.68c0-.75,0-1.32.02-1.71-.27.36-.57.74-.9,1.13-.1.14-.21.21-.3.21s-.16-.09-.2-.27c-.14-.52-.34-.96-.59-1.33ZM59.23,392.86l-2.2.03c-.08,0-.13-.01-.15-.03-.02-.03-.02-.08-.02-.16v-1.23c0-.09.01-.14.03-.16.02-.02.07-.02.14-.02l2.2.03h5.62l2.19-.03c.08,0,.14.01.16.03.02.02.02.07.02.15v1.23c0,.09,0,.14-.03.16-.02.02-.07.03-.15.03l-2.19-.03h-3.01c-.57,1.9-1.14,3.53-1.7,4.88,1.52-.17,2.88-.35,4.09-.55-.3-.53-.69-1.17-1.19-1.92-.04-.05-.05-.09-.05-.12,0-.06.06-.12.18-.18l.98-.46c.09-.04.15-.06.19-.06.05,0,.11.04.16.13,1.05,1.53,1.92,3.04,2.61,4.54.03.06.05.1.05.13,0,.07-.07.14-.22.2l-1.09.54c-.1.05-.17.08-.2.08-.04,0-.08-.05-.12-.14-.32-.72-.53-1.19-.62-1.39-2.05.38-4.27.71-6.67.99-.29.03-.48.08-.59.13-.15.08-.25.12-.3.12-.1,0-.19-.09-.24-.26-.12-.45-.24-.98-.35-1.6.28.01.51.02.7.02.32,0,.62-.01.88-.03.57-1.36,1.13-3.04,1.68-5.05h-.77ZM60.19,388.64l-2.07.03c-.09,0-.14-.01-.16-.03-.02-.02-.02-.07-.02-.14v-1.26c0-.08.01-.13.03-.15.02-.02.07-.02.16-.02l2.07.03h3.74l2.06-.03c.09,0,.15.01.16.03.02.02.03.07.03.14v1.26c0,.08-.01.13-.04.15-.02.02-.07.02-.16.02l-2.06-.03h-3.74Z"/><path class="cls-1" d="M69.38,398.73c.38-.9.6-1.87.67-2.91.04-.38.05-.64.05-.79,0-.08,0-.15,0-.2.54.07.94.13,1.22.2.18.04.27.1.27.19s-.03.16-.08.24c-.04.06-.08.25-.12.59-.12,1.17-.31,2.14-.55,2.93-.08.23-.15.35-.23.35-.08,0-.2-.05-.35-.16-.28-.19-.58-.34-.88-.43ZM81.75,389.51c.75.79,1.48,1.76,2.18,2.91.02.05.03.09.03.12,0,.06-.05.12-.16.18l-.95.5c-.1.05-.17.08-.21.08-.03,0-.06-.04-.11-.11-.15-.31-.3-.59-.45-.84-1.44.19-3.12.37-5.04.55-.35.03-.59.08-.72.15-.11.06-.19.09-.24.09-.07,0-.13-.07-.18-.21-.14-.44-.25-.94-.32-1.48.33.02.57.02.71.02.08,0,.18,0,.28,0,.5-.9.89-1.71,1.14-2.43h-.05l-2.09.03c-.11,0-.17-.05-.17-.16v-.58c-.05.04-.09.06-.12.06-.12.07-.29.29-.52.64-.75,1.18-1.56,2.33-2.45,3.47l1.69-.09c-.03-.07-.15-.38-.38-.93-.02-.04-.03-.08-.03-.1,0-.06.06-.11.19-.16l.7-.29c.06-.03.11-.04.14-.04.05,0,.1.05.15.15.41.87.76,1.81,1.04,2.83.01.04.02.08.02.1,0,.09-.07.16-.21.2l-.81.26c-.09.03-.15.04-.18.04-.05,0-.09-.05-.11-.16-.06-.32-.11-.56-.16-.7l-.85.09v4.4l.03,2.09c0,.09-.01.14-.03.16-.02.02-.07.02-.15.02h-1.22c-.08,0-.13-.01-.15-.03s-.02-.07-.02-.15l.03-2.09v-4.26l-1.31.1c-.27.02-.47.06-.61.12-.08.04-.16.06-.23.06-.09,0-.16-.09-.2-.26-.08-.43-.15-.89-.2-1.36.39.05.77.07,1.16.07.33-.43.67-.88,1.01-1.34-.63-.78-1.33-1.53-2.1-2.24-.06-.06-.09-.11-.09-.15,0-.03.04-.09.12-.2l.54-.79c.07-.09.12-.14.16-.14.03,0,.08.03.14.09l.37.37c.28-.45.57-.97.87-1.58.18-.38.31-.71.38-.99.68.28,1.14.48,1.38.62.14.09.21.17.21.25,0,.06-.05.13-.14.21-.11.08-.21.2-.3.37-.42.73-.89,1.44-1.41,2.12.33.35.57.62.72.8.33-.51.67-1.07,1.02-1.66.17-.31.33-.67.48-1.09.49.21.94.44,1.34.69l.13.09v-.24c0-.08.01-.13.03-.15.02-.02.07-.02.14-.02l2.09.03h.94v-.38c0-.58-.04-1.09-.11-1.54.6.02,1.17.05,1.7.11.17.02.26.08.26.16,0,.07-.03.18-.1.34-.05.1-.08.41-.08.93v.38h1.46l2.09-.03c.11,0,.16.06.16.17v1.14c0,.1-.05.16-.16.16l-2.09-.03h-2.3c-.33.82-.71,1.6-1.14,2.34,1.19-.09,2.18-.18,2.98-.29-.16-.22-.41-.54-.75-.95-.05-.06-.07-.1-.07-.14,0-.05.05-.1.15-.15l.84-.4c.08-.04.13-.05.16-.05.04,0,.09.03.16.1ZM74.85,394.76c.07-.02.12-.03.15-.03.05,0,.09.05.12.14.3.73.53,1.5.67,2.3.01.05.02.09.02.12,0,.08-.07.14-.2.19l-.82.27c-.08.03-.14.04-.17.04-.06,0-.1-.06-.12-.17-.1-.86-.28-1.66-.54-2.4-.02-.05-.02-.09-.02-.11,0-.06.06-.11.18-.14l.73-.21ZM74.13,399.21c1.24-.58,2.04-1.18,2.41-1.8.33-.56.49-1.43.49-2.61,0-.55-.02-1-.06-1.33.51.02.99.05,1.45.09.23.02.35.09.35.21,0,.02-.03.12-.08.3-.05.16-.08.45-.08.87-.01,1.4-.26,2.5-.75,3.3-.42.69-1.11,1.32-2.07,1.88-.21.11-.35.16-.4.16-.11,0-.24-.1-.38-.29-.25-.3-.54-.57-.88-.79ZM82.8,396.74c.2.15.53.29.99.41.18.05.29.1.33.15.04.05.06.14.06.27v.14c-.06.97-.24,1.62-.55,1.95-.28.3-.92.45-1.92.45-.66,0-1.14-.08-1.43-.24-.3-.17-.45-.53-.45-1.07v-3.82c0-.73-.03-1.27-.09-1.63.75.05,1.27.08,1.54.11.21.02.32.09.32.2,0,.02-.03.12-.09.32-.06.15-.09.55-.09,1.23v2.99c0,.2.04.32.12.35.1.07.27.1.5.1.27,0,.45-.08.55-.23.11-.16.18-.72.2-1.68Z"/><path class="cls-1" d="M35.89,413.81c1.48-.48,2.79-1,3.91-1.55.77-.38,1.34-.76,1.71-1.16.44.36.88.85,1.33,1.45.08.09.12.19.12.29,0,.15-.09.24-.27.28-.21.06-.66.23-1.33.53-1.52.69-3.35,1.35-5.5,1.98v2.12c0,.41.04.69.12.84.08.14.22.24.41.3.43.12,1.1.18,2.01.18,1.42,0,2.92-.12,4.52-.38.04,0,.07,0,.1,0,.11,0,.17.08.19.23.06.6.09,1.06.09,1.39,0,.18-.11.27-.34.29-1.55.19-3.14.29-4.75.29-1.36,0-2.38-.14-3.05-.43-.76-.32-1.13-1.12-1.13-2.41v-5.91c0-1.29-.05-2.26-.16-2.92.94.1,1.61.21,2.02.32.17.04.26.12.26.26,0,.09-.04.2-.12.33-.1.21-.16.7-.16,1.45v2.22ZM44.36,408.53c.52,0,.94.19,1.28.56.3.32.45.71.45,1.15,0,.52-.19.94-.57,1.27-.33.29-.71.44-1.16.44-.52,0-.95-.19-1.29-.56-.3-.32-.45-.71-.45-1.15,0-.53.19-.96.57-1.29.32-.28.71-.42,1.16-.42ZM44.35,409.3c-.29,0-.53.1-.71.3-.16.17-.23.39-.23.64,0,.29.1.53.3.71.18.16.39.23.64.23.3,0,.54-.1.72-.3.16-.17.23-.39.23-.64,0-.29-.1-.53-.3-.71-.18-.16-.39-.23-.65-.23Z"/><path class="cls-1" d="M48.8,412.22c.81.08,1.79.12,2.95.12h5.48c.36,0,.64-.06.85-.18.08-.06.15-.09.2-.09.07,0,.15.04.24.11.43.34.79.67,1.08.99.1.11.16.22.16.34s-.06.22-.18.3c-.2.17-.38.42-.54.75-.85,1.82-1.83,3.29-2.92,4.41-.96,1-2.17,1.88-3.61,2.66-.15.07-.26.11-.32.11-.1,0-.22-.06-.35-.19-.34-.31-.84-.59-1.48-.84,1.69-.78,3.11-1.75,4.27-2.91,1.12-1.12,1.94-2.38,2.45-3.76l-5.46.02c-.89,0-1.69.02-2.4.06-.12,0-.2-.1-.23-.3-.05-.21-.11-.75-.18-1.61ZM50.2,408.81c.76.07,1.64.11,2.62.11h2.88c.65,0,1.48-.03,2.51-.08.13,0,.2.08.2.25.02.21.02.42.02.62s0,.42-.02.62c0,.21-.08.32-.23.32h-.06l-2.26-.03h-3.16c-.88,0-1.61.02-2.2.06-.14,0-.21-.12-.23-.35-.05-.37-.08-.88-.08-1.53Z"/><path class="cls-1" d="M71.04,414.55c-.05.97-.15,1.77-.3,2.38-.14.57-.35,1.14-.64,1.7-.33.65-.78,1.27-1.36,1.86-.48.48-.96.87-1.45,1.16-.2.13-.36.2-.48.2-.12,0-.23-.05-.34-.16-.34-.34-.82-.63-1.43-.85.86-.46,1.54-.92,2.03-1.38.46-.43.85-.92,1.16-1.48.3-.54.51-1.09.62-1.65.09-.45.16-1.05.19-1.79h-3.04c-.51,0-1.31.03-2.4.09-.12.02-.19-.09-.21-.3-.08-.48-.12-.99-.12-1.53.6.05,1.5.08,2.72.08h7.19c1.14,0,2.18-.03,3.12-.09.11,0,.17.11.17.32.01.11.02.32.02.62s0,.5-.02.61c0,.18-.08.27-.23.27-1.13-.04-2.14-.06-3.04-.06h-2.15ZM65.22,409.1c.93.05,1.82.08,2.66.08h3.59c1.09,0,1.99-.02,2.7-.06.13,0,.2.1.2.3.02.2.02.39.02.58,0,.2,0,.39-.02.59,0,.2-.07.3-.21.3-.87-.03-1.76-.05-2.68-.05h-3.59c-.3,0-1.06.02-2.27.06-.17,0-.26-.09-.27-.27-.02-.15-.03-.4-.05-.75-.03-.36-.04-.62-.05-.78Z"/><path class="cls-1" d="M85.48,414.9v4.1c0,.1.02.97.05,2.61v.04c0,.15-.09.23-.27.25-.21.02-.43.02-.65.02s-.43,0-.64-.02c-.17-.02-.26-.1-.26-.25v-.04s.01-.48.03-1.39c.01-.46.02-.85.02-1.17v-2.73c-1.25,1.04-2.35,1.81-3.31,2.3-.06.04-.13.06-.21.06-.12,0-.23-.05-.32-.16-.33-.39-.71-.66-1.15-.8,2.53-1.32,4.74-3.06,6.64-5.2.39-.45.67-.91.84-1.38.76.45,1.25.77,1.47.96.12.1.18.2.18.29,0,.12-.08.22-.24.3-.17.09-.41.31-.72.66-.5.58-.98,1.09-1.45,1.55Z"/><path class="cls-1" d="M99.69,415.24c1.49,1.1,2.97,2.39,4.43,3.87.08.08.12.16.12.23s-.04.15-.11.23c-.34.41-.7.78-1.07,1.09-.07.06-.13.09-.2.09s-.14-.04-.23-.12c-1.2-1.41-2.59-2.73-4.16-3.97-1.67,1.75-3.46,3.15-5.38,4.23-.19.08-.32.12-.37.12-.1,0-.2-.05-.27-.14-.3-.37-.75-.72-1.34-1.05,1.29-.65,2.39-1.32,3.31-2.02.75-.56,1.52-1.25,2.32-2.06,1.14-1.18,2.14-2.52,3.01-4.02l-4.12.02c-.82,0-1.67.03-2.53.1-.1.01-.17-.08-.21-.27-.09-.4-.14-.96-.14-1.66.57.04,1.47.06,2.7.06h4.4c.56,0,.92-.05,1.1-.15.06-.04.12-.06.18-.06.05,0,.14.04.27.12.34.27.69.65,1.04,1.12.05.09.08.16.08.2,0,.11-.07.22-.21.32-.22.19-.41.43-.59.71-.6,1.02-1.28,2.01-2.05,2.99Z"/><path class="cls-1" d="M253.18,388.74c.54-.02,1.04-.05,1.5-.11.06,0,.16-.01.29-.03v-5.02c-.46,0-.86.01-1.22.02-.24,0-.36,0-.37,0-.08,0-.13-.01-.15-.03s-.02-.07-.02-.15v-1.01c0-.08.01-.13.03-.15s.07-.02.14-.02l1.95.03h10.27l1.95-.03c.11,0,.16.06.16.17v1.01c0,.12-.05.18-.16.18l-1.95-.03h-5.42v5.36l.03,1.92c0,.08-.01.13-.03.15s-.07.02-.14.02h-1.19c-.08,0-.14-.01-.16-.03-.02-.02-.02-.07-.02-.14,0-.01,0-.18.02-.52,0-.34.01-.7.02-1.07-1.4.3-2.78.55-4.16.75-.26.04-.45.09-.58.16-.13.06-.22.09-.26.09-.1,0-.17-.09-.22-.26-.1-.29-.21-.72-.32-1.28ZM263.38,376.95l2.23-.03c.09,0,.14.01.16.04.02.02.02.07.02.16l-.03,1.3v1.68l.03,1.3c0,.09-.01.15-.03.17-.02.02-.07.02-.15.02l-2.23-.03h-5.83l-2.23.03c-.09,0-.14-.01-.16-.04-.02-.02-.02-.07-.02-.16l.03-1.3v-1.68l-.03-1.3c0-.09.01-.15.03-.17.02-.02.07-.02.15-.02l2.23.03h5.83ZM256.47,384.42h2.25v-.84h-2.25v.84ZM256.47,386.28h2.25v-.84h-2.25v.84ZM258.72,388.05v-.75h-2.25v1.1c1.14-.17,1.89-.28,2.25-.35ZM256.75,378.14v.66h7.42v-.66h-7.42ZM264.18,380.45v-.69h-7.42v.69h7.42ZM260.21,389.52c1-.3,1.86-.7,2.58-1.2-.64-.72-1.16-1.57-1.57-2.56-.17.01-.31.02-.41.02-.08,0-.14-.01-.16-.04-.02-.02-.02-.07-.02-.16v-.92c0-.09.01-.14.04-.16.02-.02.06-.02.14-.02l1.76.03h2.7c.09,0,.18-.02.29-.06.11-.04.19-.06.24-.06.1,0,.29.12.56.37.29.28.43.47.43.59s-.05.21-.16.29c-.1.06-.25.29-.43.67-.38.76-.81,1.41-1.3,1.94.76.48,1.71.84,2.84,1.09-.25.36-.44.71-.56,1.02-.09.25-.19.38-.29.38-.05,0-.16-.02-.32-.07-1.03-.33-1.94-.79-2.73-1.38-.75.57-1.55,1.04-2.41,1.41-.19.07-.29.11-.32.11-.09,0-.18-.12-.29-.37-.18-.4-.38-.7-.59-.91ZM263.84,387.41c.44-.47.81-1.03,1.1-1.66h-2.27c.32.66.71,1.22,1.17,1.66Z"/><path class="cls-1" d="M272.2,383.06l-1.97.03c-.1,0-.16-.06-.16-.17v-1.16c0-.11.05-.17.16-.17l1.97.03h2.06c.21-.41.41-.91.61-1.52.06-.17.09-.41.11-.7.22.04.47.1.77.17.37.1.58.15.62.16.13.04.2.12.2.23,0,.09-.04.17-.12.24-.09.07-.17.2-.24.37-.2.45-.37.8-.5,1.05l1.73-.03c.08,0,.13.01.15.03s.02.07.02.14v1.16c0,.08-.01.13-.03.15-.02.02-.07.02-.14.02l-1.97-.03h-.73c-.03.08-.04.37-.04.88v.29h.55l1.92-.03c.08,0,.13.01.15.03s.02.07.02.14v1.13c0,.09-.01.14-.03.16-.02.02-.07.02-.14.02l-1.92-.03h-.11c.6.7,1.29,1.26,2.05,1.68-.2.27-.39.61-.56,1.02-.07.17-.13.26-.19.26-.08,0-.19-.08-.34-.23-.53-.46-1-1.01-1.43-1.66,0,.89.03,1.82.05,2.78.02.73.03,1.15.03,1.27,0,.08-.01.14-.04.16-.02.02-.07.02-.16.02h-1.27c-.08,0-.13-.01-.15-.04-.02-.02-.02-.06-.02-.14,0-.09,0-.56.03-1.42.02-.78.03-1.53.03-2.27-.5.83-1.19,1.7-2.08,2.59-.17.15-.28.23-.34.23-.09,0-.17-.11-.26-.32-.18-.43-.39-.78-.62-1.07,1.14-.75,2.08-1.7,2.83-2.84h-.4l-1.94.03c-.08,0-.13-.01-.15-.03s-.02-.07-.02-.15v-1.13c0-.08,0-.13.03-.15.02-.02.07-.02.14-.02l1.94.03h.84v-.29c0-.43,0-.72-.02-.88h-.93ZM275.29,379.22h-2.81l-1.89.03c-.08,0-.13-.01-.15-.03s-.02-.07-.02-.14v-1.11c0-.08,0-.13.03-.15.02-.02.07-.02.14-.02l1.89.03h.62v-.43c0-.44-.03-.79-.1-1.06.71.02,1.26.05,1.66.09.17.02.26.06.26.14,0,.05-.03.14-.09.27-.05.09-.08.29-.08.58v.41h.54l1.88-.03c.09,0,.15.01.16.03s.02.07.02.14v1.11c0,.08-.01.13-.03.15-.02.02-.07.02-.16.02l-1.88-.03ZM271.47,379.96c-.04-.07-.05-.12-.05-.15,0-.06.06-.1.2-.12l.82-.24c.06-.02.1-.02.13-.02.06,0,.11.04.15.13.23.4.43.88.59,1.45.02.05.02.08.02.11,0,.06-.06.11-.18.15l-.91.23c-.07.03-.13.04-.16.04-.07,0-.12-.05-.16-.16-.17-.68-.32-1.15-.45-1.41ZM276.16,390.08c.81-.96,1.36-2.04,1.65-3.24.21-.89.32-2.42.32-4.61v-1.74c0-1.07-.03-1.98-.09-2.73.53.09,1.02.22,1.47.38.99-.25,1.91-.62,2.77-1.11.3-.16.58-.36.84-.59.35.29.7.67,1.05,1.13.07.1.11.21.11.3,0,.11-.08.17-.24.2-.18.02-.39.08-.62.19-1.2.58-2.44,1.02-3.73,1.31v1.95h2.73l2.18-.03c.08,0,.13.01.15.03s.02.07.02.14v1.17c0,.08-.01.13-.03.15-.02.02-.07.02-.14.02-.02,0-.09,0-.21,0-.42-.01-.89-.02-1.41-.02v5.63l.03,2.21c0,.09-.01.14-.03.16-.02.02-.06.02-.12.02h-1.32c-.08,0-.13-.01-.15-.03s-.02-.07-.02-.16l.03-2.21v-5.63h-1.71c-.02,2.03-.15,3.57-.41,4.62-.28,1.1-.74,2.12-1.38,3.04-.15.2-.26.3-.34.3-.05,0-.17-.08-.35-.23-.34-.29-.69-.5-1.04-.64Z"/><path class="cls-1" d="M211.63,400.78c.67.07,1.7.11,3.07.11h5.71c.4,0,.7-.05.88-.16.07-.04.15-.06.24-.06.07,0,.17.03.3.08.44.28.83.63,1.17,1.05.07.09.11.18.11.27,0,.14-.08.27-.23.4-.1.1-.23.31-.37.62-.86,2.07-1.89,3.8-3.1,5.2-1.44,1.65-2.96,2.92-4.54,3.81-.15.09-.29.14-.44.14s-.28-.06-.4-.18c-.33-.32-.83-.61-1.48-.88,1.23-.62,2.27-1.27,3.1-1.93.72-.57,1.43-1.26,2.12-2.07,1.2-1.37,2.11-2.89,2.71-4.56h-5.78c-.64,0-1.52.03-2.64.08-.17.02-.27-.09-.3-.32-.04-.27-.08-.8-.14-1.61Z"/><path class="cls-1" d="M227.14,402.86c.77.06,1.64.09,2.61.09h5.36c.41,0,.69-.04.84-.13.09-.05.16-.08.23-.08.07,0,.15.04.26.12.32.28.63.62.93,1.05.05.08.08.16.08.24,0,.09-.05.17-.16.23-.19.09-.33.2-.42.34-.7,1.01-1.39,1.84-2.08,2.5-.08.08-.17.12-.27.12-.12,0-.24-.05-.35-.15-.33-.25-.68-.43-1.07-.55.82-.71,1.46-1.43,1.92-2.16h-5.14c-.25,0-.97.03-2.16.08-.21,0-.33-.07-.35-.21-.07-.32-.14-.82-.23-1.48ZM230.86,405.14c.95.11,1.54.2,1.77.26.18.05.27.13.27.26,0,.08-.02.15-.06.22-.08.15-.12.35-.12.61,0,2.62-1,4.56-3.02,5.81-.18.1-.31.16-.39.16-.09,0-.19-.05-.3-.14-.33-.28-.75-.5-1.25-.66,1.19-.66,2.04-1.42,2.55-2.29.46-.8.7-1.77.7-2.91,0-.45-.05-.89-.16-1.31Z"/><path class="cls-1" d="M240.38,401.76c.27-.32.64-.74,1.12-1.25.07-.08.14-.12.23-.12.05,0,.12.03.21.08.99.53,2.01,1.29,3.05,2.27.09.09.14.17.14.23s-.03.12-.09.2c-.35.46-.68.86-.99,1.2-.09.08-.15.12-.2.12-.05,0-.12-.04-.2-.12-.97-1-2.06-1.88-3.27-2.61ZM240.73,409.75c.85-.23,1.58-.5,2.16-.8,1.03-.54,1.89-1.03,2.57-1.48.6-.39,1.28-.89,2.03-1.5,1.07-.87,1.92-1.62,2.55-2.25.6-.6,1.21-1.3,1.84-2.1.08.7.23,1.33.45,1.87.05.12.08.23.08.3,0,.12-.09.28-.26.48-.93,1.09-2.16,2.22-3.68,3.39-1.32,1.04-2.93,2.08-4.83,3.13-.56.34-.92.59-1.07.74-.11.1-.21.16-.29.16s-.17-.06-.27-.17c-.5-.56-.92-1.15-1.28-1.78Z"/><path class="cls-1" d="M261.32,401.51l2.88-.06c.35-.01.62-.08.8-.2.05-.04.12-.06.2-.06.08,0,.16.03.26.09.36.23.73.52,1.09.87.14.12.21.25.21.37s-.07.23-.2.34c-.2.16-.37.39-.52.69-1,2.04-2.06,3.69-3.17,4.95-.73.82-1.57,1.62-2.52,2.38-.82.66-1.6,1.19-2.34,1.6-.08.05-.17.08-.26.08-.11,0-.24-.06-.37-.17-.4-.32-.91-.56-1.52-.73,1.3-.72,2.36-1.4,3.18-2.05.68-.55,1.4-1.23,2.15-2.04.69-.76,1.25-1.48,1.69-2.17.41-.64.83-1.42,1.27-2.37l-3.88.11c-1.28,1.59-2.29,2.68-3.02,3.28-.11.12-.23.18-.34.18-.08,0-.16-.03-.23-.09-.48-.35-1-.58-1.54-.7,1.79-1.46,3.22-3.04,4.3-4.75.49-.83.8-1.55.95-2.16.91.32,1.53.61,1.87.85.11.08.16.17.16.27s-.06.2-.18.27c-.07.04-.2.18-.4.43-.11.18-.29.45-.52.8Z"/><path class="cls-1" d="M269.78,404.77s.21-.34.53-.87c.14-.23.25-.39.32-.49.08-.11.16-.16.24-.16.02,0,.04,0,.05,0,1.11.37,2.13.89,3.08,1.57.11.08.17.16.17.23,0,.04-.02.1-.06.18-.14.33-.37.73-.7,1.22-.09.1-.16.16-.21.16-.05,0-.11-.03-.19-.09-.91-.67-1.99-1.25-3.23-1.75ZM271.04,410.13c.68-.13,1.4-.39,2.17-.78,1.73-.91,3.19-1.83,4.38-2.77,1.65-1.26,3.19-2.75,4.61-4.47.07.5.23,1.1.47,1.8.05.12.08.23.08.3,0,.12-.06.25-.17.37-1.22,1.3-2.58,2.53-4.07,3.7-1.24.94-2.83,1.95-4.78,3.01-.56.3-.87.48-.93.55-.08.08-.17.12-.26.12-.12,0-.22-.07-.32-.2-.3-.3-.7-.85-1.18-1.63ZM271.72,401.01l.84-1.28c.07-.12.15-.18.23-.18.05,0,.11.02.18.05,1.21.49,2.22,1.08,3.01,1.77.08.06.12.13.12.21,0,.07-.02.14-.06.2-.31.55-.58.95-.82,1.2-.04.06-.09.09-.16.09s-.15-.04-.24-.11c-1-.83-2.03-1.48-3.1-1.97Z"/><path class="cls-1" d="M293.26,406.69v-1.61h-3.7c-.28,0-.69.02-1.21.05-.48.03-.82.04-1.03.05-.14.02-.22-.11-.24-.37-.02-.27-.05-.7-.08-1.31.61.05,1.46.08,2.56.08h2.78c1.11,0,1.9-.01,2.37-.03.16,0,.24.07.24.21v.05l-.03,2.09v3.69c0,.45.02,1.21.06,2.27,0,.12-.03.21-.09.24-.05.03-.14.05-.27.06-.34.02-.71.03-1.09.03-.13,0-.21-.02-.25-.05-.03-.03-.04-.09-.04-.18v-.48h-3.79c-.65,0-1.39.03-2.21.08-.14,0-.21-.11-.23-.32-.05-.35-.08-.8-.08-1.33.58.04,1.44.06,2.58.06h3.73v-1.77h-3.39c-.53,0-1.26.02-2.2.06-.17,0-.26-.12-.27-.35-.04-.28-.06-.71-.06-1.3.72.05,1.55.08,2.5.08h3.42Z"/><path class="cls-1" d="M307.08,403.05h2.15c.75,0,1.67-.01,2.78-.03h.08c.14,0,.22.1.23.29.02.2.02.41.02.62s0,.41-.02.62c0,.14-.02.22-.07.26-.04.03-.12.05-.23.05l-2.69-.06h-2.27c-.08,1.22-.21,2.14-.38,2.76-.15.54-.38,1.07-.71,1.61-.79,1.32-1.92,2.38-3.41,3.16-.12.07-.24.11-.37.11s-.25-.05-.35-.16c-.42-.38-.86-.67-1.34-.88,1.69-.81,2.9-1.78,3.62-2.9.58-.89.9-2.12.98-3.7h-3.09c-.31,0-.75.01-1.3.04-.54.03-.88.04-1.01.05h-.05c-.13,0-.21-.1-.24-.3-.03-.18-.06-.71-.11-1.59.69.05,1.6.08,2.72.08h3.16c0-1.11,0-1.9-.02-2.37-.02-.65-.09-1.18-.2-1.62.98.04,1.69.12,2.12.23.16.04.24.12.24.23,0,.06-.04.18-.11.35-.09.19-.13.51-.13.97,0,.85,0,1.59-.02,2.2Z"/><path class="cls-1" d="M316.62,401.24c1.03.12,1.71.24,2.03.35.17.05.26.14.26.29,0,.06-.02.12-.05.2-.13.25-.2.62-.2,1.09-.03,1.92-.32,3.48-.87,4.7-.47,1.11-1.23,2.11-2.27,3.01-.17.14-.31.21-.41.21-.08,0-.18-.04-.3-.12-.38-.26-.83-.48-1.36-.67,1.25-.95,2.14-2.01,2.66-3.19.25-.62.43-1.24.52-1.85.1-.65.15-1.54.16-2.67,0-.5-.05-.95-.16-1.34ZM322.21,408.36c.71-.38,1.47-.88,2.27-1.49,1.1-.84,2.04-1.75,2.8-2.72.06.56.23,1.1.5,1.62.06.15.09.24.09.27,0,.11-.08.24-.24.4-.79.81-1.58,1.51-2.37,2.1-.92.7-1.86,1.34-2.84,1.92-.15.1-.3.21-.46.34-.1.08-.21.12-.33.12-.08,0-.2-.04-.34-.12-.31-.21-.63-.54-.96-.98-.09-.15-.14-.26-.14-.34s.02-.16.06-.24c.06-.12.09-.53.09-1.22v-5.01c0-1.36-.05-2.29-.16-2.79,1.01.13,1.68.24,2.01.34.19.05.29.14.29.27,0,.1-.04.23-.12.41-.1.2-.15.79-.15,1.77v5.34Z"/><path class="cls-1" d="M258.46,429.16c-.01.15-.02.32-.02.49s0,.35.02.55c0,.1,0,.18,0,.23,0,.15-.02.25-.06.3s-.16.14-.35.25c-.98.52-2.13,1.03-3.46,1.53-.29.12-.46.21-.49.24-.09.07-.18.11-.26.11-.08,0-.15-.07-.21-.21-.12-.35-.25-.85-.4-1.5.4-.07.9-.2,1.51-.38l.46-.16v-3.48l-1.41.03c-.08,0-.14-.01-.16-.03-.02-.02-.02-.07-.02-.14v-1.16c0-.09,0-.14.03-.16.02-.02.07-.02.15-.02l1.41.03v-2.82h-.09l-1.51.04c-.07,0-.12-.01-.14-.03-.01-.02-.02-.07-.02-.15v-1.17c0-.09,0-.14.03-.16.02-.02.06-.02.12-.02l1.51.03h1.66l1.5-.03c.09,0,.14.01.16.04.02.02.02.07.02.15v1.17c0,.08-.01.14-.03.16-.02.02-.07.02-.15.02l-1.48-.04v2.82l1.28-.03c.08,0,.12.01.14.03,0,.02.02.07.02.16v1.16c0,.08,0,.13-.02.15s-.06.02-.13.02l-1.28-.03v2.85c.68-.31,1.23-.59,1.66-.82ZM259.73,434.26l-2.23.03c-.08,0-.14-.01-.16-.03-.02-.02-.02-.07-.02-.14v-1.14c0-.08,0-.13.03-.14.02-.02.07-.03.15-.03l2.23.03h2.43v-1.57h-.99l-2.06.03c-.09,0-.14-.01-.16-.03s-.02-.07-.02-.14v-1.11c0-.08,0-.13.03-.15.02-.02.07-.02.15-.02l2.06.03h.99v-1.38h-1.04l-2.08.03c-.09,0-.15-.01-.17-.03-.02-.02-.02-.06-.02-.12l.03-1.78v-3.55l-.03-1.74c0-.09,0-.14.03-.16.03-.02.08-.02.16-.02l2.08.03h3.8l2.09-.03c.08,0,.13.01.16.03.02.02.02.07.02.15l-.03,1.74v3.55l.03,1.78c0,.1-.06.16-.18.16l-2.09-.03h-1.16v1.38h1.21l2.07-.03c.08,0,.13.01.15.03s.02.07.02.14v1.11c0,.08,0,.13-.03.14-.02.02-.07.03-.14.03l-2.07-.03h-1.21v1.57h1.84l2.21-.03c.08,0,.13.01.15.03s.02.07.02.14v1.14c0,.08,0,.13-.03.14-.02.02-.07.03-.14.03l-2.21-.03h-5.87ZM260.39,424.13h1.77v-1.62h-1.77v1.62ZM260.39,427.16h1.77v-1.71h-1.77v1.71ZM265.64,422.51h-1.88v1.62h1.88v-1.62ZM265.64,427.16v-1.71h-1.88v1.71h1.88Z"/><path class="cls-1" d="M271.81,423.16h1.26l1.72-.03c.08,0,.13.01.15.03s.02.07.02.15v1.13c0,.09-.01.15-.03.17-.02.02-.07.02-.14.02l-1.72-.03h-1.26l-1.71.03c-.09,0-.14-.01-.16-.04-.02-.02-.02-.07-.02-.16v-1.13c0-.09.01-.14.03-.16s.07-.02.15-.02l1.71.03ZM274.62,434.55c0,.09-.01.14-.03.16s-.07.02-.14.02h-1.07c-.09,0-.14-.01-.16-.03s-.02-.07-.02-.15v-.43h-1.28v.72c0,.08-.01.14-.03.16-.02.02-.07.02-.15.02h-1.09c-.09,0-.14-.01-.16-.03-.02-.02-.02-.07-.02-.15l.03-2.4v-1.02l-.03-1.5c0-.09.01-.14.04-.16.02-.02.07-.02.15-.02l1.46.03h.86l1.47-.03c.09,0,.14.01.16.03s.02.07.02.15l-.03,1.23v1.11l.03,2.3ZM272.11,420.97h.91l1.45-.03c.09,0,.14.01.16.03.02.02.02.07.02.14v1.05c0,.09-.01.14-.03.16s-.07.02-.16.02l-1.45-.03h-.91l-1.46.03c-.08,0-.13-.01-.15-.03s-.02-.07-.02-.15v-1.05c0-.08.01-.13.03-.15s.07-.02.14-.02l1.46.03ZM272.17,425.43h.77l1.34-.03c.09,0,.15.01.16.03.02.02.03.07.03.15v1.04c0,.08-.01.13-.04.15-.02.02-.07.02-.16.02l-1.34-.03h-.77l-1.36.03c-.08,0-.14-.01-.16-.03-.02-.02-.02-.07-.02-.14v-1.04c0-.09.01-.14.03-.16s.07-.02.15-.02l1.36.03ZM272.17,427.59h.77l1.34-.04c.09,0,.15.01.16.03.02.02.03.07.03.15v1.02c0,.09-.01.14-.04.16-.02.02-.07.02-.16.02l-1.34-.03h-.77l-1.36.03c-.08,0-.14-.01-.16-.03-.02-.02-.02-.07-.02-.15v-1.02c0-.08.01-.14.03-.16.02-.02.07-.02.15-.02l1.36.04ZM273.2,431.09h-1.28v1.7h1.28v-1.7ZM274.38,424.94c1.64-.89,2.94-2.15,3.92-3.79.18-.27.33-.59.45-.96.87.09,1.43.16,1.68.23.13.04.2.09.2.17,0,.06-.05.12-.14.18l-.09.05c.71.94,1.43,1.7,2.16,2.29.72.57,1.57,1.07,2.53,1.48-.23.29-.44.67-.62,1.14-.11.27-.21.4-.29.4-.04,0-.15-.05-.35-.16-.6-.34-1.18-.73-1.73-1.18v.91c0,.08-.01.13-.04.15-.02.02-.06.02-.14.02l-1.42-.03h-1.65l-1.42.03c-.09,0-.14-.01-.16-.03s-.02-.07-.02-.14v-.8c-.44.41-.93.8-1.47,1.16-.22.13-.35.2-.38.2-.06,0-.16-.13-.3-.38-.19-.34-.43-.65-.73-.93ZM281.61,433.41c.2.03.43.04.67.04.2,0,.3-.15.3-.45v-1.74h-1.07v1.33l.03,1.74c0,.08-.01.13-.03.15s-.07.02-.14.02h-1.06c-.08,0-.13-.01-.15-.03s-.02-.07-.02-.14l.03-1.74v-1.33h-.96v1.33l.03,1.74c0,.08-.01.13-.03.15s-.07.02-.14.02h-1.05c-.09,0-.14-.01-.16-.03-.02-.02-.02-.07-.02-.14l.03-1.74v-1.33h-.98v1.7l.03,1.79c0,.08-.01.13-.03.15-.03.02-.08.02-.16.02h-1.12c-.08,0-.13-.01-.15-.03s-.02-.07-.02-.14l.03-1.79v-4l-.03-1.84c0-.09.01-.14.03-.16s.07-.02.14-.02l2.13.03h4.02l2.12-.03c.09,0,.14.01.16.03s.02.07.02.15l-.03,1.96v2.15l.02,2.05c0,.68-.13,1.14-.4,1.36-.27.22-.72.34-1.36.34-.14,0-.23-.03-.27-.08-.03-.04-.06-.14-.09-.3-.05-.48-.16-.88-.32-1.17ZM276.89,430.01h.98v-1.74h-.98v1.74ZM278.85,424.5h1.65l1.23-.02c-.78-.69-1.48-1.48-2.11-2.37-.53.84-1.17,1.63-1.92,2.37.14.01.53.02,1.16.02ZM279.21,430.01h.96v-1.74h-.96v1.74ZM282.59,428.26h-1.07v1.74h1.07v-1.74Z"/><path class="cls-2" d="M46.64,354.37c0,.11-.09.4-.27.82-1.47,3.59-4.08,5.86-6.67,5.86-1.6,0-3.23-1.03-3.23-2.79,0-4.95,9.47-9.61,16.47-9.61,3.59,0,5.71,1.81,5.71,3.83,0,4.39-7.07,7.54-9.92,7.54-.71,0-1-.07-1-.2,0-.04.04-.09.11-.09s.36.02.47.02c2.83,0,8.96-3.54,8.96-8.09,0-1.52-1.76-2.72-4.99-2.72-5.46,0-14.6,4.75-14.6,9.92,0,1.05.54,1.85,1.63,1.85,2.65,0,5.53-3.01,7.04-6.26.07-.16.11-.22.18-.22s.11.04.11.13ZM52.37,349.78c.27,0,.85.78.85,1.05,0,.13-.07.2-.29.33-2.41,1.45-8.36,10.66-8.36,14.69,0,.11-.02.18-.09.18-.13,0-.89-.47-.89-.87,0-3.88,7.49-15.38,8.78-15.38Z"/><path class="cls-2" d="M58.41,362.49c-.65.51-1.25.8-1.54.8-.53,0-1.49-.54-1.49-1.56,0-.45.09-.85.25-1.23,0-.04-.02-.09-.02-.16,0-1.9,2.05-3.25,3.23-3.25,1,0,1.74.65,1.74,1.58,0,1.47-.96,2.74-1.92,3.59,1.34-.09,2.5-1,3.19-1.69,0,0,.07-.09.13-.09s.11.07.11.09c0,.04-.18.2-.25.27-.67.6-1.72,1.58-3.43,1.65ZM58.25,357.89c.27,0,.71.62.71.85,0,.13-.16.22-.29.29-.83.49-1.96,1.47-2.45,2.45.38.49,1.05.78,1.85.83.94-.83,1.85-2.25,1.85-3.7,0-.74-.42-1.2-1.29-1.2s-2.45,1.03-2.72,2.5c.36-.58.85-1.03,1.32-1.43.36-.31.74-.58,1.03-.58ZM56.02,362.29c0,.4.25.74.62.74.33,0,.78-.2,1.23-.54-.74-.07-1.36-.31-1.76-.74-.07.18-.09.36-.09.54Z"/><path class="cls-2" d="M64.7,358.41c0,.4-2.54,3.28-2.54,4.24,0,.27.16.38.36.38,1.27,0,3.86-2.45,3.86-2.45,0,0,.09-.09.16-.09.04,0,.09.07.09.09,0,.04-.18.2-.25.27,0,0-2.72,2.61-4.17,2.61-.36,0-1.07-.51-1.07-1.23,0-.98,1.94-3.46,2.36-4.5.07-.13.16-.22.27-.22.45,0,.94.51.94.91ZM66.91,354.53c0,.16-.29.62-.47.71-.13.07-.42.16-.62.22-.42.13-.56.38-.65.38-.07,0-.13-.04-.13-.13,0-.53.85-1.65.85-2.18,0-.07.04-.09.09-.09.36,0,.94.78.94,1.09Z"/><path class="cls-2" d="M68.87,358.74c0,.4-.6,1.25-1.09,2.1.82-.65,3.21-2.23,4.06-2.23.36,0,.62.65.62.94,0,.25-1.69,1.92-1.69,3.1,0,.2.13.29.31.29,1.36,0,3.75-2.36,3.75-2.36,0,0,.09-.09.13-.09.07,0,.11.07.11.09,0,.04-.25.27-.25.27,0,0-2.56,2.54-3.75,2.54-.56,0-1.27-.69-1.27-1.43,0-.98,1.05-2.38,1.05-2.54,0-.02-.02-.04-.07-.04-.25,0-1.96.85-3.19,1.98-1.43,1.32-1.61,2.41-1.81,2.41-.22,0-.6-.56-.6-1.03s2.27-3.17,2.59-4.88c0-.18.11-.2.22-.2.22,0,.87.51.87,1.09Z"/><path class="cls-2" d="M79.82,354.77c1.16,0,2.43.27,2.43.31,0,.07-.04.13-.09.13-.07,0-.89-.16-2.03-.16-.76,0-1.14.11-1.14.11-1.63,2.34-4.19,6.06-4.19,8.63,0,.98.38,1.38,1.07,1.38.09,0,.2.13.2.2,0,.09-.13.11-.22.11-.58,0-1.63-.71-1.63-2.21,0-2.16,1.74-5.26,3.17-7.78-.83.13-1.25.38-1.29.38-.18,0-.47-.38-.47-.51,0-.04,0-.09.11-.13.36-.16,1.09-.29,2.01-.38.82-1.45,1.47-2.63,1.47-3.19,0-.11.04-.16.11-.16.31,0,1.03.89,1.03,1.54,0,.2-.42.83-1.07,1.72h.54Z"/><path class="cls-2" d="M78.56,362.51c0,.4-.62.85-.78.85-.13,0-.29-.07-.47-.07-.13,0-.25.16-.36.16-.09,0-.18-.11-.18-.4,0-.27.11-.62.36-.91.2-.25.04-.47.04-.56s.07-.13.16-.13c.36,0,1.23.62,1.23,1.07Z"/><path class="cls-2" d="M92.31,351.68c.71.25,1.45,1.07,1.45,2.05,0,3.63-4.12,9.61-6.96,9.61-1.47,0-3.14-1.32-3.14-3.21,0-3.77,4.66-9.16,7.47-9.16.51,0,.89.25,1.18.71ZM91.57,352.39c-2.1.31-6.67,4.66-6.67,8.54,0,1.05.56,1.76,1.34,1.76,3.3,0,6.64-5.53,6.64-9.39,0-.69-.33-1.14-.71-1.43,0,0-.16.45-.6.51Z"/><path class="cls-2" d="M93.95,355.35c1.07,0,3.63-2.14,3.63-2.14,0,0,1.38-2.07,1.81-2.07s.87.74.87,1.03-2.27,2.23-3.7,5.39c-1.43,3.17-1.63,5.15-1.63,5.44,0,.33.11.49.11.58s-.04.11-.11.11c-.25,0-1.2-.74-1.2-1.16,0-1.65,3.41-8.4,3.41-8.4,0,0-.62.51-1.05,1-.56.65-.98,1.05-1.54,1.05s-1.09-.69-1.09-.85c0-.07.04-.13.11-.13.09,0,.18.16.38.16Z"/><path class="cls-2" d="M246.1,354.37c0,.11-.09.4-.27.82-1.47,3.59-4.08,5.86-6.67,5.86-1.6,0-3.23-1.03-3.23-2.79,0-4.95,9.47-9.61,16.47-9.61,3.59,0,5.71,1.81,5.71,3.83,0,4.39-7.07,7.54-9.92,7.54-.71,0-1-.07-1-.2,0-.04.04-.09.11-.09s.36.02.47.02c2.83,0,8.96-3.54,8.96-8.09,0-1.52-1.76-2.72-4.99-2.72-5.46,0-14.6,4.75-14.6,9.92,0,1.05.54,1.85,1.63,1.85,2.65,0,5.53-3.01,7.04-6.26.07-.16.11-.22.18-.22s.11.04.11.13ZM251.83,349.78c.27,0,.85.78.85,1.05,0,.13-.07.2-.29.33-2.41,1.45-8.36,10.66-8.36,14.69,0,.11-.02.18-.09.18-.13,0-.89-.47-.89-.87,0-3.88,7.49-15.38,8.78-15.38Z"/><path class="cls-2" d="M257.87,362.49c-.65.51-1.25.8-1.54.8-.53,0-1.49-.54-1.49-1.56,0-.45.09-.85.25-1.23,0-.04-.02-.09-.02-.16,0-1.9,2.05-3.25,3.23-3.25,1,0,1.74.65,1.74,1.58,0,1.47-.96,2.74-1.92,3.59,1.34-.09,2.5-1,3.19-1.69,0,0,.07-.09.13-.09s.11.07.11.09c0,.04-.18.2-.25.27-.67.6-1.72,1.58-3.43,1.65ZM257.71,357.89c.27,0,.71.62.71.85,0,.13-.16.22-.29.29-.83.49-1.96,1.47-2.45,2.45.38.49,1.05.78,1.85.83.94-.83,1.85-2.25,1.85-3.7,0-.74-.42-1.2-1.29-1.2s-2.45,1.03-2.72,2.5c.36-.58.85-1.03,1.32-1.43.36-.31.74-.58,1.03-.58ZM255.48,362.29c0,.4.25.74.62.74.33,0,.78-.2,1.23-.54-.74-.07-1.36-.31-1.76-.74-.07.18-.09.36-.09.54Z"/><path class="cls-2" d="M264.16,358.41c0,.4-2.54,3.28-2.54,4.24,0,.27.16.38.36.38,1.27,0,3.86-2.45,3.86-2.45,0,0,.09-.09.16-.09.04,0,.09.07.09.09,0,.04-.18.2-.25.27,0,0-2.72,2.61-4.17,2.61-.36,0-1.07-.51-1.07-1.23,0-.98,1.94-3.46,2.36-4.5.07-.13.16-.22.27-.22.45,0,.94.51.94.91ZM266.36,354.53c0,.16-.29.62-.47.71-.13.07-.42.16-.62.22-.42.13-.56.38-.65.38-.07,0-.13-.04-.13-.13,0-.53.85-1.65.85-2.18,0-.07.04-.09.09-.09.36,0,.94.78.94,1.09Z"/><path class="cls-2" d="M268.33,358.74c0,.4-.6,1.25-1.09,2.1.83-.65,3.21-2.23,4.06-2.23.36,0,.62.65.62.94,0,.25-1.69,1.92-1.69,3.1,0,.2.13.29.31.29,1.36,0,3.75-2.36,3.75-2.36,0,0,.09-.09.13-.09.07,0,.11.07.11.09,0,.04-.25.27-.25.27,0,0-2.56,2.54-3.75,2.54-.56,0-1.27-.69-1.27-1.43,0-.98,1.05-2.38,1.05-2.54,0-.02-.02-.04-.07-.04-.25,0-1.96.85-3.19,1.98-1.43,1.32-1.61,2.41-1.81,2.41-.22,0-.6-.56-.6-1.03s2.27-3.17,2.59-4.88c0-.18.11-.2.22-.2.22,0,.87.51.87,1.09Z"/><path class="cls-2" d="M279.28,354.77c1.16,0,2.43.27,2.43.31,0,.07-.04.13-.09.13-.07,0-.89-.16-2.03-.16-.76,0-1.14.11-1.14.11-1.63,2.34-4.19,6.06-4.19,8.63,0,.98.38,1.38,1.07,1.38.09,0,.2.13.2.2,0,.09-.13.11-.22.11-.58,0-1.63-.71-1.63-2.21,0-2.16,1.74-5.26,3.17-7.78-.83.13-1.25.38-1.29.38-.18,0-.47-.38-.47-.51,0-.04,0-.09.11-.13.36-.16,1.09-.29,2.01-.38.82-1.45,1.47-2.63,1.47-3.19,0-.11.04-.16.11-.16.31,0,1.03.89,1.03,1.54,0,.2-.42.83-1.07,1.72h.54Z"/><path class="cls-2" d="M278.01,362.51c0,.4-.62.85-.78.85-.13,0-.29-.07-.47-.07-.13,0-.25.16-.36.16-.09,0-.18-.11-.18-.4,0-.27.11-.62.36-.91.2-.25.04-.47.04-.56s.07-.13.16-.13c.36,0,1.23.62,1.23,1.07Z"/><path class="cls-2" d="M291.77,351.68c.71.25,1.45,1.07,1.45,2.05,0,3.63-4.12,9.61-6.96,9.61-1.47,0-3.14-1.32-3.14-3.21,0-3.77,4.66-9.16,7.47-9.16.51,0,.89.25,1.18.71ZM291.03,352.39c-2.1.31-6.67,4.66-6.67,8.54,0,1.05.56,1.76,1.34,1.76,3.3,0,6.64-5.53,6.64-9.39,0-.69-.33-1.14-.71-1.43,0,0-.16.45-.6.51Z"/><path class="cls-2" d="M299.08,351.05c1.23,0,2.67,1.81,2.67,3.39,0,2.3-2.72,5.42-5.26,7.31.6.13,1.32.25,2.23.25,1.43,0,2.65-1.09,2.81-1.09.07,0,.13.07.13.13,0,.04-.45.51-.83.87-.25.22-.49.33-.53.49-.18.65-.62.89-1.32.89s-1.92-.58-3.19-1.07c-1.07.71-2.1,1.16-2.76,1.16-.87,0-1.47-.65-1.47-1.07s.94-1.12,2.34-1.12c.51,0,.96.11,1.45.25,2.59-1.98,5.35-5.62,5.35-8.54,0-.58-.42-.91-.94-.91-1.85,0-5.17,2.43-5.17,4.12,0,.38.11.51.11.62,0,.09-.04.13-.13.13-.16,0-.96-.82-.96-1.45,0-2.36,3.88-4.37,5.46-4.37ZM291.97,362.58c0,.2.11.27.31.27.67,0,1.56-.36,2.47-.98-.45-.13-.89-.22-1.27-.22-1.03,0-1.52.62-1.52.94Z"/></g></svg>