<?xml version="1.0" encoding="UTF-8"?><svg id="_レイヤー_2" xmlns="http://www.w3.org/2000/svg" viewBox="0 0 822.01 843.67"><defs><style>.cls-1{fill:none;stroke:#fff;stroke-miterlimit:10;stroke-width:1.78px;}.cls-2{fill:#000;}.cls-2,.cls-3,.cls-4{stroke-width:0px;}.cls-3{fill:#ff9c00;}.cls-4{fill:#fff;}</style></defs><g id="_レイヤー_1-2"><path class="cls-4" d="M357.45,780.31l-5.83,5.77c-3.69-3.91-8-5.86-12.91-5.86-4.28,0-7.87,1.42-10.77,4.26-2.89,2.84-4.34,6.29-4.34,10.36s1.5,7.76,4.5,10.68c3,2.92,6.7,4.38,11.11,4.38,2.86,0,5.28-.6,7.24-1.8,1.96-1.2,3.55-3.09,4.75-5.65h-12.6v-7.78h21.9l.06,1.84c0,3.81-.99,7.42-2.96,10.83-1.97,3.41-4.53,6.02-7.66,7.81-3.14,1.79-6.82,2.69-11.04,2.69-4.52,0-8.55-.98-12.09-2.94-3.54-1.96-6.34-4.76-8.4-8.39-2.06-3.63-3.09-7.55-3.09-11.75,0-5.76,1.9-10.77,5.71-15.03,4.52-5.07,10.4-7.61,17.63-7.61,3.79,0,7.33.7,10.62,2.1,2.78,1.18,5.5,3.22,8.17,6.09Z"/><path class="cls-4" d="M386.9,773.21h8.4l16.74,43.53h-8.61l-3.41-8.97h-17.76l-3.54,8.97h-8.61l16.79-43.53ZM391.15,784.75l-5.84,14.94h11.65l-5.81-14.94Z"/><path class="cls-4" d="M425.23,773.21h21.6v8.08h-13.37v7.9h13.37v7.96h-13.37v19.59h-8.23v-43.53Z"/><path class="cls-4" d="M466.33,773.21h8.23v43.53h-8.23v-43.53Z"/><path class="cls-4" d="M492.31,773.21h24.06v8.17h-7.93v35.36h-8.4v-35.36h-7.72v-8.17Z"/><path class="cls-4" d="M320.14,827.28h6.47v1.26h-5.17v4.04h5.17v1.26h-5.17v6.34h-1.29v-12.9Z"/><path class="cls-4" d="M331.01,827.72c0,.56-.47,1.02-1.02,1.02s-1.01-.47-1.01-1.02.47-1.01,1.01-1.01,1.02.45,1.02,1.01ZM329.4,830.64h1.22v9.54h-1.22v-9.54Z"/><path class="cls-4" d="M335.14,827.09h1.22v3.56h1.96v1.08h-1.96v8.46h-1.22v-8.46h-1.69v-1.08h1.69v-3.56Z"/><path class="cls-4" d="M342.26,832.35c.99-1.29,2.17-1.96,3.58-1.96,2.08,0,3.54,1.44,3.54,4.44v5.35h-1.22v-5.19c0-2.25-.7-3.48-2.55-3.48-1.02,0-1.87.45-2.52,1.29-.72.93-.83,1.87-.83,3.38v4.01h-1.22v-9.54h1.22v1.71Z"/><path class="cls-4" d="M353.7,835.51c.05,2.19,1.54,3.79,3.59,3.79s2.95-1.13,3.65-2.28l1.02.54c-.97,1.9-2.46,2.86-4.55,2.86-3.16,0-4.98-2.43-4.98-4.98s1.92-5.05,4.9-5.05c2.71,0,4.9,1.96,4.94,5.12h-8.59ZM360.94,834.43c-.5-1.98-1.92-2.86-3.57-2.86s-2.98.92-3.54,2.86h7.11Z"/><path class="cls-4" d="M365.35,838.19c.61.68,1.28,1.06,1.99,1.06.93,0,1.76-.68,1.76-1.58,0-.56-.32-1.08-.79-1.33-2.19-1.22-3.31-1.74-3.31-3.41,0-1.51,1.17-2.53,2.62-2.53,1.04,0,1.83.5,2.64,1.29l-.79.81c-.57-.56-1.15-.92-1.92-.92s-1.44.56-1.44,1.28c0,.48.31,1.02.74,1.27,2.19,1.28,3.41,1.76,3.41,3.49,0,1.49-1.15,2.82-2.87,2.82-1.06,0-2.14-.49-2.82-1.37l.77-.88Z"/><path class="cls-4" d="M373.22,838.19c.61.68,1.28,1.06,1.99,1.06.93,0,1.76-.68,1.76-1.58,0-.56-.32-1.08-.79-1.33-2.19-1.22-3.31-1.74-3.31-3.41,0-1.51,1.17-2.53,2.62-2.53,1.04,0,1.83.5,2.64,1.29l-.79.81c-.57-.56-1.15-.92-1.92-.92s-1.44.56-1.44,1.28c0,.48.31,1.02.74,1.27,2.19,1.28,3.41,1.76,3.41,3.49,0,1.49-1.15,2.82-2.87,2.82-1.06,0-2.14-.49-2.82-1.37l.77-.88Z"/><path class="cls-4" d="M400.51,833.99c-.02,4.1-2.62,6.5-6.48,6.5-4.47,0-7.28-3.2-7.28-6.76s2.84-6.77,7.08-6.77c2.37,0,4.19.86,5.91,2.5l-.99.93c-1.45-1.42-3.22-2.17-4.89-2.17-3.09,0-5.77,2.37-5.77,5.48s2.5,5.6,5.96,5.6c2.44,0,4.63-1.45,4.99-4.06h-4.11v-1.26h5.57Z"/><path class="cls-4" d="M402.63,830.64h1.29l3.29,7.35,3.18-7.35h1.31l-5.69,13.02h-1.29l1.83-4.2-3.92-8.82Z"/><path class="cls-4" d="M421.89,840.18h-1.22v-4.89c0-.74-.07-1.35-.09-1.78-.05-1.04-.9-1.94-2.16-1.94-.84,0-1.69.41-2.23,1.11-.68.88-.81,2.01-.81,3.45v4.04h-1.22v-9.54h1.22v1.64c.85-1.22,1.9-1.89,3.27-1.89,1.46,0,2.5.75,3.02,2.3.84-1.53,2.1-2.3,3.5-2.3,1.98,0,3.25,1.42,3.25,4.13v5.66h-1.22v-5.21c0-.7-.09-1.26-.11-1.62-.05-.85-.86-1.78-2.16-1.78-1.19,0-2.23.72-2.71,1.94-.3.77-.34,1.62-.34,2.5v4.17Z"/><path class="cls-4" d="M441.33,840.49c-2.14,0-3.29-1.38-3.29-2.98,0-1.71,1.24-2.91,3.09-4.38-1.02-1.22-1.65-2.05-1.65-3.04,0-1.37,1.28-2.32,2.86-2.32,1.67,0,2.82,1.01,2.82,2.33,0,1.1-.83,2.07-2.23,3.25,2.16,2.3,3.27,3.36,3.31,3.4.57-.49,1.13-.95,1.56-1.35l.86.93c-.45.4-.95.84-1.51,1.29.84.9,1.71,1.69,2.44,2.55h-1.8c-.88-.95-1.46-1.49-1.67-1.72-1.51,1.13-2.8,2.03-4.8,2.03ZM439.3,837.44c0,.92.86,1.87,2.16,1.87,1.19,0,2.37-.72,3.81-1.74-.92-.93-2.05-2.03-3.29-3.45-1.64,1.24-2.68,2.19-2.68,3.32ZM443.9,830.09c0-.63-.68-1.13-1.6-1.13-.77,0-1.56.43-1.56,1.15,0,.5.49,1.26,1.4,2.28,1.15-.9,1.76-1.71,1.76-2.3Z"/><path class="cls-4" d="M458.38,827.28h2.98c1.35,0,2.35.09,2.98.32,1.31.5,2.12,1.65,2.12,3.11,0,1.22-.57,2.25-1.49,2.82-.92.57-2.25.65-4.02.65h-1.28v6h-1.29v-12.9ZM459.67,828.54v4.38c.74.02,1.47,0,2.14,0,1.11,0,1.98-.07,2.55-.54.45-.36.75-1.02.75-1.67s-.32-1.31-.81-1.69c-.57-.43-1.35-.49-2.35-.49h-2.28Z"/><path class="cls-4" d="M471.17,827.72c0,.56-.47,1.02-1.02,1.02s-1.01-.47-1.01-1.02.47-1.01,1.01-1.01,1.02.45,1.02,1.01ZM469.56,830.64h1.22v9.54h-1.22v-9.54Z"/><path class="cls-4" d="M474.03,826.96h1.22v13.22h-1.22v-13.22Z"/><path class="cls-4" d="M487,830.64h1.2v9.54h-1.2v-1.64c-1.04,1.26-2.35,1.87-3.84,1.87-2.78,0-4.89-2.32-4.89-5.03s2.16-4.99,4.92-4.99c1.54,0,2.86.67,3.81,1.99v-1.74ZM479.53,835.42c0,2.07,1.62,3.88,3.75,3.88,1.96,0,3.81-1.47,3.81-3.84,0-2.21-1.65-3.88-3.79-3.88s-3.77,1.8-3.77,3.84Z"/><path class="cls-4" d="M492.97,827.09h1.22v3.56h1.96v1.08h-1.96v8.46h-1.22v-8.46h-1.69v-1.08h1.69v-3.56Z"/><path class="cls-4" d="M499.67,835.51c.05,2.19,1.54,3.79,3.59,3.79s2.95-1.13,3.65-2.28l1.02.54c-.97,1.9-2.46,2.86-4.54,2.86-3.16,0-4.98-2.43-4.98-4.98s1.92-5.05,4.9-5.05c2.71,0,4.9,1.96,4.94,5.12h-8.59ZM506.91,834.43c-.5-1.98-1.92-2.86-3.58-2.86s-2.98.92-3.54,2.86h7.11Z"/><path class="cls-4" d="M511.31,838.19c.61.68,1.28,1.06,1.99,1.06.93,0,1.76-.68,1.76-1.58,0-.56-.32-1.08-.79-1.33-2.19-1.22-3.31-1.74-3.31-3.41,0-1.51,1.17-2.53,2.62-2.53,1.04,0,1.83.5,2.64,1.29l-.79.81c-.57-.56-1.15-.92-1.92-.92s-1.44.56-1.44,1.28c0,.48.31,1.02.74,1.27,2.19,1.28,3.41,1.76,3.41,3.49,0,1.49-1.15,2.82-2.87,2.82-1.06,0-2.14-.49-2.82-1.37l.77-.88Z"/><path class="cls-4" d="M405.69,641.28h32.62c-5.79-6.18-14.51-10.09-27.58-10.09h-37.72c-8.35,0-14.19,3.48-14.19,14.61v68.19c0,11.13,5.84,14.61,14.19,14.61h2.73c-8.71-8.75-11.38-22.51-11.38-38.62,0-27.83,7.93-48.71,41.33-48.71Z"/><path class="cls-4" d="M454.4,691.02v33.06c0,11.13-5.85,14.61-14.19,14.61h-34.52c-6.52,0-12.05-.81-16.76-2.29,6.08,9.18,16.52,14.74,33.73,14.74h34.52c8.35,0,14.19-3.48,14.19-14.61v-45.51h-16.97Z"/><path class="cls-4" d="M414.32,724.08h14.75c1.54,0,2.75-.11,3.71-.38.81-.5,1.59-1.03,2.32-1.6.68-1.07.93-2.66.93-4.97v-14.33h-13.68v-12.02h26.34c.32-3.59.44-7.25.44-10.87,0-8.2-.64-16.57-2.85-24.01h-31.97c-23.66,0-31.04,7.65-31.04,34.1s7.38,34.1,31.04,34.1Z"/><path class="cls-4" d="M30.38,14.85l-6.31,1.5c-.95-4.94-3.53-7.41-7.74-7.41-3.11,0-5.51,1.36-7.18,4.08-1.52,2.49-2.28,5.9-2.28,10.25,0,4.94.96,8.67,2.89,11.17,1.63,2.1,3.78,3.14,6.48,3.14,4.9,0,7.67-3.38,8.33-10.13h-8.7v-5h14.76v19.64h-4.32l-.73-5.42c-1.02,2.03-2.48,3.57-4.39,4.6-1.64.88-3.51,1.31-5.61,1.31-5.07,0-9-1.89-11.8-5.68-2.52-3.39-3.78-7.92-3.78-13.58,0-6.46,1.7-11.44,5.11-14.94,2.89-2.96,6.6-4.43,11.12-4.43,4.04,0,7.32,1.13,9.85,3.38,2.1,1.88,3.53,4.39,4.29,7.53Z"/><path class="cls-4" d="M56.52,4.57l11.5,37.28h-6.78l-3.17-10.96h-11.45l-3.21,10.96h-6.15L48.68,4.57h7.84ZM56.91,26.09l-2.18-7.55c-.28-1.06-1.02-4.12-2.21-9.17h-.42c-.8,3.49-1.56,6.53-2.3,9.13l-2.02,7.6h9.13Z"/><path class="cls-4" d="M99.56,4.57v5.14h-18.02v10.04h13.63v5.14h-13.63v16.96h-6.55V4.57h24.56Z"/><path class="cls-4" d="M113.27,4.57v37.28h-6.55V4.57h6.55Z"/><path class="cls-4" d="M149.08,4.57v5.23h-11.1v32.05h-6.54V9.81h-11v-5.23h28.64Z"/><path class="cls-4" d="M181.74,1.5c-4.11,3.39-7.02,7.07-8.73,11.03-1.39,3.22-2.09,6.88-2.09,10.98,0,4.68.92,8.81,2.77,12.41,1.75,3.41,4.43,6.61,8.05,9.6l-1.24,1.48c-4.85-3.53-8.3-7.37-10.37-11.5-1.77-3.52-2.65-7.51-2.65-11.99,0-5.11,1.17-9.63,3.5-13.54,2.08-3.53,5.25-6.86,9.52-9.97l1.24,1.5Z"/><path class="cls-4" d="M201.1,13.77c.2-2.3.32-4.46.35-6.47,0-1.34-.12-2.61-.35-3.8,2.67.25,4.75.59,6.24,1.01.55.17.82.51.82,1.01,0,.3-.08.6-.23.92-.33.55-.54,1.3-.63,2.25-.02.31-.08,1.1-.19,2.37-.06.92-.14,1.81-.23,2.67h7.3l6.69-.09c.67,0,1.01.23,1.01.68,0,.25-.02.92-.07,1.99-.06,1.5-.1,2.53-.12,3.1-.23,7.18-.83,12.45-1.78,15.81-.52,2-1.26,3.52-2.23,4.55-.88.94-2.03,1.58-3.45,1.92-1.35.36-2.96.54-4.83.54-.58,0-.96-.32-1.15-.96-.63-1.77-1.56-3.23-2.79-4.39.8.05,1.51.07,2.13.07,1.92,0,3.39-.16,4.39-.49.7-.22,1.24-.59,1.6-1.13.34-.49.65-1.23.92-2.23.83-3.5,1.31-8.31,1.43-14.43h-9.71c-.97,5.94-2.39,10.39-4.27,13.33-2.41,3.93-5.8,7.23-10.18,9.9-.41.25-.77.38-1.1.38s-.63-.16-.92-.47c-1.02-1.13-2.36-2.06-4.04-2.79,4.88-2.47,8.64-5.74,11.28-9.81,1.6-2.58,2.75-6.04,3.47-10.39h-4.34c-2.08,0-4.38.09-6.9.26h-.12c-.36,0-.56-.27-.61-.82-.14-.78-.27-2.34-.4-4.67,2.02.13,4.68.19,7.98.19h5.04ZM216.58,6.78l2.53-1.78c.11-.08.21-.12.3-.12.11,0,.25.07.42.21,1.63,1.27,3.14,2.98,4.55,5.14.09.12.14.24.14.35,0,.14-.09.28-.26.42l-2.02,1.48c-.16.11-.29.16-.4.16-.14,0-.28-.1-.42-.3-1.49-2.28-3.1-4.14-4.86-5.56ZM220.99,3.59l2.42-1.74c.11-.08.21-.12.31-.12.11,0,.24.07.4.21,1.85,1.41,3.37,3.07,4.57,4.97.09.14.14.27.14.38,0,.17-.09.33-.28.47l-1.92,1.5c-.14.11-.27.16-.38.16-.16,0-.31-.1-.45-.3-1.35-2.14-2.95-3.99-4.81-5.54Z"/><path class="cls-4" d="M236.7,8.87c2.02.22,5.09.33,9.22.33h17.15c1.2,0,2.09-.16,2.65-.49.2-.12.45-.19.73-.19.22,0,.52.08.89.24,1.33.83,2.5,1.88,3.52,3.17.22.27.33.54.33.82,0,.41-.23.81-.68,1.2-.31.31-.68.94-1.1,1.88-2.58,6.21-5.69,11.42-9.31,15.62-4.33,4.94-8.88,8.76-13.63,11.45-.44.28-.88.42-1.31.42s-.84-.18-1.2-.54c-1-.95-2.49-1.83-4.46-2.63,3.71-1.88,6.81-3.81,9.31-5.79,2.17-1.72,4.3-3.79,6.38-6.22,3.61-4.11,6.33-8.68,8.14-13.7h-17.36c-1.92,0-4.57.08-7.93.23-.5.05-.81-.27-.91-.96-.11-.8-.25-2.41-.42-4.83Z"/><path class="cls-4" d="M297.06,23.16v12.32c0,.31.05,2.92.14,7.84v.12c0,.45-.27.7-.82.75-.64.05-1.29.07-1.95.07s-1.3-.02-1.92-.07c-.52-.05-.77-.3-.77-.75v-.12c0-.06.03-1.46.09-4.18.03-1.39.05-2.56.05-3.52v-8.21c-3.74,3.13-7.05,5.43-9.95,6.92-.17.12-.38.19-.63.19-.36,0-.68-.16-.96-.47-.99-1.17-2.13-1.98-3.45-2.42,7.6-3.97,14.25-9.18,19.94-15.62,1.17-1.36,2.02-2.74,2.53-4.13,2.28,1.34,3.75,2.31,4.41,2.88.36.3.54.59.54.87,0,.36-.24.67-.73.92-.52.27-1.24.92-2.16,1.97-1.5,1.74-2.96,3.28-4.36,4.65Z"/><path class="cls-4" d="M317.57,19.12c.94-.52,2.21-1.15,3.8-1.9.19-.09.36-.14.52-.14.25,0,.49.16.73.47,1.92,2.42,3.3,4.79,4.13,7.11.12.45.19.7.19.73,0,.2-.19.43-.56.68-1,.58-2.03,1.07-3.1,1.48-.16.06-.3.09-.42.09-.33,0-.59-.25-.77-.75-1.16-2.96-2.66-5.54-4.5-7.76ZM342.36,15.53c2.42.75,4.21,1.52,5.37,2.3.42.31.63.59.63.82,0,.27-.17.56-.52.87-.39.33-.88,1.14-1.45,2.44-2.08,4.93-4.5,9.19-7.25,12.79-2.99,3.82-6.29,6.91-9.9,9.29-.47.34-.85.52-1.15.52s-.56-.11-.77-.33c-1.06-.86-2.42-1.53-4.08-2.02,3.1-2.05,5.5-3.82,7.2-5.33,1.55-1.38,2.99-2.93,4.32-4.67,2.82-3.66,4.98-7.52,6.5-11.59.58-1.67.95-3.37,1.1-5.09ZM327.23,16.68c2.05-.97,3.33-1.56,3.85-1.76.19-.09.35-.14.49-.14.27,0,.52.17.75.52,1.6,2.08,2.83,4.42,3.71,7.01.08.23.12.42.12.56,0,.27-.2.51-.61.73-.92.53-2.03,1.02-3.31,1.48-.13.05-.23.07-.3.07-.25,0-.47-.26-.66-.77-1.17-3.02-2.52-5.58-4.04-7.7Z"/><path class="cls-4" d="M370.28,17.06c6.04,1.89,11.13,4.07,15.27,6.54.42.22.63.49.63.82,0,.12-.03.27-.09.42-.59,1.5-1.28,2.89-2.06,4.18-.2.36-.41.54-.63.54-.19,0-.37-.08-.54-.23-4.5-2.89-8.71-4.95-12.62-6.17v10.63c0,1.75.06,4.89.19,9.41v.14c0,.39-.29.59-.87.59-.72.05-1.43.07-2.14.07s-1.43-.02-2.13-.07c-.61,0-.92-.24-.92-.73.12-3.1.19-6.25.19-9.45V10.09c0-2.92-.16-5.29-.47-7.11,2.81.19,4.82.45,6.01.77.61.12.92.4.92.82,0,.27-.13.63-.4,1.1-.22.42-.33,1.92-.33,4.5v6.87Z"/><path class="cls-4" d="M390.23,1.5l1.24-1.5c4.85,3.55,8.3,7.38,10.37,11.5,1.77,3.54,2.65,7.54,2.65,12.01,0,5.1-1.17,9.61-3.5,13.54-2.08,3.52-5.26,6.83-9.52,9.95l-1.24-1.48c4.11-3.39,7.02-7.07,8.73-11.03,1.39-3.24,2.09-6.9,2.09-10.98,0-4.69-.92-8.84-2.77-12.43-1.74-3.39-4.42-6.58-8.05-9.57Z"/><path class="cls-4" d="M448.64,12.32c-1.2,8.9-3.21,15.8-6.01,20.69-2.11,3.69-4.84,5.54-8.19,5.54-2.42,0-4.47-1.22-6.15-3.66-1.56-2.31-2.35-5.21-2.35-8.68,0-4.71,1.81-8.88,5.42-12.5,4.1-4.1,9.31-6.15,15.62-6.15s10.71,1.78,14.08,5.35c2.81,3,4.22,6.77,4.22,11.31,0,8.7-4.93,14.53-14.8,17.5-.28.08-.52.12-.7.12-.47,0-.92-.33-1.36-.99-.69-1.08-1.81-2.09-3.35-3.03,4.94-1.17,8.54-2.82,10.79-4.95,2.47-2.33,3.71-5.47,3.71-9.41,0-3.21-1.12-5.91-3.35-8.12-2.03-2.02-4.5-3.03-7.39-3.03h-.19ZM443.06,12.6c-3.42.69-6.16,2.14-8.21,4.36-2.5,2.81-3.75,5.78-3.75,8.89,0,2.21.4,3.98,1.2,5.33.63,1.03,1.31,1.55,2.06,1.55,1.31,0,2.52-.98,3.61-2.93,1.17-2.14,2.24-4.89,3.21-8.26.88-3.05,1.5-6.03,1.88-8.94Z"/><path class="cls-4" d="M496.37,31.67c1.41,1.41,2.82,3.01,4.22,4.81.22.27.33.5.33.7,0,.23-.14.49-.42.77-1.19,1.19-2.24,2.13-3.14,2.84-.27.16-.47.23-.61.23-.19,0-.38-.14-.59-.42-4.54-5.85-9.67-10.83-15.41-14.94,1.6-1.52,2.74-2.59,3.45-3.21.22-.16.4-.23.54-.23.11,0,.34.11.68.33,3.21,2.35,5.47,4.14,6.8,5.37,3.55-3.06,7.26-6.84,11.12-11.33l-20.25.09c-3.52,0-6.5.12-8.94.35-.47,0-.75-.29-.84-.87-.3-1.71-.49-3.42-.59-5.14,2.17.22,5.66.33,10.46.33h19.71c2.03,0,3.36-.15,3.99-.45.27-.16.49-.24.68-.24.28,0,.55.13.8.38,1.31,1.17,2.47,2.46,3.47,3.85.25.42.38.77.38,1.06,0,.41-.21.74-.63,1.01-1.2.88-1.97,1.49-2.3,1.83-4.29,4.74-8.59,9.03-12.9,12.88Z"/><path class="cls-4" d="M519.52,20.86c.09-.14.63-1.01,1.6-2.6.42-.69.74-1.18.96-1.48.23-.33.48-.49.73-.49.06,0,.12,0,.16.02,3.33,1.11,6.41,2.68,9.24,4.72.34.25.52.48.52.7,0,.11-.06.29-.19.54-.41.99-1.11,2.21-2.11,3.66-.27.31-.48.47-.63.47-.14,0-.33-.09-.56-.28-2.74-2.02-5.97-3.77-9.71-5.26ZM523.33,36.95c2.03-.39,4.21-1.17,6.52-2.35,5.19-2.74,9.58-5.5,13.16-8.3,4.96-3.79,9.57-8.26,13.84-13.42.22,1.52.69,3.32,1.41,5.4.16.38.23.68.23.92,0,.38-.17.74-.52,1.1-3.66,3.91-7.73,7.61-12.22,11.1-3.72,2.83-8.51,5.84-14.36,9.03-1.69.91-2.62,1.45-2.79,1.64-.25.25-.51.38-.77.38-.34,0-.67-.2-.96-.59-.91-.91-2.09-2.54-3.54-4.9ZM525.34,9.57l2.53-3.85c.22-.36.45-.54.68-.54.14,0,.32.05.54.16,3.64,1.47,6.65,3.25,9.03,5.33.25.17.38.38.38.63,0,.2-.06.41-.19.61-.92,1.66-1.74,2.86-2.46,3.61-.11.19-.27.28-.47.28s-.45-.11-.73-.33c-3-2.49-6.11-4.46-9.31-5.91Z"/><path class="cls-4" d="M566.92,11.82c.8-.97,1.92-2.22,3.35-3.75.2-.25.43-.38.68-.38.14,0,.35.08.63.23,2.99,1.59,6.04,3.87,9.17,6.83.28.28.42.51.42.68s-.09.38-.28.61c-1.05,1.39-2.04,2.6-2.98,3.61-.27.25-.46.38-.59.38-.16,0-.36-.12-.61-.38-2.92-3.02-6.19-5.63-9.81-7.83ZM567.98,35.8c2.56-.7,4.73-1.5,6.5-2.39,3.1-1.61,5.67-3.09,7.72-4.43,1.8-1.17,3.83-2.67,6.1-4.5,3.22-2.61,5.78-4.86,7.67-6.76,1.8-1.81,3.64-3.92,5.51-6.31.25,2.11.7,3.98,1.34,5.61.16.38.23.68.23.92,0,.36-.26.84-.77,1.45-2.8,3.27-6.48,6.66-11.05,10.18-3.97,3.11-8.81,6.25-14.5,9.41-1.69,1.02-2.76,1.76-3.21,2.23-.33.31-.62.47-.87.47s-.52-.17-.82-.52c-1.49-1.67-2.77-3.46-3.85-5.35Z"/><path class="cls-4" d="M620.09,19.87c4.46-1.45,8.37-3,11.73-4.64,2.31-1.13,4.03-2.28,5.14-3.47,1.31,1.09,2.64,2.54,3.99,4.34.25.28.38.57.38.87,0,.44-.27.72-.8.84-.64.17-1.97.7-3.99,1.6-4.57,2.06-10.07,4.05-16.52,5.96v6.38c0,1.22.12,2.06.38,2.53.23.42.65.72,1.24.89,1.3.36,3.31.54,6.03.54,4.25,0,8.77-.38,13.56-1.13.11-.02.21-.02.3-.02.33,0,.52.23.56.7.19,1.8.28,3.19.28,4.18,0,.53-.34.82-1.01.87-4.66.58-9.42.87-14.26.87-4.08,0-7.13-.43-9.15-1.29-2.27-.95-3.4-3.36-3.4-7.23V14.92c0-3.86-.16-6.79-.47-8.77,2.83.3,4.85.62,6.05.96.52.11.77.37.77.77,0,.28-.12.61-.35.99-.31.64-.47,2.09-.47,4.34v6.66ZM645.52,4.04c1.55,0,2.83.56,3.85,1.69.89.97,1.34,2.12,1.34,3.45,0,1.55-.57,2.82-1.71,3.82-.99.88-2.14,1.31-3.47,1.31-1.56,0-2.85-.56-3.87-1.69-.89-.97-1.34-2.12-1.34-3.45,0-1.58.57-2.87,1.71-3.87.97-.84,2.13-1.27,3.5-1.27ZM645.5,6.33c-.88,0-1.59.3-2.13.92-.47.52-.7,1.16-.7,1.92,0,.88.31,1.59.92,2.13.53.47,1.17.7,1.92.7.89,0,1.61-.31,2.16-.92.47-.52.7-1.16.7-1.92,0-.88-.31-1.59-.92-2.13-.53-.47-1.18-.7-1.95-.7Z"/><path class="cls-4" d="M658.15,15.11c2.44.25,5.39.38,8.84.38h16.47c1.08,0,1.93-.18,2.56-.54.23-.19.44-.28.61-.28.2,0,.45.11.73.33,1.28,1.02,2.36,2.01,3.24,2.98.31.33.47.67.47,1.01s-.18.65-.54.92c-.59.5-1.13,1.25-1.62,2.25-2.57,5.46-5.49,9.88-8.77,13.25-2.89,2.99-6.51,5.65-10.84,8-.45.22-.77.33-.96.33-.31,0-.67-.19-1.06-.56-1.03-.92-2.52-1.76-4.46-2.51,5.07-2.35,9.34-5.26,12.81-8.75,3.36-3.38,5.82-7.14,7.37-11.28l-16.4.05c-2.67,0-5.08.06-7.2.19-.38,0-.61-.3-.7-.91-.16-.63-.34-2.24-.54-4.83ZM662.32,4.86c2.28.22,4.91.33,7.88.33h8.66c1.94,0,4.45-.08,7.53-.23.39,0,.59.25.59.75.05.62.07,1.25.07,1.88s-.02,1.27-.07,1.88c0,.64-.23.96-.68.96h-.19l-6.78-.09h-9.5c-2.63,0-4.83.06-6.59.19-.41,0-.63-.35-.68-1.06-.16-1.11-.23-2.64-.23-4.6Z"/><path class="cls-4" d="M724.21,22.1c-.16,2.92-.46,5.31-.92,7.16-.41,1.72-1.05,3.42-1.92,5.09-.99,1.96-2.35,3.82-4.08,5.58-1.44,1.46-2.89,2.62-4.36,3.5-.61.39-1.09.59-1.43.59s-.7-.16-1.01-.47c-1.03-1.03-2.46-1.88-4.29-2.56,2.58-1.39,4.61-2.77,6.1-4.13,1.39-1.28,2.55-2.76,3.47-4.43.91-1.61,1.53-3.26,1.88-4.95.28-1.36.47-3.15.56-5.37h-9.13c-1.53,0-3.93.09-7.2.28-.36.05-.57-.26-.63-.92-.25-1.44-.38-2.97-.38-4.6,1.8.16,4.52.23,8.16.23h21.58c3.42,0,6.55-.09,9.36-.28.34,0,.52.32.52.96.03.33.05.95.05,1.85s-.02,1.5-.05,1.83c0,.55-.23.82-.7.82-3.39-.12-6.44-.19-9.13-.19h-6.45ZM706.73,5.72c2.8.16,5.46.23,7.98.23h10.77c3.28,0,5.98-.06,8.09-.19.39,0,.59.3.59.92.05.59.07,1.17.07,1.74,0,.59-.02,1.18-.07,1.76,0,.61-.21.92-.63.92-2.61-.09-5.29-.14-8.05-.14h-10.77c-.91,0-3.18.06-6.83.19-.5,0-.77-.27-.82-.82-.05-.44-.1-1.19-.16-2.25-.08-1.09-.13-1.88-.16-2.35Z"/><path class="cls-4" d="M766.64,23.16v12.32c0,.31.05,2.92.14,7.84v.12c0,.45-.27.7-.82.75-.64.05-1.29.07-1.95.07s-1.3-.02-1.92-.07c-.52-.05-.77-.3-.77-.75v-.12c0-.06.03-1.46.09-4.18.03-1.39.05-2.56.05-3.52v-8.21c-3.74,3.13-7.05,5.43-9.95,6.92-.17.12-.38.19-.63.19-.36,0-.68-.16-.96-.47-.99-1.17-2.13-1.98-3.45-2.42,7.6-3.97,14.25-9.18,19.94-15.62,1.17-1.36,2.02-2.74,2.53-4.13,2.28,1.34,3.75,2.31,4.41,2.88.36.3.54.59.54.87,0,.36-.24.67-.73.92-.52.27-1.24.92-2.16,1.97-1.5,1.74-2.96,3.28-4.36,4.65Z"/><path class="cls-4" d="M808.33,24.19c4.47,3.32,8.91,7.19,13.3,11.61.25.25.38.48.38.68s-.11.44-.33.7c-1.02,1.24-2.09,2.33-3.21,3.28-.2.19-.4.28-.59.28s-.41-.12-.68-.38c-3.61-4.24-7.77-8.21-12.48-11.92-5.02,5.24-10.4,9.47-16.14,12.69-.58.25-.95.38-1.1.38-.31,0-.59-.14-.82-.42-.89-1.11-2.24-2.16-4.04-3.14,3.86-1.96,7.18-3.97,9.95-6.05,2.25-1.69,4.57-3.75,6.97-6.19,3.43-3.55,6.44-7.57,9.03-12.06l-12.39.05c-2.47,0-5.01.1-7.6.31-.31.03-.52-.24-.63-.82-.28-1.2-.42-2.87-.42-5,1.72.12,4.43.19,8.12.19h13.21c1.67,0,2.78-.15,3.31-.45.17-.12.35-.19.54-.19.16,0,.43.12.82.38,1.03.81,2.07,1.94,3.12,3.38.16.27.23.47.23.61,0,.33-.21.65-.63.96-.66.58-1.24,1.29-1.76,2.13-1.8,3.05-3.85,6.04-6.15,8.99Z"/><path class="cls-4" d="M158.5,320.78c-.23.31-.4.47-.52.47s-.22-.17-.31-.52c-.31-1.08-.7-1.99-1.16-2.71,2.28-2.68,4.02-5.93,5.22-9.74h-.74l-3.3.06c-.17,0-.27-.02-.31-.06-.03-.04-.05-.14-.05-.28v-2.35c0-.17.02-.27.06-.3s.14-.05.3-.05l3.3.06h1.02v-1.99c0-1.89-.08-3.34-.25-4.36,1.21.03,2.27.1,3.19.22.34.04.52.15.52.33,0,.16-.06.38-.19.67-.15.37-.22,1.4-.22,3.11v2.02l3.33-.06c.17,0,.27.02.3.06s.05.14.05.28v2.35c0,.17-.02.27-.06.3-.04.03-.14.05-.28.05l-3.14-.06c.79,1.85,2.2,3.88,4.22,6.12-.42.62-.82,1.45-1.2,2.47-.16.34-.28.52-.36.52-.09,0-.25-.15-.45-.45-1.11-1.58-1.93-3.17-2.49-4.77.01,3.64.05,7.45.13,11.43.02.84.05,1.96.08,3.33.01.62.02.97.02,1.06,0,.17-.02.27-.06.3-.04.03-.14.05-.3.05h-2.58c-.18,0-.28-.02-.31-.06-.03-.04-.05-.13-.05-.28,0-.09.02-.88.05-2.35.08-4.47.14-8.54.17-12.2-.83,2.58-2.04,5.02-3.61,7.33ZM173.17,328.18h-2.6c-.23,0-.34-.11-.34-.33l.06-12.11v-6.32l-.06-8.67c0-.18.02-.28.06-.31.04-.03.14-.05.28-.05l3.94.06h6.15l3.91-.06c.17,0,.27.02.3.06.03.04.05.14.05.3l-.06,7.6v7.35l.06,12.04c0,.22-.11.33-.34.33h-2.64c-.21,0-.31-.11-.31-.33v-1.47h-8.05v1.56c0,.16-.03.25-.08.28-.04.03-.15.05-.31.05ZM173.56,303.55v4.54h8.05v-4.54h-8.05ZM173.56,315.56h8.05v-4.46h-8.05v4.46ZM173.56,323.21h8.05v-4.63h-8.05v4.63Z"/><path class="cls-4" d="M197.25,319.23l-4.32.06c-.17,0-.27-.03-.31-.08-.03-.04-.05-.14-.05-.3v-2c0-.17.03-.27.08-.3.03-.03.13-.05.28-.05l3.03.06v-2.88h-1.14l-3.97.06c-.16,0-.25-.02-.28-.06-.03-.05-.05-.16-.05-.33v-2.11c0-.23.11-.34.33-.34l3.97.06h1.14v-2.72c-.87.01-1.64.03-2.33.05l-.7.02c-.17,0-.27-.02-.31-.06-.03-.04-.05-.14-.05-.28v-2.13c0-.21.12-.31.36-.31l4.32.06h5.87v-2.35c-2.69.19-5.37.32-8.04.39-.53,0-.85-.06-.97-.17-.1-.09-.22-.35-.34-.78-.26-.7-.58-1.27-.95-1.7h.97c2.91,0,6.07-.13,9.49-.39,2.68-.2,5.37-.56,8.07-1.08.76-.15,1.45-.35,2.06-.61.85.59,1.6,1.27,2.24,2.02.19.26.28.46.28.61,0,.25-.17.38-.52.38-.38,0-.97.08-1.78.23-1.87.3-4.29.59-7.27.86v2.6h6.44l4.32-.06c.24,0,.36.1.36.31v2.13c0,.17-.03.27-.08.3-.03.03-.12.05-.28.05-.04,0-.19,0-.44-.02-.88-.02-1.84-.04-2.89-.05v2.72h1.25l3.97-.06c.21,0,.31.12.31.34v2.11c0,.18-.02.29-.05.33-.03.04-.12.06-.27.06l-3.97-.06h-1.25v2.88l3.27-.06c.17,0,.27.02.31.06.03.04.05.14.05.28v2c0,.17-.02.27-.05.31-.04.04-.14.06-.31.06l-4.32-.06h-4.3c2.82,2.35,6.7,4.09,11.67,5.22-.5.52-.96,1.28-1.39,2.28-.24.57-.46.86-.67.86-.11,0-.35-.06-.7-.19-4.63-1.63-8.32-3.91-11.07-6.83l.22,7.49c0,.17-.03.27-.08.31-.04.03-.14.05-.3.05h-2.8c-.21,0-.31-.12-.31-.36,0-.08.02-.51.05-1.27.1-2.24.16-4.3.17-6.16-2.62,2.77-6.19,5.03-10.73,6.77-.41.17-.67.25-.8.25-.19,0-.4-.27-.64-.8-.34-.75-.79-1.44-1.34-2.06,4.64-1.22,8.38-3.08,11.21-5.57h-3.66ZM199.08,311.04h4.04v-2.72h-4.04v2.72ZM199.08,316.64h4.04v-2.88h-4.04v2.88ZM206.35,311.04h4.29v-2.72h-4.29v2.72ZM206.35,316.64h4.29v-2.88h-4.29v2.88Z"/><path class="cls-4" d="M229.98,313.95c.71.54,1.51,1.21,2.41,1.99l.38-.92c.39-1.02.62-1.96.7-2.81,1.27.42,2.21.81,2.81,1.17.28.15.42.31.42.48,0,.21-.11.41-.34.61-.17.16-.39.62-.67,1.38-.27.73-.59,1.49-.97,2.27.96.96,1.91,2.03,2.86,3.21.1.1.16.19.16.27,0,.08-.08.2-.23.34l-1.6,1.74c-.17.17-.28.25-.34.25-.08,0-.18-.07-.3-.22-.67-.94-1.39-1.85-2.17-2.72-1.66,2.46-3.78,4.56-6.38,6.3-.38.26-.62.39-.74.39-.14,0-.36-.25-.67-.74-.37-.59-.84-1.13-1.44-1.61,3.02-1.7,5.39-3.91,7.08-6.63-.94-.94-1.94-1.86-3.02-2.75-.11-.08-.17-.16-.17-.23,0-.06.07-.17.2-.31l1.35-1.31c.19-.17.32-.25.41-.25.07,0,.16.04.27.12ZM223.96,313.02c1.53-1.3,2.73-2.8,3.6-4.49.17-.37.34-.89.53-1.56,1.48.58,2.36.97,2.63,1.16.32.16.48.32.48.5,0,.12-.12.29-.36.49-.16.13-.39.49-.7,1.06-.92,1.62-2,3.1-3.25,4.44-.39.34-.63.52-.72.52-.13,0-.31-.19-.56-.58-.29-.45-.84-.96-1.64-1.53ZM228.99,306.33l-3.91.06c-.17,0-.27-.02-.31-.06-.03-.04-.05-.14-.05-.28v-2.32c0-.18.03-.29.08-.33.03-.03.12-.05.28-.05l3.91.06h1.69v-1.06c0-1.51-.06-2.64-.19-3.39,1.17.03,2.24.1,3.21.22.37.03.55.14.55.33,0,.09-.08.32-.23.67-.1.25-.16.97-.16,2.17v1.06h1.31l3.91-.06c.17,0,.27.02.3.06.03.04.05.15.05.31v2.32c0,.17-.02.27-.06.3-.04.03-.14.05-.28.05l-3.91-.06h-6.18ZM240.61,312.84c-.6.37-1.18.82-1.72,1.36-.37.36-.6.55-.7.55-.14,0-.36-.2-.67-.61-1.4-1.71-2.62-3.56-3.66-5.54-.05-.1-.08-.19-.08-.25,0-.09.11-.19.33-.3l1.89-.83c.16-.07.27-.11.33-.11.08,0,.17.08.25.23,1,1.96,2.35,3.79,4.04,5.49ZM234.89,325.93c3.21-2.04,5.46-4.96,6.76-8.74.66-1.98,1.12-4.62,1.38-7.91l-3.27.06c-.19,0-.3-.02-.34-.06-.03-.04-.05-.14-.05-.28v-2.35c0-.17.03-.27.08-.3.04-.03.15-.05.31-.05l3.43.06c.04-1.16.06-2.05.06-2.69,0-1.65-.08-3.15-.25-4.52,1.02.02,2.12.08,3.28.19.32.06.48.19.48.39,0,.07-.07.36-.22.86-.1.46-.16,1.52-.16,3.17,0,.62-.02,1.48-.06,2.6h2.24l3.64-.06c.24,0,.36.13.36.39-.04,1.49-.06,2.5-.06,3.03,0,6.03-.3,10.9-.89,14.61-.21,1.31-.67,2.24-1.39,2.78-.63.47-1.51.7-2.64.7-.88,0-1.53-.02-1.96-.06-.47-.02-.75-.08-.84-.19-.07-.09-.16-.4-.25-.91-.14-.86-.38-1.59-.74-2.21,1.01.17,2.03.25,3.07.25.55,0,.94-.15,1.17-.44.22-.29.39-.81.5-1.55.53-3.41.8-7.89.8-13.45h-3.14c-.29,3.64-.83,6.64-1.63,8.99-1.28,3.76-3.42,6.88-6.41,9.35-.42.32-.68.48-.8.48-.13,0-.34-.19-.64-.58-.51-.68-1.12-1.21-1.81-1.6Z"/><path class="cls-4" d="M261.87,318.3l-4,.06c-.19,0-.3-.02-.34-.06-.03-.04-.05-.15-.05-.31v-2.28c0-.17.03-.27.08-.3.04-.03.15-.05.31-.05l4,.06h7.98v-2.33h-3.79l-4.43.06c-.17,0-.27-.02-.3-.06-.03-.04-.05-.14-.05-.28l.06-3.17v-5.71l-.06-3.19c0-.18.02-.28.06-.31s.14-.05.28-.05l4.43.06h11.34l4.44-.06c.17,0,.27.02.31.06.03.04.05.14.05.3l-.06,3.19v5.71l.06,3.17c0,.17-.02.27-.06.3-.04.03-.14.05-.3.05l-4.44-.06h-4.27v2.33h8.52l4-.06c.17,0,.27.02.31.06.03.04.05.14.05.28v2.28c0,.17-.02.27-.06.31-.04.04-.14.06-.3.06l-4-.06h-6.51c2.64,2.51,6.48,4.48,11.51,5.9-.52.54-1.01,1.28-1.45,2.21-.26.53-.47.8-.64.8-.09,0-.35-.07-.77-.22-4.38-1.61-7.97-4.05-10.76-7.33l.23,8.4c0,.17-.02.27-.06.3-.04.03-.14.05-.3.05h-2.82c-.19,0-.3-.02-.34-.06-.03-.04-.05-.13-.05-.28,0-.16.02-.67.05-1.55.1-2.61.17-4.85.19-6.73-2.55,3.1-5.96,5.52-10.23,7.27-.41.17-.66.25-.77.25-.18,0-.38-.25-.61-.77-.41-.78-.92-1.46-1.53-2.05,4.65-1.46,8.25-3.52,10.79-6.18h-5.72ZM264.59,305.6h5.26v-2.5h-5.26v2.5ZM264.59,310.55h5.26v-2.46h-5.26v2.46ZM278.9,303.09h-5.77v2.5h5.77v-2.5ZM278.9,310.55v-2.46h-5.77v2.46h5.77Z"/><path class="cls-4" d="M298.85,307.89c.32-1.16.64-2.5.95-4.04.22-1.28.33-2.46.33-3.55,1.56.33,2.84.68,3.83,1.05.34.1.52.32.52.64,0,.18-.07.34-.22.48-.26.33-.47.74-.64,1.22-.16.48-.36,1.16-.61,2.03-.24.8-.42,1.41-.55,1.81.78-.09,1.64-.14,2.56-.14,3.06,0,4.58,2.06,4.58,6.18,0,1.93-.17,3.86-.52,5.8-.31,1.78-.72,3.2-1.22,4.24-.91,2-2.35,3-4.32,3-1.51,0-2.62-.16-3.33-.49-.39-.16-.58-.45-.58-.89-.12-1.32-.33-2.31-.61-2.97,1.19.55,2.42.83,3.69.83.56,0,1-.13,1.3-.41.26-.25.51-.68.75-1.3.83-2.21,1.25-4.87,1.25-7.98,0-1.19-.15-1.99-.44-2.39-.27-.36-.73-.55-1.39-.55-.71,0-1.61.07-2.69.22-2.1,6.1-4.24,11.12-6.44,15.06-.11.26-.27.39-.47.39-.1,0-.22-.04-.36-.11-.99-.48-1.73-.95-2.22-1.41-.17-.17-.25-.32-.25-.47,0-.12.04-.24.13-.36,2.53-4.39,4.49-8.58,5.86-12.56-.73.11-1.77.3-3.13.55-.57.12-1.16.29-1.77.52-.15.05-.28.08-.39.08-.3,0-.52-.17-.64-.5-.3-.79-.63-1.89-.99-3.3,1.18,0,2.59-.07,4.22-.22,1.16-.11,2.42-.28,3.78-.49ZM309.9,307.64c1.2-.81,2.06-1.36,2.58-1.64.08-.04.16-.06.22-.06.11,0,.25.07.39.22,2.43,2.28,4.2,4.88,5.32,7.79.05.12.08.21.08.28,0,.12-.07.25-.2.36-.6.56-1.41,1.09-2.41,1.6-.12.06-.22.09-.33.09-.21,0-.34-.12-.41-.34-1.31-3.47-3.06-6.23-5.24-8.29ZM311.66,302.72l1.71-1.19c.06-.05.12-.08.19-.08.08,0,.18.05.28.14,1.09.84,2.11,1.99,3.05,3.43.06.08.09.16.09.23,0,.09-.06.19-.19.28l-1.34.99c-.09.07-.18.11-.25.11-.1,0-.2-.07-.3-.2-.99-1.52-2.07-2.76-3.24-3.71ZM314.61,300.59l1.6-1.16c.08-.05.15-.08.2-.08.07,0,.17.05.28.14,1.22.94,2.23,2.04,3.03,3.32.06.09.09.18.09.25,0,.11-.06.22-.19.31l-1.28,1c-.09.07-.18.11-.25.11-.1,0-.2-.07-.3-.2-.9-1.43-1.96-2.66-3.19-3.69Z"/><path class="cls-4" d="M323.09,323.82c1.08-.03,2.08-.1,3-.22.13,0,.32-.02.58-.06v-10.06c-.92.01-1.73.03-2.44.05-.48.01-.73.02-.74.02-.17,0-.27-.02-.3-.06s-.05-.14-.05-.3v-2.02c0-.17.02-.27.06-.3.04-.03.14-.05.28-.05l3.91.06h20.57l3.91-.06c.22,0,.33.12.33.34v2.02c0,.24-.11.36-.33.36l-3.91-.06h-10.85v10.73l.06,3.85c0,.17-.02.27-.06.3-.04.03-.14.05-.28.05h-2.38c-.17,0-.27-.02-.31-.06-.03-.04-.05-.13-.05-.28,0-.02.01-.37.03-1.03.01-.69.02-1.4.03-2.14-2.79.59-5.57,1.09-8.32,1.5-.52.07-.91.18-1.16.33-.26.12-.43.19-.52.19-.2,0-.34-.17-.44-.52-.2-.58-.41-1.44-.64-2.57ZM343.5,300.22l4.47-.06c.18,0,.28.03.31.08.03.04.05.15.05.31l-.06,2.61v3.36l.06,2.61c0,.19-.02.3-.06.34-.04.03-.14.05-.3.05l-4.47-.06h-11.67l-4.47.06c-.18,0-.28-.03-.31-.08-.03-.04-.05-.15-.05-.31l.06-2.61v-3.36l-.06-2.61c0-.19.02-.3.06-.34.04-.03.14-.05.3-.05l4.47.06h11.67ZM329.66,315.17h4.5v-1.69h-4.5v1.69ZM329.66,318.89h4.5v-1.67h-4.5v1.67ZM334.16,322.44v-1.5h-4.5v2.21c2.27-.33,3.77-.57,4.5-.7ZM330.24,302.59v1.33h14.86v-1.33h-14.86ZM345.1,307.22v-1.38h-14.86v1.38h14.86ZM337.15,325.38c2.01-.59,3.73-1.39,5.16-2.39-1.28-1.44-2.33-3.15-3.14-5.13-.34.02-.62.03-.83.03-.17,0-.27-.03-.31-.08-.03-.04-.05-.15-.05-.31v-1.85c0-.18.03-.28.08-.31.03-.03.12-.05.28-.05l3.52.06h5.41c.18,0,.37-.04.58-.12.22-.08.38-.13.48-.13.21,0,.58.25,1.13.74.57.55.86.95.86,1.19s-.11.42-.33.58c-.21.12-.5.57-.86,1.34-.76,1.52-1.63,2.82-2.6,3.88,1.52.96,3.41,1.68,5.68,2.17-.5.73-.88,1.41-1.13,2.05-.19.5-.38.75-.58.75-.1,0-.32-.05-.64-.14-2.06-.66-3.89-1.57-5.47-2.75-1.49,1.15-3.1,2.08-4.83,2.82-.38.15-.59.22-.64.22-.18,0-.37-.25-.58-.74-.37-.79-.76-1.4-1.19-1.83ZM344.42,321.16c.89-.95,1.62-2.06,2.21-3.33h-4.55c.64,1.32,1.42,2.43,2.35,3.33Z"/><path class="cls-4" d="M360.82,304.5l-4.07.06c-.18,0-.28-.02-.31-.06-.03-.04-.05-.14-.05-.28v-2.25c0-.17.02-.27.06-.3.04-.03.14-.05.3-.05l4.07.06h7.77v-.09c0-1.18-.07-2.06-.22-2.66,1.05,0,2.18.05,3.39.16.34.03.52.14.52.33,0,.02-.07.23-.22.64-.09.33-.14.84-.14,1.53v.09h8.21l4.07-.06c.17,0,.27.02.3.06.03.04.05.14.05.28v2.25c0,.17-.02.27-.06.3s-.14.05-.28.05l-4.07-.06h-19.32ZM377.18,324.88c.84.08,1.53.12,2.05.12s.8-.3.8-.91v-7.01h-19.14v7.18l.06,3.61c0,.17-.02.27-.06.31-.04.03-.14.05-.28.05h-2.77c-.17,0-.27-.03-.3-.08-.03-.03-.05-.12-.05-.28l.06-3.61v-6.22l-.06-3.38c0-.18.02-.28.06-.31s.14-.05.3-.05l4.32.06h16.58l4.32-.06c.18,0,.28.02.31.06s.05.14.05.3l-.06,3.64v2.63l.06,4.07c0,1.07-.26,1.84-.77,2.3-.31.27-.74.45-1.28.55-.49.08-1.27.12-2.33.12-.52,0-.83-.06-.94-.17-.09-.09-.18-.37-.25-.81-.14-.82-.36-1.53-.67-2.11ZM374.33,306.07l4.13-.06c.18,0,.28.02.31.06.03.04.05.13.05.28l-.06,2.08v1.97l.06,2.02c0,.17-.02.27-.06.3-.04.03-.14.05-.3.05l-4.13-.06h-7.73l-4.11.06c-.18,0-.28-.02-.31-.06-.03-.04-.05-.14-.05-.28l.06-2.02v-1.97l-.06-2.08c0-.17.02-.27.06-.3s.14-.05.3-.05l4.11.06h7.73ZM366.75,326.08h-2.31c-.17,0-.27-.02-.3-.06s-.05-.14-.05-.28l.06-3.68v-1.2l-.06-2.02c0-.17.02-.27.06-.3s.14-.05.28-.05l3.46.06h5l3.44-.06c.18,0,.28.02.31.06s.05.14.05.28l-.06,1.71v1.41l.06,3.6c0,.16-.02.25-.05.29-.04.04-.13.05-.29.05h-2.38c-.18,0-.29-.02-.33-.06-.03-.04-.05-.14-.05-.28v-.67h-6.51v.86c0,.16-.02.25-.05.29-.04.04-.13.05-.29.05ZM375.62,310.46v-2.13h-10.32v2.13h10.32ZM367.09,320.7v2.06h6.51v-2.06h-6.51Z"/><path class="cls-4" d="M404.45,306.17c-.8,5.93-2.14,10.53-4,13.79-1.41,2.46-3.23,3.69-5.46,3.69-1.62,0-2.98-.81-4.1-2.44-1.04-1.54-1.56-3.47-1.56-5.79,0-3.14,1.2-5.92,3.61-8.34,2.73-2.73,6.2-4.1,10.42-4.1s7.14,1.19,9.38,3.57c1.88,2,2.81,4.51,2.81,7.54,0,5.8-3.29,9.69-9.87,11.67-.19.05-.34.08-.47.08-.31,0-.62-.22-.91-.66-.46-.72-1.2-1.39-2.24-2.02,3.29-.78,5.69-1.88,7.19-3.3,1.65-1.55,2.47-3.64,2.47-6.27,0-2.14-.75-3.94-2.24-5.41-1.36-1.35-3-2.02-4.93-2.02h-.12ZM400.73,306.36c-2.28.46-4.11,1.43-5.47,2.91-1.67,1.88-2.5,3.85-2.5,5.93,0,1.47.27,2.65.8,3.55.42.69.88,1.03,1.38,1.03.88,0,1.68-.65,2.41-1.96.78-1.43,1.5-3.26,2.14-5.5.58-2.03,1-4.02,1.25-5.96Z"/><path class="cls-4" d="M431.2,309.27c.11-.05.2-.08.25-.08.08,0,.17.09.25.27.93,1.86,1.64,3.77,2.13,5.74.02.1.03.18.03.23,0,.14-.13.26-.39.38l-1.53.61c-.2.06-.32.09-.38.09-.1,0-.18-.1-.23-.31l-.36-1.42c-.98.14-1.72.22-2.21.27v8.77l.06,4.19c0,.17-.02.27-.06.31-.04.03-.14.05-.28.05h-2.46c-.17,0-.27-.02-.3-.06-.03-.04-.05-.14-.05-.3l.06-4.19v-8.55c-.56.06-1.46.14-2.69.23-.53.03-.94.11-1.22.25-.17.08-.33.12-.48.12-.21,0-.34-.17-.41-.52-.12-.66-.25-1.56-.36-2.72.69.07,1.31.11,1.88.11.23,0,.44,0,.63-.02.6-.76,1.18-1.53,1.74-2.3-1.31-1.77-2.72-3.37-4.21-4.8-.1-.1-.16-.2-.16-.3,0-.05.07-.19.22-.41l1.19-1.58c.15-.18.26-.27.33-.27.06,0,.15.06.25.17l.83.88c.77-1.25,1.41-2.45,1.92-3.6.23-.51.42-1.07.58-1.69,1.18.45,2.06.83,2.66,1.14.28.16.42.33.42.52,0,.17-.09.31-.28.42-.2.11-.4.37-.61.77-1.16,2.02-2.09,3.53-2.8,4.52.31.32.77.85,1.38,1.59.54-.81,1.28-2.05,2.22-3.72.39-.73.68-1.4.89-2.02,1,.38,1.89.77,2.66,1.19.26.15.39.3.39.45,0,.2-.12.37-.36.52-.21.15-.54.56-.99,1.25-1.71,2.7-3.36,5.09-4.94,7.16,1.71-.08,2.99-.16,3.85-.22-.28-.76-.55-1.41-.8-1.96-.04-.1-.06-.18-.06-.23,0-.1.11-.21.34-.31l1.45-.64ZM420.49,325c.72-1.73,1.16-3.67,1.31-5.83.05-.58.08-1.07.08-1.47,0-.15,0-.34-.02-.58,1.12.18,1.94.35,2.47.52.36.12.55.24.55.38,0,.19-.05.35-.16.49-.09.16-.18.55-.27,1.19-.31,2.54-.66,4.47-1.05,5.77-.17.51-.31.77-.42.77-.08,0-.33-.13-.73-.39-.58-.35-1.17-.63-1.77-.83ZM431.43,317.22c.15-.04.25-.06.31-.06.1,0,.18.1.23.3.49,1.28.94,3.17,1.35,5.66.02.1.03.18.03.22,0,.13-.14.25-.41.36l-1.61.55c-.18.06-.3.09-.38.09-.11,0-.18-.1-.2-.31-.28-2.54-.65-4.5-1.11-5.87-.03-.1-.05-.18-.05-.23,0-.08.12-.17.36-.25l1.47-.45ZM438.16,313.02l-3.94.06c-.17,0-.27-.02-.3-.06-.03-.04-.05-.13-.05-.28v-2.25c0-.17.02-.27.06-.3.04-.03.14-.05.28-.05l3.94.06h1.22v-3.75h-2.02l-4.16.06c-.17,0-.27-.02-.31-.06-.03-.04-.05-.14-.05-.28v-2.28c0-.17.02-.27.06-.3.04-.03.14-.05.3-.05l4.16.06h2.02v-.94c0-1.66-.06-2.86-.19-3.61,1.18.03,2.27.1,3.27.22.36.04.55.16.55.36,0,.16-.06.35-.19.58-.14.32-.2,1.12-.2,2.39v1h2.72l4.13-.06c.19,0,.3.02.34.06.03.04.05.14.05.28v2.28c0,.17-.03.27-.08.3-.04.03-.15.05-.31.05l-4.13-.06h-2.72v3.75h1.86l3.91-.06c.17,0,.27.02.3.06.03.04.05.14.05.28v2.25c0,.17-.02.27-.06.3-.04.03-.14.05-.28.05l-3.91-.06h-6.32ZM437.14,328.21h-2.49c-.18,0-.28-.02-.31-.06-.03-.04-.05-.14-.05-.3l.06-5.47v-2.53l-.06-3.61c0-.19.02-.3.06-.34.04-.03.14-.05.3-.05l3.8.06h5.52l3.8-.06c.18,0,.28.02.31.06.03.05.05.16.05.33l-.06,3.16v2.92l.06,5.44c0,.22-.12.33-.36.33h-2.55c-.24,0-.36-.11-.36-.33v-1.34h-7.37v1.44c0,.17-.02.27-.06.31-.04.03-.14.05-.3.05ZM437.5,318.69v4.94h7.37v-4.94h-7.37Z"/><path class="cls-4" d="M458.27,318.3l-4,.06c-.19,0-.3-.02-.34-.06-.03-.04-.05-.15-.05-.31v-2.28c0-.17.03-.27.08-.3.04-.03.15-.05.31-.05l4,.06h7.98v-2.33h-3.79l-4.43.06c-.17,0-.27-.02-.3-.06-.03-.04-.05-.14-.05-.28l.06-3.17v-5.71l-.06-3.19c0-.18.02-.28.06-.31s.14-.05.28-.05l4.43.06h11.34l4.44-.06c.17,0,.27.02.31.06.03.04.05.14.05.3l-.06,3.19v5.71l.06,3.17c0,.17-.02.27-.06.3-.04.03-.14.05-.3.05l-4.44-.06h-4.27v2.33h8.52l4-.06c.17,0,.27.02.31.06.03.04.05.14.05.28v2.28c0,.17-.02.27-.06.31-.04.04-.14.06-.3.06l-4-.06h-6.51c2.64,2.51,6.48,4.48,11.51,5.9-.52.54-1.01,1.28-1.45,2.21-.26.53-.47.8-.64.8-.09,0-.35-.07-.77-.22-4.38-1.61-7.97-4.05-10.76-7.33l.23,8.4c0,.17-.02.27-.06.3-.04.03-.14.05-.3.05h-2.82c-.19,0-.3-.02-.34-.06-.03-.04-.05-.13-.05-.28,0-.16.02-.67.05-1.55.1-2.61.17-4.85.19-6.73-2.55,3.1-5.96,5.52-10.23,7.27-.41.17-.66.25-.77.25-.18,0-.38-.25-.61-.77-.41-.78-.92-1.46-1.53-2.05,4.65-1.46,8.25-3.52,10.79-6.18h-5.72ZM460.99,305.6h5.26v-2.5h-5.26v2.5ZM460.99,310.55h5.26v-2.46h-5.26v2.46ZM475.3,303.09h-5.77v2.5h5.77v-2.5ZM475.3,310.55v-2.46h-5.77v2.46h5.77Z"/><path class="cls-4" d="M497.65,299.37c1.5.24,2.72.54,3.64.91.26.09.39.28.39.55,0,.2-.07.36-.22.47-.19.16-.37.41-.55.77-.04.1-.11.26-.2.47-.19.45-.37.87-.55,1.27,2.06-.24,4.01-.57,5.83-1,.07,0,.14-.02.19-.02.17,0,.28.12.33.34.19.74.3,1.51.33,2.3v.09c0,.23-.18.37-.55.42-2.49.37-4.99.69-7.51.97-1.05,1.69-1.85,2.87-2.39,3.55l.03.06c1.01-.66,2.08-.99,3.21-.99,2.3,0,3.6,1.15,3.89,3.46,2.19-1.01,3.76-1.76,4.72-2.25,1.03-.54,1.84-1.12,2.42-1.72.99,1.04,1.74,1.98,2.25,2.81.17.26.25.5.25.7,0,.24-.16.39-.48.45-.65.09-1.3.26-1.96.49-3.14,1.11-5.43,1.96-6.88,2.55v5.16c0,.32-.2.52-.61.58-.7.1-1.45.16-2.27.16-.28,0-.42-.17-.42-.52,0-1.83.01-3.13.03-3.89-1.48.76-2.52,1.51-3.11,2.24-.5.6-.75,1.28-.75,2.02,0,1.47,1.48,2.21,4.44,2.21,2.33,0,4.98-.21,7.98-.64h.09c.21,0,.32.12.34.36.2.89.3,1.76.3,2.63v.11c0,.32-.12.48-.36.48-2.17.28-4.81.42-7.93.42-5.36,0-8.04-1.76-8.04-5.29,0-1.64.59-3.09,1.78-4.36,1.05-1.13,2.71-2.27,4.97-3.44-.05-.87-.21-1.46-.48-1.77-.25-.3-.67-.45-1.25-.45h-.19c-1.24.05-2.72.82-4.43,2.32-.99.97-2.06,2.13-3.21,3.49-.16.19-.29.28-.39.28-.08,0-.2-.07-.34-.22-.91-.91-1.52-1.61-1.83-2.11-.08-.11-.13-.21-.13-.3,0-.12.07-.23.22-.34,2.91-2.6,5.15-5.25,6.71-7.95-1.49.06-3.2.09-5.13.09-.24,0-.39-.17-.45-.52-.07-.41-.18-1.29-.31-2.64,1.02.04,2.1.06,3.22.06,1.35,0,2.74-.04,4.14-.11.39-.95.7-1.87.95-2.75.16-.64.23-1.29.23-1.96Z"/><path class="cls-4" d="M523.35,326.76l-4.07.06c-.17,0-.27-.02-.31-.06-.03-.04-.05-.14-.05-.28v-2.71c0-.17.03-.27.08-.3.03-.03.12-.05.28-.05l4.07.06h8.04v-5.82h-3.52l-4.43.06c-.17,0-.27-.02-.3-.06s-.05-.14-.05-.28v-2.61c0-.21.11-.31.34-.31l4.43.06h3.52v-5.47h-6.73c-.8,1.63-1.74,3.12-2.81,4.47-.29.39-.5.58-.61.58-.09,0-.33-.17-.7-.52-.62-.62-1.29-1.09-2.02-1.42,2.2-2.57,3.92-5.69,5.15-9.37.24-.72.39-1.42.45-2.11.76.14,1.8.39,3.11.77.39.1.58.27.58.49,0,.13-.11.33-.33.58-.2.21-.4.62-.61,1.22l-.77,2.11h5.29v-1.67c0-2.02-.08-3.64-.25-4.86,1.49.04,2.7.12,3.61.23.34.03.52.15.52.34,0,.18-.05.39-.16.64-.16.39-.23,1.57-.23,3.55v1.77h5.51l4.4-.06c.19,0,.3.02.33.06.03.04.05.14.05.28v2.64c0,.17-.02.27-.06.3s-.15.05-.31.05l-4.4-.06h-5.51v5.47h4l4.43-.06c.23,0,.34.1.34.31v2.61c0,.16-.02.25-.05.29-.04.04-.13.05-.29.05l-4.43-.06h-4v5.82h7.59l4.07-.06c.18,0,.28.02.31.06s.05.14.05.28v2.71c0,.16-.02.25-.05.29-.04.04-.14.05-.31.05l-4.07-.06h-19.11Z"/><path class="cls-4" d="M570.53,313.85c.34-1.58.57-2.96.67-4.13.03-.31.05-.62.05-.92,0-.38-.03-.79-.08-1.25,1.68.42,2.91.88,3.71,1.38.22.13.33.31.33.55,0,.12-.03.23-.09.31-.31.67-.48,1.08-.52,1.25-.2,1.01-.5,2.39-.89,4.13,1.9.97,3.56,2,4.99,3.08.18.09.27.21.27.34,0,.07-.02.18-.06.33-.42.99-.88,1.91-1.38,2.75-.09.15-.19.22-.3.22s-.23-.07-.38-.22c-1.39-1.2-2.79-2.21-4.21-3.02-.89,1.99-1.85,3.65-2.89,4.97-.95,1.2-2.14,2.35-3.58,3.46-.3.24-.52.36-.64.36-.1,0-.26-.07-.47-.22-.72-.58-1.65-1.03-2.8-1.33,2.05-1.43,3.68-2.91,4.86-4.46.95-1.24,1.72-2.65,2.31-4.22-1.85-.94-3.96-1.59-6.33-1.96-1.55,3.22-2.86,5.36-3.91,6.41-1.12,1.18-2.48,1.77-4.1,1.77-1.13,0-2.04-.39-2.75-1.17-.71-.79-1.06-1.87-1.06-3.22,0-2.14,1.02-3.89,3.07-5.27,1.77-1.21,3.9-1.81,6.38-1.81,1.06-2.66,1.95-5.19,2.66-7.58-1.44.16-2.91.33-4.41.52-.54.07-1.03.19-1.45.36-.21.08-.4.12-.58.12-.24,0-.41-.12-.5-.36-.28-.62-.59-1.78-.94-3.49.67.14,1.4.2,2.21.2.18,0,.38,0,.61-.02,1.33,0,2.99-.14,4.97-.42.62-.09,1.14-.28,1.56-.55.11-.08.26-.12.42-.12.18,0,.32.04.44.12.79.47,1.52,1.06,2.19,1.77.19.19.28.37.28.55,0,.15-.1.33-.31.55-.22.19-.4.46-.55.83l-.33.83c-1.6,4.19-2.49,6.52-2.67,6.99,1.95.25,4.02.78,6.21,1.59ZM559.6,315.01c-1.69.06-3.04.51-4.05,1.33-.83.67-1.25,1.44-1.25,2.33,0,.98.38,1.47,1.13,1.47.58,0,1.2-.41,1.85-1.22.74-.93,1.52-2.23,2.33-3.91Z"/><path class="cls-4" d="M594.2,318.76c-.08-2-.14-3.27-.16-3.82-.9.02-1.71.03-2.42.03-1.5,0-2.89-.06-4.18-.17-.31,0-.48-.18-.52-.53-.13-.71-.19-1.62-.19-2.72,1.64.2,3.36.3,5.16.3.67,0,1.35-.02,2.05-.05l-.06-3.67c-1.27.04-2.35.06-3.22.06-1.67,0-3.15-.07-4.44-.22-.33,0-.52-.15-.55-.45-.09-.78-.17-1.74-.22-2.88,1.86.21,4.66.31,8.4.31,0-.62-.02-1.65-.06-3.11-.07-.83-.2-1.55-.39-2.14,1.74.1,3.09.3,4.04.58.3.09.45.3.45.61,0,.12-.03.24-.09.34-.3.59-.46,1.11-.48,1.55-.01.24-.02.56-.03.97-.01.47-.02.83-.03,1.08,2.41-.19,4.74-.51,7.01-.97.09-.02.17-.03.23-.03.19,0,.29.14.31.42.1.75.16,1.53.16,2.33,0,.31-.11.49-.34.52-2.33.4-4.79.67-7.4.83l.03,3.63c.97-.06,3.06-.34,6.27-.83.11-.03.2-.05.27-.05.15,0,.23.1.25.3.06,1.22.09,2.1.09,2.63,0,.27-.16.42-.48.45-2.24.37-4.33.62-6.27.77.09,2.16.17,3.67.22,4.52,3.09.85,5.92,2.14,8.49,3.86.19.17.28.32.28.45,0,.06-.02.17-.06.31-.32.9-.79,1.69-1.41,2.38-.11.17-.25.25-.41.25-.14,0-.26-.05-.36-.16-1.85-1.46-3.97-2.67-6.37-3.64-.02,1.81-.64,3.11-1.85,3.88-1.03.66-2.59.99-4.66.99-2.19,0-3.87-.47-5.05-1.41-.99-.79-1.49-1.81-1.49-3.07,0-1.42.66-2.55,1.99-3.41,1.17-.76,2.64-1.14,4.43-1.14,1.04,0,2.06.04,3.07.12ZM594.26,321.8c-1.05-.25-2.04-.38-2.97-.38-2.3,0-3.46.56-3.46,1.69,0,.96,1.06,1.44,3.18,1.44,1.44,0,2.41-.32,2.91-.95.23-.32.34-.92.34-1.8Z"/><path class="cls-4" d="M626.01,304.83c-.01-.31-.02-.8-.03-1.47-.01-.5-.02-.9-.03-1.19-.06-.8-.19-1.58-.39-2.35,1.56.1,2.82.26,3.75.45.59.1.89.31.89.61,0,.17-.09.41-.28.73-.11.22-.2.53-.27.92-.01.14-.03.82-.06,2.05,2.87-.1,6.15-.16,9.84-.16.2,0,.32.03.38.09s.08.19.09.39c.02.42.03.82.03,1.22s-.01.8-.03,1.22c0,.28-.14.42-.41.42h-.12c-1.94-.06-4-.09-6.18-.09-1.31,0-2.51,0-3.6.02,0,2.67.01,4.66.03,5.96.32.87.48,1.92.48,3.17,0,4.4-1.9,7.85-5.71,10.34-.63.41-1.04.61-1.25.61-.23,0-.55-.16-.95-.49-.68-.56-1.49-.98-2.44-1.27,1.95-.87,3.51-2,4.69-3.39.98-1.15,1.61-2.37,1.88-3.66-.58.86-1.58,1.28-3,1.28s-2.51-.49-3.33-1.47c-.75-.89-1.13-2.03-1.13-3.44,0-1.54.54-2.77,1.63-3.68.9-.75,1.97-1.13,3.21-1.13,1.14,0,1.95.21,2.44.64l-.03-3.27c-4.63.26-8.33.58-11.09.97-.25.03-.57.11-.95.24-.28.09-.46.14-.55.14-.27,0-.45-.15-.55-.45-.22-.55-.48-1.63-.8-3.22.32.03.66.05,1.02.05.32,0,1.29-.06,2.89-.17,1.72-.15,5.03-.36,9.93-.64ZM623.97,313.06c-.6,0-1.11.19-1.52.58s-.61.89-.61,1.5c0,.73.22,1.3.67,1.7.37.32.82.49,1.38.49.68,0,1.22-.21,1.63-.63.38-.4.56-.93.56-1.6s-.22-1.21-.66-1.58c-.37-.31-.85-.47-1.45-.47Z"/><path class="cls-4" d="M655.42,300.43l-.86,19.07h-3.24l-.89-19.07h4.99ZM650.62,322.61h4.55v4.32h-4.55v-4.32Z"/><path class="cls-4" d="M391.48,128.51l-10.08,9.97c-6.38-6.75-13.81-10.12-22.31-10.12-7.4,0-13.6,2.45-18.6,7.36-5,4.91-7.5,10.87-7.5,17.89s2.59,13.41,7.78,18.45c5.18,5.04,11.58,7.56,19.19,7.56,4.95,0,9.12-1.04,12.51-3.12,3.39-2.08,6.13-5.33,8.21-9.76h-21.78v-13.44h37.83l.1,3.17c0,6.58-1.7,12.81-5.11,18.71-3.41,5.9-7.82,10.39-13.24,13.49-5.42,3.1-11.77,4.65-19.07,4.65-7.8,0-14.76-1.7-20.88-5.09-6.12-3.39-10.96-8.22-14.52-14.49-3.56-6.27-5.34-13.04-5.34-20.29,0-9.95,3.29-18.61,9.87-25.97,7.8-8.76,17.96-13.14,30.46-13.14,6.54,0,12.66,1.21,18.35,3.63,4.8,2.04,9.51,5.55,14.11,10.53Z"/><path class="cls-4" d="M442.34,116.24h14.52l28.92,75.19h-14.87l-5.88-15.49h-30.68l-6.12,15.49h-14.87l29-75.19ZM449.69,136.18l-10.09,25.81h20.12l-10.03-25.81Z"/><path class="cls-4" d="M508.57,116.24h37.31v13.95h-23.1v13.65h23.1v13.75h-23.1v33.84h-14.21v-75.19Z"/><path class="cls-4" d="M579.57,116.24h14.21v75.19h-14.21v-75.19Z"/><path class="cls-4" d="M624.45,116.24h41.56v14.11h-13.7v61.08h-14.52v-61.08h-13.34v-14.11Z"/><path class="cls-4" d="M326.39,209.65h11.17v2.17h-8.94v6.98h8.94v2.17h-8.94v10.96h-2.23v-22.28Z"/><path class="cls-4" d="M345.17,210.4c0,.96-.81,1.77-1.77,1.77s-1.74-.81-1.74-1.77.81-1.74,1.74-1.74,1.77.78,1.77,1.74ZM342.38,215.46h2.11v16.48h-2.11v-16.48Z"/><path class="cls-4" d="M352.31,209.31h2.11v6.14h3.38v1.86h-3.38v14.62h-2.11v-14.62h-2.92v-1.86h2.92v-6.14Z"/><path class="cls-4" d="M364.6,218.41c1.71-2.23,3.76-3.38,6.18-3.38,3.6,0,6.11,2.48,6.11,7.67v9.25h-2.11v-8.97c0-3.88-1.21-6.02-4.41-6.02-1.77,0-3.23.78-4.35,2.23-1.24,1.61-1.43,3.23-1.43,5.83v6.92h-2.11v-16.48h2.11v2.95Z"/><path class="cls-4" d="M384.37,223.87c.09,3.79,2.67,6.55,6.21,6.55s5.09-1.96,6.3-3.94l1.77.93c-1.68,3.29-4.25,4.94-7.85,4.94-5.46,0-8.6-4.19-8.6-8.6s3.32-8.72,8.47-8.72c4.69,0,8.47,3.38,8.54,8.85h-14.84ZM396.88,222.01c-.87-3.41-3.32-4.94-6.18-4.94s-5.15,1.58-6.11,4.94h12.29Z"/><path class="cls-4" d="M404.49,228.49c1.06,1.18,2.2,1.83,3.45,1.83,1.61,0,3.04-1.18,3.04-2.73,0-.96-.56-1.86-1.36-2.3-3.79-2.11-5.71-3.01-5.71-5.9,0-2.61,2.02-4.38,4.53-4.38,1.8,0,3.17.87,4.56,2.23l-1.37,1.4c-.99-.96-1.99-1.58-3.32-1.58s-2.48.96-2.48,2.2c0,.84.53,1.77,1.27,2.2,3.79,2.2,5.9,3.04,5.9,6.02,0,2.58-1.99,4.87-4.97,4.87-1.83,0-3.69-.84-4.87-2.36l1.33-1.52Z"/><path class="cls-4" d="M418.08,228.49c1.06,1.18,2.2,1.83,3.45,1.83,1.61,0,3.04-1.18,3.04-2.73,0-.96-.56-1.86-1.36-2.3-3.79-2.11-5.71-3.01-5.71-5.9,0-2.61,2.02-4.38,4.53-4.38,1.8,0,3.17.87,4.56,2.23l-1.37,1.4c-.99-.96-1.99-1.58-3.32-1.58s-2.48.96-2.48,2.2c0,.84.53,1.77,1.27,2.2,3.79,2.2,5.9,3.04,5.9,6.02,0,2.58-1.99,4.87-4.97,4.87-1.83,0-3.69-.84-4.87-2.36l1.33-1.52Z"/><path class="cls-4" d="M465.23,221.23c-.03,7.08-4.53,11.23-11.2,11.23-7.73,0-12.57-5.52-12.57-11.67s4.9-11.7,12.23-11.7c4.1,0,7.23,1.49,10.21,4.31l-1.71,1.61c-2.51-2.45-5.56-3.76-8.44-3.76-5.34,0-9.96,4.1-9.96,9.47s4.31,9.68,10.3,9.68c4.22,0,8.01-2.51,8.63-7.01h-7.11v-2.17h9.62Z"/><path class="cls-4" d="M468.89,215.46h2.23l5.68,12.69,5.49-12.69h2.27l-9.84,22.5h-2.23l3.17-7.26-6.77-15.24Z"/><path class="cls-4" d="M502.16,231.94h-2.11v-8.44c0-1.27-.12-2.33-.15-3.07-.09-1.8-1.55-3.35-3.72-3.35-1.46,0-2.92.71-3.85,1.92-1.18,1.52-1.4,3.48-1.4,5.96v6.98h-2.11v-16.48h2.11v2.82c1.46-2.11,3.29-3.26,5.65-3.26,2.51,0,4.31,1.3,5.21,3.97,1.46-2.64,3.63-3.97,6.05-3.97,3.41,0,5.62,2.45,5.62,7.14v9.78h-2.11v-9c0-1.21-.15-2.17-.19-2.79-.09-1.46-1.49-3.07-3.72-3.07-2.05,0-3.85,1.24-4.69,3.35-.53,1.33-.59,2.79-.59,4.31v7.2Z"/><path class="cls-4" d="M535.75,232.47c-3.69,0-5.68-2.39-5.68-5.15,0-2.95,2.14-5.03,5.34-7.57-1.77-2.11-2.86-3.54-2.86-5.25,0-2.36,2.2-4,4.94-4,2.89,0,4.87,1.74,4.87,4.04,0,1.89-1.43,3.57-3.85,5.62,3.72,3.97,5.65,5.8,5.71,5.87.99-.84,1.96-1.64,2.7-2.33l1.49,1.62c-.78.68-1.64,1.46-2.61,2.23,1.46,1.55,2.95,2.92,4.22,4.41h-3.1c-1.52-1.64-2.51-2.58-2.89-2.98-2.61,1.96-4.84,3.51-8.29,3.51ZM532.24,227.19c0,1.58,1.49,3.23,3.72,3.23,2.05,0,4.1-1.24,6.58-3.01-1.58-1.61-3.54-3.51-5.68-5.96-2.82,2.14-4.62,3.79-4.62,5.74ZM540.18,214.49c0-1.09-1.18-1.95-2.76-1.95-1.33,0-2.7.74-2.7,1.99,0,.87.84,2.17,2.42,3.94,1.99-1.55,3.04-2.95,3.04-3.97Z"/><path class="cls-4" d="M565.2,209.65h5.15c2.33,0,4.07.15,5.15.56,2.27.87,3.66,2.86,3.66,5.37,0,2.11-.99,3.88-2.58,4.87-1.58.99-3.88,1.12-6.95,1.12h-2.2v10.37h-2.23v-22.28ZM567.44,211.83v7.57c1.27.03,2.54,0,3.69,0,1.92,0,3.41-.12,4.41-.93.78-.62,1.3-1.77,1.3-2.89s-.56-2.27-1.4-2.92c-.99-.74-2.33-.84-4.06-.84h-3.94Z"/><path class="cls-4" d="M587.3,210.4c0,.96-.81,1.77-1.77,1.77s-1.74-.81-1.74-1.77.81-1.74,1.74-1.74,1.77.78,1.77,1.74ZM584.51,215.46h2.11v16.48h-2.11v-16.48Z"/><path class="cls-4" d="M592.24,209.1h2.11v22.84h-2.11v-22.84Z"/><path class="cls-4" d="M614.65,215.46h2.08v16.48h-2.08v-2.82c-1.8,2.17-4.07,3.23-6.64,3.23-4.81,0-8.44-4-8.44-8.69s3.72-8.63,8.5-8.63c2.67,0,4.94,1.15,6.58,3.44v-3.01ZM601.74,223.71c0,3.57,2.79,6.7,6.49,6.7,3.38,0,6.58-2.55,6.58-6.64,0-3.82-2.86-6.7-6.55-6.7s-6.52,3.1-6.52,6.64Z"/><path class="cls-4" d="M624.95,209.31h2.11v6.14h3.38v1.86h-3.38v14.62h-2.11v-14.62h-2.92v-1.86h2.92v-6.14Z"/><path class="cls-4" d="M636.53,223.87c.09,3.79,2.67,6.55,6.21,6.55s5.09-1.96,6.3-3.94l1.77.93c-1.68,3.29-4.25,4.94-7.85,4.94-5.46,0-8.6-4.19-8.6-8.6s3.32-8.72,8.47-8.72c4.69,0,8.47,3.38,8.54,8.85h-14.84ZM649.04,222.01c-.87-3.41-3.32-4.94-6.18-4.94s-5.15,1.58-6.11,4.94h12.29Z"/><path class="cls-4" d="M656.64,228.49c1.06,1.18,2.2,1.83,3.45,1.83,1.61,0,3.04-1.18,3.04-2.73,0-.96-.56-1.86-1.37-2.3-3.79-2.11-5.71-3.01-5.71-5.9,0-2.61,2.02-4.38,4.53-4.38,1.8,0,3.17.87,4.56,2.23l-1.37,1.4c-.99-.96-1.99-1.58-3.32-1.58s-2.48.96-2.48,2.2c0,.84.53,1.77,1.27,2.2,3.79,2.2,5.9,3.04,5.9,6.02,0,2.58-1.99,4.87-4.97,4.87-1.83,0-3.69-.84-4.87-2.36l1.33-1.52Z"/><path class="cls-4" d="M200.86,116.53h36.58c-6.49-6.93-16.27-11.31-30.93-11.31h-42.3c-9.36,0-15.92,3.9-15.92,16.39v76.47c0,12.48,6.55,16.39,15.92,16.39h3.06c-9.77-9.81-12.77-25.25-12.77-43.31,0-31.21,8.9-54.62,46.35-54.62Z"/><path class="cls-4" d="M255.48,172.31v37.07c0,12.49-6.56,16.39-15.92,16.39h-38.71c-7.31,0-13.52-.9-18.8-2.57,6.82,10.3,18.53,16.53,37.83,16.53h38.71c9.36,0,15.92-3.9,15.92-16.39v-51.03h-19.03Z"/><path class="cls-4" d="M210.54,209.39h16.54c1.72,0,3.08-.13,4.15-.43.9-.56,1.78-1.16,2.6-1.8.77-1.2,1.05-2.98,1.05-5.58v-16.07h-15.34v-13.48h29.54c.36-4.03.5-8.13.5-12.19,0-9.2-.72-18.58-3.2-26.92h-35.85c-26.53,0-34.8,8.58-34.8,38.24s8.27,38.24,34.8,38.24Z"/><circle class="cls-4" cx="237.44" cy="491.85" r="121.65"/><path class="cls-2" d="M208.96,486.79c2.28-2.44,4.11-5.55,5.49-9.34.27-.68.43-1.36.49-2.04,1.15.32,2.04.62,2.68.9.31.14.46.3.46.49,0,.16-.11.33-.32.51-.19.16-.39.54-.63,1.14-.67,1.75-1.25,3.12-1.74,4.1v14.29l.06,4.32c0,.15-.02.24-.06.28-.04.03-.12.04-.25.04h-2.38c-.16,0-.25-.02-.29-.06-.03-.04-.04-.12-.04-.26l.06-4.32v-6.55c0-1.33,0-2.34.03-3.04-.48.65-1.02,1.32-1.6,2.02-.19.25-.37.38-.54.38s-.29-.16-.36-.49c-.25-.92-.6-1.71-1.06-2.36ZM221.24,488.17l-3.91.06c-.15,0-.24-.02-.26-.06-.03-.05-.04-.14-.04-.29v-2.18c0-.16.02-.25.06-.28.04-.03.12-.04.25-.04l3.91.06h10l3.89-.06c.15,0,.24.02.28.06.03.04.04.12.04.26v2.18c0,.16-.02.25-.05.29-.03.04-.12.06-.27.06l-3.89-.06h-5.35c-1.02,3.38-2.03,6.28-3.03,8.69,2.71-.3,5.13-.62,7.27-.97-.53-.95-1.23-2.09-2.11-3.42-.06-.09-.1-.17-.1-.22,0-.1.11-.21.32-.32l1.74-.82c.16-.07.27-.11.33-.11.09,0,.19.08.29.24,1.86,2.72,3.41,5.42,4.64,8.08.06.1.08.18.08.24,0,.12-.13.24-.39.36l-1.93.96c-.18.09-.3.14-.36.14-.07,0-.14-.08-.21-.25-.57-1.29-.94-2.11-1.11-2.47-3.64.67-7.6,1.26-11.87,1.77-.51.06-.86.13-1.06.24-.27.15-.45.22-.54.22-.19,0-.33-.15-.43-.46-.22-.8-.43-1.75-.63-2.85.49.02.91.03,1.25.03.57,0,1.1-.02,1.57-.06,1.01-2.42,2.01-5.42,2.99-8.99h-1.36ZM222.95,480.64l-3.68.06c-.16,0-.26-.02-.29-.06-.03-.04-.04-.12-.04-.25v-2.24c0-.15.02-.24.06-.26.04-.03.13-.04.28-.04l3.68.06h6.66l3.67-.06c.17,0,.26.02.29.06.04.04.06.12.06.25v2.24c0,.15-.02.24-.07.26-.04.03-.13.04-.28.04l-3.67-.06h-6.66Z"/><path class="cls-2" d="M239.19,498.61c.67-1.59,1.07-3.32,1.2-5.19.06-.67.1-1.14.1-1.4,0-.14,0-.26-.01-.36.95.12,1.68.24,2.17.35.32.07.49.19.49.33s-.05.29-.14.43c-.06.1-.13.45-.21,1.06-.22,2.08-.55,3.81-.99,5.21-.14.42-.27.63-.4.63-.15,0-.36-.1-.63-.29-.5-.34-1.02-.6-1.57-.76ZM261.21,482.2c1.34,1.4,2.64,3.13,3.88,5.19.04.09.06.17.06.22,0,.11-.1.22-.29.32l-1.68.89c-.19.09-.31.14-.38.14-.05,0-.11-.06-.19-.19-.27-.56-.53-1.05-.79-1.49-2.56.33-5.55.66-8.97.99-.63.06-1.06.14-1.28.26-.19.11-.34.17-.43.17-.13,0-.24-.12-.32-.38-.25-.79-.44-1.67-.57-2.64.59.03,1.01.04,1.27.04.15,0,.31,0,.5-.01.9-1.59,1.58-3.04,2.03-4.32h-.08l-3.71.06c-.2,0-.31-.09-.31-.28v-1.03c-.09.07-.16.1-.21.11-.21.13-.52.51-.93,1.14-1.33,2.09-2.78,4.15-4.37,6.17l3-.17c-.05-.12-.27-.67-.68-1.66-.04-.07-.06-.13-.06-.18,0-.1.11-.2.33-.29l1.25-.51c.11-.05.19-.07.25-.07.08,0,.17.09.26.26.73,1.55,1.35,3.23,1.85,5.03.02.08.03.13.03.18,0,.16-.13.28-.38.36l-1.45.46c-.16.05-.26.07-.32.07-.09,0-.16-.1-.19-.29-.11-.58-.2-.99-.28-1.25l-1.52.17v7.83l.06,3.73c0,.16-.02.25-.06.28-.04.03-.13.04-.26.04h-2.17c-.15,0-.24-.02-.26-.06s-.04-.12-.04-.26l.06-3.73v-7.58l-2.34.18c-.47.03-.83.1-1.08.22-.15.07-.29.11-.42.11-.17,0-.28-.15-.35-.46-.15-.77-.26-1.58-.35-2.42.69.08,1.37.13,2.06.13.59-.77,1.19-1.57,1.79-2.39-1.12-1.39-2.37-2.72-3.74-3.99-.11-.11-.17-.2-.17-.26,0-.05.07-.17.21-.36l.96-1.4c.12-.17.22-.25.29-.25.06,0,.14.05.25.17l.65.65c.5-.8,1.01-1.73,1.54-2.81.32-.67.55-1.26.68-1.77,1.21.49,2.02.86,2.45,1.11.25.16.38.31.38.44,0,.11-.08.24-.25.38-.19.14-.38.36-.54.65-.75,1.31-1.59,2.57-2.52,3.78.59.63,1.02,1.11,1.28,1.43.59-.91,1.2-1.9,1.81-2.96.3-.55.58-1.19.85-1.93.88.38,1.68.79,2.39,1.22l.24.17v-.43c0-.15.02-.24.06-.26.04-.03.12-.04.25-.04l3.71.06h1.67v-.68c0-1.03-.06-1.94-.19-2.74,1.08.03,2.08.09,3.02.19.31.04.46.13.46.29,0,.13-.06.33-.18.6-.09.19-.14.74-.14,1.65v.68h2.6l3.73-.06c.19,0,.29.1.29.31v2.03c0,.19-.1.28-.29.28l-3.73-.06h-4.1c-.58,1.46-1.26,2.84-2.03,4.16,2.11-.16,3.88-.33,5.3-.51-.28-.4-.72-.96-1.33-1.68-.08-.1-.13-.19-.13-.25,0-.09.09-.18.26-.26l1.49-.71c.14-.06.24-.1.29-.1.07,0,.17.06.28.18ZM248.92,491.54c.13-.04.22-.06.26-.06.08,0,.16.08.22.25.54,1.3.94,2.67,1.2,4.1.02.09.03.16.03.21,0,.14-.12.25-.36.33l-1.46.49c-.14.05-.24.07-.31.07-.1,0-.17-.1-.21-.31-.19-1.54-.51-2.96-.96-4.27-.03-.09-.04-.16-.04-.19,0-.11.11-.2.32-.25l1.31-.38ZM247.64,499.45c2.21-1.03,3.63-2.1,4.28-3.21.58-1,.88-2.55.88-4.64,0-.98-.04-1.77-.11-2.36.91.03,1.77.08,2.59.17.42.04.63.16.63.38,0,.03-.05.21-.14.54-.09.29-.14.8-.14,1.54-.02,2.49-.46,4.45-1.33,5.88-.75,1.23-1.98,2.34-3.68,3.34-.38.19-.62.29-.71.29-.19,0-.42-.17-.68-.51-.44-.54-.96-1.01-1.57-1.4ZM263.07,495.08c.36.27.95.51,1.77.74.31.08.51.17.58.26.07.08.11.25.11.49v.25c-.1,1.73-.43,2.89-.97,3.48-.5.53-1.64.79-3.42.79-1.18,0-2.03-.14-2.54-.43-.53-.31-.79-.94-.79-1.91v-6.8c0-1.3-.06-2.27-.17-2.91,1.34.08,2.26.15,2.74.19.38.04.57.15.57.35,0,.03-.06.22-.17.57-.1.26-.15.99-.15,2.18v5.32c0,.36.07.57.22.62.18.12.47.18.89.18.48,0,.81-.13.97-.4.19-.28.31-1.27.36-2.99Z"/><path class="cls-2" d="M180.04,525.44c2.64-.86,4.96-1.78,6.95-2.75,1.37-.67,2.39-1.35,3.04-2.06.78.65,1.57,1.51,2.36,2.57.15.17.22.34.22.51,0,.26-.16.43-.47.5-.38.1-1.17.42-2.36.95-2.71,1.22-5.97,2.4-9.79,3.53v3.78c0,.72.07,1.22.22,1.5.14.25.38.43.74.53.77.21,1.96.32,3.57.32,2.52,0,5.2-.22,8.04-.67.06,0,.12-.01.18-.01.19,0,.31.14.33.42.11,1.07.17,1.89.17,2.47,0,.31-.2.49-.6.51-2.76.34-5.58.51-8.45.51-2.42,0-4.23-.25-5.42-.76-1.34-.57-2.02-1.99-2.02-4.28v-10.51c0-2.29-.09-4.02-.28-5.2,1.68.18,2.87.37,3.59.57.31.06.46.22.46.46,0,.17-.07.36-.21.58-.19.38-.28,1.24-.28,2.57v3.95ZM195.11,516.05c.92,0,1.68.33,2.28,1,.53.57.79,1.26.79,2.04,0,.92-.34,1.67-1.02,2.27-.58.52-1.27.78-2.06.78-.93,0-1.69-.33-2.29-1-.53-.57-.79-1.26-.79-2.04,0-.94.34-1.7,1.01-2.29.57-.5,1.27-.75,2.07-.75ZM195.1,517.42c-.52,0-.94.18-1.27.54-.28.31-.42.69-.42,1.14,0,.52.18.94.54,1.27.31.28.7.42,1.14.42.53,0,.95-.18,1.28-.54.28-.31.42-.69.42-1.14,0-.52-.18-.94-.54-1.26-.31-.28-.7-.42-1.15-.42Z"/><path class="cls-2" d="M202.85,522.62c1.45.15,3.19.22,5.24.22h9.76c.64,0,1.14-.11,1.52-.32.14-.11.26-.17.36-.17.12,0,.26.06.43.19.76.6,1.4,1.19,1.92,1.77.19.19.28.39.28.6s-.11.38-.32.54c-.35.3-.67.74-.96,1.33-1.52,3.23-3.25,5.85-5.2,7.85-1.71,1.77-3.86,3.35-6.42,4.74-.27.13-.46.19-.57.19-.19,0-.39-.11-.63-.33-.61-.55-1.49-1.04-2.64-1.49,3-1.39,5.53-3.12,7.59-5.19,1.99-2,3.45-4.23,4.37-6.69l-9.72.03c-1.58,0-3.01.04-4.27.11-.22,0-.36-.18-.42-.54-.09-.37-.2-1.33-.32-2.86ZM205.33,516.54c1.35.13,2.91.19,4.67.19h5.13c1.15,0,2.64-.05,4.46-.14.23,0,.35.15.35.44.03.37.04.74.04,1.11s-.01.75-.04,1.11c0,.38-.13.57-.4.57h-.11l-4.02-.06h-5.63c-1.56,0-2.86.04-3.91.11-.24,0-.38-.21-.4-.63-.09-.66-.14-1.57-.14-2.72Z"/><path class="cls-2" d="M242.26,526.76c-.09,1.73-.27,3.15-.54,4.24-.24,1.02-.62,2.03-1.14,3.02-.58,1.16-1.39,2.26-2.42,3.31-.85.86-1.71,1.55-2.59,2.07-.36.23-.64.35-.85.35s-.41-.09-.6-.28c-.61-.61-1.46-1.12-2.54-1.52,1.53-.82,2.73-1.64,3.61-2.45.82-.76,1.51-1.64,2.06-2.63.54-.95.91-1.93,1.11-2.93.17-.81.28-1.87.33-3.18h-5.41c-.91,0-2.33.06-4.27.17-.21.03-.34-.15-.38-.54-.15-.85-.22-1.76-.22-2.72,1.07.09,2.68.14,4.84.14h12.79c2.03,0,3.88-.06,5.55-.17.2,0,.31.19.31.57.02.19.03.56.03,1.1s0,.89-.03,1.08c0,.32-.14.49-.42.49-2.01-.07-3.81-.11-5.41-.11h-3.82ZM231.9,517.05c1.66.09,3.23.14,4.73.14h6.38c1.95,0,3.54-.04,4.8-.11.23,0,.35.18.35.54.03.35.04.7.04,1.03,0,.35-.01.7-.04,1.04,0,.36-.12.54-.38.54-1.55-.06-3.14-.08-4.77-.08h-6.38c-.54,0-1.89.04-4.05.11-.3,0-.46-.16-.49-.49-.03-.26-.06-.7-.1-1.33-.05-.65-.08-1.11-.1-1.39Z"/><path class="cls-2" d="M267.74,527.38v7.3c0,.19.03,1.73.08,4.64v.07c0,.27-.16.42-.49.44-.38.03-.76.04-1.15.04s-.77-.01-1.14-.04c-.31-.03-.46-.18-.46-.44v-.07s.02-.86.06-2.47c.02-.83.03-1.52.03-2.09v-4.87c-2.22,1.85-4.18,3.22-5.89,4.1-.1.07-.23.11-.38.11-.21,0-.4-.09-.57-.28-.58-.69-1.27-1.17-2.04-1.43,4.5-2.35,8.44-5.44,11.82-9.26.7-.81,1.2-1.62,1.5-2.45,1.35.8,2.22,1.37,2.61,1.71.21.18.32.35.32.51,0,.21-.14.39-.43.54-.31.16-.73.55-1.28,1.17-.89,1.03-1.75,1.95-2.59,2.75Z"/><path class="cls-2" d="M292.8,528c2.65,1.96,5.28,4.26,7.88,6.88.15.15.22.28.22.4s-.06.26-.19.42c-.6.73-1.24,1.38-1.9,1.95-.12.11-.24.17-.35.17s-.25-.07-.4-.22c-2.14-2.51-4.61-4.87-7.4-7.06-2.98,3.11-6.16,5.61-9.56,7.52-.34.15-.56.22-.65.22-.19,0-.35-.08-.49-.25-.53-.66-1.33-1.28-2.39-1.86,2.29-1.16,4.25-2.35,5.89-3.59,1.33-1,2.71-2.22,4.13-3.67,2.03-2.1,3.81-4.49,5.35-7.15l-7.34.03c-1.46,0-2.97.06-4.5.18-.19.02-.31-.14-.38-.49-.17-.71-.25-1.7-.25-2.96,1.02.08,2.62.11,4.81.11h7.83c.99,0,1.65-.09,1.96-.26.1-.07.21-.11.32-.11.09,0,.25.07.49.22.61.48,1.23,1.15,1.85,2,.09.16.14.28.14.36,0,.19-.12.38-.38.57-.39.34-.74.76-1.04,1.26-1.07,1.81-2.28,3.58-3.64,5.32Z"/><circle class="cls-4" cx="594.35" cy="491.85" r="121.65"/><path class="cls-2" d="M566.39,480.83c.96-.03,1.85-.09,2.67-.19.11,0,.28-.02.51-.06v-8.94c-.82,0-1.54.02-2.17.04-.43,0-.64.01-.65.01-.15,0-.24-.02-.26-.06s-.04-.12-.04-.26v-1.79c0-.15.02-.24.06-.26.04-.03.12-.04.25-.04l3.48.06h18.28l3.48-.06c.19,0,.29.1.29.31v1.79c0,.21-.1.32-.29.32l-3.48-.06h-9.65v9.54l.06,3.42c0,.15-.02.24-.06.26-.04.03-.12.04-.25.04h-2.11c-.15,0-.24-.02-.28-.06-.03-.04-.04-.12-.04-.25,0-.02,0-.32.03-.92,0-.61.02-1.25.03-1.9-2.48.53-4.95.97-7.4,1.33-.46.06-.81.16-1.03.29-.23.11-.38.17-.46.17-.18,0-.31-.15-.39-.46-.18-.52-.37-1.28-.57-2.28ZM584.53,459.86l3.98-.06c.16,0,.25.02.28.07.03.04.04.13.04.28l-.06,2.32v2.99l.06,2.32c0,.17-.02.27-.06.31-.04.03-.12.04-.26.04l-3.98-.05h-10.37l-3.98.05c-.16,0-.25-.02-.28-.07-.03-.04-.04-.13-.04-.28l.06-2.32v-2.99l-.06-2.32c0-.17.02-.27.06-.31.04-.03.13-.04.26-.04l3.98.06h10.37ZM572.22,473.15h4v-1.5h-4v1.5ZM572.22,476.46h4v-1.49h-4v1.49ZM576.23,479.61v-1.33h-4v1.96c2.02-.3,3.35-.5,4-.63ZM572.74,461.97v1.18h13.21v-1.18h-13.21ZM585.95,466.08v-1.22h-13.21v1.22h13.21ZM578.88,482.22c1.79-.53,3.32-1.24,4.59-2.13-1.14-1.28-2.07-2.8-2.79-4.56-.31.02-.55.03-.74.03-.15,0-.24-.02-.28-.07-.03-.04-.04-.13-.04-.28v-1.64c0-.16.02-.25.07-.28.03-.03.11-.04.25-.04l3.13.06h4.81c.16,0,.33-.04.51-.11.19-.07.34-.11.43-.11.19,0,.52.22,1,.65.51.49.76.84.76,1.06s-.1.38-.29.51c-.19.11-.44.51-.76,1.2-.68,1.35-1.45,2.5-2.31,3.45,1.35.85,3.04,1.5,5.05,1.93-.44.65-.78,1.26-1,1.82-.17.44-.34.67-.51.67-.09,0-.28-.04-.57-.12-1.83-.58-3.46-1.4-4.87-2.45-1.33,1.02-2.76,1.85-4.3,2.5-.33.13-.52.19-.57.19-.16,0-.33-.22-.51-.65-.32-.7-.68-1.25-1.06-1.63ZM585.35,478.47c.79-.84,1.44-1.83,1.96-2.96h-4.05c.57,1.18,1.26,2.16,2.09,2.96Z"/><path class="cls-2" d="M600.11,470.73l-3.5.05c-.19,0-.28-.1-.28-.31v-2.06c0-.2.09-.31.28-.31l3.5.06h3.67c.37-.72.73-1.63,1.08-2.71.1-.31.17-.72.19-1.25.39.07.84.18,1.36.31.66.18,1.03.27,1.11.29.23.07.35.21.35.4,0,.16-.07.3-.22.43-.16.13-.3.35-.43.65-.35.8-.65,1.42-.89,1.88l3.09-.06c.15,0,.24.02.26.06s.04.12.04.25v2.06c0,.15-.02.24-.06.26-.04.03-.12.04-.25.04l-3.5-.05h-1.31c-.05.14-.07.66-.07,1.57v.51h.97l3.42-.06c.15,0,.24.02.26.06s.04.12.04.25v2.02c0,.16-.02.25-.06.28-.04.03-.12.04-.25.04l-3.42-.06h-.19c1.08,1.24,2.29,2.24,3.64,2.99-.35.48-.69,1.09-1,1.82-.12.31-.23.46-.33.46-.14,0-.34-.13-.6-.4-.94-.82-1.78-1.8-2.54-2.96.02,1.58.05,3.23.1,4.95.04,1.3.06,2.05.06,2.25,0,.15-.02.24-.07.28-.04.03-.13.04-.28.04h-2.25c-.15,0-.24-.02-.26-.07-.03-.03-.04-.11-.04-.25,0-.16.02-1,.06-2.53.03-1.38.05-2.73.06-4.04-.88,1.48-2.11,3.02-3.7,4.6-.3.27-.5.4-.6.4-.16,0-.31-.19-.46-.57-.32-.76-.7-1.39-1.11-1.9,2.03-1.34,3.71-3.03,5.03-5.06h-.71l-3.45.06c-.15,0-.24-.02-.26-.06s-.04-.12-.04-.26v-2.02c0-.15.02-.24.06-.26.04-.03.12-.04.25-.04l3.45.06h1.49v-.51c0-.76,0-1.28-.03-1.57h-1.65ZM605.6,463.89h-5l-3.36.06c-.15,0-.24-.02-.26-.06-.03-.04-.04-.12-.04-.25v-1.97c0-.15.02-.24.06-.26.04-.03.12-.04.25-.04l3.36.06h1.11v-.76c0-.78-.06-1.41-.18-1.89,1.26.04,2.25.09,2.96.15.31.03.46.11.46.25,0,.09-.06.25-.17.49-.09.17-.14.51-.14,1.03v.74h.96l3.34-.06c.17,0,.26.02.29.06s.04.12.04.25v1.97c0,.15-.02.24-.06.26-.04.03-.13.04-.28.04l-3.34-.06ZM598.8,465.21c-.06-.12-.1-.21-.1-.26,0-.1.12-.18.35-.22l1.46-.43c.1-.03.18-.04.24-.04.1,0,.19.08.26.24.41.7.76,1.56,1.06,2.57.03.08.04.15.04.2,0,.11-.11.2-.32.26l-1.63.42c-.13.05-.23.07-.29.07-.13,0-.22-.1-.28-.29-.31-1.21-.57-2.05-.79-2.5ZM607.16,483.21c1.45-1.71,2.42-3.64,2.93-5.77.38-1.58.57-4.31.57-8.2v-3.1c0-1.9-.06-3.52-.17-4.87.95.16,1.82.38,2.61.68,1.76-.45,3.41-1.1,4.94-1.97.54-.29,1.04-.63,1.5-1.04.63.52,1.25,1.19,1.86,2.02.13.19.19.37.19.54,0,.19-.14.31-.43.35-.32.03-.69.14-1.11.33-2.13,1.04-4.34,1.82-6.63,2.34v3.48h4.87l3.88-.06c.15,0,.24.02.26.06s.04.12.04.25v2.09c0,.15-.02.24-.06.26-.04.03-.12.04-.25.04-.03,0-.15,0-.38-.01-.74-.02-1.58-.03-2.5-.04v10.02l.06,3.93c0,.16-.02.25-.06.29-.03.03-.1.04-.22.04h-2.35c-.15,0-.24-.02-.26-.05-.03-.04-.04-.13-.04-.28l.06-3.93v-10.02h-3.04c-.03,3.61-.27,6.36-.74,8.23-.5,1.96-1.32,3.77-2.46,5.41-.27.36-.47.54-.6.54-.09,0-.3-.13-.63-.4-.6-.52-1.22-.9-1.85-1.14Z"/><path class="cls-2" d="M493.07,502.26c1.2.13,3.02.2,5.46.2h10.16c.71,0,1.24-.1,1.57-.29.12-.07.26-.11.43-.11.13,0,.31.05.53.14.79.49,1.48,1.12,2.09,1.88.13.16.19.32.19.49,0,.24-.13.48-.4.71-.19.19-.4.56-.65,1.11-1.53,3.68-3.37,6.77-5.52,9.26-2.57,2.93-5.26,5.19-8.08,6.78-.26.17-.52.25-.78.25s-.5-.11-.71-.32c-.59-.57-1.47-1.08-2.64-1.56,2.2-1.11,4.04-2.26,5.52-3.43,1.29-1.02,2.55-2.25,3.78-3.68,2.14-2.44,3.75-5.14,4.82-8.12h-10.29c-1.14,0-2.71.05-4.7.14-.3.03-.48-.16-.54-.57-.06-.47-.15-1.43-.25-2.86Z"/><path class="cls-2" d="M520.47,505.96c1.36.11,2.91.17,4.64.17h9.54c.72,0,1.22-.08,1.5-.24.16-.09.29-.14.4-.14.12,0,.27.08.46.22.57.49,1.13,1.11,1.65,1.86.09.14.14.28.14.43,0,.17-.09.3-.28.4-.33.16-.58.36-.75.6-1.24,1.8-2.47,3.28-3.7,4.45-.15.15-.31.22-.49.22-.22,0-.43-.09-.63-.26-.58-.45-1.22-.77-1.9-.99,1.46-1.26,2.59-2.54,3.42-3.85h-9.15c-.45,0-1.73.05-3.84.14-.37,0-.58-.12-.63-.38-.12-.57-.25-1.46-.4-2.64ZM527.08,510.01c1.7.19,2.75.35,3.16.46.32.08.49.24.49.46,0,.14-.04.27-.11.39-.14.27-.21.63-.21,1.08,0,4.66-1.79,8.11-5.37,10.34-.32.19-.56.28-.69.28-.16,0-.33-.08-.53-.25-.58-.49-1.33-.88-2.22-1.17,2.12-1.17,3.64-2.53,4.55-4.07.83-1.42,1.24-3.15,1.24-5.19,0-.8-.1-1.58-.29-2.34Z"/><path class="cls-2" d="M543.82,504.01c.47-.57,1.14-1.32,1.99-2.22.12-.15.25-.22.4-.22.08,0,.21.05.38.14,1.77.95,3.58,2.29,5.44,4.04.17.17.25.3.25.4s-.06.22-.17.36c-.62.83-1.21,1.54-1.77,2.14-.16.15-.27.22-.35.22-.09,0-.21-.07-.36-.22-1.73-1.79-3.67-3.34-5.81-4.64ZM544.44,518.22c1.52-.42,2.8-.89,3.85-1.42,1.83-.95,3.36-1.83,4.57-2.63,1.07-.69,2.27-1.58,3.61-2.67,1.91-1.55,3.42-2.88,4.55-4,1.07-1.08,2.15-2.32,3.27-3.74.15,1.25.41,2.36.79,3.32.09.22.14.4.14.54,0,.21-.15.5-.46.86-1.66,1.94-3.84,3.95-6.55,6.03-2.35,1.84-5.22,3.7-8.59,5.58-1,.6-1.64,1.04-1.9,1.32-.19.19-.37.28-.51.28s-.31-.1-.49-.31c-.88-.99-1.64-2.05-2.28-3.17Z"/><path class="cls-2" d="M580.9,503.55l5.12-.11c.63-.02,1.11-.13,1.43-.35.09-.07.21-.11.36-.11.14,0,.29.05.46.17.65.42,1.29.93,1.93,1.54.25.22.38.44.38.65s-.12.4-.35.6c-.35.28-.66.69-.93,1.22-1.79,3.63-3.67,6.57-5.64,8.8-1.3,1.46-2.79,2.88-4.49,4.24-1.46,1.17-2.84,2.12-4.16,2.85-.15.09-.3.14-.46.14-.2,0-.42-.1-.65-.31-.71-.57-1.62-1-2.71-1.31,2.31-1.28,4.19-2.49,5.66-3.64,1.21-.97,2.49-2.18,3.82-3.63,1.22-1.35,2.22-2.64,3-3.87.72-1.13,1.48-2.53,2.27-4.21l-6.9.19c-2.28,2.83-4.07,4.77-5.38,5.84-.2.21-.4.32-.6.32-.14,0-.28-.06-.42-.17-.86-.62-1.77-1.03-2.74-1.24,3.18-2.59,5.73-5.41,7.66-8.45.87-1.48,1.43-2.77,1.68-3.85,1.61.58,2.72,1.08,3.32,1.52.19.14.29.3.29.49s-.11.36-.32.49c-.12.07-.36.33-.71.76-.2.32-.51.8-.93,1.42Z"/><path class="cls-2" d="M595.76,509.36c.06-.08.37-.6.95-1.54.25-.41.44-.7.57-.88.14-.2.28-.29.43-.29.04,0,.07,0,.1.01,1.97.66,3.8,1.59,5.48,2.79.2.15.31.29.31.42,0,.06-.04.17-.11.32-.24.58-.66,1.31-1.25,2.17-.16.19-.28.28-.38.28-.08,0-.19-.05-.33-.17-1.62-1.2-3.54-2.23-5.76-3.11ZM598.01,518.9c1.2-.23,2.49-.7,3.86-1.39,3.08-1.62,5.68-3.26,7.8-4.92,2.94-2.24,5.67-4.89,8.2-7.95.13.9.41,1.96.83,3.2.09.22.14.4.14.54,0,.22-.1.44-.31.65-2.17,2.32-4.58,4.51-7.24,6.58-2.21,1.68-5.04,3.46-8.51,5.35-1,.54-1.55.86-1.65.97-.15.15-.3.22-.46.22-.2,0-.39-.12-.57-.35-.54-.54-1.24-1.51-2.1-2.91ZM599.2,502.67l1.5-2.28c.13-.21.26-.32.4-.32.08,0,.19.03.32.1,2.16.87,3.94,1.92,5.35,3.16.15.1.22.23.22.38,0,.12-.04.24-.11.36-.55.98-1.03,1.7-1.46,2.14-.06.11-.16.17-.28.17s-.26-.06-.43-.19c-1.78-1.47-3.62-2.64-5.52-3.5Z"/><path class="cls-2" d="M637.34,512.78v-2.86h-6.58c-.5,0-1.22.03-2.16.08-.85.05-1.46.07-1.83.08-.25.03-.39-.19-.43-.65-.04-.47-.08-1.25-.14-2.34,1.08.09,2.6.14,4.56.14h4.95c1.97,0,3.38-.02,4.21-.06.29,0,.43.12.43.38v.08l-.06,3.73v6.56c0,.8.04,2.15.11,4.05,0,.22-.05.37-.15.43-.08.06-.24.09-.47.11-.61.04-1.26.06-1.93.06-.23,0-.38-.03-.44-.1-.05-.06-.07-.16-.07-.32v-.86h-6.74c-1.16,0-2.47.05-3.93.14-.24,0-.38-.19-.4-.57-.09-.63-.14-1.42-.14-2.36,1.03.07,2.56.11,4.59.11h6.63v-3.14h-6.03c-.95,0-2.25.04-3.91.11-.3,0-.46-.21-.49-.62-.07-.5-.11-1.27-.11-2.31,1.28.09,2.76.14,4.45.14h6.09Z"/><path class="cls-2" d="M661.74,506.29h3.82c1.33,0,2.98-.02,4.95-.06h.14c.25,0,.38.17.4.51.03.36.04.73.04,1.11s-.01.74-.04,1.1c0,.24-.04.39-.13.46-.07.06-.21.08-.42.08l-4.78-.11h-4.05c-.15,2.17-.37,3.8-.67,4.91-.26.95-.68,1.91-1.27,2.86-1.4,2.35-3.42,4.23-6.06,5.62-.21.13-.43.2-.65.2s-.44-.1-.63-.29c-.74-.67-1.54-1.19-2.39-1.56,3.01-1.45,5.16-3.17,6.45-5.16,1.03-1.58,1.61-3.77,1.74-6.58h-5.49c-.56,0-1.33.02-2.31.07-.96.05-1.56.08-1.79.08h-.08c-.23,0-.38-.18-.43-.54-.05-.32-.11-1.27-.19-2.82,1.23.09,2.85.14,4.84.14h5.62c0-1.97,0-3.38-.03-4.21-.04-1.15-.15-2.11-.35-2.88,1.74.07,3,.21,3.78.4.29.07.43.21.43.4,0,.11-.06.32-.19.62-.16.33-.24.91-.24,1.72,0,1.52,0,2.82-.03,3.91Z"/><path class="cls-2" d="M678.53,503.08c1.83.22,3.04.43,3.61.63.31.08.46.25.46.51,0,.1-.03.22-.08.36-.23.45-.35,1.1-.35,1.93-.06,3.41-.57,6.2-1.54,8.37-.83,1.97-2.18,3.76-4.05,5.35-.31.25-.55.38-.74.38-.15,0-.33-.07-.54-.22-.67-.46-1.47-.86-2.42-1.2,2.22-1.69,3.8-3.58,4.73-5.67.45-1.11.76-2.21.92-3.29.18-1.15.27-2.73.28-4.75,0-.89-.09-1.69-.28-2.39ZM688.47,515.74c1.27-.68,2.62-1.56,4.05-2.66,1.96-1.5,3.62-3.11,4.98-4.84.11,1,.41,1.96.89,2.88.11.27.17.43.17.49,0,.19-.14.43-.43.71-1.4,1.44-2.8,2.68-4.21,3.74-1.63,1.25-3.32,2.39-5.06,3.42-.27.18-.54.38-.82.6-.19.15-.38.22-.58.22-.15,0-.35-.07-.6-.22-.55-.38-1.12-.96-1.71-1.74-.17-.26-.25-.46-.25-.6s.04-.28.11-.43c.11-.21.17-.94.17-2.17v-8.91c0-2.43-.1-4.08-.29-4.96,1.8.23,2.99.43,3.57.6.34.08.51.25.51.49,0,.18-.07.42-.22.72-.18.35-.26,1.4-.26,3.16v9.51Z"/><path class="cls-2" d="M575.78,552.75c-.02.27-.03.56-.03.88s0,.63.03.97c0,.19.01.32.01.4,0,.26-.03.44-.1.53-.07.09-.28.24-.62.44-1.74.92-3.8,1.83-6.16,2.73-.52.22-.81.37-.88.43-.17.13-.32.19-.46.19-.15,0-.27-.12-.38-.38-.21-.63-.45-1.52-.71-2.67.71-.12,1.61-.35,2.68-.68l.82-.28v-6.19l-2.5.06c-.15,0-.24-.02-.28-.06-.03-.04-.04-.12-.04-.25v-2.06c0-.16.02-.25.06-.29.04-.03.12-.04.26-.04l2.5.06v-5.02h-.17l-2.68.07c-.13,0-.21-.02-.25-.06-.02-.04-.03-.12-.03-.26v-2.08c0-.16.02-.25.06-.29.03-.03.1-.04.22-.04l2.68.06h2.96l2.67-.06c.16,0,.25.02.28.07.03.04.04.12.04.26v2.08c0,.15-.02.24-.06.28-.04.03-.12.04-.26.04l-2.64-.07v5.02l2.28-.06c.14,0,.22.02.25.06.02.04.03.13.03.28v2.06c0,.15-.01.24-.04.26-.03.03-.11.04-.24.04l-2.28-.06v5.08c1.2-.56,2.19-1.04,2.96-1.46ZM578.03,561.84l-3.96.06c-.15,0-.24-.02-.28-.06-.03-.04-.04-.12-.04-.25v-2.03c0-.14.02-.22.05-.26.03-.03.12-.05.27-.05l3.96.06h4.32v-2.79h-1.77l-3.67.06c-.16,0-.25-.02-.28-.06s-.04-.12-.04-.25v-1.97c0-.15.02-.24.06-.26.04-.03.13-.04.26-.04l3.67.06h1.77v-2.46h-1.85l-3.7.06c-.17,0-.27-.02-.31-.06-.03-.03-.04-.1-.04-.22l.06-3.17v-6.31l-.06-3.1c0-.16.02-.25.06-.28.05-.03.14-.04.29-.04l3.7.06h6.77l3.73-.06c.15,0,.24.02.28.06.03.04.04.12.04.26l-.06,3.1v6.31l.06,3.17c0,.19-.11.28-.32.28l-3.73-.06h-2.07v2.46h2.15l3.68-.06c.15,0,.24.02.26.06s.04.12.04.25v1.97c0,.14-.02.23-.05.26-.03.03-.12.05-.26.05l-3.68-.06h-2.15v2.79h3.27l3.93-.06c.15,0,.24.02.26.06s.04.12.04.25v2.03c0,.14-.02.22-.05.26-.03.03-.12.05-.26.05l-3.93-.06h-10.44ZM579.2,543.81h3.16v-2.88h-3.16v2.88ZM579.2,549.19h3.16v-3.04h-3.16v3.04ZM588.56,540.93h-3.35v2.88h3.35v-2.88ZM588.56,549.19v-3.04h-3.35v3.04h3.35Z"/><path class="cls-2" d="M599.4,542.07h2.24l3.06-.06c.15,0,.24.02.26.06s.04.12.04.26v2.02c0,.17-.02.27-.06.31-.04.03-.12.04-.25.04l-3.06-.06h-2.24l-3.04.06c-.16,0-.25-.02-.28-.07-.03-.04-.04-.13-.04-.28v-2.02c0-.16.02-.25.06-.28.04-.03.12-.04.26-.04l3.04.06ZM604.41,562.34c0,.16-.02.25-.06.28-.04.03-.12.04-.25.04h-1.9c-.16,0-.25-.02-.28-.06s-.04-.12-.04-.26v-.76h-2.28v1.28c0,.15-.02.24-.06.28-.04.03-.13.04-.26.04h-1.93c-.16,0-.25-.02-.29-.06-.03-.04-.04-.12-.04-.26l.06-4.27v-1.82l-.06-2.67c0-.16.02-.25.07-.28.04-.03.12-.04.26-.04l2.6.06h1.53l2.61-.06c.16,0,.25.02.28.06s.04.12.04.26l-.06,2.18v1.97l.06,4.09ZM599.95,538.18h1.61l2.57-.06c.16,0,.25.02.29.06.03.04.04.12.04.25v1.88c0,.16-.02.25-.06.28-.04.03-.13.04-.28.04l-2.57-.06h-1.61l-2.6.06c-.15,0-.24-.02-.26-.06s-.04-.12-.04-.26v-1.88c0-.15.02-.24.06-.26.04-.03.12-.04.25-.04l2.6.06ZM600.06,546.12h1.36l2.39-.06c.17,0,.26.02.29.06.04.04.06.12.06.26v1.85c0,.15-.02.24-.07.26-.04.03-.13.04-.28.04l-2.39-.06h-1.36l-2.42.06c-.15,0-.24-.02-.28-.06-.03-.04-.04-.12-.04-.25v-1.85c0-.16.02-.25.06-.28s.12-.04.26-.04l2.42.06ZM600.06,549.97h1.36l2.39-.07c.17,0,.26.02.29.06.04.04.06.12.06.26v1.82c0,.16-.02.25-.07.28-.04.03-.13.04-.28.04l-2.39-.06h-1.36l-2.42.06c-.15,0-.24-.02-.28-.06-.03-.04-.04-.12-.04-.26v-1.82c0-.15.02-.24.06-.28.04-.03.12-.04.26-.04l2.42.07ZM601.88,556.2h-2.28v3.02h2.28v-3.02ZM603.98,545.26c2.91-1.58,5.24-3.83,6.98-6.74.31-.48.58-1.05.79-1.71,1.55.16,2.54.29,2.99.4.23.07.35.17.35.31,0,.1-.08.21-.25.32l-.15.08c1.26,1.67,2.54,3.03,3.85,4.07,1.29,1.02,2.79,1.9,4.5,2.64-.42.52-.79,1.2-1.11,2.03-.2.47-.38.71-.51.71-.06,0-.27-.1-.63-.29-1.08-.6-2.1-1.3-3.07-2.1v1.63c0,.15-.02.24-.07.26-.03.03-.11.04-.25.04l-2.53-.06h-2.93l-2.53.06c-.16,0-.25-.02-.28-.06s-.04-.12-.04-.25v-1.43c-.79.73-1.66,1.42-2.61,2.07-.4.23-.62.35-.67.35-.1,0-.28-.23-.53-.68-.33-.61-.76-1.16-1.29-1.65ZM616.85,560.33c.36.05.76.07,1.2.07.36,0,.54-.27.54-.81v-3.1h-1.9v2.36l.06,3.1c0,.15-.02.24-.06.26-.04.03-.12.04-.25.04h-1.89c-.15,0-.24-.02-.26-.06s-.04-.12-.04-.25l.06-3.1v-2.36h-1.71v2.36l.06,3.1c0,.15-.02.24-.06.26-.04.03-.12.04-.25.04h-1.86c-.16,0-.25-.02-.29-.06-.03-.04-.04-.12-.04-.25l.06-3.1v-2.36h-1.74v3.02l.06,3.18c0,.15-.02.24-.06.26-.05.03-.14.04-.28.04h-2c-.15,0-.24-.02-.26-.06-.03-.04-.04-.12-.04-.25l.06-3.18v-7.12l-.06-3.27c0-.16.02-.25.06-.28.04-.03.12-.04.25-.04l3.79.06h7.15l3.77-.06c.16,0,.25.02.28.06s.04.12.04.26l-.06,3.49v3.82l.03,3.64c0,1.21-.24,2.02-.71,2.42-.48.4-1.29.6-2.42.6-.25,0-.41-.05-.47-.14-.06-.07-.11-.25-.15-.54-.09-.86-.28-1.56-.57-2.09ZM608.45,554.26h1.74v-3.1h-1.74v3.1ZM611.93,544.46h2.93l2.18-.03c-1.38-1.22-2.63-2.63-3.75-4.21-.94,1.5-2.08,2.91-3.42,4.21.25.02.94.03,2.06.03ZM612.58,554.26h1.71v-3.1h-1.71v3.1ZM618.59,551.17h-1.9v3.1h1.9v-3.1Z"/><line class="cls-1" x1="396.73" y1="485.09" x2="427.33" y2="515.7"/><line class="cls-1" x1="396.73" y1="515.7" x2="427.33" y2="485.09"/><path class="cls-3" d="M199.05,419.67c0,.2-.16.71-.48,1.47-2.62,6.39-7.26,10.43-11.86,10.43-2.86,0-5.75-1.82-5.75-4.96,0-8.81,16.86-17.1,29.32-17.1,6.39,0,10.16,3.21,10.16,6.82,0,7.82-12.58,13.41-17.65,13.41-1.27,0-1.79-.12-1.79-.36,0-.08.08-.16.2-.16s.63.04.83.04c5.04,0,15.95-6.31,15.95-14.4,0-2.7-3.13-4.84-8.89-4.84-9.72,0-25.99,8.45-25.99,17.65,0,1.86.95,3.29,2.9,3.29,4.72,0,9.84-5.36,12.54-11.15.12-.28.2-.4.32-.4s.2.08.2.24ZM209.25,411.5c.48,0,1.51,1.39,1.51,1.86,0,.24-.12.36-.52.6-4.28,2.58-14.88,18.96-14.88,26.14,0,.2-.04.32-.16.32-.24,0-1.59-.83-1.59-1.55,0-6.9,13.33-27.37,15.63-27.37Z"/><path class="cls-3" d="M219.89,434.12c-1.15.91-2.22,1.43-2.74,1.43-.95,0-2.66-.95-2.66-2.78,0-.79.16-1.51.44-2.18,0-.08-.04-.16-.04-.28,0-3.37,3.65-5.79,5.75-5.79,1.79,0,3.09,1.15,3.09,2.82,0,2.62-1.71,4.88-3.41,6.39,2.38-.16,4.44-1.79,5.67-3.02,0,0,.12-.16.24-.16s.2.12.2.16c0,.08-.32.36-.44.48-1.19,1.07-3.05,2.82-6.11,2.94ZM219.62,425.94c.48,0,1.27,1.11,1.27,1.51,0,.24-.28.4-.52.52-1.47.87-3.49,2.62-4.36,4.36.67.87,1.86,1.39,3.29,1.47,1.67-1.47,3.29-4.01,3.29-6.58,0-1.31-.75-2.14-2.3-2.14s-4.36,1.82-4.84,4.44c.63-1.03,1.51-1.83,2.34-2.54.63-.56,1.31-1.03,1.83-1.03ZM215.65,433.76c0,.71.44,1.31,1.11,1.31.6,0,1.39-.36,2.18-.95-1.31-.12-2.42-.55-3.13-1.31-.12.32-.16.63-.16.95Z"/><path class="cls-3" d="M231,426.86c0,.71-4.52,5.83-4.52,7.54,0,.48.28.67.63.67,2.26,0,6.86-4.36,6.86-4.36,0,0,.16-.16.28-.16.08,0,.16.12.16.16,0,.08-.32.36-.44.48,0,0-4.84,4.64-7.42,4.64-.63,0-1.9-.91-1.9-2.18,0-1.75,3.45-6.15,4.21-8.01.12-.24.28-.4.48-.4.79,0,1.67.91,1.67,1.63ZM234.93,419.95c0,.28-.52,1.11-.83,1.27-.24.12-.75.28-1.11.4-.75.24-.99.67-1.15.67-.12,0-.24-.08-.24-.24,0-.95,1.51-2.94,1.51-3.89,0-.12.08-.16.16-.16.63,0,1.67,1.39,1.67,1.94Z"/><path class="cls-3" d="M238.34,427.45c0,.71-1.07,2.22-1.94,3.73,1.47-1.15,5.71-3.97,7.22-3.97.63,0,1.11,1.15,1.11,1.67,0,.44-3.02,3.41-3.02,5.51,0,.36.24.52.56.52,2.42,0,6.67-4.21,6.67-4.21,0,0,.16-.16.24-.16.12,0,.2.12.2.16,0,.08-.44.48-.44.48,0,0-4.56,4.52-6.67,4.52-.99,0-2.26-1.23-2.26-2.54,0-1.75,1.86-4.25,1.86-4.52,0-.04-.04-.08-.12-.08-.44,0-3.49,1.51-5.67,3.53-2.54,2.34-2.86,4.29-3.21,4.29-.4,0-1.07-.99-1.07-1.83s4.05-5.63,4.6-8.69c0-.32.2-.36.4-.36.4,0,1.55.91,1.55,1.94Z"/><path class="cls-3" d="M257.75,420.39c2.06,0,4.32.48,4.32.56,0,.12-.08.24-.16.24-.12,0-1.59-.28-3.61-.28-1.35,0-2.02.2-2.02.2-2.9,4.17-7.46,10.79-7.46,15.35,0,1.75.67,2.46,1.9,2.46.16,0,.36.24.36.36,0,.16-.24.2-.4.2-1.03,0-2.9-1.27-2.9-3.93,0-3.85,3.09-9.36,5.63-13.85-1.47.24-2.22.67-2.3.67-.32,0-.83-.67-.83-.91,0-.08,0-.16.2-.24.63-.28,1.94-.52,3.57-.67,1.47-2.58,2.62-4.68,2.62-5.67,0-.2.08-.28.2-.28.56,0,1.83,1.59,1.83,2.74,0,.36-.75,1.47-1.9,3.05h.95Z"/><path class="cls-3" d="M255.37,434.16c0,.71-1.11,1.51-1.39,1.51-.24,0-.52-.12-.83-.12-.24,0-.44.28-.63.28-.16,0-.32-.2-.32-.71,0-.48.2-1.11.63-1.63.36-.44.08-.83.08-.99s.12-.24.28-.24c.63,0,2.18,1.11,2.18,1.9Z"/><path class="cls-3" d="M279.85,414.87c1.27.44,2.58,1.9,2.58,3.65,0,6.47-7.34,17.1-12.38,17.1-2.62,0-5.59-2.34-5.59-5.71,0-6.71,8.29-16.31,13.29-16.31.91,0,1.59.44,2.1,1.27ZM278.54,416.14c-3.73.56-11.86,8.29-11.86,15.19,0,1.87.99,3.13,2.38,3.13,5.87,0,11.82-9.84,11.82-16.7,0-1.23-.6-2.02-1.27-2.54,0,0-.28.79-1.07.91Z"/><path class="cls-3" d="M282.7,421.42c1.9,0,6.47-3.81,6.47-3.81,0,0,2.46-3.69,3.21-3.69s1.55,1.31,1.55,1.83-4.05,3.97-6.59,9.6-2.9,9.16-2.9,9.68c0,.59.2.87.2,1.03s-.08.2-.2.2c-.44,0-2.14-1.31-2.14-2.06,0-2.94,6.07-14.96,6.07-14.96,0,0-1.11.91-1.86,1.79-.99,1.15-1.75,1.86-2.74,1.86s-1.94-1.23-1.94-1.51c0-.12.08-.24.2-.24.16,0,.32.28.67.28Z"/><path class="cls-3" d="M553.99,419.67c0,.2-.16.71-.48,1.47-2.62,6.39-7.26,10.43-11.86,10.43-2.86,0-5.75-1.82-5.75-4.96,0-8.81,16.86-17.1,29.32-17.1,6.39,0,10.16,3.21,10.16,6.82,0,7.82-12.58,13.41-17.65,13.41-1.27,0-1.79-.12-1.79-.36,0-.08.08-.16.2-.16s.63.04.83.04c5.04,0,15.95-6.31,15.95-14.4,0-2.7-3.13-4.84-8.89-4.84-9.72,0-25.99,8.45-25.99,17.65,0,1.86.95,3.29,2.9,3.29,4.72,0,9.84-5.36,12.54-11.15.12-.28.2-.4.32-.4s.2.08.2.24ZM564.18,411.5c.48,0,1.51,1.39,1.51,1.86,0,.24-.12.36-.52.6-4.28,2.58-14.88,18.96-14.88,26.14,0,.2-.04.32-.16.32-.24,0-1.59-.83-1.59-1.55,0-6.9,13.33-27.37,15.63-27.37Z"/><path class="cls-3" d="M574.83,434.12c-1.15.91-2.22,1.43-2.74,1.43-.95,0-2.66-.95-2.66-2.78,0-.79.16-1.51.44-2.18,0-.08-.04-.16-.04-.28,0-3.37,3.65-5.79,5.75-5.79,1.79,0,3.09,1.15,3.09,2.82,0,2.62-1.71,4.88-3.41,6.39,2.38-.16,4.44-1.79,5.67-3.02,0,0,.12-.16.24-.16s.2.12.2.16c0,.08-.32.36-.44.48-1.19,1.07-3.05,2.82-6.11,2.94ZM574.55,425.94c.48,0,1.27,1.11,1.27,1.51,0,.24-.28.4-.52.52-1.47.87-3.49,2.62-4.36,4.36.67.87,1.86,1.39,3.29,1.47,1.67-1.47,3.29-4.01,3.29-6.58,0-1.31-.75-2.14-2.3-2.14s-4.36,1.82-4.84,4.44c.63-1.03,1.51-1.83,2.34-2.54.63-.56,1.31-1.03,1.83-1.03ZM570.58,433.76c0,.71.44,1.31,1.11,1.31.6,0,1.39-.36,2.18-.95-1.31-.12-2.42-.55-3.13-1.31-.12.32-.16.63-.16.95Z"/><path class="cls-3" d="M585.94,426.86c0,.71-4.52,5.83-4.52,7.54,0,.48.28.67.63.67,2.26,0,6.86-4.36,6.86-4.36,0,0,.16-.16.28-.16.08,0,.16.12.16.16,0,.08-.32.36-.44.48,0,0-4.84,4.64-7.42,4.64-.63,0-1.9-.91-1.9-2.18,0-1.75,3.45-6.15,4.21-8.01.12-.24.28-.4.48-.4.79,0,1.67.91,1.67,1.63ZM589.86,419.95c0,.28-.52,1.11-.83,1.27-.24.12-.75.28-1.11.4-.75.24-.99.67-1.15.67-.12,0-.24-.08-.24-.24,0-.95,1.51-2.94,1.51-3.89,0-.12.08-.16.16-.16.63,0,1.67,1.39,1.67,1.94Z"/><path class="cls-3" d="M593.28,427.45c0,.71-1.07,2.22-1.94,3.73,1.47-1.15,5.71-3.97,7.22-3.97.63,0,1.11,1.15,1.11,1.67,0,.44-3.02,3.41-3.02,5.51,0,.36.24.52.56.52,2.42,0,6.67-4.21,6.67-4.21,0,0,.16-.16.24-.16.12,0,.2.12.2.16,0,.08-.44.48-.44.48,0,0-4.56,4.52-6.67,4.52-.99,0-2.26-1.23-2.26-2.54,0-1.75,1.86-4.25,1.86-4.52,0-.04-.04-.08-.12-.08-.44,0-3.49,1.51-5.67,3.53-2.54,2.34-2.86,4.29-3.21,4.29-.4,0-1.07-.99-1.07-1.83s4.05-5.63,4.6-8.69c0-.32.2-.36.4-.36.4,0,1.55.91,1.55,1.94Z"/><path class="cls-3" d="M612.68,420.39c2.06,0,4.32.48,4.32.56,0,.12-.08.24-.16.24-.12,0-1.59-.28-3.61-.28-1.35,0-2.02.2-2.02.2-2.9,4.17-7.46,10.79-7.46,15.35,0,1.75.67,2.46,1.9,2.46.16,0,.36.24.36.36,0,.16-.24.2-.4.2-1.03,0-2.9-1.27-2.9-3.93,0-3.85,3.09-9.36,5.63-13.85-1.47.24-2.22.67-2.3.67-.32,0-.83-.67-.83-.91,0-.08,0-.16.2-.24.63-.28,1.94-.52,3.57-.67,1.47-2.58,2.62-4.68,2.62-5.67,0-.2.08-.28.2-.28.56,0,1.83,1.59,1.83,2.74,0,.36-.75,1.47-1.9,3.05h.95Z"/><path class="cls-3" d="M610.31,434.16c0,.71-1.11,1.51-1.39,1.51-.24,0-.52-.12-.83-.12-.24,0-.44.28-.63.28-.16,0-.32-.2-.32-.71,0-.48.2-1.11.63-1.63.36-.44.08-.83.08-.99s.12-.24.28-.24c.63,0,2.18,1.11,2.18,1.9Z"/><path class="cls-3" d="M634.78,414.87c1.27.44,2.58,1.9,2.58,3.65,0,6.47-7.34,17.1-12.38,17.1-2.62,0-5.59-2.34-5.59-5.71,0-6.71,8.29-16.31,13.29-16.31.91,0,1.59.44,2.1,1.27ZM633.48,416.14c-3.73.56-11.86,8.29-11.86,15.19,0,1.87.99,3.13,2.38,3.13,5.87,0,11.82-9.84,11.82-16.7,0-1.23-.6-2.02-1.27-2.54,0,0-.28.79-1.07.91Z"/><path class="cls-3" d="M647.73,413.76c2.18,0,4.76,3.21,4.76,6.03,0,4.09-4.84,9.64-9.36,13.01,1.07.24,2.34.44,3.97.44,2.54,0,4.72-1.94,5-1.94.12,0,.24.12.24.24,0,.08-.79.91-1.47,1.55-.44.4-.87.59-.95.87-.32,1.15-1.11,1.59-2.34,1.59s-3.41-1.03-5.67-1.9c-1.9,1.27-3.73,2.06-4.92,2.06-1.55,0-2.62-1.15-2.62-1.9s1.67-1.98,4.17-1.98c.91,0,1.71.2,2.58.44,4.6-3.53,9.52-10,9.52-15.19,0-1.03-.75-1.63-1.67-1.63-3.29,0-9.2,4.32-9.2,7.34,0,.67.2.91.2,1.11,0,.16-.08.24-.24.24-.28,0-1.71-1.47-1.71-2.58,0-4.21,6.9-7.78,9.72-7.78ZM635.07,434.27c0,.36.2.48.56.48,1.19,0,2.78-.63,4.4-1.75-.79-.24-1.59-.4-2.26-.4-1.83,0-2.7,1.11-2.7,1.67Z"/></g></svg>