<?xml version="1.0" encoding="UTF-8"?><svg id="_レイヤー_2" xmlns="http://www.w3.org/2000/svg" viewBox="0 0 66.63 28.04"><defs><style>.cls-1{fill:#c69c6d;stroke-width:0px;}</style></defs><g id="_レイヤー_1-2"><path class="cls-1" d="M16.41,9.21c0,.18-.14.65-.43,1.33-2.38,5.8-6.59,9.47-10.76,9.47-2.59,0-5.22-1.66-5.22-4.5C0,7.52,15.3,0,26.6,0c5.79,0,9.21,2.92,9.21,6.19,0,7.09-11.41,12.17-16.02,12.17-1.15,0-1.62-.11-1.62-.32,0-.07.07-.14.18-.14s.58.04.76.04c4.57,0,14.47-5.72,14.47-13.07,0-2.45-2.84-4.39-8.06-4.39C16.7.47,1.94,8.13,1.94,16.49c0,1.69.86,2.99,2.63,2.99,4.28,0,8.93-4.86,11.38-10.11.11-.25.18-.36.29-.36s.18.07.18.22ZM25.67,1.8c.43,0,1.37,1.26,1.37,1.69,0,.22-.11.32-.47.54-3.89,2.34-13.5,17.21-13.5,23.72,0,.18-.04.29-.14.29-.22,0-1.44-.76-1.44-1.4,0-6.26,12.09-24.84,14.18-24.84Z"/><path class="cls-1" d="M34.03,15.8c-.86-.36-1.94-.79-1.94-1.62,0-1.33,1.62-2.52,2.45-2.52.5,0,1.37.72,1.37.97,0,.86-.58,1.94-1.37,3.02,1.12.54,2.95.86,2.95,1.8,0,1.37-2.48,3.31-2.48,4.68,0,.43.25.83.76.83,1.33,0,5.11-3.74,5.11-3.74.07-.07.14-.14.18-.14.11,0,.14.11.14.18s-.18.25-.32.4c0,0-3.78,3.92-5.54,3.92-1.08,0-2.23-.94-2.23-1.94,0-2.12,1.91-3.85,1.91-4.97,0-.32-.29-.54-.65-.72-1.08,1.4-2.41,2.81-3.28,3.71-.07.07-.14.14-.18.14-.07,0-.14-.07-.14-.14s.18-.25.32-.43c.76-.83,2.02-2.12,2.95-3.42ZM35.11,12.67c-.32,0-1.4.76-1.4,2.05,0,.32.22.58.54.79.61-.94,1.08-1.87,1.08-2.66,0-.11-.11-.18-.22-.18Z"/><path class="cls-1" d="M45.34,15.73c0,.65-4.1,5.29-4.1,6.84,0,.43.25.61.58.61,2.05,0,6.23-3.96,6.23-3.96,0,0,.14-.14.25-.14.07,0,.14.11.14.14,0,.07-.29.32-.4.43,0,0-4.39,4.21-6.73,4.21-.58,0-1.73-.83-1.73-1.98,0-1.58,3.13-5.58,3.82-7.27.11-.22.25-.36.43-.36.72,0,1.51.83,1.51,1.48ZM48.9,9.47c0,.25-.47,1.01-.76,1.15-.22.11-.68.25-1.01.36-.68.22-.9.61-1.04.61-.11,0-.22-.07-.22-.22,0-.86,1.37-2.66,1.37-3.53,0-.11.07-.14.14-.14.58,0,1.51,1.26,1.51,1.76Z"/><path class="cls-1" d="M49.74,24.48c-1.3,0-2.66-.86-2.66-2.56,0-3.6,4-7.6,6.23-7.6.9,0,1.8.65,1.8,1.62,0,.43-.29,1.12-.94,1.8-.04.04-.36.11-.5.11-.04,0-.07-.04-.07-.07s.04-.11.11-.18c.54-.54.94-1.22.94-1.62,0-.18-.11-.36-.36-.36-1.91,0-5.4,3.53-5.4,6.59,0,.9.43,1.58,1.37,1.58,2.66,0,7.45-4.57,7.45-4.57,0,0,.14-.14.22-.14s.14.11.14.14c0,.07-.25.32-.36.43,0,0-5,4.82-7.96,4.82Z"/><path class="cls-1" d="M66.49,19.08c.11,0,.14.11.14.14,0,.07-.25.32-.36.43,0,0-3.56,3.89-6.33,3.89-1.84,0-2.81-1.15-2.81-3.02,0-3.24,3.24-6.62,4.82-6.62.97,0,1.58,1.22,1.58,1.66,0,1.01-2.2,2.92-4.18,4.14-.07.22-.11.86-.11,1.12,0,1.12.54,2.05,1.58,2.05,1.91,0,5.43-3.64,5.43-3.64,0,0,.14-.14.22-.14ZM62.78,15.59c0-.29-.11-.4-.29-.4-.61,0-2.02,1.4-3.1,4.03,1.62-1.08,3.38-2.81,3.38-3.64Z"/></g></svg>