<?xml version="1.0" encoding="UTF-8"?><svg id="_レイヤー_2" xmlns="http://www.w3.org/2000/svg" xmlns:xlink="http://www.w3.org/1999/xlink" viewBox="0 0 349 151.84"><defs><style>.cls-1{fill:#000;}.cls-1,.cls-2,.cls-3,._繧_繝_繝輔ぅ繝け繧_繧_繧_繝_2{stroke-width:0px;}.cls-2{fill:#c69c6d;}.cls-3{filter:url(#outer-glow-1-2);}.cls-3,._繧_繝_繝輔ぅ繝け繧_繧_繧_繝_2{fill:#fff;}._繧_繝_繝輔ぅ繝け繧_繧_繧_繝_2{filter:url(#outer-glow-1);}</style><filter id="outer-glow-1" filterUnits="userSpaceOnUse"><feOffset dx="0" dy="0"/><feGaussianBlur result="blur" stdDeviation="3"/><feFlood flood-color="#000" flood-opacity=".2"/><feComposite in2="blur" operator="in"/><feComposite in="SourceGraphic"/></filter><filter id="outer-glow-1-2" filterUnits="userSpaceOnUse"><feOffset dx="0" dy="0"/><feGaussianBlur result="blur-2" stdDeviation="3"/><feFlood flood-color="#000" flood-opacity=".2"/><feComposite in2="blur-2" operator="in"/><feComposite in="SourceGraphic"/></filter></defs><g id="_レイヤー_1-2"><path class="cls-3" d="M9,39.23l12.93-7.46v-6.96c0-5.52,4.48-10,10-10h297.97c5.52,0,10,4.48,10,10v107.53c0,5.52-4.48,10-10,10H31.93c-5.52,0-10-4.48-10-10V46.7s-12.93-7.46-12.93-7.46Z"/><path class="cls-1" d="M62.04,45.13h-5.54c-1.01,0-2.14.05-3.24.11-.18.02-.25-.05-.27-.27-.04-.25-.07-.76-.07-1.1,1.21.09,2.41.13,3.58.13h3.6c1.06,0,2.07-.04,2.99-.05.22,0,.25.02.25.22,0,.83-.04,1.84-.04,2.84v4.77c0,1.01.04,2.43.09,3.31,0,.22-.07.27-.29.29-.25.02-.59.02-.85.02-.18,0-.23-.05-.23-.22s.02-.56.02-.79h-5.71c-.97,0-2.11.07-3.17.13-.14,0-.2-.05-.23-.23-.05-.31-.09-.81-.09-1.12,1.26.07,2.34.09,3.49.09h5.71v-3.67h-5.04c-1.04,0-2.18.04-3.22.09-.23,0-.29-.05-.31-.27-.04-.31-.05-.74-.05-1.06,1.22.07,2.36.11,3.56.11h5.06v-3.31Z"/><path class="cls-1" d="M73.52,46.01c.05-.67.11-1.21.13-1.93.04-.68.02-1.3-.09-1.94.61.05,1.08.14,1.44.27.25.09.31.27.14.56-.13.23-.18.67-.23,1.19-.04.63-.09,1.15-.16,1.85h3.06c.77,0,1.51-.04,2.27-.04.23,0,.27.04.27.22,0,.4-.02.99-.05,1.66-.07,2.02-.34,4.45-.67,5.69-.36,1.35-.77,1.87-1.66,2.16-.41.14-1.17.22-1.87.22-.16,0-.25-.07-.29-.22-.11-.41-.31-.7-.63-1.01,1.12.05,1.82-.02,2.3-.18.52-.18.65-.36.94-1.48.36-1.4.56-3.55.61-5.9h-4.43c-.31,2.09-.81,3.71-1.62,5.06-.74,1.3-2.21,2.74-3.82,3.71-.16.11-.31.13-.43-.02-.2-.23-.58-.45-.97-.59,1.91-.97,3.28-2.23,4.14-3.62.68-1.15,1.22-2.66,1.48-4.52h-2.11c-.81,0-1.6.02-2.48.09-.16.02-.18-.04-.22-.23-.04-.25-.09-.72-.11-1.08,1.01.07,1.84.09,2.79.09h2.27ZM79.57,42.68c.07-.05.13-.05.2,0,.72.5,1.51,1.39,2.03,2.18.05.07.04.14-.04.2l-.52.43c-.09.07-.18.05-.23-.04-.52-.88-1.28-1.73-2.09-2.3l.65-.47ZM81.08,41.5c.07-.05.13-.07.2-.02.72.56,1.53,1.35,2.05,2.11.05.09.04.14-.05.22l-.49.43c-.07.07-.14.07-.22-.04-.45-.74-1.22-1.62-2.07-2.25l.58-.45Z"/><path class="cls-1" d="M92.98,45.53c1.19-.43,2.34-.68,3.42-.68,2.07,0,3.38,1.1,3.38,3.01,0,2.23-1.84,3.33-4.43,3.33-.29,0-.58,0-.85-.04-.18-.02-.23-.07-.29-.18-.13-.36-.25-.68-.52-1.03.52.09,1.01.14,1.6.14,1.8,0,3.19-.7,3.19-2.32,0-1.44-1.1-1.84-2.09-1.84-1.19,0-2.03.25-2.86.52-1.19.4-2.3.86-3.4,1.33,1.01,2.88,1.94,5.51,2.92,8.35.07.18.07.23-.11.32-.27.14-.56.25-.88.32-.11.02-.13,0-.16-.11-.92-2.97-1.75-5.51-2.81-8.41-.86.38-1.48.65-2.12.94-.5.23-.79.4-.97.56-.09.09-.2.14-.27.14-.09,0-.2-.05-.31-.18-.25-.29-.56-.74-.76-1.12.76-.16,1.26-.31,1.82-.52.68-.27,1.3-.49,2.2-.86-.22-.65-.43-1.26-.7-1.98-.23-.61-.45-1.06-.86-1.66.52-.11,1.12-.16,1.53-.16.22,0,.23.11.23.27-.02.18,0,.29.05.52.05.23.14.5.36,1.19.2.61.32.92.47,1.35,1.12-.47,2.09-.85,3.22-1.22ZM92.7,41.87c.11-.07.14-.07.27,0,.67.43,1.3.97,1.94,1.71.07.09.07.18,0,.27-.2.22-.43.43-.68.59-.07.05-.16.04-.23-.05-.59-.77-1.26-1.39-2.12-1.91.31-.25.63-.49.83-.61Z"/><path class="cls-1" d="M111.29,43.96c.61,0,.81-.02,1.03-.14.11-.07.23-.04.36.05.25.2.52.47.74.74.11.14.07.27-.09.41-.18.14-.34.36-.52.67-.79,1.35-1.71,2.68-2.66,3.87,1.85,1.35,3.53,2.79,5.17,4.52.16.14.16.2.02.38-.2.23-.43.45-.65.65-.13.11-.2.11-.32-.04-1.51-1.73-3.22-3.26-4.97-4.57-2.05,2.12-4.21,3.8-6.43,5.02-.2.11-.31.13-.45-.04-.23-.27-.56-.45-.94-.65,2.72-1.35,4.84-3.01,6.62-4.88,1.17-1.24,2.36-2.84,3.42-4.82h-5.42c-1.01,0-1.78.05-2.59.11-.16,0-.18-.05-.22-.2-.05-.25-.11-.79-.11-1.15.88.07,1.67.07,2.79.07h5.22Z"/><path class="cls-1" d="M122.48,49.83c.29.18.23.29.02.5-.13.13-.27.29-.49.7-.43.83-1.12,1.93-1.85,2.77-.16.18-.27.23-.49.11-.29-.18-.61-.32-.94-.4,1.06-1.06,1.67-2.03,2.12-2.95.2-.4.34-.83.41-1.31.45.16.85.34,1.21.58ZM125.61,44.9c0-1.01-.05-1.89-.2-2.48.56.04,1.17.11,1.49.2.25.07.29.27.14.5-.14.23-.18.81-.18,1.87v1.1h2.34c1.3,0,2.63-.04,3.69-.09.16-.02.22.05.22.22,0,.25,0,.56-.02.81,0,.18-.04.25-.22.25-1.17-.05-2.57-.07-3.73-.07h-2.29v3.13c0,1.53.05,2.72.05,3.87,0,.77-.27,1.35-.9,1.66-.65.32-1.49.49-2.07.52-.14.02-.25-.05-.31-.22-.16-.4-.4-.72-.76-1.01.92,0,1.73-.13,2.23-.32.38-.14.49-.38.49-1.04v-6.59h-2.88c-1.01,0-2.12.05-3.08.13-.16.02-.22-.07-.23-.25-.02-.22-.07-.77-.07-1.12,1.28.11,2.36.13,3.35.13h2.92v-1.19ZM130.4,49.45c.13-.09.22-.05.34.05.95.85,1.78,1.98,2.52,3.26.11.2.07.27-.07.41-.18.16-.45.38-.68.52-.14.09-.23.09-.31-.07-.61-1.24-1.51-2.56-2.59-3.6.29-.22.54-.4.79-.58ZM133.89,43.22c0,1.01-.81,1.82-1.82,1.82s-1.82-.81-1.82-1.82.81-1.82,1.82-1.82,1.82.81,1.82,1.82ZM130.94,43.22c0,.63.5,1.13,1.13,1.13s1.13-.5,1.13-1.13-.5-1.13-1.13-1.13-1.13.5-1.13,1.13Z"/><path class="cls-1" d="M139.18,50.01c-1.57,0-2.32.18-2.43.18-.16,0-.25-.07-.31-.25-.07-.31-.14-.88-.18-1.37,1.1.14,2.48.16,3.98.16h5.53c1.24,0,2.57-.02,3.94-.05.22-.02.27.02.27.22.02.27.02.65,0,.94,0,.2-.05.23-.27.22-1.35-.04-2.68-.04-3.89-.04h-6.64Z"/><path class="cls-1" d="M153.66,44.32c.13-.05.23-.05.34.07.79.97,1.42,2.07,1.91,3.22.07.16.07.25-.11.34-.16.09-.56.31-.79.4-.2.07-.27.02-.36-.18-.5-1.21-1.06-2.29-1.93-3.35.34-.22.7-.41.94-.5ZM165.92,44.3c.16.11.16.32.02.47-.2.2-.4.49-.76,1.35-.92,2.16-1.89,3.92-3.15,5.56-1.42,1.84-3.01,3.33-4.86,4.54-.2.13-.29.14-.45.04-.31-.22-.68-.4-1.1-.5,2.23-1.4,3.87-2.88,5.33-4.75,1.28-1.67,2.25-3.44,2.92-5.2.32-.86.45-1.42.54-2.2.56.22,1.13.45,1.51.7ZM158.18,43.26c.14-.05.23-.04.32.07.67.88,1.28,2.07,1.69,3.2.07.18.05.27-.09.36-.22.13-.59.29-.81.36-.2.07-.27.05-.34-.13-.43-1.28-1.03-2.39-1.75-3.42.31-.16.67-.32.97-.45Z"/><path class="cls-1" d="M169.64,47.18c.07-.13.16-.16.31-.13,1.17.43,2.2.97,3.17,1.64.18.13.16.23.09.38-.13.25-.31.56-.47.77-.11.14-.2.16-.34.04-.99-.77-2.12-1.37-3.31-1.82.23-.34.43-.7.56-.88ZM172.43,54.08c1.66-.86,3.26-1.8,4.95-3.1,1.55-1.21,3.51-2.95,5.13-4.99.07.47.16.76.34,1.17.09.18.05.32-.09.49-1.51,1.76-3.08,3.13-4.75,4.41-1.6,1.24-3.37,2.3-5.26,3.37-.4.22-.68.41-.86.61-.16.16-.34.13-.5-.05-.23-.27-.58-.77-.85-1.21.63-.14,1.19-.34,1.89-.7ZM171.77,43.08c.11-.16.16-.16.32-.09,1.12.47,2.16,1.13,3.13,1.87.16.13.14.2.05.36-.14.23-.34.58-.52.77-.11.13-.18.09-.32-.04-.88-.81-2.05-1.53-3.22-2.03.18-.25.38-.59.56-.85ZM179.6,42.31c.07-.05.13-.05.2,0,.72.5,1.51,1.39,2.03,2.18.05.07.04.14-.04.2l-.52.43c-.09.07-.18.05-.23-.04-.52-.88-1.28-1.73-2.09-2.3l.65-.47ZM181.11,41.12c.07-.05.13-.07.2-.02.72.56,1.53,1.35,2.05,2.11.05.09.04.14-.05.22l-.49.43c-.07.07-.14.07-.22-.04-.45-.74-1.22-1.62-2.07-2.25l.58-.45Z"/><path class="cls-1" d="M191.73,42.95c.16.11.18.31-.02.54-.21.23-.43.65-.65,1.31-.88,2.63-2.11,5.9-3.37,8.75,2.43-.2,5.29-.45,7.67-.81-.59-1.06-1.33-2.16-2.18-3.15.29-.16.58-.36.85-.5.18-.11.25-.05.36.09,1.33,1.57,2.57,3.62,3.49,5.56.09.16.04.27-.09.36-.27.16-.54.31-.79.43-.14.07-.23.04-.32-.16-.23-.5-.49-1.04-.76-1.53-2.83.43-5.67.74-8.86,1.08-1.31.14-1.64.23-1.84.34-.25.16-.47.18-.58-.07-.11-.25-.27-.83-.43-1.49.65.05,1.24.04,2.12-.02,1.29-3.08,2.61-6.61,3.22-8.59.41-1.33.52-2.09.56-2.77.67.18,1.28.41,1.6.63Z"/><path class="cls-1" d="M208.05,44.9c-2.7.43-5.04.81-7.31,1.28-.65.13-.86.2-1.08.31-.12.05-.23.13-.34.13s-.2-.07-.25-.16c-.18-.36-.34-.79-.5-1.28.65,0,1.12-.05,2.23-.22,2.68-.43,6.34-.97,11.16-1.57.18-.02.27.04.31.14.05.23.11.67.11.9,0,.16-.05.2-.23.22-.97.05-1.69.16-2.63.54-2.63,1.04-4.64,3.26-4.64,5.67,0,2.99,2.61,3.87,5.24,4.09.23.02.29.05.29.2,0,.2-.05.61-.11.86-.04.2-.09.27-.29.25-3.04-.27-6.32-1.57-6.32-5.2,0-2.54,1.56-4.63,4.39-6.12l-.02-.04ZM210.25,47.44c.05-.04.11-.04.18.02.72.5,1.51,1.39,2.03,2.18.05.07.04.14-.04.2l-.52.43c-.09.07-.18.05-.23-.04-.52-.88-1.28-1.73-2.09-2.3l.67-.49ZM211.74,46.27c.07-.05.13-.07.2-.02.72.56,1.53,1.35,2.05,2.11.05.09.04.14-.05.22l-.49.43c-.07.07-.14.07-.22-.04-.45-.74-1.22-1.62-2.07-2.25l.58-.45Z"/><path class="cls-1" d="M220.22,53.72c.36.88.77,1.35,1.6,1.73.65.29,2.02.47,3.73.47,2.3,0,4.79-.11,7.45-.36-.18.22-.29.47-.32.74q-.07.36-.43.4c-2.32.14-4.48.22-6.3.22-2.05,0-3.65-.2-4.52-.59-.83-.38-1.3-.92-1.71-1.76-.56.59-1.19,1.15-1.91,1.73-.21.16-.34.29-.4.38-.07.11-.14.16-.21.16s-.14-.05-.22-.16c-.18-.29-.34-.56-.5-.92.47-.23.74-.4,1.12-.67.52-.38,1.06-.85,1.58-1.42v-4.5h-1.28c-.92,0-1.15.04-1.22.04-.14,0-.16-.02-.16-.16v-.77c0-.13.02-.14.16-.14.07,0,.3.04,1.22.04h.94c.94,0,1.19-.04,1.28-.04.12,0,.14.02.14.14,0,.09-.04.56-.04,1.71v3.76ZM217.79,41.91c.2-.13.22-.14.32-.04.74.72,1.4,1.55,2.05,2.52.07.11.05.14-.12.29l-.43.34c-.23.16-.25.16-.34.02-.61-1.01-1.3-1.89-2-2.59-.11-.09-.09-.11.11-.25l.41-.29ZM232.12,43.31c0,1.39.04,1.55.04,1.66s-.02.13-.14.13h-.78c-.12,0-.14-.02-.14-.13v-2.11h-9.11v2.11c0,.11-.02.13-.14.13h-.76c-.12,0-.14-.02-.14-.13s.04-.27.04-1.66v-.45c0-.47-.04-.68-.04-.79,0-.13.02-.14.14-.14.09,0,.74.04,2.56.04h5.81c1.82,0,2.47-.04,2.56-.04.12,0,.14.02.14.14,0,.11-.04.32-.04.7v.54ZM232.06,53.36c0,.13-.02.14-.14.14-.09,0-.7-.04-2.52-.04h-2.52v.07c0,1.03.04,1.42.04,1.53s-.02.14-.14.14h-.76c-.11,0-.14-.04-.14-.14s.04-.5.04-1.53v-.07h-2.23c-1.8,0-2.41.04-2.52.04-.12,0-.14-.02-.14-.14v-.67c0-.13.02-.14.14-.14.11,0,.72.04,2.52.04h2.23v-1.13h-1.29c-1.66,0-2.23.04-2.34.04s-.13-.02-.13-.14c0-.11.02-.47.02-1.53v-1.78c0-1.06-.02-1.42-.02-1.51,0-.13.02-.14.13-.14s.68.04,2.34.04h1.29v-1.1h-1.28c-1.42,0-1.96.04-2.05.04-.12,0-.14-.02-.14-.14v-.63c0-.13.02-.14.14-.14.09,0,.63.04,2.05.04h1.28c0-.43-.04-.83-.11-1.21.41.02.68.04,1.06.09.11.02.2.05.2.13,0,.09-.02.14-.07.25-.07.14-.11.31-.11.67v.07h1.57c1.42,0,1.96-.04,2.05-.04.13,0,.14.02.14.14v.63c0,.13-.02.14-.14.14-.09,0-.63-.04-2.05-.04h-1.57v1.1h1.51c1.66,0,2.23-.04,2.34-.04.13,0,.14.02.14.14,0,.09-.04.45-.04,1.51v1.78c0,1.06.04,1.42.04,1.53,0,.13-.02.14-.14.14-.11,0-.68-.04-2.34-.04h-1.51v1.13h2.52c1.82,0,2.43-.04,2.52-.04.12,0,.14.02.14.14v.67ZM225.9,47.2h-2.79v1.28h2.79v-1.28ZM225.9,49.25h-2.79v1.4h2.79v-1.4ZM229.87,47.2h-2.99v1.28h2.99v-1.28ZM229.87,49.25h-2.99v1.4h2.99v-1.4Z"/><path class="cls-1" d="M244.02,45.26c0,.13,0,.14-.11.14-.09,0-.65-.04-2.3-.04h-1.26v1.15h.97c1.53,0,2.03-.04,2.14-.04.12,0,.14.02.14.14,0,.09-.04.43-.04,1.48v1.76c0,1.01.04,1.39.04,1.48,0,.13-.02.14-.14.14-.11,0-.47-.04-2.14-.04h-.97v1.15h.96c1.58,0,2.09-.04,2.2-.04.13,0,.14.02.14.14v.65c0,.13-.02.14-.14.14-.11,0-.61-.04-2.2-.04h-.96v1.3c1.12-.14,2.27-.32,3.31-.54-.07.22-.11.38-.12.54-.04.38-.04.36-.4.43-2.09.41-4.23.72-6.43.97-.36.04-.63.11-.7.14-.07.04-.14.09-.21.09-.09,0-.16-.05-.22-.22-.07-.27-.18-.67-.25-1.03.61.02,1.13,0,1.85-.05.63-.05,1.39-.13,2.2-.22v-1.42h-1.26c-1.58,0-2.09.04-2.2.04-.12,0-.14-.02-.14-.14v-.65c0-.13.02-.14.14-.14.11,0,.61.04,2.2.04h1.26v-1.15h-.88c-1.53,0-2.03.04-2.14.04-.12,0-.14-.02-.14-.14,0-.11.04-.47.04-1.48v-1.75c0-1.04-.04-1.4-.04-1.49,0-.13.02-.14.14-.14.11,0,.61.04,2.14.04h.88v-1.15h-1.53c-1.64,0-2.2.04-2.29.04-.13,0-.14-.02-.14-.14v-.67c0-.13.02-.14.14-.14.09,0,.65.04,2.29.04h1.53v-1.19c-.88.13-1.76.23-2.75.32-.32.02-.36.04-.47-.22-.11-.27-.25-.47-.4-.63,2.63-.16,4.39-.45,6.19-.94.32-.09.61-.2.83-.34.29.22.52.41.7.59.11.11.14.16.14.25,0,.11-.14.16-.31.16s-.43.07-.7.13c-.79.2-1.53.36-2.27.5v1.35h1.26c1.65,0,2.2-.04,2.29-.04.11,0,.12.02.12.14v.67ZM239.37,47.29h-2.18v1.3h2.18v-1.3ZM239.37,49.33h-2.18v1.37h2.18v-1.37ZM242.63,47.29h-2.29v1.3h2.29v-1.3ZM242.63,49.33h-2.29v1.37h2.29v-1.37ZM248.66,45.4c1.42,0,1.87-.04,1.98-.04.12,0,.16.04.16.16-.04.56-.04,1.06-.04,1.6-.04,2.86-.16,5.8-.52,8.01-.21,1.26-.83,1.8-1.94,1.8-.5,0-.9-.02-1.28-.04-.31-.02-.31-.11-.32-.31-.02-.32-.13-.63-.25-.86.59.11,1.15.16,1.76.16s.88-.32,1.03-1.24c.32-1.94.47-4.99.47-8.28h-2.16c-.07,1.82-.27,3.58-.65,5.04-.63,2.3-1.55,4.07-3.44,5.56-.14.11-.2.16-.27.16-.05,0-.13-.05-.23-.16-.2-.22-.45-.38-.72-.49,2.03-1.28,3.02-3.1,3.67-5.45.32-1.19.5-2.88.59-4.66h-.18c-1.4,0-1.84.04-1.93.04-.14,0-.16-.02-.16-.14v-.76c0-.13.02-.14.16-.14.09,0,.52.04,1.93.04h.22c.02-.68.04-1.37.04-2.03,0-1.12-.02-1.55-.12-2.21.41.02.79.05,1.17.13.12.02.2.09.2.16,0,.13-.04.22-.09.38-.07.18-.11.72-.11,1.67,0,.63,0,1.28-.02,1.91h1.06Z"/><path class="cls-1" d="M257.35,42.34c.2.05.29.14.29.27,0,.14-.07.29-.14.47-.07.22-.14.77-.21,1.85-.16,2.72-.27,5.18-.27,7.67,0,2.02.56,2.63,2.12,2.63,2.29,0,4.62-1.39,6.48-3.44.05.41.2.77.3,1.04.04.11.07.18.07.25,0,.11-.05.2-.21.34-1.89,1.82-4.29,3.02-6.86,3.02-2.03,0-3.13-.97-3.13-3.62s.16-5.49.25-8.03c.04-1.12.05-1.89-.14-2.72.54.05,1.1.13,1.46.25Z"/><path class="cls-1" d="M276.63,44.79c-2.7.43-5.04.81-7.31,1.28-.65.13-.86.2-1.08.31-.12.05-.23.13-.34.13s-.2-.07-.25-.16c-.18-.36-.34-.79-.5-1.28.65,0,1.12-.05,2.23-.22,2.68-.43,6.34-.97,11.16-1.57.18-.02.27.04.3.14.05.23.11.67.11.9,0,.16-.05.2-.23.22-.97.05-1.69.16-2.63.54-2.63,1.04-4.64,3.26-4.64,5.67,0,2.99,2.61,3.87,5.24,4.09.23.02.29.05.29.2,0,.2-.05.61-.11.86-.04.2-.09.27-.29.25-3.04-.27-6.32-1.57-6.32-5.2,0-2.54,1.57-4.63,4.39-6.12l-.02-.04Z"/><path class="cls-1" d="M294.54,47.33c.04-.41.02-.77-.05-1.15.6.13,1.08.31,1.35.5.14.09.16.23.09.36-.09.13-.16.27-.2.54-.12.81-.34,1.89-.56,2.74,1.03.52,2.09,1.15,3.04,1.85.11.05.11.13.07.23-.13.25-.32.67-.47.9-.07.11-.16.07-.23,0-1.01-.83-1.89-1.39-2.75-1.85-.9,2.34-1.89,3.8-3.78,5.13-.21.16-.29.18-.45.07-.25-.23-.54-.36-.92-.45,2.27-1.57,3.29-3.04,4.07-5.22-1.28-.63-2.75-1.12-4.43-1.28-.81,1.75-1.37,2.77-1.98,3.44-.7.81-1.42,1.15-2.21,1.15-.9,0-1.82-.63-1.82-2.03,0-2,2.23-3.6,5.24-3.62.68-1.66,1.26-3.06,1.85-5-1.24.13-2.54.27-3.17.36-.43.05-.65.13-.79.16-.07.04-.14.05-.22.05-.11,0-.16-.04-.21-.11-.13-.25-.25-.7-.38-1.3.49.11.87.13,1.57.09.79-.04,1.76-.13,2.75-.25.45-.07.67-.13.83-.25.12-.11.29-.09.38-.04.29.18.58.43.78.68.14.18.14.31,0,.43-.18.18-.27.45-.43.86-.6,1.66-1.15,2.93-1.75,4.37,1.51.14,2.97.58,4.37,1.15.2-.92.34-1.75.41-2.54ZM284.35,52.15c0,.59.3,1.01.81,1.01.43,0,.94-.23,1.46-.88.38-.45.95-1.31,1.53-2.63-2.16.07-3.8,1.21-3.8,2.5Z"/><path class="cls-1" d="M59.38,76.57c.14-.04.2,0,.22.13.04.22.07.52.09.74.02.18-.02.23-.18.27-1.17.32-2.16.56-3.26.74-1.08,3.65-2.18,6.79-3.46,9.7-.07.16-.14.16-.27.11-.14-.05-.61-.27-.85-.4-.09-.05-.11-.14-.07-.23,1.49-3.17,2.52-5.98,3.37-8.98-1.17.13-2.41.2-3.64.22-.22,0-.25-.02-.29-.18-.04-.25-.09-.63-.14-.99.34.04.65.04,1.13.04.85,0,2.09-.07,3.24-.22.25-.95.4-1.6.52-2.27.09-.5.18-1.1.14-1.69.5.09,1.06.25,1.44.41.09.04.14.11.14.2s-.05.18-.14.29c-.13.16-.2.32-.29.7-.22.74-.38,1.48-.58,2.16.85-.14,1.85-.41,2.86-.74ZM58.48,84.82c.14,0,.18.04.2.18.13,1.62,1.13,2.16,3.4,2.16.92,0,1.93-.13,2.66-.23.14-.02.2-.02.22.13.04.22.07.61.07.86,0,.18-.05.22-.2.23-.56.09-1.49.18-2.36.18-1.94,0-3.15-.25-3.96-.99-.63-.54-.86-1.35-.88-2.43.31-.05.65-.09.85-.09ZM58.93,80.19c0-.16.04-.22.23-.27,1.04-.23,2.09-.38,3.15-.38.74,0,1.53.09,2.23.18.22.04.25.09.27.2.02.18.04.56.02.79-.02.22-.07.27-.23.23-.77-.13-1.55-.2-2.3-.2-1.12,0-2.23.16-3.31.4-.04-.31-.05-.74-.05-.95Z"/><path class="cls-1" d="M70.99,74.68c.18.11.25.2.25.29,0,.07-.04.14-.11.29-.11.22-.18.59-.29,1.06-.38,2.07-.68,4.05-.68,5.94,0,1.49.18,2.68.41,3.51.45-1.06.81-1.87,1.3-2.99.14.41.27.63.41.81.07.09.11.14.11.22,0,.09-.05.2-.16.41-.43.95-.7,1.67-1.01,2.57-.04.14-.07.31-.07.43s.02.23.02.34c0,.07-.04.13-.11.16-.29.13-.49.18-.7.22-.13.02-.22,0-.29-.14-.56-1.13-1.03-3.47-1.03-5.24,0-2,.2-3.67.49-5.51.2-1.39.25-2.05.23-2.84.54.14.94.31,1.22.47ZM78.24,79.02c-.9.07-1.76.13-2.52.13-.45,0-.92,0-1.48-.02-.2,0-.25-.07-.29-.22-.04-.2-.07-.54-.09-.94.63.05,1.37.07,2.02.07.7,0,1.58-.04,2.34-.11-.04-1.33-.05-2.18-.09-2.75-.05-.63-.11-.9-.25-1.24.59.02,1.17.07,1.44.16.14.05.22.11.22.22,0,.05-.04.14-.07.25-.07.18-.09.36-.09.74,0,.7.02,1.6.02,2.5.86-.09,1.69-.25,2.57-.45.14-.04.22-.02.23.11.04.25.05.5.09.79.02.16-.04.22-.16.23-.95.2-1.76.32-2.7.41l.04,2.61c.02,1.84-.18,3.13-.76,4.36-.54,1.19-1.44,2.05-2.48,2.75-.18.13-.27.14-.34.14-.09,0-.16-.04-.29-.16-.16-.16-.43-.29-.79-.41,1.55-.85,2.41-1.73,2.93-3.08.38-.94.58-2.05.54-4.12l-.04-1.98Z"/><path class="cls-1" d="M90.46,73.98c.2.07.29.16.29.29,0,.07-.05.16-.09.23-.09.14-.11.31-.14.7-.07.83-.11,1.49-.14,2.41.27.14.45.25.63.41.11.09.13.2.02.36-.25.41-.49.85-.76,1.39-.02.23-.02.43-.04.68.74-.85,1.37-1.49,2.03-2.11,1.1-1.06,2.14-1.78,3.19-1.78,1.24,0,1.93.81,1.93,2.25,0,.79-.05,1.98-.16,3.35-.09,1.39-.18,2.38-.18,2.97,0,1.13.31,1.4.9,1.4.5,0,1.01-.22,1.49-.68.31-.31.7-.79,1.1-1.71.13.47.23.7.41.92.13.18.16.31,0,.58-.83,1.33-1.85,2.05-3.1,2.05s-1.98-.68-1.98-2.36c0-.81.05-1.84.14-3.08.09-1.3.14-2.21.14-3.1,0-.99-.25-1.55-.83-1.55-.65,0-1.4.43-2.39,1.33-.81.76-1.57,1.55-2.72,2.84,0,1.87.05,4.27.07,6.79,0,.11-.04.16-.18.18-.18.02-.58.04-.86.04-.09,0-.14-.05-.14-.2,0-2.65-.02-4.52.04-6.05-.86,1.22-1.71,2.5-2.65,3.91-.11.16-.16.18-.31.09-.18-.13-.52-.41-.67-.61-.11-.09-.05-.2.04-.32,1.46-1.89,2.52-3.37,3.58-5,.04-.63.04-1.12.05-1.57-.9.27-1.73.54-2.47.85-.2.07-.36.23-.47.23s-.2-.07-.27-.18c-.2-.27-.34-.59-.52-1.04.49-.02.86-.09,1.26-.18.65-.18,1.42-.4,2.52-.76.02-.83.04-1.62.05-2.43,0-.58,0-1.19-.13-1.78.5.04.99.13,1.3.23Z"/><path class="cls-1" d="M108.47,74.47c.14.04.22.14.22.23,0,.18-.09.34-.09.63.02.4.05.76.11,1.15.16,1.3.38,2.5.7,3.64,1.06-.52,2.14-1.03,3.2-1.62.58-.32.79-.5,1.04-.83.36.34.68.68.92,1.01.14.22.11.47-.22.5-.45.07-1.04.32-1.58.58-1.31.61-2.86,1.35-4.09,2.05-1.82,1.06-2.66,2-2.66,3.26,0,1.6,1.51,2,4.23,1.98,1.67-.02,3.29-.18,4.63-.38.16-.02.22.02.25.16.05.29.09.63.11.94.02.16-.05.23-.25.25-1.48.16-2.77.25-4.79.25-3.11,0-5.36-.68-5.36-3.15,0-1.73,1.22-3.06,3.51-4.45-.4-1.33-.77-3.19-.95-4.61-.11-.83-.2-1.28-.4-1.76.54.02,1.1.07,1.48.16ZM114.48,74.54c.07-.05.13-.04.2.02.72.5,1.51,1.39,2.03,2.18.05.07.04.14-.04.2l-.52.43c-.09.07-.18.05-.23-.04-.52-.88-1.28-1.73-2.09-2.3l.65-.49ZM115.99,73.37c.07-.05.13-.07.2-.02.72.56,1.53,1.35,2.05,2.11.05.09.04.14-.05.22l-.49.43c-.07.07-.14.07-.22-.04-.45-.74-1.22-1.62-2.07-2.25l.58-.45Z"/><path class="cls-1" d="M119.51,85.3c.07-.07.14-.11.2-.11s.11.04.2.11c1.31.83,2.41,1.84,3.46,3.24.07.11.09.16.09.22,0,.07-.02.13-.13.22l-.65.54c-.09.07-.14.11-.18.11-.07,0-.13-.02-.2-.14-.94-1.35-2.09-2.54-3.31-3.37-.09-.05-.13-.09-.13-.13,0-.05.02-.09.09-.18l.56-.5Z"/><path class="cls-1" d="M138.6,84.96c0,1.08.02,2.11.05,3.26.02.16-.04.22-.18.22-.32.02-.72.02-1.04,0-.14,0-.18-.05-.18-.22.04-1.08.07-2.16.07-3.2v-5.33c-1.89,1.67-3.65,2.9-5.65,4.07-.16.09-.29.05-.41-.07-.23-.23-.56-.41-.9-.58,2.23-1.22,4.1-2.52,5.6-3.8,1.37-1.17,2.65-2.45,3.49-3.47.76-.92,1.08-1.46,1.24-2.03.49.25.97.54,1.24.81.18.18.14.4-.07.5-.22.11-.56.43-1.01.95-.76.92-1.4,1.64-2.25,2.48v6.41Z"/><path class="cls-1" d="M157.01,77.08c.81,0,1.15-.05,1.31-.14.16-.09.32-.07.45.05.31.27.56.54.77.85.16.23.09.41-.09.54-.27.2-.45.29-.85.76-1.33,1.57-3.22,3.49-5.13,5.02.61.61,1.3,1.39,1.85,2.11.13.14.13.23,0,.38-.2.22-.43.41-.67.58-.14.09-.2.11-.31-.05-1.62-2.09-3.47-3.91-5.56-5.4.22-.22.52-.52.72-.7.13-.11.18-.09.34,0,1.04.79,1.94,1.51,2.77,2.27,1.87-1.55,3.78-3.53,4.99-5.11l-7.92.04c-1.46,0-2.57.07-3.56.14-.2.02-.25-.04-.29-.2-.05-.36-.13-.81-.14-1.26,1.19.13,2.43.14,4,.14h7.31Z"/><path class="cls-1" d="M169.5,84.96c0,1.08.02,2.11.05,3.26.02.16-.04.22-.18.22-.32.02-.72.02-1.04,0-.14,0-.18-.05-.18-.22.04-1.08.07-2.16.07-3.2v-5.33c-1.89,1.67-3.65,2.9-5.65,4.07-.16.09-.29.05-.41-.07-.23-.23-.56-.41-.9-.58,2.23-1.22,4.1-2.52,5.6-3.8,1.37-1.17,2.65-2.45,3.49-3.47.76-.92,1.08-1.46,1.24-2.03.49.25.97.54,1.24.81.18.18.14.4-.07.5-.22.11-.56.43-1.01.95-.76.92-1.4,1.64-2.25,2.48v6.41Z"/><path class="cls-1" d="M183.15,79.94c.02-.47.02-1.15,0-1.6s-.04-.81-.2-1.39c.54.05,1.15.14,1.49.23.22.05.25.18.16.36-.07.14-.11.32-.12.5-.02.23-.04.47-.04.72,0,.47-.02.76-.02,1.17h2.39c1.12,0,2.39-.04,3.4-.09.18-.02.2.04.2.22.02.25.02.58,0,.79,0,.22-.02.25-.22.25-1.13-.04-2.23-.05-3.42-.05h-2.39c-.09,1.48-.31,2.72-.81,3.82-.59,1.3-1.55,2.59-2.9,3.47-.12.09-.21.14-.41,0-.3-.22-.7-.4-1.1-.47,1.75-1.03,2.57-2.07,3.21-3.4.48-1.03.7-2.16.74-3.42h-3.33c-.95,0-2.02.04-3.01.11-.2,0-.25-.07-.29-.31-.04-.25-.09-.67-.11-1.03,1.26.09,2.38.11,3.46.11h3.31ZM188.01,74.95c.13.13.22.25.22.36,0,.13-.13.22-.41.25-.29.05-.72.2-1.03.29-1.28.36-2.48.68-3.76.92-1.44.29-3.02.52-4.68.67-.18.02-.27-.09-.32-.23-.11-.22-.29-.49-.63-.77,2.18-.14,3.58-.36,5.24-.68,1.26-.25,2.39-.58,3.22-.88.68-.27.9-.38,1.21-.65.39.25.76.54.95.74Z"/><path class="cls-1" d="M196.09,81.51c.14-.14.18-.16.29-.07.61.49,1.22,1.06,1.84,1.69.14-.31.27-.63.38-.95.2-.59.34-1.08.38-1.62.34.11.76.27.99.4.13.07.2.13.2.22s-.11.2-.2.32c-.12.18-.2.41-.32.77-.2.58-.43,1.12-.7,1.66.59.65,1.15,1.31,1.69,1.98.07.11.05.14-.07.27l-.41.43c-.16.18-.21.18-.3.05-.43-.63-.9-1.24-1.4-1.84-.97,1.58-2.34,2.93-4.1,4.05-.14.07-.22.13-.27.13-.07,0-.12-.07-.25-.25-.16-.22-.34-.38-.52-.5,2-1.13,3.49-2.54,4.46-4.19-.63-.67-1.31-1.31-2.05-1.96-.09-.09-.07-.13.04-.23l.36-.34ZM196.81,78.54c-.14.09-.23.25-.36.45-.45.83-.99,1.67-1.89,2.65-.12.13-.2.2-.25.2-.07,0-.12-.07-.25-.2-.18-.2-.36-.34-.59-.41,1.1-.97,1.64-1.84,2.11-2.75.09-.2.21-.52.23-.81.4.14.72.29,1.01.47.13.09.16.13.16.2,0,.09-.05.14-.16.22ZM202,76.83c0,.11-.02.13-.14.13-.11,0-.63-.04-2.25-.04h-3.42c-1.62,0-2.14.04-2.23.04-.12,0-.14-.02-.14-.13v-.76c0-.13.02-.14.14-.14.09,0,.61.04,2.23.04h1.31v-.99c0-.92-.04-1.4-.14-1.91.45.02.85.05,1.19.11.14.02.22.07.22.14,0,.13-.05.22-.11.34-.07.2-.11.49-.11,1.31v.99h1.06c1.62,0,2.14-.04,2.25-.04.12,0,.14.02.14.14v.76ZM199.78,77.83c.18-.09.2-.09.27.04.58,1.06,1.31,2.02,2.41,3.04-.27.11-.41.23-.61.45-.11.11-.16.18-.23.18s-.14-.07-.27-.22c-.85-.92-1.6-2-2.18-3.01-.07-.13-.04-.18.12-.25l.49-.23ZM206.91,77.55c1.47,0,1.94-.04,2.05-.04s.14.04.14.16c-.02.56-.04,1.08-.04,1.6-.02,2.72-.16,5.71-.51,7.94-.21,1.35-.85,1.8-1.94,1.8-.49,0-.9-.02-1.31-.05q-.34-.02-.39-.4c-.04-.27-.13-.52-.25-.77.61.11,1.22.16,1.84.16s.86-.2,1.04-1.22c.29-1.94.47-5.11.47-8.23h-2.61c-.12,1.78-.39,3.6-.79,4.95-.7,2.32-1.93,4.1-4.07,5.69-.14.11-.2.16-.25.16-.07,0-.12-.07-.27-.2-.2-.22-.41-.4-.67-.5,2.25-1.35,3.65-3.38,4.28-5.54.36-1.22.59-2.79.74-4.55h-.16c-1.47,0-1.94.04-2.03.04-.13,0-.14-.02-.14-.14v-.74c0-.13.02-.14.14-.14.09,0,.56.04,2.03.04h.22c.04-.7.05-1.42.05-2.16,0-1.12-.02-1.57-.14-2.21.43.02.83.05,1.21.13.14.04.2.09.2.18,0,.11-.05.22-.11.4-.05.2-.11.67-.11,1.62,0,.65-.02,1.35-.05,2.05h1.44Z"/><path class="cls-1" d="M220.86,83.45c1.71,1.85,4.12,3.15,7.11,4.05-.22.2-.38.43-.52.72-.16.32-.2.32-.52.2-2.59-.94-4.9-2.2-6.8-4.59,0,2.77.11,4.95.11,5.38,0,.13-.02.14-.14.14h-.88c-.14,0-.16-.02-.16-.14,0-.43.11-2.57.13-5.33-1.73,2.27-3.82,3.58-6.46,4.63-.34.13-.34.11-.52-.18-.14-.23-.32-.45-.54-.61,2.84-1.03,5.11-2.29,6.75-4.27h-3.98c-1.69,0-2.25.04-2.34.04-.13,0-.14-.02-.14-.16v-.76c0-.13.02-.13.14-.13.09,0,.65.04,2.34.04h4.7v-1.66h-2.18c-1.76,0-2.41.04-2.5.04-.12,0-.14-.02-.14-.14,0-.09.04-.54.04-1.78v-2.93c0-1.24-.04-1.69-.04-1.8,0-.13.02-.14.14-.14.09,0,.74.04,2.5.04h5.69c1.78,0,2.41-.04,2.52-.04.12,0,.14.02.14.14,0,.11-.04.56-.04,1.8v2.93c0,1.24.04,1.69.04,1.78,0,.13-.02.14-.14.14-.11,0-.74-.04-2.52-.04h-2.45v1.66h5.04c1.69,0,2.25-.04,2.34-.04.12,0,.14,0,.14.13v.76c0,.14-.02.16-.14.16-.09,0-.65-.04-2.34-.04h-4.36ZM219.11,75.01h-3.72v1.96h3.72v-1.96ZM219.11,77.87h-3.72v2.03h3.72v-2.03ZM224.19,75.01h-4.01v1.96h4.01v-1.96ZM224.19,77.87h-4.01v2.03h4.01v-2.03Z"/><path class="cls-1" d="M235.6,75.84c.14-.63.18-1.08.16-1.73.56.14.94.27,1.4.49.2.09.25.31.07.47-.14.14-.21.29-.31.59-.27.88-.5,1.73-.77,2.61.58-.07,1.31-.13,1.75-.13,1.57,0,2.34.79,2.34,2.95,0,2.32-.4,4.46-.99,5.76-.45.99-1.17,1.42-2.05,1.42-.74,0-1.39-.13-1.84-.32-.14-.05-.22-.14-.22-.31-.02-.31-.05-.7-.22-1.08.79.34,1.46.5,2.09.5.52,0,.86-.18,1.21-.94.45-1.03.81-2.84.81-5.06,0-1.4-.27-1.91-1.24-1.91-.56,0-1.31.09-1.95.2-1.04,3.11-2.21,5.92-3.67,8.51-.07.13-.18.14-.3.09-.18-.09-.52-.32-.72-.49-.11-.09-.09-.18-.04-.29,1.51-2.54,2.57-5.02,3.46-7.67-.74.11-1.48.23-2.38.4-.32.05-.65.14-.79.23-.2.13-.36.13-.47-.09-.14-.31-.29-.72-.41-1.22.65.02,1.35-.02,1.87-.09.99-.11,1.69-.22,2.54-.34.23-.85.43-1.57.67-2.57ZM242.11,77.31c.11-.04.18-.02.27.07,1.26,1.08,2.3,2.65,2.9,4.36.04.13.05.22-.05.31-.18.16-.52.38-.74.49-.14.09-.27.07-.31-.11-.61-1.84-1.51-3.37-2.88-4.55.25-.2.54-.4.81-.56ZM242.49,74.54c.07-.05.11-.04.18.02.72.5,1.51,1.39,2.04,2.18.05.07.04.14-.04.2l-.52.43c-.09.07-.18.05-.23-.04-.52-.88-1.28-1.73-2.09-2.3l.67-.49ZM243.98,73.37c.07-.05.13-.07.2-.02.72.56,1.53,1.35,2.05,2.11.05.09.04.14-.05.22l-.48.43c-.07.07-.14.07-.22-.04-.45-.74-1.22-1.62-2.07-2.25l.58-.45Z"/><path class="cls-1" d="M256.97,84.21c1.55,2.3,4.21,3.4,7.33,3.85-.16.2-.34.47-.45.76-.09.23-.13.31-.25.31-.05,0-.14-.02-.25-.04-2.94-.56-5.58-1.82-7.25-4.48-.16.36-.36.7-.6,1.03-1.21,1.64-3.08,2.66-6.1,3.42-.12.04-.2.05-.27.05-.13,0-.16-.07-.25-.31-.11-.27-.29-.52-.45-.68,3.1-.58,5.26-1.67,6.25-3.13.16-.23.29-.5.41-.77h-3.54c-1.75,0-2.34.04-2.43.04-.13,0-.14-.02-.14-.14v-.7c0-.13.02-.14.14-.14.09,0,.68.04,2.43.04h3.83c.09-.47.16-1.01.2-1.66h-1.8c-1.75,0-2.34.04-2.45.04-.12,0-.14-.02-.14-.14v-.67c0-.14.02-.16.14-.16.11,0,.7.04,2.45.04h1.84c0-.47.02-.99.02-1.58h-2.02c-1.78,0-2.38.04-2.48.04-.13,0-.14-.02-.14-.14v-.68c0-.13.02-.14.14-.14.11,0,.7.04,2.48.04h2.02c-.02-.86-.07-1.31-.13-1.71.43.02.79.05,1.1.11.16.04.29.07.29.18s-.07.25-.12.4c-.05.14-.07.45-.07,1.03h2.23c1.76,0,2.36-.04,2.46-.04.13,0,.14.02.14.14v.68c0,.13-.02.14-.14.14-.11,0-.7-.04-2.46-.04h-2.23c0,.58,0,1.12-.02,1.58h2.07c1.78,0,2.36-.04,2.45-.04.12,0,.14.02.14.16v.67c0,.13-.02.14-.14.14-.09,0-.67-.04-2.45-.04h-2.11c-.02.63-.07,1.17-.16,1.66h4.7c1.74,0,2.34-.04,2.45-.04.12,0,.14.02.14.14v.7c0,.13-.02.14-.14.14-.11,0-.7-.04-2.45-.04h-4.2ZM263.49,76.75c0,1.57.04,1.8.04,1.89,0,.13-.02.14-.14.14h-.83c-.12,0-.14-.02-.14-.14v-2.57h-12.29v2.57c0,.13-.02.14-.14.14h-.83c-.12,0-.14-.02-.14-.14,0-.09.04-.32.04-1.89v-.58c0-.59-.04-.86-.04-.95,0-.13.02-.14.14-.14.11,0,.74.04,2.5.04h3.94v-.22c0-.92-.04-1.4-.14-1.84.45.02.86.05,1.21.09.14.02.22.07.22.14,0,.13-.05.2-.11.34-.05.16-.09.43-.09,1.26v.22h4.23c1.78,0,2.39-.04,2.48-.04.13,0,.14.02.14.14,0,.09-.04.36-.04.85v.68Z"/><path class="cls-1" d="M277.57,76.03c.16,1.48.5,2.99,1.06,4.36.47-.72.79-1.42,1.03-2.09.11-.29.2-.68.25-1.06.34.09.63.2.9.32.12.05.18.11.18.18,0,.09-.05.14-.12.23-.09.11-.13.2-.25.49-.38.92-.83,1.89-1.49,2.84.63,1.03,1.38,1.73,1.85,1.73.65,0,.83-.68,1.1-2.03.14.18.36.34.54.45.3.18.32.22.23.54-.38,1.49-.86,2.09-1.87,2.09-.81,0-1.75-.83-2.5-1.96-.54.61-1.19,1.21-2.02,1.78-.14.09-.22.14-.29.14-.09,0-.16-.05-.29-.18-.16-.16-.31-.25-.52-.36,1.12-.67,1.96-1.44,2.63-2.21-.79-1.62-1.21-3.4-1.42-5.26h-6.98v1.6c0,.81-.16,2.75-.36,3.56-.29,1.13-.59,2.03-1.35,3.1-.09.14-.14.22-.2.22s-.12-.05-.27-.18c-.22-.18-.43-.31-.65-.38.81-1.06,1.13-1.76,1.4-2.83.23-.95.4-2.16.4-4.01,0-1.28-.04-1.8-.04-1.89,0-.13.02-.14.14-.14.11,0,.74.04,2.54.04h5.27l-.05-.72c-.04-.5-.09-.95-.18-1.31.38.02.77.05,1.13.11.12.02.2.07.2.16,0,.11-.04.22-.07.31-.05.14-.05.45-.04.76,0,.23,0,.47.02.7h2.07c1.8,0,2.41-.04,2.5-.04.12,0,.14.02.14.14v.7c0,.13-.02.14-.14.14-.09,0-.7-.04-2.5-.04h-1.98ZM269.76,85.02c.2.09.22.13.18.25-.43,1.17-1.12,2.29-1.95,3.2-.05.05-.09.09-.12.09-.05,0-.11-.04-.2-.09l-.45-.32c-.22-.16-.23-.2-.13-.31.79-.77,1.48-1.87,1.86-2.93.05-.14.11-.16.34-.07l.47.18ZM275.77,78.07c0,.13-.02.14-.14.14-.07,0-.49-.04-1.67-.04h-1.82c-1.21,0-1.58.04-1.69.04s-.13-.02-.13-.14v-.67c0-.14.02-.16.13-.16s.48.04,1.69.04h1.82c1.19,0,1.58-.04,1.67-.04.12,0,.14.02.14.16v.67ZM275.36,81.63c0,.79.04,1.04.04,1.13,0,.13-.02.14-.14.14-.11,0-.45-.04-1.53-.04h-1.48c-1.1,0-1.44.04-1.53.04-.13,0-.14-.02-.14-.14,0-.09.04-.34.04-1.13v-1.06c0-.79-.04-1.04-.04-1.13,0-.13.02-.14.14-.14.09,0,.43.04,1.53.04h1.48c1.08,0,1.42-.04,1.53-.04.13,0,.14.02.14.14,0,.09-.04.34-.04,1.13v1.06ZM272.3,87.23c0,.41.09.63.45.7.43.09,1.1.13,1.95.13,1.13,0,2.18-.02,2.73-.29.43-.23.58-.79.63-1.66.2.14.45.27.7.36.32.11.34.16.29.47-.16,1.12-.54,1.53-.99,1.73-.74.34-2.02.34-3.35.34-1.19,0-2.05-.02-2.65-.16-.47-.13-.81-.4-.81-1.17v-1.75c0-.56,0-1.04-.07-1.46.4.02.79.05,1.08.11.14.02.2.09.2.16,0,.09-.04.14-.07.23-.05.13-.09.31-.09.79v1.46ZM274.48,80.17h-2.99v1.87h2.99v-1.87ZM274.22,83.9c.18-.13.22-.13.34-.02.65.49,1.33,1.19,1.84,1.82.07.11.05.14-.12.27l-.41.29c-.2.14-.25.16-.34.02-.48-.68-1.15-1.35-1.74-1.85-.11-.09-.09-.14.09-.27l.36-.25ZM278.9,73.14c.13-.09.16-.09.25-.02.56.31,1.12.76,1.66,1.28.11.11.07.14-.07.27l-.32.27c-.18.16-.23.2-.34.07-.49-.52-1.03-.97-1.6-1.33-.13-.09-.11-.14.05-.27l.38-.27ZM280.15,84.69c.18-.11.22-.09.32.02.85.88,1.46,1.75,2.03,2.81.07.13.05.2-.12.29l-.52.27c-.2.11-.25.11-.32-.02-.54-1.06-1.19-2.03-1.95-2.86-.09-.11-.09-.13.13-.25l.43-.25Z"/><path class="cls-1" d="M294.45,76.9c-2.7.43-5.04.81-7.31,1.28-.65.13-.86.2-1.08.31-.12.05-.23.13-.34.13s-.2-.07-.25-.16c-.18-.36-.34-.79-.5-1.28.65,0,1.12-.05,2.23-.22,2.68-.43,6.34-.97,11.16-1.57.18-.02.27.04.31.14.05.23.11.67.11.9,0,.16-.05.2-.23.22-.97.05-1.69.16-2.63.54-2.63,1.04-4.64,3.26-4.64,5.67,0,2.99,2.61,3.87,5.24,4.09.23.02.29.05.29.2,0,.2-.05.61-.11.86-.04.2-.09.27-.29.25-3.04-.27-6.32-1.57-6.32-5.2,0-2.54,1.56-4.63,4.39-6.12l-.02-.04ZM296.64,79.44c.05-.04.11-.04.18.02.72.5,1.51,1.39,2.03,2.18.05.07.04.14-.04.2l-.52.43c-.09.07-.18.05-.23-.04-.52-.88-1.28-1.73-2.09-2.3l.67-.49ZM298.13,78.27c.07-.05.13-.07.2-.02.72.56,1.53,1.35,2.05,2.11.05.09.04.14-.05.22l-.49.43c-.07.07-.14.07-.22-.04-.45-.74-1.22-1.62-2.07-2.25l.58-.45Z"/><path class="cls-1" d="M56.82,107.04c-.16-.5-.31-.79-.59-1.15.52-.09,1.06-.13,1.4-.13.18,0,.31.09.31.22,0,.07-.04.18-.04.29,0,.16.04.32.14.76.13.47.23.79.34,1.17,1.28-.27,2.54-.56,3.98-1.04.11-.04.16-.05.2.07.07.22.13.47.16.67.02.14-.04.22-.16.25-1.33.41-2.59.72-3.87,1.01.22.65.5,1.33.85,2.03,1.33-.27,2.48-.59,3.58-1.03.14-.05.2-.04.25.09.07.23.13.45.16.68.02.13,0,.2-.14.25-1.1.36-2.29.68-3.42.94.7,1.31,1.69,2.74,2.81,3.67.11.11.14.16.07.31-.11.25-.27.5-.43.7-.14.16-.23.18-.4.04-.36-.25-.83-.47-1.28-.65-.95-.36-2.02-.54-3.44-.54-1.87,0-3.08.54-3.08,1.78,0,1.39,1.69,1.89,4.55,1.89.65,0,1.24-.05,1.84-.11.14-.02.16.07.14.2-.04.25-.11.59-.2.86-.04.14-.07.2-.23.22-.47.04-.9.07-1.58.07-3.6,0-5.67-.97-5.67-3.04,0-1.76,1.53-2.84,4.16-2.84,1.53,0,2.81.22,3.73.67-.7-.77-1.37-1.76-2.03-2.99-1.82.32-3.53.54-5.2.59-.14,0-.16-.02-.22-.18-.07-.22-.14-.58-.16-.85,1.85-.05,3.49-.23,5.13-.54-.29-.61-.59-1.31-.88-2.03-1.46.27-3.13.47-4.73.52-.14,0-.2-.02-.23-.18-.04-.14-.11-.5-.16-.83,1.71-.02,3.51-.23,4.82-.43-.14-.41-.27-.81-.47-1.39Z"/><path class="cls-1" d="M75.47,108.56c.16-.04.22,0,.23.11.04.22.07.54.09.77.02.16-.02.2-.16.22-.97.2-1.94.36-3.01.52-1.04,2.83-2.34,5.54-3.62,7.6-.09.14-.18.13-.29.05-.27-.16-.56-.38-.72-.54-.11-.09-.11-.16-.02-.31,1.49-2.25,2.52-4.37,3.38-6.7-.77.07-1.49.13-2.27.13-.27,0-.54,0-.95-.04-.16-.02-.18-.04-.22-.22-.05-.23-.09-.56-.11-.9.58.05,1.04.07,1.42.07.83,0,1.57-.05,2.45-.14.22-.68.38-1.35.54-2.11.11-.52.16-.88.14-1.4.52.09,1.04.22,1.4.36.11.04.16.11.16.2s-.04.16-.14.27c-.09.11-.14.23-.25.56-.2.65-.4,1.31-.58,1.94.81-.11,1.58-.23,2.5-.45ZM76.57,112.91c0-.36-.02-.68-.11-1.15.49.05.85.11,1.22.23.13.04.2.11.2.22,0,.07-.04.16-.11.32-.07.2-.07.49-.07.85,0,1.08.09,2.16.22,3.31,1.31.52,2.32,1.04,3.4,1.8.14.09.13.14.07.29-.09.23-.29.56-.43.79-.09.13-.18.11-.29.02-.81-.72-1.78-1.28-2.74-1.71.02,1.82-.9,2.81-3.22,2.81-1.37,0-2.79-.7-2.79-2.2,0-1.35,1.3-2.27,3.06-2.27.54,0,1.24.09,1.8.22-.11-1.12-.2-2.56-.22-3.53ZM75.04,117.21c-1.44,0-2.09.56-2.09,1.22,0,.83.67,1.21,1.85,1.21,1.48,0,2.02-.77,2.02-1.69,0-.23,0-.34-.02-.43-.56-.18-1.19-.31-1.76-.31ZM78.1,109.15c.09-.14.14-.16.31-.11,1.21.38,2.5.95,3.53,1.69.13.11.13.18.04.32-.11.23-.27.52-.41.72-.09.13-.14.11-.25.04-1.04-.79-2.38-1.44-3.67-1.84.18-.31.32-.61.47-.83Z"/><path class="cls-1" d="M87.1,108.12c.11.05.16.13.16.2,0,.09-.04.2-.07.32-.07.22-.14.72-.14,1.66,0,1.15.02,2.25.25,4.09.27,2.12,1.04,3.67,1.91,3.67.72,0,1.4-1.15,1.93-2.83.2.47.36.68.59.9.14.13.2.27.14.45-.5,1.46-1.48,2.83-2.68,2.83-1.51,0-2.65-2.09-3.04-4.91-.25-1.8-.32-3.83-.32-5.02,0-.68-.02-1.12-.14-1.73.5.05,1.08.22,1.42.38ZM95.69,109.51c.11-.05.2-.07.27,0,1.84,1.6,3.06,3.82,3.51,6.23.02.13-.04.18-.13.23-.27.18-.52.31-.83.41-.13.04-.22-.02-.23-.14-.5-2.75-1.64-4.66-3.38-6.25.34-.23.61-.4.79-.49Z"/><path class="cls-1" d="M104.95,113.2c0,.67-.54,1.19-1.17,1.19-.67,0-1.19-.52-1.19-1.19,0-.63.52-1.17,1.19-1.17.63,0,1.17.54,1.17,1.17ZM110.94,113.2c0,.67-.54,1.19-1.17,1.19-.67,0-1.19-.52-1.19-1.19,0-.63.52-1.17,1.19-1.17.63,0,1.17.54,1.17,1.17ZM116.93,113.2c0,.67-.54,1.19-1.17,1.19s-1.19-.52-1.19-1.19c0-.63.54-1.17,1.19-1.17s1.17.54,1.17,1.17Z"/><path class="cls-1" d="M123.94,119.1c0,1.39-1.15,2.5-2.54,2.5s-2.54-1.12-2.54-2.5,1.15-2.5,2.54-2.5,2.54,1.12,2.54,2.5ZM119.8,119.1c0,.88.72,1.6,1.6,1.6s1.6-.72,1.6-1.6-.7-1.6-1.6-1.6-1.6.72-1.6,1.6Z"/><path class="cls-2" d="M260.56,19.22s.14-.14.22-.14c.11,0,.14.11.14.14,0,.07-.36.43-.36.43-2.56,2.66-8.96,7.56-14.25,7.56-3.42,0-7.34-2.95-7.34-6.55,0-9.25,15.12-20.66,22.75-20.66,2.59,0,3.71,2.3,3.71,3.74,0,2.59-5.15,6.95-6.26,6.95-.86,0-1.73-.58-1.73-.79,0-.14.11-.18.22-.22,2.45-.43,7.2-3.63,7.2-6.48,0-.76-.79-1.55-2.12-1.55-7.13,0-21.67,11.23-21.67,20.37,0,2.88,2.02,4.32,5.11,4.32,5.94,0,10.8-3.56,14.4-7.13Z"/><path class="cls-2" d="M268.75,23.4c-1.15,0-2.16-.79-2.16-2.16,0-.68.11-1.3.11-1.3-1.8,1.76-4.32,4.36-5.15,4.36s-2.09-.97-2.09-2.09c0-2.88,4.9-7.85,7.99-7.85,1.4,0,2.77,1.26,2.77,2.05,0,.58-.18.94-.29.94s-.32-.22-.32-.36.18-.25.18-.68c0-.25-.4-.58-.65-.58-3.38,0-8.06,5.04-8.06,7.52,0,.29.14.47.47.47.68,0,3.28-2.48,5-4.21,1.08-1.08,1.87-1.8,2.2-1.8s1.3.94,1.3,1.51c0,.43-1.58,1.62-1.58,2.74,0,.47.36.68.79.68,1.76,0,5.18-3.42,5.18-3.42.07-.07.14-.14.22-.14.11,0,.14.11.14.14,0,.07-.25.32-.36.43,0,0-3.67,3.74-5.69,3.74Z"/><path class="cls-2" d="M275.31,24.41c-1.73,0-2.92-2.23-2.92-3.17,0-.25.14-.5.5-.5.79,0,1.98.32,3.82.4.11-.36.18-.76.18-1.26,0-.9-.14-1.48-.32-1.98-.83.94-1.22,1.33-1.69,1.76-.07.07-.14.11-.18.11-.07,0-.14-.07-.14-.14,0-.11.14-.22.32-.4,0,0,.68-.58,1.55-1.66-.18-.47-.36-.86-.36-1.48,0-1.37,1.84-2.84,2.48-2.84.5,0,1.3.83,1.3,1.3,0,.54-2.34,1.48-2.34,2.81,0,1.55.97,2.02,1.12,3.67,1.26-.18,2.52-.72,3.6-1.8,0,0,.14-.14.22-.14s.14.11.14.14c0,.07-.25.32-.36.43-1.04,1.04-2.3,1.55-3.56,1.73,0,1.47-1.62,3.02-3.35,3.02ZM276.61,21.49c-1.73-.11-2.81-.36-3.35-.36-.18,0-.25.07-.25.21,0,.4.4,1.48,1.55,1.48.83,0,1.62-.4,2.05-1.33Z"/><path class="cls-2" d="M290.92,19.08c.11,0,.14.11.14.14,0,.07-.25.32-.36.43,0,0-3.56,3.89-6.33,3.89-1.84,0-2.81-1.15-2.81-3.02,0-3.24,3.24-6.62,4.82-6.62.97,0,1.58,1.22,1.58,1.66,0,1.01-2.2,2.92-4.18,4.14-.07.22-.11.86-.11,1.12,0,1.12.54,2.05,1.58,2.05,1.91,0,5.43-3.63,5.43-3.63,0,0,.14-.14.22-.14ZM287.21,15.59c0-.29-.11-.4-.29-.4-.61,0-2.02,1.4-3.1,4.03,1.62-1.08,3.38-2.81,3.38-3.64Z"/><path class="cls-2" d="M293.41,22.35c0,.65-1.01,1.37-1.26,1.37-.22,0-.47-.11-.76-.11-.22,0-.4.25-.58.25-.14,0-.29-.18-.29-.65,0-.43.18-1.01.58-1.48.32-.4.07-.76.07-.9s.11-.21.25-.21c.58,0,1.98,1.01,1.98,1.73Z"/><path class="cls-2" d="M308.66,4.86c1.15.4,2.34,1.73,2.34,3.31,0,5.87-6.66,15.51-11.23,15.51-2.38,0-5.08-2.12-5.08-5.18,0-6.08,7.52-14.79,12.06-14.79.83,0,1.44.4,1.91,1.15ZM307.48,6.01c-3.38.5-10.76,7.52-10.76,13.79,0,1.69.9,2.84,2.16,2.84,5.33,0,10.73-8.93,10.73-15.15,0-1.12-.54-1.84-1.15-2.3,0,0-.25.72-.97.83Z"/><path class="cls-2" d="M320.42,3.85c1.98,0,4.32,2.92,4.32,5.47,0,3.71-4.39,8.75-8.5,11.81.97.21,2.12.4,3.6.4,2.3,0,4.28-1.76,4.54-1.76.11,0,.22.11.22.22,0,.07-.72.83-1.33,1.4-.4.36-.79.54-.86.79-.29,1.04-1.01,1.44-2.12,1.44s-3.1-.94-5.15-1.73c-1.73,1.15-3.38,1.87-4.46,1.87-1.4,0-2.38-1.04-2.38-1.73s1.51-1.8,3.78-1.8c.83,0,1.55.18,2.34.4,4.17-3.2,8.64-9.07,8.64-13.79,0-.94-.68-1.48-1.51-1.48-2.99,0-8.35,3.92-8.35,6.66,0,.61.18.83.18,1.01,0,.14-.07.22-.22.22-.25,0-1.55-1.33-1.55-2.34,0-3.82,6.26-7.06,8.82-7.06ZM308.94,22.46c0,.32.18.43.5.43,1.08,0,2.52-.58,4-1.58-.72-.22-1.44-.36-2.05-.36-1.66,0-2.45,1.01-2.45,1.51Z"/></g></svg>