<?xml version="1.0" encoding="UTF-8"?><svg id="_レイヤー_2" xmlns="http://www.w3.org/2000/svg" xmlns:xlink="http://www.w3.org/1999/xlink" viewBox="0 0 349 154.81"><defs><style>.cls-1{fill:#000;}.cls-1,.cls-2,.cls-3{stroke-width:0px;}.cls-2{fill:#c69c6d;}.cls-3{fill:#fff;filter:url(#outer-glow-1);}</style><filter id="outer-glow-1" filterUnits="userSpaceOnUse"><feOffset dx="0" dy="0"/><feGaussianBlur result="blur" stdDeviation="3"/><feFlood flood-color="#000" flood-opacity=".2"/><feComposite in2="blur" operator="in"/><feComposite in="SourceGraphic"/></filter></defs><g id="_レイヤー_1-2"><path class="cls-3" d="M339.9,41.93l-12.93-7.46v-6.96c0-5.52-4.48-10-10-10H19c-5.52,0-10,4.48-10,10v107.53c0,5.52,4.48,10,10,10h297.97c5.52,0,10-4.48,10-10V49.39l12.93-7.46Z"/><path class="cls-1" d="M36.38,46.41c0,.14-.02.16-.14.16-.09,0-.52-.04-1.89-.04h-2.21c-1.37,0-1.8.04-1.89.04-.13,0-.14-.02-.14-.16v-.74c0-.13.02-.14.14-.14.09,0,.52.04,1.89.04h2.21c1.37,0,1.8-.04,1.89-.04.13,0,.14.02.14.14v.74ZM35.84,55.42c0,2.11.04,2.45.04,2.54,0,.13-.02.14-.14.14h-.74c-.13,0-.14-.02-.14-.14v-.59h-2.92v.92c0,.13-.02.14-.14.14h-.74c-.13,0-.14-.02-.14-.14,0-.09.04-.45.04-2.65v-1.1c0-1.1-.04-1.48-.04-1.57,0-.13.02-.14.14-.14.09,0,.45.04,1.58.04h1.49c1.15,0,1.49-.04,1.6-.04.13,0,.14.02.14.14,0,.07-.04.45-.04,1.28v1.17ZM35.95,43.92c0,.13-.02.14-.14.14-.11,0-.43-.04-1.58-.04h-1.55c-1.15,0-1.49.04-1.58.04-.13,0-.14-.02-.14-.14v-.72c0-.13.02-.14.14-.14.09,0,.43.04,1.58.04h1.55c1.15,0,1.48-.04,1.58-.04.13,0,.14.02.14.14v.72ZM35.7,48.85c0,.13-.02.14-.16.14-.09,0-.38-.04-1.48-.04h-1.35c-1.1,0-1.4.04-1.49.04-.13,0-.14-.02-.14-.14v-.7c0-.13.02-.14.14-.14.09,0,.4.04,1.49.04h1.35c1.1,0,1.39-.04,1.48-.04.14,0,.16.02.16.14v.7ZM35.7,51.25c0,.13-.02.14-.16.14-.09,0-.38-.04-1.48-.04h-1.35c-1.1,0-1.4.04-1.49.04-.13,0-.14-.02-.14-.14v-.7c0-.13.02-.14.14-.14.09,0,.4.04,1.49.04h1.35c1.1,0,1.39-.04,1.48-.04.14,0,.16.02.16.14v.7ZM34.85,53.75h-2.92v2.74h2.92v-2.74ZM46.12,48.78c0,.13-.02.14-.14.14-.11,0-.68-.04-2.41-.04h-1.87v2.97h1.04c1.51,0,2.03-.04,2.14-.04.13,0,.14.02.14.14,0,.11-.04.54-.04,1.69v1.53c0,2.5.04,2.9.04,2.99,0,.13-.02.14-.14.14h-.81c-.13,0-.14-.02-.14-.14v-.79h-5.36v.9c0,.13-.02.14-.14.14h-.81c-.13,0-.14-.02-.14-.14,0-.11.04-.52.04-3.04v-1.35c0-1.37-.04-1.82-.04-1.93,0-.13.02-.14.14-.14.11,0,.63.04,2.14.04h.86v-2.97h-1.51c-1.75,0-2.3.04-2.39.04-.13,0-.14-.02-.14-.14v-.77c0-.13.02-.14.14-.14.09,0,.65.04,2.39.04h1.51v-3.06c-.95.22-1.94.4-3.01.54-.29.04-.31.04-.41-.25-.11-.29-.25-.5-.43-.68,2.74-.25,4.91-.81,6.48-1.44.52-.22.85-.41,1.06-.59.27.23.54.5.74.76.09.11.13.2.13.27,0,.09-.11.14-.29.14-.14,0-.38.05-.56.13-.86.32-1.73.61-2.63.86v3.33h1.87c1.73,0,2.3-.04,2.41-.04.13,0,.14.02.14.14v.77ZM43.92,52.81h-5.36v3.62h5.36v-3.62Z"/><path class="cls-1" d="M53.24,56.21c1.19.49,2.81.72,5.18.72s4.18-.11,6.48-.41c-.16.25-.27.49-.34.76q-.07.38-.43.41c-1.94.2-3.69.25-5.58.25-3.01,0-5.08-.34-6.43-1.24-.97-.68-1.33-1.17-1.78-1.94-.25,1.08-.63,2.12-1.3,3.08-.09.14-.14.2-.2.2-.07,0-.13-.05-.25-.14-.22-.16-.47-.29-.67-.36,1.17-1.37,1.6-2.86,1.82-5.06.02-.23.02-.5,0-.77.32.04.61.07.94.14.16.04.23.09.23.16,0,.11-.04.16-.09.25-.05.09-.09.16-.13.38l-.14,1.01c.45.85.85,1.46,1.66,2.02v-4.91h-1.48c-1.58,0-2.11.04-2.2.04-.13,0-.14-.02-.14-.14v-.72c0-.13.02-.14.14-.14.09,0,.61.04,2.2.04h3.26c1.6,0,2.11-.04,2.2-.04.13,0,.14.02.14.14v.72c0,.13-.02.14-.14.14-.09,0-.59-.04-2.2-.04h-.76v2.02h.95c1.1,0,1.4-.04,1.49-.04.13,0,.14.02.14.14v.67c0,.13-.02.14-.14.14-.09,0-.4-.04-1.49-.04h-.95v2.57ZM55.46,46.86c0,1.13.04,1.51.04,1.62,0,.13-.02.14-.13.14s-.56-.04-1.89-.04h-2.09c-1.33,0-1.78.04-1.89.04-.13,0-.14-.02-.14-.14,0-.11.04-.49.04-1.62v-2.11c0-1.1-.04-1.49-.04-1.58,0-.13.02-.14.14-.14.11,0,.56.04,1.89.04h2.09c1.33,0,1.78-.04,1.89-.04s.13.02.13.14c0,.09-.04.49-.04,1.58v2.11ZM54.47,43.88h-4.09v1.49h4.09v-1.49ZM54.47,46.17h-4.09v1.58h4.09v-1.58ZM59.08,54.49c-.13.05-.2.13-.36.25-.65.5-1.4,1.03-2.45,1.55-.11.05-.2.09-.25.09-.09,0-.14-.07-.23-.23-.14-.22-.25-.34-.41-.49,1.26-.54,1.89-.94,2.54-1.49.16-.14.34-.34.5-.58.27.16.47.29.67.45.13.11.18.16.18.23,0,.11-.07.16-.18.22ZM64.4,43.88c0,.11-.02.13-.14.13-.11,0-.63-.04-2.25-.04h-1.42c-.18.61-.34,1.1-.56,1.58h1.26c1.39,0,1.82-.04,1.93-.04.13,0,.14.02.14.14,0,.09-.04.58-.04,1.94v3.71c0,1.37.04,1.85.04,1.94,0,.13-.02.14-.14.14-.11,0-.54-.04-1.93-.04h-2.21c-1.39,0-1.82.04-1.91.04-.13,0-.14-.02-.14-.14,0-.09.04-.58.04-1.94v-3.71c0-1.37-.04-1.85-.04-1.94,0-.13.02-.14.14-.14.09,0,.5.04,1.82.04.22-.54.38-1.01.5-1.58h-.9c-1.62,0-2.14.04-2.25.04-.13,0-.14-.02-.14-.13v-.72c0-.13.02-.14.14-.14.11,0,.63.04,2.25.04h3.42c1.62,0,2.14-.04,2.25-.04.13,0,.14.02.14.14v.72ZM62.33,46.39h-4.3v1.48h4.3v-1.48ZM62.33,48.66h-4.3v1.49h4.3v-1.49ZM62.33,50.94h-4.3v1.6h4.3v-1.6ZM61.2,53.73c.16-.14.22-.13.31-.04.86.86,1.98,1.46,2.95,1.8-.14.11-.32.31-.45.52-.13.2-.18.29-.27.29-.05,0-.14-.04-.27-.11-1.1-.54-1.93-1.13-2.68-1.87-.11-.11-.09-.16.09-.32l.32-.27Z"/><path class="cls-1" d="M74.58,45.76c-.32,3.04-1.24,6.03-2.38,7.87-.77,1.31-1.58,1.85-2.65,1.85-1.35,0-2.63-1.48-2.63-4.09,0-1.66.76-3.42,2.09-4.66s3.13-2,5.4-2c4.03,0,6.43,2.36,6.43,5.8,0,2.93-1.82,5.29-5.72,6.28-.22.05-.34.02-.47-.2-.11-.18-.34-.45-.7-.67,3.56-.7,5.62-2.63,5.62-5.63,0-2.66-2.07-4.55-4.64-4.55h-.34ZM69.81,47.49c-1.21,1.19-1.73,2.66-1.73,3.89,0,1.96.81,2.81,1.46,2.81.61,0,1.15-.4,1.67-1.31.92-1.62,1.87-4.41,2.11-7.04-1.4.18-2.65.79-3.51,1.66Z"/><path class="cls-1" d="M87.11,50.87c0-.72.04-1.82.05-2.74-.72,1.01-1.51,1.96-2.39,2.83-.11.11-.2.18-.25.18-.09,0-.14-.07-.22-.23-.13-.29-.29-.5-.47-.68,2.12-1.94,3.67-4.16,4.64-6.59.18-.45.29-.86.32-1.19.45.13.76.25,1.1.41.14.07.2.13.2.22s-.05.16-.16.23c-.13.09-.23.27-.41.68-.38.85-.81,1.71-1.31,2.56v8.87c0,1.89.04,2.7.04,2.79,0,.13-.02.14-.14.14h-.86c-.14,0-.16-.02-.16-.14,0-.09.04-.9.04-2.79v-4.55ZM92.93,55.35c0,.86.14,1.19.7,1.35.45.13,1.13.13,2.25.13s1.75-.11,2.2-.49c.36-.31.59-1.04.68-2.66.22.18.49.34.79.47.32.13.31.14.27.47-.16,1.51-.43,2.27-1.03,2.68-.61.45-1.64.59-2.95.59-1.44,0-2.36-.02-2.97-.23-.63-.23-1.06-.7-1.06-1.89v-11.16c0-.92-.02-1.46-.11-2.02.47.02.83.05,1.19.11.16.02.23.07.23.16,0,.13-.04.2-.09.32-.09.18-.11.43-.11,1.37v5.24c1.48-.92,2.92-2.03,4.27-3.42.25-.27.54-.63.7-.95.34.22.68.49.94.72.13.11.16.18.16.27,0,.11-.13.2-.27.25-.22.07-.5.34-.94.76-1.3,1.24-2.86,2.38-4.86,3.62v4.32Z"/><path class="cls-1" d="M106.77,49.07c.59,1.22,1.53,2.47,2.3,3.28-.18.16-.34.38-.49.61-.07.14-.13.22-.18.22s-.11-.05-.18-.18c-.54-.79-1.17-1.89-1.64-2.99,0,4.28.13,7.96.13,8.26,0,.11-.02.13-.14.13h-.83c-.14,0-.16-.02-.16-.13,0-.31.13-4.05.14-8.17-.65,2-1.42,3.71-2.48,5.35-.07.13-.13.2-.18.2s-.11-.07-.18-.22c-.14-.31-.31-.52-.47-.68,1.15-1.55,2.18-3.29,3.01-5.67h-.68c-1.26,0-1.66.04-1.75.04-.13,0-.14-.02-.14-.13v-.7c0-.13.02-.14.14-.14.09,0,.49.04,1.75.04h.92v-3.74c0-1.08-.02-1.6-.14-2.2.45.02.81.05,1.13.11.13.02.22.09.22.14,0,.14-.05.23-.11.36-.09.2-.09.52-.09,1.57v3.76h.43c1.3,0,1.67-.04,1.76-.04.13,0,.14.02.14.14v.7c0,.11-.02.13-.14.13-.09,0-.47-.04-1.76-.04h-.32ZM103.66,43.62c.2-.09.22-.09.27.04.41.95.63,1.89.85,2.95.02.13,0,.16-.16.23l-.52.22c-.16.07-.2.07-.22-.09-.14-1.01-.4-2-.79-2.97-.04-.11-.02-.13.14-.2l.43-.18ZM109.16,44.21c-.09.09-.14.2-.2.38-.25.77-.52,1.57-.92,2.43-.07.16-.11.23-.18.23-.05,0-.13-.05-.25-.13-.13-.09-.36-.14-.49-.16.49-1.04.77-1.96.95-2.75.05-.2.09-.45.11-.72.36.09.72.23.94.34.11.05.16.13.16.18,0,.07-.05.13-.13.2ZM118.74,45.78c0,.14-.02.16-.14.16-.09,0-.65-.04-2.36-.04h-5.47v2.39c0,2.02-.14,3.85-.43,5.31-.34,1.69-.81,3.04-1.73,4.37-.11.14-.16.22-.22.22s-.13-.07-.23-.2c-.18-.22-.43-.36-.61-.45,1.03-1.28,1.55-2.83,1.84-4.45.22-1.19.32-2.88.32-4.73,0-2.3-.04-3.26-.04-3.35,0-.14.02-.16.14-.16.09,0,.68.04,2.38.04h1.3v-.61c0-.92-.02-1.4-.13-1.93.43.02.83.05,1.19.11.13.02.22.09.22.16,0,.13-.05.22-.11.34-.07.18-.09.49-.09,1.31v.61h1.67c1.71,0,2.27-.04,2.36-.04.13,0,.14.02.14.16v.76ZM118.76,57.6c0,.13-.02.14-.13.14s-.65-.04-2.29-.04h-3.64c-1.66,0-2.2.04-2.29.04-.13,0-.14-.02-.14-.14v-.79c0-.13.02-.14.14-.14.09,0,.63.04,2.29.04h1.28v-5.2h-.52c-1.44,0-1.89.04-1.98.04-.13,0-.14-.02-.14-.14v-.76c0-.14.02-.16.14-.16.09,0,.54.04,1.98.04h.52v-1.39c0-1.21-.04-1.73-.13-2.41.41.02.81.04,1.15.11.13.02.22.07.22.16,0,.11-.05.22-.09.36-.05.22-.11.61-.11,1.75v1.42h.88c1.44,0,1.89-.04,2-.04.13,0,.14.02.14.16v.76c0,.13-.02.14-.14.14-.11,0-.56-.04-2-.04h-.88v5.2h1.31c1.64,0,2.18-.04,2.29-.04s.13.02.13.14v.79Z"/><path class="cls-1" d="M127.68,54.78c0,2.7.04,3.15.04,3.26,0,.13-.02.14-.14.14h-.77c-.13,0-.14-.02-.14-.14v-.95h-3.91v1.06c0,.13-.02.14-.14.14h-.77c-.13,0-.14-.02-.14-.14,0-.09.04-.54.04-3.29v-1.62c0-1.66-.04-2.11-.04-2.2,0-.13.02-.14.14-.14.11,0,.54.04,1.85.04h2.03c1.33,0,1.76-.04,1.85-.04.13,0,.14.02.14.14,0,.09-.04.54-.04,1.94v1.8ZM126.65,51.9h-3.91v4.21h3.91v-4.21ZM133.61,47.04c0,1.13.04,1.53.04,1.64,0,.13-.02.14-.14.14-.09,0-.68-.04-2.41-.04h-4.32c-1.71,0-2.3.04-2.41.04-.13,0-.13-.02-.13-.14,0-.11.02-.5.02-1.64v-2.21c0-1.12-.02-1.53-.02-1.64,0-.13,0-.14.13-.14.11,0,.7.04,2.41.04h4.32c1.73,0,2.32-.04,2.41-.04.13,0,.14.02.14.14,0,.11-.04.52-.04,1.64v2.21ZM132.53,44.08h-7.2v3.69h7.2v-3.69ZM136.15,54.81c0,2.72.04,3.15.04,3.24,0,.14-.02.16-.14.16h-.77c-.13,0-.14-.02-.14-.16v-.97h-4.19v1.08c0,.13-.02.14-.14.14h-.77c-.13,0-.14-.02-.14-.14,0-.11.04-.54.04-3.31v-1.6c0-1.66-.04-2.11-.04-2.2,0-.14.02-.16.14-.16.11,0,.56.04,1.93.04h2.18c1.39,0,1.82-.04,1.93-.04.13,0,.14.02.14.16,0,.09-.04.54-.04,1.94v1.82ZM135.13,51.91h-4.19v4.19h4.19v-4.19Z"/><path class="cls-1" d="M148.05,54.5c0,.14-.04.2-.2.22-.18.04-.54.07-.77.07-.11,0-.16-.09-.16-.22,0-.79,0-1.67.02-2.59-1.98.99-2.95,1.91-2.95,2.99s.99,1.49,3.08,1.49c1.49,0,2.97-.18,4.28-.36.09-.02.16,0,.2.13.05.27.11.63.11.88,0,.16-.07.23-.14.25-1.28.16-2.75.25-4.45.25-2.52,0-4.16-.65-4.16-2.57,0-1.51.99-2.74,3.98-4.19-.04-1.22-.45-1.71-1.51-1.69-.77.02-1.8.47-2.95,1.46-.65.61-1.08,1.08-1.71,1.75-.11.13-.18.13-.27.04-.18-.16-.49-.5-.63-.7-.05-.11-.07-.14.04-.25,1.64-1.42,3.13-3.17,4.18-5-1.12.07-2.21.07-3.35.04-.14,0-.18-.05-.2-.18-.04-.22-.09-.61-.11-.9,1.31.07,2.72.07,4.18-.02.22-.54.47-1.13.65-1.8.09-.31.16-.58.14-.97.52.09,1.04.25,1.35.4.18.09.18.27.04.4-.07.07-.18.2-.32.5-.22.45-.38.83-.61,1.37,1.26-.13,2.56-.32,3.8-.59.14-.04.18-.04.22.07.04.25.09.5.11.79,0,.13-.04.18-.23.22-1.42.25-2.95.45-4.39.59-.61,1.1-1.19,1.94-1.84,2.68l.02.04c.76-.54,1.55-.77,2.25-.77,1.33,0,2.12.7,2.27,2.11.88-.4,1.91-.86,2.81-1.3.52-.25.99-.54,1.37-.92.41.36.77.83.88,1.04.14.27,0,.38-.18.41-.22.04-.58.13-.99.29-1.37.58-2.5.99-3.82,1.55v3.02Z"/><path class="cls-1" d="M161.87,46.41c0,.13-.02.14-.14.14-.11,0-.5-.04-1.87-.04h-1.96c-1.35,0-1.78.04-1.87.04-.11,0-.13-.02-.13-.14v-.76c0-.13.02-.14.13-.14.09,0,.52.04,1.87.04h1.96c1.37,0,1.76-.04,1.87-.04.13,0,.14.02.14.14v.76ZM161.31,55.35c0,2.07.04,2.52.04,2.61,0,.13-.02.14-.14.14h-.72c-.13,0-.14-.02-.14-.14v-.68h-2.65v1.01c0,.13-.02.14-.14.14h-.72c-.14,0-.16-.02-.16-.14,0-.09.04-.45.04-2.65v-1.08c0-1.08-.04-1.49-.04-1.6,0-.13.02-.13.16-.13.09,0,.43.04,1.53.04h1.3c1.12,0,1.46-.04,1.55-.04.13,0,.14,0,.14.13,0,.11-.04.49-.04,1.3v1.1ZM161.48,43.96c0,.13-.02.14-.14.14-.09,0-.41-.04-1.57-.04h-1.37c-1.13,0-1.46.04-1.57.04-.13,0-.14-.02-.14-.14v-.72c0-.13.02-.14.14-.14.11,0,.43.04,1.57.04h1.37c1.15,0,1.48-.04,1.57-.04.13,0,.14.02.14.14v.72ZM161.21,48.8c0,.13-.02.14-.14.14-.09,0-.4-.04-1.46-.04h-1.21c-1.06,0-1.37.04-1.46.04-.13,0-.14-.02-.14-.14v-.7c0-.13.02-.14.14-.14.09,0,.4.04,1.46.04h1.21c1.06,0,1.37-.04,1.46-.04.13,0,.14.02.14.14v.7ZM161.21,51.21c0,.13-.02.14-.14.14-.09,0-.4-.04-1.46-.04h-1.21c-1.06,0-1.37.04-1.46.04-.13,0-.14-.02-.14-.14v-.7c0-.13.02-.14.14-.14.09,0,.4.04,1.46.04h1.21c1.06,0,1.37-.04,1.46-.04.13,0,.14.02.14.14v.7ZM160.34,53.75h-2.65v2.65h2.65v-2.65ZM165.08,54.47c.68-.2,1.37-.43,2.27-.77-.04.18-.05.4-.07.61q-.02.38-.34.5c-1.39.54-2.59.92-3.8,1.26-.41.13-.56.16-.63.22s-.16.11-.23.11c-.09,0-.14-.04-.2-.16-.11-.29-.2-.63-.27-1.03.56-.05,1.1-.16,1.66-.31l.59-.14v-4.57h-.29c-1.08,0-1.39.04-1.48.04-.13,0-.14-.02-.14-.16v-.7c0-.13.02-.14.14-.14.09,0,.4.04,1.48.04h1.35c1.1,0,1.39-.04,1.49-.04.13,0,.14.02.14.14v.7c0,.14-.02.16-.14.16-.11,0-.4-.04-1.49-.04h-.04v4.28ZM168.42,46.78c.13,2.66.41,5.09.92,7.15.41,1.64.95,2.61,1.42,2.61.4,0,.68-.81.76-2.83.2.18.4.32.63.43.31.14.31.18.27.54-.22,2.23-.68,3.17-1.64,3.17-.83,0-1.67-.81-2.39-3.44-.54-1.96-.88-4.72-1.01-7.63h-2.5c-1.73,0-2.3.04-2.41.04-.13,0-.14-.02-.14-.14v-.77c0-.13.02-.14.14-.14.11,0,.68.04,2.41.04h2.47c-.02-.43-.02-.88-.02-1.33,0-1.15,0-1.64-.11-2.21.47.04.72.05,1.12.11.18.04.25.11.25.18,0,.13-.05.22-.11.34-.09.2-.11.45-.11,1.37,0,.52,0,1.04.02,1.55h.92c1.73,0,2.3-.04,2.41-.04.13,0,.14.02.14.14v.77c0,.13-.02.14-.14.14-.11,0-.68-.04-2.41-.04h-.88ZM169.7,42.88c.18-.11.2-.11.31,0,.54.52.95,1.06,1.39,1.8.07.13.05.16-.16.29l-.38.22c-.25.14-.23.13-.31-.02-.4-.76-.86-1.35-1.31-1.84-.11-.11-.07-.14.11-.25l.36-.2Z"/><path class="cls-1" d="M178.21,43.42c.2.05.29.14.29.27,0,.14-.07.29-.14.47-.07.22-.14.77-.22,1.85-.16,2.72-.27,5.18-.27,7.67,0,2.02.56,2.63,2.12,2.63,2.29,0,4.63-1.39,6.48-3.44.05.41.2.77.31,1.04.04.11.07.18.07.25,0,.11-.05.2-.22.34-1.89,1.82-4.28,3.02-6.86,3.02-2.03,0-3.13-.97-3.13-3.62s.16-5.49.25-8.03c.04-1.12.05-1.89-.14-2.72.54.05,1.1.13,1.46.25Z"/><path class="cls-1" d="M197.49,45.87c-2.7.43-5.04.81-7.31,1.28-.65.13-.86.2-1.08.31-.13.05-.23.13-.34.13s-.2-.07-.25-.16c-.18-.36-.34-.79-.5-1.28.65,0,1.12-.05,2.23-.22,2.68-.43,6.34-.97,11.16-1.57.18-.02.27.04.31.14.05.23.11.67.11.9,0,.16-.05.2-.23.22-.97.05-1.69.16-2.63.54-2.63,1.04-4.64,3.26-4.64,5.67,0,2.99,2.61,3.87,5.24,4.09.23.02.29.05.29.2,0,.2-.05.61-.11.86-.04.2-.09.27-.29.25-3.04-.27-6.32-1.57-6.32-5.2,0-2.54,1.57-4.63,4.39-6.12l-.02-.04Z"/><path class="cls-1" d="M204.24,54.38c.07-.07.14-.11.2-.11s.11.04.2.11c1.31.83,2.41,1.84,3.46,3.24.07.11.09.16.09.22,0,.07-.02.13-.13.22l-.65.54c-.09.07-.14.11-.18.11-.07,0-.13-.02-.2-.14-.94-1.35-2.09-2.54-3.31-3.37-.09-.05-.13-.09-.13-.13,0-.05.02-.09.09-.18l.56-.5Z"/><path class="cls-1" d="M223.44,53.77h3.13c1.15,0,2.14-.04,3.31-.07.18-.02.25.04.25.22v.83c0,.18-.05.23-.25.23-1.01-.02-2.18-.05-3.29-.05h-7.61c-.88,0-2.12.05-2.92.09-.2,0-.25-.04-.29-.27-.04-.25-.09-.7-.09-1.06,1.17.09,2.18.09,3.29.09h3.15v-6.77h-1.76c-1.08,0-1.89.04-2.74.09-.16.02-.18-.05-.22-.27-.04-.23-.07-.72-.07-1.06.97.07,1.76.09,2.97.09h4.66c1.12,0,2.03-.02,3.15-.05.16-.02.18.04.18.18v.86c0,.18-.02.23-.2.23-1.15-.05-2.05-.07-3.11-.07h-1.55v6.77Z"/><path class="cls-1" d="M242.51,45.04c.61,0,.81-.02,1.03-.14.11-.07.23-.04.36.05.25.2.52.47.74.74.11.14.07.27-.09.41-.18.14-.34.36-.52.67-.79,1.35-1.71,2.68-2.66,3.87,1.85,1.35,3.53,2.79,5.17,4.52.16.14.16.2.02.38-.2.23-.43.45-.65.65-.13.11-.2.11-.32-.04-1.51-1.73-3.22-3.26-4.97-4.57-2.05,2.12-4.21,3.8-6.43,5.02-.2.11-.31.13-.45-.04-.23-.27-.56-.45-.94-.65,2.72-1.35,4.84-3.01,6.62-4.88,1.17-1.24,2.36-2.84,3.42-4.82h-5.42c-1.01,0-1.78.05-2.59.11-.16,0-.18-.05-.22-.2-.05-.25-.11-.79-.11-1.15.88.07,1.67.07,2.79.07h5.22Z"/><path class="cls-1" d="M256.69,49.23c-.09,2.05-.34,3.42-1.08,4.79-.76,1.46-1.8,2.57-3.19,3.38-.23.14-.4.22-.56.05-.27-.25-.63-.43-1.01-.59,1.8-.94,2.79-1.87,3.53-3.29.67-1.24.9-2.57.94-4.34h-3.67c-.9,0-1.84.05-2.59.11-.2.02-.22-.05-.25-.27-.05-.29-.09-.74-.11-1.04,1.04.07,1.94.09,2.95.09h7.79c1.24,0,2.16-.02,3.28-.09.16,0,.2.07.2.29v.76c0,.18-.07.23-.23.23-1.04-.04-2.07-.07-3.22-.07h-2.77ZM253.79,45.25c-.79,0-1.69.02-2.57.07-.18.02-.22-.05-.23-.23-.04-.29-.07-.7-.09-1.04,1.06.07,2.09.09,2.9.09h3.49c.95,0,2.09,0,3.04-.05.16-.02.2.05.2.23.02.23.02.5,0,.72,0,.22-.04.25-.22.25-.97-.04-2.09-.04-3.02-.04h-3.49Z"/><path class="cls-1" d="M274.31,46.6c1.19-.43,2.34-.68,3.42-.68,2.07,0,3.38,1.1,3.38,3.01,0,2.23-1.84,3.33-4.43,3.33-.29,0-.58,0-.85-.04-.18-.02-.23-.07-.29-.18-.13-.36-.25-.68-.52-1.03.52.09,1.01.14,1.6.14,1.8,0,3.19-.7,3.19-2.32,0-1.44-1.1-1.84-2.09-1.84-1.19,0-2.03.25-2.86.52-1.19.4-2.3.86-3.4,1.33,1.01,2.88,1.94,5.51,2.92,8.35.07.18.07.23-.11.32-.27.14-.56.25-.88.32-.11.02-.13,0-.16-.11-.92-2.97-1.75-5.51-2.81-8.41-.86.38-1.48.65-2.12.94-.5.23-.79.4-.97.56-.09.09-.2.14-.27.14-.09,0-.2-.05-.31-.18-.25-.29-.56-.74-.76-1.12.76-.16,1.26-.31,1.82-.52.68-.27,1.3-.49,2.2-.86-.22-.65-.43-1.26-.7-1.98-.23-.61-.45-1.06-.86-1.66.52-.11,1.12-.16,1.53-.16.22,0,.23.11.23.27-.02.18,0,.29.05.52.05.23.14.5.36,1.19.2.61.32.92.47,1.35,1.12-.47,2.09-.85,3.22-1.22ZM274.03,42.95c.11-.07.14-.07.27,0,.67.43,1.3.97,1.94,1.71.07.09.07.18,0,.27-.2.22-.43.43-.68.59-.07.05-.16.04-.23-.05-.59-.77-1.26-1.39-2.12-1.91.31-.25.63-.49.83-.61Z"/><path class="cls-1" d="M295.57,46.15c.81,0,1.15-.05,1.31-.14.16-.09.32-.07.45.05.31.27.56.54.77.85.16.23.09.41-.09.54-.27.2-.45.29-.85.76-1.33,1.57-3.22,3.49-5.13,5.02.61.61,1.3,1.39,1.85,2.11.13.14.13.23,0,.38-.2.22-.43.41-.67.58-.14.09-.2.11-.31-.05-1.62-2.09-3.47-3.91-5.56-5.4.22-.22.52-.52.72-.7.13-.11.18-.09.34,0,1.04.79,1.94,1.51,2.77,2.27,1.87-1.55,3.78-3.53,4.99-5.11l-7.92.04c-1.46,0-2.57.07-3.56.14-.2.02-.25-.04-.29-.2-.05-.36-.13-.81-.14-1.26,1.19.13,2.43.14,4,.14h7.31Z"/><path class="cls-1" d="M33.54,80.22c.14-.07.22-.04.32.09.59.76,1.08,1.55,1.48,2.52.07.18.07.22-.09.32-.23.14-.45.23-.68.32-.16.07-.23,0-.29-.14-.38-.9-.92-1.91-1.55-2.68.32-.18.59-.32.81-.43ZM43.15,80.24c.16.13.18.29.02.43-.18.16-.31.4-.52.86-.77,1.76-1.64,3.37-2.65,4.64-1.12,1.44-2.16,2.43-3.64,3.42-.13.09-.29.13-.4.02-.27-.22-.56-.36-.94-.45,1.87-1.22,2.92-2.16,4.03-3.58.97-1.24,1.87-2.88,2.45-4.43.16-.47.23-.86.31-1.48.45.13,1.04.34,1.33.56ZM37.06,79.4c.13-.05.22-.04.31.11.5.68,1.01,1.6,1.35,2.5.05.14.02.22-.13.29-.2.11-.45.23-.72.34-.13.05-.18,0-.25-.16-.38-.99-.77-1.84-1.39-2.66.38-.2.61-.32.83-.41Z"/><path class="cls-1" d="M59.09,79.38c1.01,0,1.93,0,2.92-.05.2,0,.22.05.22.22.02.23.02.52,0,.77,0,.18-.04.23-.23.22-.92-.04-1.87-.02-2.88-.02h-.68c-.05,2.45-.4,4.19-1.28,5.69-.88,1.55-2.47,2.72-4.43,3.46-.27.11-.32.14-.49-.02-.29-.32-.54-.5-.94-.68,2.39-.76,3.96-1.84,4.82-3.35.74-1.31,1.06-2.77,1.1-5.09h-4.59v.88c0,1.01.02,1.96.05,2.92,0,.16-.05.2-.22.2-.25.02-.63.02-.9,0-.16,0-.22-.04-.22-.22.04-.92.07-1.84.07-2.86v-.92h-.92c-.95,0-2,.04-2.77.07-.16.02-.16-.05-.2-.25-.04-.25-.05-.63-.07-1.03.94.05,1.89.07,3.04.07h.92v-1.48c0-.81-.02-1.69-.2-2.52.59.04,1.13.13,1.46.22.27.07.2.27.09.5-.11.22-.14.97-.14,1.8v1.48h4.59l.02-1.6c0-1.21-.04-2.02-.16-2.7.45.05,1.04.14,1.35.23.27.07.29.23.18.49-.09.23-.14.54-.14,1.93l-.02,1.66h.65Z"/><path class="cls-1" d="M68.11,83.08c-1.57,0-2.32.18-2.43.18-.16,0-.25-.07-.31-.25-.07-.31-.14-.88-.18-1.37,1.1.14,2.48.16,3.98.16h5.53c1.24,0,2.57-.02,3.94-.05.22-.02.27.02.27.22.02.27.02.65,0,.94,0,.2-.05.23-.27.22-1.35-.04-2.68-.04-3.89-.04h-6.64Z"/><path class="cls-1" d="M83.05,80.26c.07-.13.16-.16.31-.13,1.17.43,2.2.97,3.17,1.64.18.13.16.23.09.38-.13.25-.31.56-.47.77-.11.14-.2.16-.34.04-.99-.77-2.12-1.37-3.31-1.82.23-.34.43-.7.56-.88ZM85.84,87.15c1.66-.86,3.26-1.8,4.95-3.1,1.55-1.21,3.51-2.95,5.13-4.99.07.47.16.76.34,1.17.09.18.05.32-.09.49-1.51,1.76-3.08,3.13-4.75,4.41-1.6,1.24-3.37,2.3-5.26,3.37-.4.22-.68.41-.86.61-.16.16-.34.13-.5-.05-.23-.27-.58-.77-.85-1.21.63-.14,1.19-.34,1.89-.7ZM85.18,76.16c.11-.16.16-.16.32-.09,1.12.47,2.16,1.13,3.13,1.87.16.13.14.2.05.36-.14.23-.34.58-.52.77-.11.13-.18.09-.32-.04-.88-.81-2.05-1.53-3.22-2.03.18-.25.38-.59.56-.85ZM93.01,75.38c.07-.05.13-.05.2,0,.72.5,1.51,1.39,2.03,2.18.05.07.04.14-.04.2l-.52.43c-.09.07-.18.05-.23-.04-.52-.88-1.28-1.73-2.09-2.3l.65-.47ZM94.52,74.19c.07-.05.13-.07.2-.02.72.56,1.53,1.35,2.05,2.11.05.09.04.14-.05.22l-.49.43c-.07.07-.14.07-.22-.04-.45-.74-1.22-1.62-2.07-2.25l.58-.45Z"/><path class="cls-1" d="M102.24,76.25c.18.11.25.18.25.29s-.04.18-.13.31c-.16.23-.27.54-.36.95-.5,2.12-.85,4.5-.85,6.21,0,1.31.07,2.2.27,3.1.43-1.01.81-1.78,1.33-3.04.13.29.29.5.43.72.05.05.09.13.09.18,0,.11-.04.18-.09.29-.4.92-.77,1.8-1.15,2.86-.05.11-.07.27-.07.45,0,.16.04.27.04.4,0,.07-.04.14-.13.16-.25.09-.56.14-.81.18-.09,0-.16-.07-.2-.18-.5-1.21-.81-3.46-.81-5.22,0-1.93.32-4.03.74-6.14.16-.86.25-1.39.25-2,.47.14.94.34,1.19.49ZM105.97,84.81c.09-.02.13.04.13.18.05,1.37,1.15,1.98,3.28,1.98,1.28,0,2.45-.11,3.55-.25.14-.02.18,0,.2.18.02.22.05.59.05.85,0,.16,0,.18-.23.22-1.08.13-2.09.2-3.22.2-2.02,0-3.17-.29-3.96-1.13-.52-.52-.74-1.24-.76-2.14l.97-.07ZM105.65,78.12c0-.16.04-.22.22-.25,1.13-.18,2.86-.32,3.82-.32,1.04,0,2.07.04,2.56.09.23.02.27.04.27.18,0,.29,0,.58-.02.85,0,.14-.04.18-.2.16-.7-.07-1.87-.09-2.9-.09s-2.32.13-3.76.38c0-.49,0-.77.02-.99Z"/><path class="cls-1" d="M119.73,86.7c.36.88.76,1.35,1.58,1.73.63.31,1.89.49,3.6.49,2.3,0,5.06-.13,7.72-.41-.18.22-.27.54-.34.86q-.05.36-.41.38c-2.36.16-4.72.23-6.55.23-1.94,0-3.64-.2-4.41-.59-.83-.4-1.35-.92-1.73-1.76-.58.63-1.12,1.13-1.8,1.75-.22.18-.29.32-.34.41-.05.11-.13.14-.2.14s-.14-.05-.22-.14c-.2-.27-.41-.65-.58-1.01.49-.22.76-.4,1.12-.67.5-.38,1.03-.86,1.53-1.42v-4.46h-1.22c-.9,0-1.12.04-1.19.04-.13,0-.14-.02-.14-.16v-.79c0-.11.02-.13.14-.13.07,0,.29.04,1.19.04h.92c.9,0,1.13-.04,1.22-.04.13,0,.14.02.14.13s-.04.56-.04,1.71v3.69ZM117.3,74.99c.16-.11.2-.11.31,0,.76.72,1.4,1.53,2.03,2.5.07.13.07.14-.13.29l-.43.32c-.22.16-.27.16-.34.04-.61-1.04-1.28-1.91-1.98-2.61-.11-.09-.09-.13.11-.25l.43-.29ZM128.53,78.26c1.73,0,2.32-.04,2.43-.04.13,0,.14.02.14.14,0,.11-.04.77-.04,2.3v2.88c0,1.24.02,2.07.02,2.65,0,.54-.07.9-.4,1.15-.31.22-.65.32-1.76.34-.34,0-.36,0-.43-.31-.07-.32-.16-.56-.32-.74.54.05.9.05,1.26.05.45,0,.63-.16.63-.65v-1.64h-3.42v.85c0,1.46.04,2.05.04,2.16,0,.13-.02.14-.13.14h-.77c-.13,0-.14-.02-.14-.14,0-.11.04-.7.04-2.16v-.85h-3.11v1.03c0,1.46.04,2.07.04,2.18,0,.13-.02.14-.14.14h-.77c-.13,0-.14-.02-.14-.14,0-.11.04-.65.04-2.16v-4.9c0-1.51-.04-2.09-.04-2.2,0-.13.02-.14.14-.14.09,0,.7.04,2.43.04h1.71c-.67-.56-1.26-.94-2.05-1.4-.13-.07-.14-.14.05-.29l.36-.29c.14-.13.18-.11.31-.04.67.43,1.28.86,1.94,1.42.88-.59,1.67-1.22,2.52-1.94h-5.17c-1.71,0-2.27.04-2.36.04-.13,0-.14-.02-.14-.14v-.68c0-.14.02-.16.14-.16.09,0,.65.04,2.36.04h5.33c.22,0,.34-.02.43-.05.11-.05.14-.07.22-.07.11,0,.25.11.5.36.29.29.38.43.38.56s-.07.2-.23.25c-.2.05-.36.18-.63.4-.85.7-1.64,1.3-2.7,2l.04.02h1.42ZM125.67,79.11h-3.11v1.82h3.11v-1.82ZM125.67,81.75h-3.11v1.82h3.11v-1.82ZM130.06,79.11h-3.42v1.82h3.42v-1.82ZM130.06,81.75h-3.42v1.82h3.42v-1.82Z"/><path class="cls-1" d="M137.98,81.65c1.94-.59,3.47-1.03,4.86-1.03,2.23,0,3.74,1.39,3.74,3.51,0,1.73-.76,2.84-2.38,3.73-.99.54-2.21.95-3.73,1.21-.2.04-.27-.02-.36-.18-.09-.18-.34-.5-.68-.76,1.71-.23,3.02-.61,4.12-1.19,1.17-.61,1.8-1.48,1.8-2.88,0-1.6-1.06-2.39-2.66-2.39-1.33,0-3.28.61-5.31,1.44-.45.18-.68.34-.85.45-.13.07-.25.16-.34.16-.11,0-.22-.07-.32-.2-.23-.31-.47-.79-.65-1.19.7-.09,1.33-.25,2.75-.68Z"/><path class="cls-1" d="M158.37,77.65c.14-.04.2,0,.22.13.04.22.07.52.09.74.02.18-.02.23-.18.27-1.17.32-2.16.56-3.26.74-1.08,3.65-2.18,6.79-3.46,9.7-.07.16-.14.16-.27.11-.14-.05-.61-.27-.85-.4-.09-.05-.11-.14-.07-.23,1.49-3.17,2.52-5.98,3.37-8.98-1.17.13-2.41.2-3.64.22-.22,0-.25-.02-.29-.18-.04-.25-.09-.63-.14-.99.34.04.65.04,1.13.04.85,0,2.09-.07,3.24-.22.25-.95.4-1.6.52-2.27.09-.5.18-1.1.14-1.69.5.09,1.06.25,1.44.41.09.04.14.11.14.2s-.05.18-.14.29c-.13.16-.2.32-.29.7-.22.74-.38,1.48-.58,2.16.85-.14,1.85-.41,2.86-.74ZM157.47,85.89c.14,0,.18.04.2.18.13,1.62,1.13,2.16,3.4,2.16.92,0,1.93-.13,2.66-.23.14-.02.2-.02.22.13.04.22.07.61.07.86,0,.18-.05.22-.2.23-.56.09-1.49.18-2.36.18-1.94,0-3.15-.25-3.96-.99-.63-.54-.86-1.35-.88-2.43.31-.05.65-.09.85-.09ZM157.92,81.27c0-.16.04-.22.23-.27,1.04-.23,2.09-.38,3.15-.38.74,0,1.53.09,2.23.18.22.04.25.09.27.2.02.18.04.56.02.79-.02.22-.07.27-.23.23-.77-.13-1.55-.2-2.3-.2-1.12,0-2.23.16-3.31.4-.04-.31-.05-.74-.05-.95Z"/><path class="cls-1" d="M169.98,75.76c.18.11.25.2.25.29,0,.07-.04.14-.11.29-.11.22-.18.59-.29,1.06-.38,2.07-.68,4.05-.68,5.94,0,1.49.18,2.68.41,3.51.45-1.06.81-1.87,1.3-2.99.14.41.27.63.41.81.07.09.11.14.11.22,0,.09-.05.2-.16.41-.43.95-.7,1.67-1.01,2.57-.04.14-.07.31-.07.43s.02.23.02.34c0,.07-.04.13-.11.16-.29.13-.49.18-.7.22-.13.02-.22,0-.29-.14-.56-1.13-1.03-3.47-1.03-5.24,0-2,.2-3.67.49-5.51.2-1.39.25-2.05.23-2.84.54.14.94.31,1.22.47ZM177.24,80.1c-.9.07-1.76.13-2.52.13-.45,0-.92,0-1.48-.02-.2,0-.25-.07-.29-.22-.04-.2-.07-.54-.09-.94.63.05,1.37.07,2.02.07.7,0,1.58-.04,2.34-.11-.04-1.33-.05-2.18-.09-2.75-.05-.63-.11-.9-.25-1.24.59.02,1.17.07,1.44.16.14.05.22.11.22.22,0,.05-.04.14-.07.25-.07.18-.09.36-.09.74,0,.7.02,1.6.02,2.5.86-.09,1.69-.25,2.57-.45.14-.04.22-.02.23.11.04.25.05.5.09.79.02.16-.04.22-.16.23-.95.2-1.76.32-2.7.41l.04,2.61c.02,1.84-.18,3.13-.76,4.36-.54,1.19-1.44,2.05-2.48,2.75-.18.13-.27.14-.34.14-.09,0-.16-.04-.29-.16-.16-.16-.43-.29-.79-.41,1.55-.85,2.41-1.73,2.93-3.08.38-.94.58-2.05.54-4.12l-.04-1.98Z"/><path class="cls-1" d="M189.45,75.06c.2.07.29.16.29.29,0,.07-.05.16-.09.23-.09.14-.11.31-.14.7-.07.83-.11,1.49-.14,2.41.27.14.45.25.63.41.11.09.13.2.02.36-.25.41-.49.85-.76,1.39-.02.23-.02.43-.04.68.74-.85,1.37-1.49,2.03-2.11,1.1-1.06,2.14-1.78,3.19-1.78,1.24,0,1.93.81,1.93,2.25,0,.79-.05,1.98-.16,3.35-.09,1.39-.18,2.38-.18,2.97,0,1.13.31,1.4.9,1.4.5,0,1.01-.22,1.49-.68.31-.31.7-.79,1.1-1.71.13.47.23.7.41.92.13.18.16.31,0,.58-.83,1.33-1.85,2.05-3.1,2.05s-1.98-.68-1.98-2.36c0-.81.05-1.84.14-3.08.09-1.3.14-2.21.14-3.1,0-.99-.25-1.55-.83-1.55-.65,0-1.4.43-2.39,1.33-.81.76-1.57,1.55-2.72,2.84,0,1.87.05,4.27.07,6.79,0,.11-.04.16-.18.18-.18.02-.58.04-.86.04-.09,0-.14-.05-.14-.2,0-2.65-.02-4.52.04-6.05-.86,1.22-1.71,2.5-2.65,3.91-.11.16-.16.18-.31.09-.18-.13-.52-.41-.67-.61-.11-.09-.05-.2.04-.32,1.46-1.89,2.52-3.37,3.58-5,.04-.63.04-1.12.05-1.57-.9.27-1.73.54-2.47.85-.2.07-.36.23-.47.23s-.2-.07-.27-.18c-.2-.27-.34-.59-.52-1.04.49-.02.86-.09,1.26-.18.65-.18,1.42-.4,2.52-.76.02-.83.04-1.62.05-2.43,0-.58,0-1.19-.13-1.78.5.04.99.13,1.3.23Z"/><path class="cls-1" d="M207.46,75.54c.14.04.22.14.22.23,0,.18-.09.34-.09.63.02.4.05.76.11,1.15.16,1.3.38,2.5.7,3.64,1.06-.52,2.14-1.03,3.2-1.62.58-.32.79-.5,1.04-.83.36.34.68.68.92,1.01.14.22.11.47-.22.5-.45.07-1.04.32-1.58.58-1.31.61-2.86,1.35-4.09,2.05-1.82,1.06-2.66,2-2.66,3.26,0,1.6,1.51,2,4.23,1.98,1.67-.02,3.29-.18,4.63-.38.16-.02.22.02.25.16.05.29.09.63.11.94.02.16-.05.23-.25.25-1.48.16-2.77.25-4.79.25-3.11,0-5.36-.68-5.36-3.15,0-1.73,1.22-3.06,3.51-4.45-.4-1.33-.77-3.19-.95-4.61-.11-.83-.2-1.28-.4-1.76.54.02,1.1.07,1.48.16ZM213.47,75.62c.07-.05.13-.04.2.02.72.5,1.51,1.39,2.03,2.18.05.07.04.14-.04.2l-.52.43c-.09.07-.18.05-.23-.04-.52-.88-1.28-1.73-2.09-2.3l.65-.49ZM214.98,74.45c.07-.05.13-.07.2-.02.72.56,1.53,1.35,2.05,2.11.05.09.04.14-.05.22l-.49.43c-.07.07-.14.07-.22-.04-.45-.74-1.22-1.62-2.07-2.25l.58-.45Z"/><path class="cls-1" d="M218.5,86.38c.07-.07.14-.11.2-.11s.11.04.2.11c1.31.83,2.41,1.84,3.46,3.24.07.11.09.16.09.22,0,.07-.02.13-.13.22l-.65.54c-.09.07-.14.11-.18.11-.07,0-.13-.02-.2-.14-.94-1.35-2.09-2.54-3.31-3.37-.09-.05-.13-.09-.13-.13,0-.05.02-.09.09-.18l.56-.5Z"/><path class="cls-1" d="M237.33,81.99c-3.06.68-5.02,1.24-7.22,2.02-.32.11-.49.23-.59.23-.07,0-.16-.09-.23-.22-.13-.22-.27-.54-.43-.94.27-.05.47-.11.72-.22.79-.32,1.35-.68,2.02-1.24,1.8-1.48,3.55-3.04,5.94-5.4-1.53.25-3.04.5-4.46.77-.25.05-.47.11-.65.14-.2.05-.38.14-.52.14-.11,0-.18-.11-.27-.27-.09-.18-.27-.61-.41-1.12.5.05.99.05,1.58.02,1.44-.14,2.99-.38,4.72-.65.34-.04.52-.14.68-.23.11-.07.2-.11.27-.11.11,0,.18.04.31.14.22.16.47.41.65.65.09.11.14.23.14.34,0,.13-.09.23-.23.31-.22.09-.43.23-.65.41-2.36,2.12-4.43,3.85-6.55,5.51l.05.05c2.84-.85,5.99-1.6,9.88-2.14.18-.02.25.02.29.14.05.2.11.56.13.92.02.14-.05.18-.27.18-1.21.05-2.25.29-3.28.63-2.07.74-3.62,2.11-3.62,3.74,0,2.07,2.38,2.63,4.82,2.65.14,0,.2.05.2.22-.02.25-.07.65-.11.86-.02.18-.07.23-.27.23-.32,0-.7-.04-1.12-.07-2.83-.29-4.64-1.44-4.64-3.64,0-1.39.86-2.99,3.13-4.05v-.04Z"/><path class="cls-1" d="M253.81,77.76c-.32,3.04-1.24,6.03-2.38,7.87-.77,1.31-1.58,1.85-2.65,1.85-1.35,0-2.63-1.48-2.63-4.09,0-1.66.76-3.42,2.09-4.66s3.13-2,5.4-2c4.03,0,6.43,2.36,6.43,5.8,0,2.93-1.82,5.29-5.72,6.28-.22.05-.34.02-.47-.2-.11-.18-.34-.45-.7-.67,3.56-.7,5.62-2.63,5.62-5.63,0-2.66-2.07-4.55-4.64-4.55h-.34ZM249.04,79.49c-1.21,1.19-1.73,2.66-1.73,3.89,0,1.96.81,2.81,1.46,2.81.61,0,1.15-.4,1.67-1.31.92-1.62,1.87-4.41,2.11-7.04-1.4.18-2.65.79-3.51,1.66Z"/><path class="cls-1" d="M267.95,82.76c0,4.5.04,5.24.04,5.33,0,.13-.02.14-.14.14h-.74c-.13,0-.14-.02-.14-.14v-.9h-2.34v1.49c0,.13-.02.14-.14.14h-.76c-.13,0-.14-.02-.14-.14,0-.09.04-.9.04-5.54v-3.55c0-3.29-.04-4.12-.04-4.21,0-.13.02-.14.14-.14.11,0,.41.04,1.44.04h1.24c1.03,0,1.33-.04,1.44-.04.13,0,.14.02.14.14,0,.09-.04.86-.04,3.64v3.74ZM266.96,76.23h-2.34v4.41h2.34v-4.41ZM266.96,81.57h-2.34v4.66h2.34v-4.66ZM278.89,80.75c0,.13-.02.14-.14.14-.11,0-.7-.04-2.48-.04h-5.11c-1.76,0-2.36.04-2.47.04-.13,0-.14-.02-.14-.14v-.74c0-.13.02-.14.14-.14.11,0,.7.04,2.47.04h1.67v-2.39h-1.12c-1.66,0-2.21.04-2.3.04-.14,0-.16-.02-.16-.14v-.72c0-.14.02-.16.16-.16.09,0,.65.04,2.3.04h1.12c0-1.22-.02-1.67-.13-2.3.49.02.79.04,1.17.09.13.02.22.07.22.16s-.05.2-.09.32c-.07.2-.11.61-.11,1.73h1.64c1.66,0,2.2-.04,2.3-.04.13,0,.14.02.14.16v.72c0,.13-.02.14-.14.14-.11,0-.65-.04-2.3-.04h-1.64v2.39h2.38c1.78,0,2.38-.04,2.48-.04.13,0,.14.02.14.14v.74ZM278.68,83.95c0,.13-.02.14-.14.14-.09,0-.65-.04-2.16-.04v2.45c0,.81.02,1.58.02,2.3,0,.52-.11.94-.5,1.21-.31.22-.79.31-2.09.31-.34,0-.36,0-.45-.34s-.2-.58-.36-.81c.54.05,1.1.07,1.69.07.38,0,.63-.16.63-.67v-4.52h-4.07c-1.76,0-2.36.04-2.45.04-.13,0-.14-.02-.14-.14v-.74c0-.13.02-.13.14-.13.09,0,.68.02,2.45.02h4.07v-.04c0-.99-.04-1.48-.13-1.91.47.02.85.07,1.15.13.14.02.23.09.23.14,0,.13-.05.2-.11.31-.07.18-.09.45-.09,1.28v.09c1.49,0,2.07-.02,2.16-.02.13,0,.14,0,.14.13v.74ZM270.74,85.1c.14-.09.18-.11.29-.02.68.65,1.28,1.35,1.78,2.18.07.11.05.16-.09.27l-.49.32c-.18.13-.23.16-.31.04-.52-.9-1.08-1.6-1.73-2.25-.11-.11-.07-.16.11-.27l.43-.27Z"/><path class="cls-1" d="M290.16,77.7c.14-.04.2,0,.22.13.04.22.07.52.09.74.02.18-.02.23-.18.27-1.17.32-2.16.56-3.26.74-1.08,3.65-2.18,6.79-3.46,9.7-.07.16-.14.16-.27.11-.14-.05-.61-.27-.85-.4-.09-.05-.11-.14-.07-.23,1.49-3.17,2.52-5.98,3.37-8.98-1.17.13-2.41.2-3.64.22-.22,0-.25-.02-.29-.18-.04-.25-.09-.63-.14-.99.34.04.65.04,1.13.04.85,0,2.09-.07,3.24-.22.25-.95.4-1.6.52-2.27.09-.5.18-1.1.14-1.69.5.09,1.06.25,1.44.41.09.04.14.11.14.2s-.05.18-.14.29c-.13.16-.2.32-.29.7-.22.74-.38,1.48-.58,2.16.85-.14,1.85-.41,2.86-.74ZM289.26,85.95c.14,0,.18.04.2.18.13,1.62,1.13,2.16,3.4,2.16.92,0,1.93-.13,2.66-.23.14-.02.2-.02.22.13.04.22.07.61.07.86,0,.18-.05.22-.2.23-.56.09-1.49.18-2.36.18-1.94,0-3.15-.25-3.96-.99-.63-.54-.86-1.35-.88-2.43.31-.05.65-.09.85-.09ZM289.71,81.32c0-.16.04-.22.23-.27,1.04-.23,2.09-.38,3.15-.38.74,0,1.53.09,2.23.18.22.04.25.09.27.2.02.18.04.56.02.79-.02.22-.07.27-.23.23-.77-.13-1.55-.2-2.3-.2-1.12,0-2.23.16-3.31.4-.04-.31-.05-.74-.05-.95ZM293.43,75.92c.05-.04.11-.04.18.02.72.5,1.51,1.39,2.03,2.18.05.07.04.14-.04.2l-.52.43c-.09.07-.18.05-.23-.04-.52-.88-1.28-1.73-2.09-2.3l.67-.49ZM294.93,74.75c.07-.05.13-.07.2-.02.72.56,1.53,1.35,2.05,2.11.05.09.04.14-.05.22l-.49.43c-.07.07-.14.07-.22-.04-.45-.74-1.22-1.62-2.07-2.25l.58-.45Z"/><path class="cls-1" d="M33.93,107.76c.18.11.25.2.25.29,0,.07-.04.14-.11.29-.11.22-.18.59-.29,1.06-.38,2.07-.68,4.05-.68,5.94,0,1.49.18,2.68.41,3.51.45-1.06.81-1.87,1.3-2.99.14.41.27.63.41.81.07.09.11.14.11.22,0,.09-.05.2-.16.41-.43.95-.7,1.67-1.01,2.57-.04.14-.07.31-.07.43s.02.23.02.34c0,.07-.04.13-.11.16-.29.13-.49.18-.7.22-.13.02-.22,0-.29-.14-.56-1.13-1.03-3.47-1.03-5.24,0-2,.2-3.67.49-5.51.2-1.39.25-2.05.23-2.84.54.14.94.31,1.22.47ZM41.19,112.1c-.9.07-1.76.13-2.52.13-.45,0-.92,0-1.48-.02-.2,0-.25-.07-.29-.22-.04-.2-.07-.54-.09-.94.63.05,1.37.07,2.02.07.7,0,1.58-.04,2.34-.11-.04-1.33-.05-2.18-.09-2.75-.05-.63-.11-.9-.25-1.24.59.02,1.17.07,1.44.16.14.05.22.11.22.22,0,.05-.04.14-.07.25-.07.18-.09.36-.09.74,0,.7.02,1.6.02,2.5.86-.09,1.69-.25,2.57-.45.14-.04.22-.02.23.11.04.25.05.5.09.79.02.16-.04.22-.16.23-.95.2-1.76.32-2.7.41l.04,2.61c.02,1.84-.18,3.13-.76,4.36-.54,1.19-1.44,2.05-2.48,2.75-.18.13-.27.14-.34.14-.09,0-.16-.04-.29-.16-.16-.16-.43-.29-.79-.41,1.55-.85,2.41-1.73,2.93-3.08.38-.94.58-2.05.54-4.12l-.04-1.98Z"/><path class="cls-1" d="M51.6,107.42c.2.05.29.14.29.27,0,.14-.07.29-.14.47-.07.22-.14.77-.22,1.85-.16,2.72-.27,5.18-.27,7.67,0,2.02.56,2.63,2.12,2.63,2.29,0,4.63-1.39,6.48-3.44.05.41.2.77.31,1.04.04.11.07.18.07.25,0,.11-.05.2-.22.34-1.89,1.82-4.28,3.02-6.86,3.02-2.03,0-3.13-.97-3.13-3.62s.16-5.49.25-8.03c.04-1.12.05-1.89-.14-2.72.54.05,1.1.13,1.46.25Z"/><path class="cls-1" d="M68.5,108.8c.14-.63.18-1.08.16-1.73.56.14.94.27,1.4.49.2.09.25.31.07.47-.14.14-.22.29-.31.59-.27.88-.5,1.73-.77,2.61.58-.07,1.31-.13,1.75-.13,1.57,0,2.34.79,2.34,2.9,0,2.38-.4,4.52-.99,5.81-.45.99-1.17,1.42-2.05,1.42-.74,0-1.39-.13-1.84-.32-.14-.05-.22-.14-.22-.31-.02-.31-.05-.7-.22-1.08.79.34,1.46.5,2.09.5.52,0,.86-.18,1.21-.94.45-1.03.81-2.84.81-5.06,0-1.4-.27-1.91-1.24-1.91-.56,0-1.31.09-1.94.2-1.04,3.11-2.21,5.92-3.67,8.51-.07.13-.18.14-.31.09-.18-.09-.52-.32-.72-.49-.11-.09-.09-.18-.04-.29,1.51-2.54,2.57-5.02,3.46-7.67-.74.11-1.48.23-2.38.4-.32.05-.65.14-.79.23-.2.13-.36.13-.47-.09-.14-.31-.29-.72-.41-1.22.65.02,1.35-.02,1.87-.09.99-.11,1.69-.22,2.54-.34.23-.85.43-1.57.67-2.57ZM75.11,110.28c.11-.04.18-.02.27.07,1.26,1.08,2.3,2.65,2.9,4.36.04.13.05.22-.05.31-.18.16-.52.38-.74.49-.14.09-.27.07-.31-.11-.61-1.84-1.51-3.37-2.88-4.55.25-.2.54-.4.81-.56Z"/><path class="cls-1" d="M83.56,114.58c.14-.14.18-.16.29-.07.61.49,1.22,1.06,1.84,1.69.14-.31.27-.63.38-.95.2-.59.34-1.08.38-1.62.34.11.76.27.99.4.13.07.2.13.2.22s-.11.2-.2.32c-.13.18-.2.41-.32.77-.2.58-.43,1.12-.7,1.66.59.65,1.15,1.31,1.69,1.98.07.11.05.14-.07.27l-.41.43c-.16.18-.22.18-.31.05-.43-.63-.9-1.24-1.4-1.84-.97,1.58-2.34,2.93-4.1,4.05-.14.07-.22.13-.27.13-.07,0-.13-.07-.25-.25-.16-.22-.34-.38-.52-.5,2-1.13,3.49-2.54,4.46-4.19-.63-.67-1.31-1.31-2.05-1.96-.09-.09-.07-.13.04-.23l.36-.34ZM84.28,111.61c-.14.09-.23.25-.36.45-.45.83-.99,1.67-1.89,2.65-.13.13-.2.2-.25.2-.07,0-.13-.07-.25-.2-.18-.2-.36-.34-.59-.41,1.1-.97,1.64-1.84,2.11-2.75.09-.2.22-.52.23-.81.4.14.72.29,1.01.47.13.09.16.13.16.2,0,.09-.05.14-.16.22ZM89.46,109.9c0,.11-.02.13-.14.13-.11,0-.63-.04-2.25-.04h-3.42c-1.62,0-2.14.04-2.23.04-.13,0-.14-.02-.14-.13v-.76c0-.13.02-.14.14-.14.09,0,.61.04,2.23.04h1.31v-.99c0-.92-.04-1.4-.14-1.91.45.02.85.05,1.19.11.14.02.22.07.22.14,0,.13-.05.22-.11.34-.07.2-.11.49-.11,1.31v.99h1.06c1.62,0,2.14-.04,2.25-.04.13,0,.14.02.14.14v.76ZM87.25,110.91c.18-.09.2-.09.27.04.58,1.06,1.31,2.02,2.41,3.04-.27.11-.41.23-.61.45-.11.11-.16.18-.23.18s-.14-.07-.27-.22c-.85-.92-1.6-2-2.18-3.01-.07-.13-.04-.18.13-.25l.49-.23ZM94.38,110.62c1.48,0,1.94-.04,2.05-.04s.14.04.14.16c-.02.56-.04,1.08-.04,1.6-.02,2.72-.16,5.71-.5,7.94-.22,1.35-.85,1.8-1.94,1.8-.49,0-.9-.02-1.31-.05q-.34-.02-.4-.4c-.04-.27-.13-.52-.25-.77.61.11,1.22.16,1.84.16s.86-.2,1.04-1.22c.29-1.94.47-5.11.47-8.23h-2.61c-.13,1.78-.4,3.6-.79,4.95-.7,2.32-1.93,4.1-4.07,5.69-.14.11-.2.16-.25.16-.07,0-.13-.07-.27-.2-.2-.22-.41-.4-.67-.5,2.25-1.35,3.65-3.38,4.28-5.54.36-1.22.59-2.79.74-4.55h-.16c-1.48,0-1.94.04-2.03.04-.13,0-.14-.02-.14-.14v-.74c0-.13.02-.14.14-.14.09,0,.56.04,2.03.04h.22c.04-.7.05-1.42.05-2.16,0-1.12-.02-1.57-.14-2.21.43.02.83.05,1.21.13.14.04.2.09.2.18,0,.11-.05.22-.11.4-.05.2-.11.67-.11,1.62,0,.65-.02,1.35-.05,2.05h1.44Z"/><path class="cls-1" d="M108.33,116.53c1.71,1.85,4.12,3.15,7.11,4.05-.22.2-.38.43-.52.72-.16.32-.2.32-.52.2-2.59-.94-4.9-2.2-6.8-4.59,0,2.77.11,4.95.11,5.38,0,.13-.02.14-.14.14h-.88c-.14,0-.16-.02-.16-.14,0-.43.11-2.57.13-5.33-1.73,2.27-3.82,3.58-6.46,4.63-.34.13-.34.11-.52-.18-.14-.23-.32-.45-.54-.61,2.84-1.03,5.11-2.29,6.75-4.27h-3.98c-1.69,0-2.25.04-2.34.04-.13,0-.14-.02-.14-.16v-.76c0-.13.02-.13.14-.13.09,0,.65.04,2.34.04h4.7v-1.66h-2.18c-1.76,0-2.41.04-2.5.04-.13,0-.14-.02-.14-.14,0-.09.04-.54.04-1.78v-2.93c0-1.24-.04-1.69-.04-1.8,0-.13.02-.14.14-.14.09,0,.74.04,2.5.04h5.69c1.78,0,2.41-.04,2.52-.04.13,0,.14.02.14.14,0,.11-.04.56-.04,1.8v2.93c0,1.24.04,1.69.04,1.78,0,.13-.02.14-.14.14-.11,0-.74-.04-2.52-.04h-2.45v1.66h5.04c1.69,0,2.25-.04,2.34-.04.13,0,.14,0,.14.13v.76c0,.14-.02.16-.14.16-.09,0-.65-.04-2.34-.04h-4.36ZM106.58,108.08h-3.73v1.96h3.73v-1.96ZM106.58,110.95h-3.73v2.03h3.73v-2.03ZM111.66,108.08h-4.01v1.96h4.01v-1.96ZM111.66,110.95h-4.01v2.03h4.01v-2.03Z"/><path class="cls-1" d="M123.06,108.91c.14-.63.18-1.08.16-1.73.56.14.94.27,1.4.49.2.09.25.31.07.47-.14.14-.22.29-.31.59-.27.88-.5,1.73-.77,2.61.58-.07,1.31-.13,1.75-.13,1.57,0,2.34.79,2.34,2.95,0,2.32-.4,4.46-.99,5.76-.45.99-1.17,1.42-2.05,1.42-.74,0-1.39-.13-1.84-.32-.14-.05-.22-.14-.22-.31-.02-.31-.05-.7-.22-1.08.79.34,1.46.5,2.09.5.52,0,.86-.18,1.21-.94.45-1.03.81-2.84.81-5.06,0-1.4-.27-1.91-1.24-1.91-.56,0-1.31.09-1.94.2-1.04,3.11-2.21,5.92-3.67,8.51-.07.13-.18.14-.31.09-.18-.09-.52-.32-.72-.49-.11-.09-.09-.18-.04-.29,1.51-2.54,2.57-5.02,3.46-7.67-.74.11-1.48.23-2.38.4-.32.05-.65.14-.79.23-.2.13-.36.13-.47-.09-.14-.31-.29-.72-.41-1.22.65.02,1.35-.02,1.87-.09.99-.11,1.69-.22,2.54-.34.23-.85.43-1.57.67-2.57ZM129.58,110.39c.11-.04.18-.02.27.07,1.26,1.08,2.3,2.65,2.9,4.36.04.13.05.22-.05.31-.18.16-.52.38-.74.49-.14.09-.27.07-.31-.11-.61-1.84-1.51-3.37-2.88-4.55.25-.2.54-.4.81-.56ZM129.96,107.62c.07-.05.11-.04.18.02.72.5,1.51,1.39,2.03,2.18.05.07.04.14-.04.2l-.52.43c-.09.07-.18.05-.23-.04-.52-.88-1.28-1.73-2.09-2.3l.67-.49ZM131.45,106.45c.07-.05.13-.07.2-.02.72.56,1.53,1.35,2.05,2.11.05.09.04.14-.05.22l-.49.43c-.07.07-.14.07-.22-.04-.45-.74-1.22-1.62-2.07-2.25l.58-.45Z"/><path class="cls-1" d="M143.61,109.63c.16-.04.22,0,.23.11.04.22.07.54.09.77.02.16-.02.2-.16.22-.97.2-1.94.36-3.01.52-1.04,2.83-2.34,5.54-3.62,7.6-.09.14-.18.13-.29.05-.27-.16-.56-.38-.72-.54-.11-.09-.11-.16-.02-.31,1.49-2.25,2.52-4.37,3.38-6.7-.77.07-1.49.13-2.27.13-.27,0-.54,0-.95-.04-.16-.02-.18-.04-.22-.22-.05-.23-.09-.56-.11-.9.58.05,1.04.07,1.42.07.83,0,1.57-.05,2.45-.14.22-.68.38-1.35.54-2.11.11-.52.16-.88.14-1.4.52.09,1.04.22,1.4.36.11.04.16.11.16.2s-.04.16-.14.27c-.09.11-.14.23-.25.56-.2.65-.4,1.31-.58,1.94.81-.11,1.58-.23,2.5-.45ZM144.71,113.99c0-.36-.02-.68-.11-1.15.49.05.85.11,1.22.23.13.04.2.11.2.22,0,.07-.04.16-.11.32-.07.2-.07.49-.07.85,0,1.08.09,2.16.22,3.31,1.31.52,2.32,1.04,3.4,1.8.14.09.13.14.07.29-.09.23-.29.56-.43.79-.09.13-.18.11-.29.02-.81-.72-1.78-1.28-2.74-1.71.02,1.82-.9,2.81-3.22,2.81-1.37,0-2.79-.7-2.79-2.2,0-1.35,1.3-2.27,3.06-2.27.54,0,1.24.09,1.8.22-.11-1.12-.2-2.56-.22-3.53ZM143.18,118.29c-1.44,0-2.09.56-2.09,1.22,0,.83.67,1.21,1.85,1.21,1.48,0,2.02-.77,2.02-1.69,0-.23,0-.34-.02-.43-.56-.18-1.19-.31-1.76-.31ZM146.24,110.23c.09-.14.14-.16.31-.11,1.21.38,2.5.95,3.53,1.69.13.11.13.18.04.32-.11.23-.27.52-.41.72-.09.13-.14.11-.25.04-1.04-.79-2.38-1.44-3.67-1.84.18-.31.32-.61.47-.83Z"/><path class="cls-1" d="M155.24,109.2c.11.05.16.13.16.2,0,.09-.04.2-.07.32-.07.22-.14.72-.14,1.66,0,1.15.02,2.25.25,4.09.27,2.12,1.04,3.67,1.91,3.67.72,0,1.4-1.15,1.93-2.83.2.47.36.68.59.9.14.13.2.27.14.45-.5,1.46-1.48,2.83-2.68,2.83-1.51,0-2.65-2.09-3.04-4.91-.25-1.8-.32-3.83-.32-5.02,0-.68-.02-1.12-.14-1.73.5.05,1.08.22,1.42.38ZM163.83,110.58c.11-.05.2-.07.27,0,1.84,1.6,3.06,3.82,3.51,6.23.02.13-.04.18-.13.23-.27.18-.52.31-.83.41-.13.04-.22-.02-.23-.14-.5-2.75-1.64-4.66-3.38-6.25.34-.23.61-.4.79-.49Z"/><path class="cls-1" d="M173.09,114.28c0,.67-.54,1.19-1.17,1.19-.67,0-1.19-.52-1.19-1.19,0-.63.52-1.17,1.19-1.17.63,0,1.17.54,1.17,1.17ZM179.08,114.28c0,.67-.54,1.19-1.17,1.19-.67,0-1.19-.52-1.19-1.19,0-.63.52-1.17,1.19-1.17.63,0,1.17.54,1.17,1.17ZM185.07,114.28c0,.67-.54,1.19-1.17,1.19s-1.19-.52-1.19-1.19c0-.63.54-1.17,1.19-1.17s1.17.54,1.17,1.17Z"/><path class="cls-1" d="M192.08,120.18c0,1.39-1.15,2.5-2.54,2.5s-2.54-1.12-2.54-2.5,1.15-2.5,2.54-2.5,2.54,1.12,2.54,2.5ZM187.94,120.18c0,.88.72,1.6,1.6,1.6s1.6-.72,1.6-1.6-.7-1.6-1.6-1.6-1.6.72-1.6,1.6Z"/><path class="cls-2" d="M51.22,19.22s.14-.14.22-.14c.11,0,.14.11.14.14,0,.07-.36.43-.36.43-2.56,2.66-8.96,7.56-14.25,7.56-3.42,0-7.34-2.95-7.34-6.55C29.62,11.41,44.74,0,52.37,0c2.59,0,3.71,2.3,3.71,3.74,0,2.59-5.15,6.95-6.26,6.95-.86,0-1.73-.58-1.73-.79,0-.14.11-.18.22-.22,2.45-.43,7.2-3.63,7.2-6.48,0-.76-.79-1.55-2.12-1.55-7.13,0-21.67,11.23-21.67,20.37,0,2.88,2.02,4.32,5.11,4.32,5.94,0,10.8-3.56,14.4-7.13Z"/><path class="cls-2" d="M59.41,23.4c-1.15,0-2.16-.79-2.16-2.16,0-.68.11-1.3.11-1.3-1.8,1.76-4.32,4.36-5.15,4.36s-2.09-.97-2.09-2.09c0-2.88,4.9-7.85,7.99-7.85,1.4,0,2.77,1.26,2.77,2.05,0,.58-.18.94-.29.94s-.32-.22-.32-.36.18-.25.18-.68c0-.25-.4-.58-.65-.58-3.38,0-8.06,5.04-8.06,7.52,0,.29.14.47.47.47.68,0,3.28-2.48,5-4.21,1.08-1.08,1.87-1.8,2.2-1.8s1.3.94,1.3,1.51c0,.43-1.58,1.62-1.58,2.74,0,.47.36.68.79.68,1.76,0,5.18-3.42,5.18-3.42.07-.07.14-.14.22-.14.11,0,.14.11.14.14,0,.07-.25.32-.36.43,0,0-3.67,3.74-5.69,3.74Z"/><path class="cls-2" d="M65.97,24.41c-1.73,0-2.92-2.23-2.92-3.17,0-.25.14-.5.5-.5.79,0,1.98.32,3.82.4.11-.36.18-.76.18-1.26,0-.9-.14-1.48-.32-1.98-.83.94-1.22,1.33-1.69,1.76-.07.07-.14.11-.18.11-.07,0-.14-.07-.14-.14,0-.11.14-.22.32-.4,0,0,.68-.58,1.55-1.66-.18-.47-.36-.86-.36-1.48,0-1.37,1.84-2.84,2.48-2.84.5,0,1.3.83,1.3,1.3,0,.54-2.34,1.48-2.34,2.81,0,1.55.97,2.02,1.12,3.67,1.26-.18,2.52-.72,3.6-1.8,0,0,.14-.14.22-.14s.14.11.14.14c0,.07-.25.32-.36.43-1.04,1.04-2.3,1.55-3.56,1.73,0,1.48-1.62,3.02-3.35,3.02ZM67.26,21.49c-1.73-.11-2.81-.36-3.35-.36-.18,0-.25.07-.25.22,0,.4.4,1.48,1.55,1.48.83,0,1.62-.4,2.05-1.33Z"/><path class="cls-2" d="M81.58,19.08c.11,0,.14.11.14.14,0,.07-.25.32-.36.43,0,0-3.56,3.89-6.33,3.89-1.84,0-2.81-1.15-2.81-3.02,0-3.24,3.24-6.62,4.82-6.62.97,0,1.58,1.22,1.58,1.66,0,1.01-2.2,2.92-4.18,4.14-.07.22-.11.86-.11,1.12,0,1.12.54,2.05,1.58,2.05,1.91,0,5.43-3.64,5.43-3.64,0,0,.14-.14.22-.14ZM77.87,15.59c0-.29-.11-.4-.29-.4-.61,0-2.02,1.4-3.1,4.03,1.62-1.08,3.38-2.81,3.38-3.64Z"/><path class="cls-2" d="M84.06,22.35c0,.65-1.01,1.37-1.26,1.37-.22,0-.47-.11-.76-.11-.22,0-.4.25-.58.25-.14,0-.29-.18-.29-.65,0-.43.18-1.01.58-1.48.32-.4.07-.76.07-.9s.11-.22.25-.22c.58,0,1.98,1.01,1.98,1.73Z"/><path class="cls-2" d="M99.32,4.86c1.15.4,2.34,1.73,2.34,3.31,0,5.87-6.66,15.51-11.23,15.51-2.38,0-5.08-2.12-5.08-5.18,0-6.08,7.52-14.79,12.06-14.79.83,0,1.44.4,1.91,1.15ZM98.13,6.01c-3.38.5-10.76,7.52-10.76,13.79,0,1.69.9,2.84,2.16,2.84,5.33,0,10.73-8.93,10.73-15.15,0-1.12-.54-1.84-1.15-2.3,0,0-.25.72-.97.83Z"/><path class="cls-2" d="M101.92,10.8c1.73,0,5.87-3.46,5.87-3.46,0,0,2.23-3.35,2.92-3.35s1.4,1.19,1.4,1.66-3.67,3.6-5.97,8.71-2.63,8.32-2.63,8.78c0,.54.18.79.18.94s-.07.18-.18.18c-.4,0-1.94-1.19-1.94-1.87,0-2.66,5.51-13.57,5.51-13.57,0,0-1.01.83-1.69,1.62-.9,1.04-1.58,1.69-2.48,1.69s-1.76-1.12-1.76-1.37c0-.11.07-.22.18-.22.14,0,.29.25.61.25Z"/></g></svg>