<?xml version="1.0" encoding="UTF-8"?><svg id="_レイヤー_2" xmlns="http://www.w3.org/2000/svg" viewBox="0 0 91.83 29.62"><defs><style>.cls-1{fill:#000;stroke-width:0px;}</style></defs><g id="_レイヤー_1-2"><path class="cls-1" d="M16.34,10.69c.11,0,.18.14.18.43,0,6.16-7.34,11.73-10.87,11.73-2.88,0-5.65-1.26-5.65-4.61C0,10.44,13.5,0,23.29,0c3.28,0,5.76,2.23,5.76,5.94,0,5.87-5.47,12.63-11.2,17.42,2.92.47,4.28,1.76,4.86,2.95.04.07.07.18.07.25s-.04.11-.11.11c-.11,0-.9-.14-.94-.25-.32-1.08-1.73-2.3-4.32-2.74-4.32,3.56-8.78,5.94-11.05,5.94-1.37,0-2.81-.9-2.81-2.02,0-2.63,5.76-4.46,11.59-4.46.29,0,.58,0,.86.04,5.65-5.18,11.16-12.78,11.16-19.22,0-1.62-1.22-3.49-3.92-3.49C13.86.47,2.2,11.48,2.2,19.15c0,1.94,1.12,3.2,2.77,3.2,3.82,0,9.79-5.11,11.19-11.45.04-.14.07-.22.18-.22ZM5.87,29.19c2.16,0,5.94-2.27,9.75-5.65-6.01,0-10.55,2.84-10.55,5.04,0,.36.22.61.79.61Z"/><path class="cls-1" d="M29.58,16.63c0,.97-3.78,5.08-3.78,6.8,0,.18.14.36.32.36,1.33,0,6.41-6.55,7.63-6.55.5,0,1.15.94,1.15,1.51,0,.61-1.22,2.23-1.22,3.17,0,.25.14.4.47.4,1.69,0,4.97-3.1,4.97-3.1,0,0,.14-.14.25-.14.07,0,.14.11.14.14,0,.07-.29.32-.4.43,0,0-3.42,3.31-5.58,3.31-.79,0-1.69-.47-1.69-1.69,0-.9.36-1.51.36-2.02,0-.04-.04-.11-.14-.11-.58,0-4.82,5.36-6.01,5.36-.72,0-2.02-.79-2.02-2.12,0-2.45,3.82-6.08,3.82-7.52,0-.18.07-.25.29-.25.54,0,1.44,1.04,1.44,2.02Z"/><path class="cls-1" d="M47.95,19.08c.11,0,.14.11.14.14,0,.07-.25.32-.36.43,0,0-3.56,3.89-6.33,3.89-1.84,0-2.81-1.15-2.81-3.02,0-3.24,3.24-6.62,4.82-6.62.97,0,1.58,1.22,1.58,1.66,0,1.01-2.2,2.92-4.18,4.14-.07.22-.11.86-.11,1.12,0,1.12.54,2.05,1.58,2.05,1.91,0,5.43-3.64,5.43-3.64,0,0,.14-.14.22-.14ZM44.24,15.59c0-.29-.11-.4-.29-.4-.61,0-2.02,1.4-3.1,4.03,1.62-1.08,3.38-2.81,3.38-3.64Z"/><path class="cls-1" d="M48.59,24.41c-1.73,0-2.92-2.23-2.92-3.17,0-.25.14-.5.5-.5.79,0,1.98.32,3.82.4.11-.36.18-.76.18-1.26,0-.9-.14-1.48-.32-1.98-.83.94-1.22,1.33-1.69,1.76-.07.07-.14.11-.18.11-.07,0-.14-.07-.14-.14,0-.11.14-.22.32-.4,0,0,.68-.58,1.55-1.66-.18-.47-.36-.86-.36-1.48,0-1.37,1.84-2.84,2.48-2.84.5,0,1.3.83,1.3,1.3,0,.54-2.34,1.48-2.34,2.81,0,1.55.97,2.02,1.12,3.67,1.26-.18,2.52-.72,3.6-1.8,0,0,.14-.14.22-.14s.14.11.14.14c0,.07-.25.32-.36.43-1.04,1.04-2.3,1.55-3.56,1.73,0,1.48-1.62,3.02-3.35,3.02ZM49.88,21.49c-1.73-.11-2.81-.36-3.35-.36-.18,0-.25.07-.25.22,0,.4.4,1.48,1.55,1.48.83,0,1.62-.4,2.05-1.33Z"/><path class="cls-1" d="M63.37,9.86c1.87,0,3.92.43,3.92.5,0,.11-.07.22-.14.22-.11,0-1.44-.25-3.28-.25-1.22,0-1.83.18-1.83.18-2.63,3.78-6.77,9.79-6.77,13.93,0,1.58.61,2.23,1.73,2.23.14,0,.32.22.32.32,0,.14-.22.18-.36.18-.94,0-2.63-1.15-2.63-3.56,0-3.49,2.81-8.5,5.11-12.56-1.33.22-2.02.61-2.09.61-.29,0-.76-.61-.76-.83,0-.07,0-.14.18-.22.58-.25,1.76-.47,3.24-.61,1.33-2.34,2.38-4.25,2.38-5.15,0-.18.07-.25.18-.25.5,0,1.66,1.44,1.66,2.48,0,.32-.68,1.33-1.73,2.77h.86Z"/><path class="cls-1" d="M65.12,15.73c0,.65-4.1,5.29-4.1,6.84,0,.43.25.61.58.61,2.05,0,6.23-3.96,6.23-3.96,0,0,.14-.14.25-.14.07,0,.14.11.14.14,0,.07-.29.32-.4.43,0,0-4.39,4.21-6.73,4.21-.58,0-1.73-.83-1.73-1.98,0-1.58,3.13-5.58,3.82-7.27.11-.22.25-.36.43-.36.72,0,1.51.83,1.51,1.48ZM68.69,9.47c0,.25-.47,1.01-.76,1.15-.22.11-.68.25-1.01.36-.68.22-.9.61-1.04.61-.11,0-.22-.07-.22-.22,0-.86,1.37-2.66,1.37-3.53,0-.11.07-.14.14-.14.58,0,1.51,1.26,1.51,1.76Z"/><path class="cls-1" d="M72.16,22.32c-1.04.83-2.02,1.3-2.48,1.3-.86,0-2.41-.86-2.41-2.52,0-.72.14-1.37.4-1.98,0-.07-.04-.14-.04-.25,0-3.06,3.31-5.25,5.22-5.25,1.62,0,2.81,1.04,2.81,2.56,0,2.38-1.55,4.43-3.1,5.79,2.16-.14,4.03-1.62,5.15-2.74,0,0,.11-.14.22-.14s.18.11.18.14c0,.07-.29.32-.4.43-1.08.97-2.77,2.56-5.54,2.66ZM71.91,14.9c.43,0,1.15,1.01,1.15,1.37,0,.22-.25.36-.47.47-1.33.79-3.17,2.38-3.96,3.96.61.79,1.69,1.26,2.99,1.33,1.51-1.33,2.99-3.64,2.99-5.98,0-1.19-.68-1.94-2.09-1.94s-3.96,1.66-4.39,4.03c.58-.94,1.37-1.66,2.12-2.3.58-.5,1.19-.94,1.66-.94ZM68.31,21.99c0,.65.4,1.19,1.01,1.19.54,0,1.26-.32,1.98-.86-1.19-.11-2.2-.5-2.84-1.19-.11.29-.14.58-.14.86Z"/><path class="cls-1" d="M81.83,16.27c0,.65-.97,2.02-1.76,3.38,1.33-1.04,5.18-3.6,6.55-3.6.58,0,1.01,1.04,1.01,1.51,0,.4-2.74,3.09-2.74,5,0,.32.22.47.5.47,2.2,0,6.05-3.82,6.05-3.82,0,0,.14-.14.22-.14.11,0,.18.11.18.14,0,.07-.4.43-.4.43,0,0-4.14,4.1-6.05,4.1-.9,0-2.05-1.12-2.05-2.3,0-1.58,1.69-3.85,1.69-4.1,0-.04-.04-.07-.11-.07-.4,0-3.17,1.37-5.15,3.2-2.3,2.12-2.59,3.89-2.92,3.89-.36,0-.97-.9-.97-1.66s3.67-5.11,4.18-7.88c0-.29.18-.32.36-.32.36,0,1.4.83,1.4,1.76Z"/></g></svg>