<?xml version="1.0" encoding="UTF-8"?><svg id="_レイヤー_2" xmlns="http://www.w3.org/2000/svg" viewBox="0 0 100 100"><defs><style>.cls-1{fill:#f2f2f2;}.cls-1,.cls-2{stroke-width:0px;}.cls-2{fill:#1d1e1e;}</style></defs><g id="_レイヤー_1-2"><circle class="cls-1" cx="50" cy="50" r="50"/><path class="cls-2" d="M47.59,34.05c2.01.21,3.81-1.26,4.02-3.27.21-2.01-1.26-3.81-3.27-4.02-2.01-.21-3.81,1.26-4.02,3.27-.21,2.01,1.26,3.81,3.27,4.02Z"/><path class="cls-2" d="M42.22,39.25l-.94,12.87h0l-.25,2.19-.25,2.01-2.64.74-4.05,1.13c-1.01.25-1.62,1.27-1.37,2.28.25,1,1.28,1.61,2.29,1.35l4.1-.93,2.05-.47.51-.12.92-.22,1.98-.47.46-3.05.27-1.66.44-2.71,2.69,1.31,2.01.98,1.62.78.31.36.65.77,1.29,1.54,2.58,3.09c.73.92,2.06,1.07,2.96.35.91-.72,1.05-2.05.32-2.97l-2.43-3.21-1.22-1.6-.61-.8-.32-.42-.59-.76-.93-.49-.49-.27-.98-.54-1.96-1.08-1.85-1.02,1.24-7.53.1.06,1.46.91,1.1.7.91.58c.28.18.64.16.89-.05l1.65-1.34,1.11-.92,2.22-1.85c.68-.54.8-1.52.26-2.2-.54-.68-1.52-.79-2.2-.25l-2.31,1.74-1.29.96-1.85-1.25-2.67-1.85c-.64-.57-1.6-.92-2.87-1.05-1.09-.11-3.65.29-4.56.39l-5.52.72c-.41.05-.75.33-.88.72l-1.86,5.53c-.12.89.29,1.51,1.16,1.72.91.22,1.71-.38,2.04-1.28l1.31-3.28,3.98-.15Z"/><path class="cls-2" d="M71.77,68.77H28.32c-.82,0-1.48-.66-1.48-1.48s.66-1.48,1.48-1.48h41.54l-6.3-24.14c-.21-.79.27-1.59,1.06-1.8.79-.21,1.6.27,1.8,1.06l6.78,25.99c.12.44.02.91-.26,1.27-.28.36-.71.57-1.17.57Z"/><path class="cls-2" d="M66.01,42.78h-4.19c-.82,0-1.48-.66-1.48-1.48s.66-1.48,1.48-1.48h2.14l2.4-6.37c.29-.76,1.14-1.15,1.9-.86.76.29,1.15,1.14.86,1.9l-3.12,8.28Z"/><rect class="cls-2" x="23.96" y="62.88" width="52.08" height="10.38" rx="3.85" ry="3.85"/></g></svg>