<?xml version="1.0" encoding="UTF-8"?><svg id="_レイヤー_2" xmlns="http://www.w3.org/2000/svg" viewBox="0 0 100 100"><defs><style>.cls-1{fill:#000;}.cls-1,.cls-2{stroke-width:0px;}.cls-2{fill:#f2f2f2;}</style></defs><g id="_レイヤー_1-2"><circle class="cls-2" cx="50" cy="50" r="50"/><path class="cls-1" d="M38.32,56.92c0-.09-.04-.16-.04-.25v-.74c0-.35.06-.7.17-1.02,0,0,1.83-2.45,2.7-5.34-.95-2-1.81-4.5-1.81-6.97,0-.57.04-1.13.1-1.68-1.24-1.3-2.91-2.03-4.76-2.03-3.81,0-6.91,3.11-6.91,7.95,0,3.87,3.15,8.07,3.15,8.07.11.33.17.67.17,1.02v.74c0,.92-.54,1.75-1.37,2.14l-5,2.04c-1.16.54-1.99,1.6-2.22,2.86l-.09,1.1c-.04.57.15,1.14.54,1.56.39.42.94.66,1.51.66h8.17l.34-4.31.02-.12c.41-2.26,1.9-4.18,3.99-5.14l1.33-.54Z"/><path class="cls-1" d="M77.49,63.7c-.23-1.26-1.06-2.32-2.22-2.86l-5-2.04c-.84-.38-1.37-1.22-1.37-2.14v-.74c0-.35.06-.7.17-1.02,0,0,3.15-4.2,3.15-8.07,0-4.84-3.09-7.95-6.91-7.95-1.84,0-3.52.73-4.76,2.03.06.55.1,1.1.1,1.67,0,2.47-.86,4.96-1.81,6.97.87,2.88,2.7,5.34,2.7,5.34.11.33.17.67.17,1.02v.74c0,.09-.03.16-.04.25l1.24.51c2.17.99,3.66,2.91,4.08,5.17l.02.12.33,4.31h8.17c.57,0,1.12-.24,1.51-.66.39-.42.59-.98.54-1.56l-.09-1.1Z"/><path class="cls-1" d="M62.05,59.55l-6.05-2.47c-1.01-.46-1.66-1.48-1.66-2.58v-.89c0-.42.07-.84.21-1.24,0,0,3.81-5.08,3.81-9.76,0-5.85-3.74-9.62-8.36-9.62s-8.36,3.76-8.36,9.62c0,4.68,3.81,9.76,3.81,9.76.14.4.21.82.21,1.24v.89c0,1.11-.65,2.12-1.66,2.58l-6.05,2.47c-1.41.64-2.41,1.94-2.68,3.46l-.31,4.01h30.1l-.31-4.01c-.28-1.52-1.28-2.82-2.69-3.46Z"/></g></svg>