<?xml version="1.0" encoding="UTF-8"?><svg id="_レイヤー_2" xmlns="http://www.w3.org/2000/svg" viewBox="0 0 100 100"><defs><style>.cls-1{fill:#f2f2f2;}.cls-1,.cls-2{stroke-width:0px;}.cls-2{fill:#1d1e1e;}</style></defs><g id="_レイヤー_1-2"><circle class="cls-1" cx="50" cy="50" r="50"/><circle class="cls-2" cx="65.33" cy="38.79" r="2.79"/><path class="cls-2" d="M65.98,30.97c-.1-.76-1.2-.76-1.31,0l-1.17,8.5h3.64l-1.17-8.5Z"/><path class="cls-2" d="M39.91,32.37c2.48,0,4.49-2.01,4.49-4.49s-2.01-4.49-4.49-4.49-4.49,2.01-4.49,4.49,2.01,4.49,4.49,4.49Z"/><path class="cls-2" d="M39.91,54.78l.8,18.28c.03,1.26,1.06,2.26,2.31,2.23,1.25-.02,2.24-1.06,2.21-2.32l.07-18.3h0s0,0,0,0l-.09-14.75,4.24,12.15c.56,1.35,1.56,1.72,2.44,1.47.9-.25,1.28-1.3,1.03-2.58l-3.22-11.6c-.62-2.08-.81-2.82-3.07-4-1.22-.63-3.51-1.34-6.72-1.34s-5.5.7-6.72,1.34c-2.26,1.18-2.46,1.92-3.07,4l-3.22,11.6c-.26,1.28.13,2.33,1.03,2.58.88.25,1.88-.12,2.44-1.47l4.24-12.15-.09,14.75h0s.07,18.3.07,18.3c-.03,1.26.97,2.3,2.21,2.32,1.25.02,2.28-.97,2.31-2.23l.8-18.28h0Z"/><path class="cls-2" d="M65.33,50.87c-6.66,0-12.08-5.42-12.08-12.08s5.42-12.08,12.08-12.08,12.08,5.42,12.08,12.08-5.42,12.08-12.08,12.08ZM65.33,29.73c-5,0-9.06,4.07-9.06,9.06s4.07,9.06,9.06,9.06,9.06-4.07,9.06-9.06-4.07-9.06-9.06-9.06Z"/><rect class="cls-2" x="63.82" y="49.36" width="3.02" height="25.94"/><rect class="cls-2" x="22.59" y="73.79" width="53.31" height="3.02"/><path class="cls-2" d="M26.63,30.77h-2.23v-2.23c0-.55-.45-1-1-1s-1,.45-1,1v2.23h-2.23c-.55,0-1,.45-1,1s.45,1,1,1h2.23v2.23c0,.55.45,1,1,1s1-.45,1-1v-2.23h2.23c.55,0,1-.45,1-1s-.45-1-1-1Z"/><path class="cls-2" d="M58.5,64.14h-2.23v-2.23c0-.55-.45-1-1-1s-1,.45-1,1v2.23h-2.23c-.55,0-1,.45-1,1s.45,1,1,1h2.23v2.23c0,.55.45,1,1,1s1-.45,1-1v-2.23h2.23c.55,0,1-.45,1-1s-.45-1-1-1Z"/><path class="cls-2" d="M58.5,20.64h-2.23v-2.23c0-.55-.45-1-1-1s-1,.45-1,1v2.23h-2.23c-.55,0-1,.45-1,1s.45,1,1,1h2.23v2.23c0,.55.45,1,1,1s1-.45,1-1v-2.23h2.23c.55,0,1-.45,1-1s-.45-1-1-1Z"/></g></svg>